<svg xmlns="http://www.w3.org/2000/svg" width="425" height="324" viewBox="0 0 425 324" fill="none"><path d="M0 324H381.469L424.47 162L381.469 0H0L43 162L0 324Z" fill="#1900A8"/><path d="M134.516 248.7C123.249 248.7 112.716 246.567 102.916 242.3C93.1823 237.967 84.649 231.933 77.3156 224.2C69.9823 216.4 64.249 207.3 60.1156 196.9C56.049 186.5 54.0156 175.167 54.0156 162.9C54.0156 151.167 55.9823 140.133 59.9156 129.8C63.849 119.467 69.4823 110.4 76.8156 102.6C84.149 94.7333 92.949 88.6 103.216 84.2C113.482 79.7333 124.916 77.5 137.516 77.5C144.249 77.5 151.216 78.2 158.416 79.6C165.616 81 172.649 83.1333 179.516 86C186.382 88.8 192.649 92.3333 198.316 96.6L180.416 126.5C174.816 121.833 168.116 118.233 160.316 115.7C152.516 113.167 145.116 111.9 138.116 111.9C131.249 111.9 125.182 113.1 119.916 115.5C114.649 117.9 110.216 121.3 106.616 125.7C103.016 130.033 100.282 135.233 98.4156 141.3C96.6156 147.3 95.7156 153.933 95.7156 161.2C95.7156 169.2 96.749 176.4 98.8156 182.8C100.882 189.2 103.749 194.667 107.416 199.2C111.149 203.733 115.516 207.2 120.516 209.6C125.516 212 130.882 213.2 136.616 213.2C141.282 213.2 145.682 212.467 149.816 211C154.016 209.467 157.716 207.367 160.916 204.7C164.182 201.967 166.716 198.833 168.516 195.3C170.382 191.7 171.316 187.867 171.316 183.8V182.6H134.416V152.8H210.616V181.6C210.616 191 208.549 199.8 204.416 208C200.349 216.133 194.749 223.267 187.616 229.4C180.549 235.467 172.449 240.2 163.316 243.6C154.182 247 144.582 248.7 134.516 248.7ZM229.953 245.5V80.5H268.453V146.9L324.153 80.5H371.153L304.053 159L381.553 245.5H328.453L268.453 177.6V245.5H229.953Z" fill="white"/><path d="M212 16.5L218.735 37.2295H240.532L222.898 50.041L229.634 70.7705L212 57.959L194.366 70.7705L201.102 50.041L183.468 37.2295H205.265L212 16.5Z" fill="#FFC800"/></svg>