<svg xmlns="http://www.w3.org/2000/svg" width="3000" height="3000" viewBox="0 0 3000 3000">
  <defs>
    <style>
      .cls-1 {
        fill: #fff;
      }

      .cls-2 {
        fill-rule: evenodd;
      }
    </style>
  </defs>
  <rect id="Color_Fill_1" data-name="Color Fill 1" class="cls-1" width="3000" height="3000"/>
  <path id="Color_Fill_7" data-name="Color Fill 7" class="cls-2" d="M3000,2358v18c-15.91.16-36.21,1.21-51-2-10.65-2.31-24.6,1.04-34-1h-18c-15.58,0-35.47,1.16-50-2q-31.995-.495-64-1c-8.62-1.91-19.67.24-29-2-20.34-4.89-45.77-5.36-66-12-45.82-15.03-78.64-41.16-116-64-15.56-9.52-36.81-15.14-55-21-16.78-5.41-35.86-3.36-54-8-8.21-2.1-18.27-4-27-6q-12-1.005-24-2c-29.67-7.39-64.24-11.68-94-20-23.68-6.62-45.41-9.67-64-21-33.25-20.27-57.78-52.93-74-90-13.52-30.89-24.79-74.34-61-82v15c2.29,3.71.99,13.47,1,19q0.495,19.005,1,38c1.41,15.36-.11,35.46,3,50v31c4.31,19.23,4.3,30.38,0,49-13.25,7.66-46.08,21.05-59,3-7.78-10.86-3.36-29.51-7-45-2.99-12.72-2.08-32.55-5-46-2.1-9.69.81-22.56-1-31v-35c-3.94-17.05-4.98-37.38-5-59-3.02-.74-3.53-1.46-7-2-5.45,7.75-19.19,13.87-32,14-2.05-3.24-2.99-4.03-3-10,6.32-3.83,23.11-10.6,27-16l6-18c1.6-1.8,6.72-2.03,8-4v-18c2.74-4.38,1-16.63,1-23v-60c5.25-34.88-1.18-73.69-8-103v-26c-4.03-17.75-2.85-42.9-3-65h-1c-8.86,12.66-27.29,18.09-40,27-26.35,18.47-52.75,36.86-80,55-20.78,13.83-42.3,27.45-63,42-9.64,6.77-18.55,16.01-30,21-12.07,5.26-25.09,6.28-38,11-25.13,9.19-52.73,18.33-79,27-17.43,5.75-33.75,8.24-51,14-64.5,21.53-131.16,43.03-192,68-12.01,4.93-23.82,6.47-36,11-21.12,7.85-42.66,15.68-63,24-11.74,4.8-22.89,5.96-35,10-21.6,7.21-44.18,14.17-65,23-59.21,25.11-122.82,41.63-184,65-15.11,5.77-31.59,9.52-47,16-4.61,1.94-10.25,7.01-17,4-9.91-4.42-22.778-39.74-28-52-20.437-47.97-37.338-96.63-56-147-9.108-24.58-20.108-49.09-30-73-8.093-19.57-12.87-38.39-21-58-19.369-46.73-37.938-95.7-57-142-5.623-13.66-7.323-27.24-13-41-7.555-18.32-14.03-37.67-22-57-6.539-15.86-13.569-33.36-20-49q-5.5-18.495-11-37c-13.956-33.92-30.266-66.75-31-114-20.328-13.19-26.178-37.18-38-59-5.624-10.38-13.162-19.67-14-35,12.273-8.03,18.252-24.23,30-33,25.972-19.38,49.336-40.67,75-60,9.2-6.93,16.8-17.07,26-24,23.377-17.61,45.514-36.3,69-54,8.618-6.5,15.3-16.5,24-23,67.041-50.14,129.58-104.085,197-154,12.55-9.29,23.55-21.685,36-31,23.33-17.447,45.53-35.483,69-53,8.73-6.517,23.09-27.549,31-31,7.39-3.226,12.97,3.119,22,1,12.21-2.864,25.48-6,38-9l31-3c24.33-5.591,53.31-5.31,79-11,7.63-1.689,17.75.656,24,1a74.51,74.51,0,0,0,20-2c11.66-2.573,26.57.159,36-2l44-1c20.64-4.629,39.41-10.16,59-15,8.35-2.063,24.17-.508,31,1l49-1c20.75-4.579,42.53-4.264,64-9,10.8-2.382,22.39.118,32-2,14.48-3.192,30.95.245,45-3,9.15-2.113,20.18-2.817,30-5h11c6.06-1.506,13.94-4.5,20-6l24,1c2.14-.591,5.15-3.392,7-4,8.19-2.7,16.13,1.448,23,3,29.49,47.152,62.33,92.054,92,139,7.5,11.861,11.62,24.915,19,37,12.78,20.935,26.09,42.994,39,64,6.89,11.205,11.13,22.787,18,34,37.81,61.66,76.83,122.74,115,184,14.06,22.57,24.1,47.26,38,70,12.96,21.22,22.35,44.76,33,69,11.15,25.37,27.1,48.45,38,75,3.87,9.42,5.63,19.73,8,30q0.495,6.495,1,13c6.13,16.35,27.87,12.11,28,35-0.68.77-1.31,2.23-2,3-6.43,6.29-16.19,9.09-24,14-15.04,9.47-30.27,19.67-45,30-40.42,28.34-77.93,61.21-118,90-13.86,9.95-27.28,20.44-41,30-4.45,3.1-14.74,5.07-17,10v16c4.73,6.79-1.09,19.99,3,28,4.6,9.01,16.49,14.04,20,24,5.14,14.6-7.79,38.81-11,51-2.28,8.67.05,16.54-2,26-4.4,20.29-2.3,46.07-7,67-2.6,11.58.05,29.05,2,38q0.495,11.505,1,23a297.985,297.985,0,0,1,8,67c8.1,3.82,15.92,10.06,16,22a60.768,60.768,0,0,0-6,10c42.62,9.82,56.96,53.24,73,90,14.15,32.43,34.93,62.26,64,80,27.65,16.87,64.9,20.36,101,29q18,1.995,36,4c12.8,3,27.35,2.59,41,6,17.85,4.46,36.78,7.74,54,12q14.505,1.995,29,4c19.09,5.78,41.77,12.1,58,22,30.15,18.4,56.85,41.66,91,56,25.22,10.6,58.77,12.73,87,19h17a170.237,170.237,0,0,0,27,3h19c15.83,3.44,36.55,3.78,54,4h27c10.96,2.38,26.83-1.76,39,1C2959.21,2357.68,2979.22,2357.91,3000,2358ZM1703,762c1.7,9.446,10.39,19.5,15,27,7.9,12.86,12.96,26.451,20,40,5.01,9.646,11.76,18.092,9,33-3.86,2.153-12.56,1.769-16,4-3.84,2.49-4.48,8.828-10,10-4.69.994-9.96-4.681-16-2-3.76,1.671-5.17,7.709-10,9l-14-1c-0.67,1-1.33,2-2,3-4.98,4.569-6.8,5.951-17,6-3.2-3.146-8.32-4.341-11-8-4.72-6.433-6.74-14.049-11-21-12.31-20.089-24.3-42.341-35-64-5.04-10.2-5.99-16.922-12-26-30.29,5.948-71.38,5.1-103,12l-28,1c-22.24,4.915-47.98,4.883-71,10h-16a176.525,176.525,0,0,1-37,4c0.74,12.461,7.19,18.86,8,32-3.55,2.253-4.88,3.773-11,4-6.3-11.4-12.11-23.627-19-34a76.115,76.115,0,0,1-14,1c0.84,4.57,3.48,5.557,5,9,8.98,20.3,24.36,40.776,25,67h-1v1c-3.48.314-6.88,2.017-10,0-4.21-2.719-6.58-12.365-9-17-6.55-12.541-14.75-25.343-21-38-3.08-6.228-2.48-15.268-9-18-1.87-1.7-23.71-.826-26,3,10.3,7.817,13.47,26.449,19,39,11.5,26.108,25.07,50.945,37,78,29.81,67.6,68.92,129.26,98,198q10.005,30,20,60c3.26,11.49,2.45,23.28,7,34,3.5,8.26,13.03,12.19,18,19,6.24,8.54,9.23,18.9,15,28,8.55,13.48,20.06,25.24,28,40,9.79,18.19,15.62,37.93,24,57,18.92,43.05,38.74,86.25,58,130,21.01,47.72,46.81,94.14,73,137a106.642,106.642,0,0,1,10,23q1.005,6.495,2,13c1.62,3.19,6.15,5.15,8,8,2.38,3.67,3.27,9.39,5,13,10.35-2.94,22.13-9.88,32-14,24.92-10.4,50.01-18.1,74-28,20.29-8.37,40.79-11.9,62-19,34.92-11.7,71.4-23.53,104-37,18.45-7.62,38.37-11.78,56-19,4.22-1.73,20.06-3.29,22-6v-26c-5.4-7.93-1.02-26.61-1-37,0.02-12.17-4.53-23.61-1-34,3.76-11.05,27.43-21.92,40-25,8.23-2.02,15.05,1.65,20,3,7.89,13.83,7.93,68.89,8,91,17-1.69,40.88-12.66,57-18,31.88-10.55,62.05-17.35,94-28,26.03-8.67,51.52-17.66,80-24v-1c-14.48-9.12-19.14-20.91-24-40-2.02-7.95-1.15-14.25-4-21-10.14-23.97-24.98-45.73-38-67q-7.995-17.505-16-35c-36.84-60.57-69.11-127.49-106-188-6.23-10.22-8.76-21.78-15-32-36.7-60.14-77.5-117.64-115-177-24.78-39.227-47.74-80.011-72-119-5.89-9.469-10.47-19.884-16-29-3.47-5.712-2.21-12.407-10-14-6.01,4.392-14.19-.6-23,1-2.12.384-5.22,2.525-7,3l-32-1c-19.34,4.384-44.71,4.622-64,9l-23,1A266.541,266.541,0,0,1,1703,762Zm-92,9c2.05,11.492,15.17,27.762,21,37,11.26,17.841,18.48,39.806,30,57,12.16-6.248,9.38-6.425,27-6,2.27-3.955,5.05-6.826,8-10,8.82-.172,13.51,1.5,20,3,2.49-3.428,6.57-4.443,9-8-5.83-4.947-6.35-15.882-10-23-9.58-18.681-19.48-39.683-31-57A412.6,412.6,0,0,1,1611,771Zm-377,46c-4.8,6.556-14.28,8.307-21,13-11.67,8.143-21.37,19.28-33,28-7.66,5.741-13.3,15.26-21,21-32.66,24.346-62.13,50.906-95,75-15.7,11.513-27.48,28.4-43,40-54.338,40.62-102.689,86.29-157,127q-4.5,4.995-9,10c-10.923,8.26-21.072,17.9-32,26-33.519,24.86-64.161,52.42-98,77-8.287,6.02-15.958,10.89-23,18-1.684,1.7-7.042,4.89-5,7,4.144,8.58,11.031,16.96,15,26,4.913,11.19,7.109,24.55,14,34,5.608,7.69,18.448,10.27,22,20l3,36c5.125,19.61,10.307,41.36,18,60,9.555,23.15,18.259,49.24,28,73,6.363,15.52,8.671,30.68,15,46,44.907,108.68,83,226.38,129,335,20.618,48.69,34.68,102.96,55,151,6.68,15.79,14.06,46.97,30,52,2.38-3.02,6.34-4.28,9-7-5.77-4.65-6.41-13.07-10-20-7.99-15.4-20.42-28.42-21-51,3.96-2.56,5.31-4.7,12-5,5.05,8,11.94,15.68,16,25,6.2,14.25,9.62,29.42,16,43,6.04-2.5,12.83-4.56,15-11-8.18-5.82-16.05-22.45-17-35,3.67-2.38,4.44-3.88,11-4,6.47,10.58,13.26,21.13,19,33,19.17-7.34,32.81-19.89,49-30,29.42-18.36,60.2-34.82,89-53,35.41-22.36,70.69-42.71,106-65,63.5-40.1,126.49-82.82,190-123q53.31-33.735,106-67c9.92-6.26,38.22-16.83,42-27,0.49-.38-4.45-8.51-6-11-7.08-11.34-11.24-23.49-17-37-13.34-31.28-28.31-61-42-92-5.01-11.34-12.98-22.67-18-34-5.24-11.83-9.08-22.59-15-34-9.3-17.95-17.77-38.13-27-56-2.21-4.27-2.54-8.95-5-13a658.553,658.553,0,0,1-38-73c-8.38-18.95-18.07-36.02-26-54-2.15-4.87-2.3-9.64-5-14-13.27-21.47-37.69-33.38-48-58q-3.495-21-7-42c-10.74-32.43-20.16-70.35-37-98-9.9-16.25-16.86-35.35-27-52-23.93-39.286-43.42-81.463-63-126-7.56-17.186-16.12-34.063-24-52-4.6-10.47-12.06-19.653-15-32h-4Zm836,1191c8.69,1.02,14.52,3.84,25,4v-2c3.25-5.28.05-17.77-1-24-2.37-14.1-1.75-32.96-5-48v-15c-6.23-28.83-5.23-65.04,1-93,3.37-15.15-1.64-30.78,2-45,2.42-9.44,3.05-21.34,6-32,1.97-7.13,5.31-13.58,6-22-20.06-13.39-13.06-38.66-19-65v-20c-2.19-9.81-1.66-24.14-4-35v-26c-8.39-38.54-3.39-83.48-12-125h-2c-1.29-.88-2.47-0.89-5-1-5.22,6.02-16.94,4.7-20,13-4.53,5.95-1.56,22.86,0,30q1.5,27.495,3,55c1.55,6.72,5.9,19.62,4,28-1.56,6.91-6.73,14.7-12,18-7.68,4.82-13.81-1.11-14,12,3.84,4.31,4.22,11.58,7,17,7.73,15.06,17.11,31.29,22,49v16c1.64,7.16,1.21,20.06,3,28v18C2072.47,1818.01,2069.95,1914.66,2070,2008Zm-11-474c4.04,0.78,5.7,1.31,7,5,5.86,7.63.74,20.16,3,30,2.67,11.63,1.1,29.82,4,43v25c2.91,13.43,4.95,29.04,2,43-2.45.85-6.18,1.04-10,1-1.22-2.28-1.64-2.25-2-6-4.13-6.71.04-17.94-2-27-1.51-6.72-2.39-16.53-4-24v-29a215.969,215.969,0,0,1-4-58A11.362,11.362,0,0,0,2059,1534Zm-366,445c19.53-.25,30.27,11.93,44,18,16.63,7.35,32.5,12.73,49,20,11.73,5.17,22.92,13.2,34,19,7.41,3.88,40.69,15.29,33,28-6.46,10.67-26.29,12.3-39,17-33.31,12.31-67.75,22.31-100,36-64.29,27.29-129.34,54.5-190,86-17.38,9.03-34.24,15.99-54,24-5.01,2.03-14.17,7.7-22,6-15.64-3.39-25.52-12.74-37-20-20.3-12.84-41.17-24.48-61-37-19.58-12.36-39.32-23.53-58-36-11.84-7.9-23.04-10.9-23-31,4.66-3.01,6.55-8.64,12-11,7.66-3.32,16.57-2.42,25-5,15.32-4.69,33.19-9.18,49-14q12-2.505,24-5c27.88-9.11,59.06-14.34,88-24,42.3-14.12,85.41-29.55,127-45,21.55-8.01,45.81-14.02,68-20C1672.62,1982.14,1686.22,1985.41,1693,1979Zm1,14c-6.35,5.46-20.27,2.78-27,8h1v1c15.25,7.89,34.53,14.07,52,3-1.02-.8-0.27-0.35-2-1C1712.64,1999.11,1702.46,1994.16,1694,1993Zm-45,12c-3.93,3.2-10.93,2.87-16,5-16.04,6.75-34.55,11-51,18-40.95,17.42-85.18,33.56-129,48q-6,1.005-12,2c-16,5.21-34.52,9.86-50,15-21.26,7.06-44.84,10.44-65,17-9.99,3.25-20,3.18-28,7v1h1c7.04,6.88,17.5,10.63,26,16,15.12,9.55,29.54,21.55,45,31,10.58,6.47,25.07,9.04,32,19,13.11-6.66,23.58-16.39,39-21,28.42-8.5,60.02,5.91,69,24,12.21-2.53,20.54-11.39,31-16,25.49-11.24,49.8-23.08,75-34,43.68-18.93,90.6-33.22,134-51,8.4-3.44,16.28-3.82,25-7,17.63-6.43,35.67-13.73,51-23-7.69-6.62-29.45-13.37-40-18-17.01-7.46-32.38-20.43-51-25-10.9,17-47.77,17.01-67,7C1660.68,2016.19,1657.42,2007.57,1649,2005Zm422,33c-0.2,20.09-.64,41.86,3,58v20c0,13.53.6,26.36,3,37v22c3.54,15.56,3.6,37.41,7,52q10.005,0.495,20,1c0.1-20.76-.04-42.6-4-61q-1.5-64.995-3-130Q2084,2037.5,2071,2038Zm-531,11c5.26,0.26,7.51,2.14,11,3,6.18,1.52,11.12-1.93,18-2a29.179,29.179,0,0,0,4,6c-1.17,3.47-3.19,4.31-5,7,7.36,2.5,10.8,10.7,19,13h31c6.56,1.82,10.81,5.83,15,10,4.9,4.88,7.14,5.38,7,16-5.89,7.98-.96,10.82,0,19-10.55,5.76-8.98-1.66-17-1-2.07.17-6.24,3.3-8,4-8.43,3.36-19.34,3.2-28,1-1.49-3.15-2.6-4.41-3-9,5.82-2.55,14.32-6.16,18-11-4.86-2.69-10.15-8.07-15-10q-13.005.495-26,1c-11.96-3.02-27.88-8.08-28-23,2.04-2.57,5.89-8.22,5-13-0.26-1.43-2.87-4.58-2-7C1536.35,2052.03,1539.23,2050.23,1540,2049Zm73,46c1.52,1.95,2.17,2.22,5,3v-2A15.607,15.607,0,0,0,1613,2095Zm179,2c42.84-.59,63.47,15.48,63,57-7.28,7.84-9.91,13.37-21,18-19.83,8.28-71.16,9.55-83-6-4.45-5.84-2.9-9.86-5-19-1.06-4.63-3.84-13.82-2-21,3.54-13.86,16.85-21.82,30-26C1779.55,2098.24,1787.43,2099.81,1792,2097Zm-3,21c-3.78,3.3-13.66,4.79-19,6a24.963,24.963,0,0,1-4,5c0.63,1.75.19,0.97,1,2,11.57,9.85,53.98,8.37,59-6h1v-1h-1C1818.86,2117.53,1802.37,2117.9,1789,2118Zm49,26c-1.64,2.51-3.23,3.6-6,5v1h2c1.87-1.51,4.98-2.84,7-4v-1C1840,2144.67,1839,2144.33,1838,2144Zm-78,7v2c12.32,7.38,44.28,12.92,58,2C1798.07,2156.68,1775.98,2157.58,1760,2151Zm-313,31c-3.38,2.03-8.78.56-13,2q-7.995,4.005-16,8c0.33,0.67.67,1.33,1,2,9.07,4.73,16.7,12.91,27,16,12.31,3.69,38.39-9.85,47-15v-1c-4.77-1.65-8.36-6.05-13-8C1470.95,2182.2,1459.28,2182.09,1447,2182Zm215,7c56.82-.95,83.07,6.86,83,64a63.23,63.23,0,0,1-2,16c-7.31,4.97-13.38,10.9-23,14-35,11.28-98.09.53-109-24v-26c1.23-1.98.21-4.93,1-8,2.11-8.23,6-18.51,12-23a57.712,57.712,0,0,1,18-9C1649.54,2191.02,1656.84,2192.91,1662,2189Zm5,21c-10.94,7.83-29.82-1.16-32,16,16.86,10.03,44.78,15.53,68,8,8.66-2.81,14.54-2.28,19-9-3.06-2.37-4.83-6.88-8-9C1703.56,2209.02,1683.83,2209.96,1667,2210Zm62,47v-8q-19.995,5.505-40,11c-25.09,5.81-45.58-8.07-62-12v6c13.33,6.38,40.56,18.33,64,13C1704.02,2264.04,1715.31,2258.73,1729,2257Z"/>
</svg>
