<?xml version="1.0" encoding="utf-8"?>
<!-- Generator: Adobe Illustrator 24.3.0, SVG Export Plug-In . SVG Version: 6.00 Build 0)  -->
<svg version="1.1" id="Layer_1" xmlns="http://www.w3.org/2000/svg" xmlns:xlink="http://www.w3.org/1999/xlink" x="0px" y="0px"
	 viewBox="0 0 576 418.09" style="enable-background:new 0 0 576 418.09;" xml:space="preserve">
<style type="text/css">
	.st0{fill:#EFEFEF;}
	.st1{fill:#4C4C4C;}
	.st2{fill:#DADADA;}
	.st3{fill:#0A0C0F;}
	.st4{fill:#E01928;}
	.st5{fill:#020102;}
	.st6{fill:#020202;}
	.st7{fill:#292827;}
	.st8{fill:#282828;}
	.st9{fill:#831F23;}
	.st10{fill:#A90D22;}
	.st11{fill:#010101;}
	.st12{fill:#A30C24;}
	.st13{fill:#A80E23;}
	.st14{fill:#A70E23;}
	.st15{fill:#080402;}
	.st16{fill:#A10C23;}
	.st17{fill:#A70F23;}
	.st18{fill:#0E0403;}
	.st19{fill:#360709;}
	.st20{fill:#404140;}
	.st21{fill:#7A7A7A;}
	.st22{fill:#E12829;}
	.st23{fill:#919E94;}
	.st24{fill:#565F57;}
	.st25{fill:#F0EDE0;}
	.st26{fill:#EFEFE2;}
	.st27{fill:#F3F2E9;}
	.st28{fill:#F4F3EA;}
	.st29{fill:#F5EBE1;}
	.st30{fill:#9C574E;}
	.st31{fill:#F2EDE2;}
	.st32{fill:#ED2826;}
	.st33{fill:#838D90;}
	.st34{fill:#7C0D0D;}
	.st35{fill:#848E90;}
	.st36{fill:#E1DBCC;}
	.st37{fill:#66151F;}
	.st38{fill:#A02B32;}
	.st39{fill:#F0F1E5;}
	.st40{fill:#E9E8E0;}
	.st41{fill:#788282;}
	.st42{fill:#838C8F;}
	.st43{fill:#F4F4EA;}
	.st44{fill:#F3F1E9;}
	.st45{fill:#F1EEE5;}
	.st46{fill:#F5F3EE;}
	.st47{fill:#F2EEE5;}
	.st48{fill:#F4F3EB;}
	.st49{fill:#F5F4ED;}
	.st50{fill:#F1F1E7;}
	.st51{fill:#EEF1EB;}
	.st52{fill:#E8ECE4;}
	.st53{fill:#23272C;}
	.st54{fill:#F2F4EC;}
	.st55{fill:#E2E7DF;}
	.st56{fill:#EDF0E9;}
	.st57{fill:#F5F4EC;}
	.st58{fill:#F2ECE3;}
	.st59{fill:#D3ABA9;}
	.st60{fill:#DBBDB9;}
	.st61{fill:#75131E;}
	.st62{fill:#F1EAE3;}
	.st63{fill:#F3F1E8;}
	.st64{fill:#F2F3E7;}
	.st65{fill:#E7EAE2;}
	.st66{fill:#E3E8E1;}
	.st67{fill:#E8D4CE;}
	.st68{fill:#601317;}
	.st69{fill:#5D6060;}
	.st70{fill:#641718;}
	.st71{fill:#0E0E0D;}
	.st72{fill:#4F4A4A;}
	.st73{fill:#8B9894;}
	.st74{fill:#494A4A;}
	.st75{fill:#841A1D;}
	.st76{fill:#71191C;}
	.st77{fill:#AF2126;}
	.st78{fill:#F6F5E9;}
	.st79{fill:#F6F6EA;}
	.st80{fill:#F7F6E9;}
	.st81{fill:#381312;}
	.st82{fill:#D2D6CF;}
	.st83{fill:#A0B0AD;}
	.st84{fill:#761A1B;}
	.st85{fill:#74181A;}
	.st86{fill:#464846;}
	.st87{fill:#EAE2D7;}
	.st88{fill:#EFF0E1;}
	.st89{fill:#F3F0E0;}
	.st90{fill:#F2EFE1;}
	.st91{fill:#F3EFE1;}
	.st92{fill:#F0EBDA;}
	.st93{fill:#F4F1E4;}
	.st94{fill:#F0E8D8;}
	.st95{fill:#F5F3E2;}
	.st96{fill:#F3F0DE;}
	.st97{fill:#F3EDDA;}
	.st98{fill:#F2EAD7;}
	.st99{fill:#F3ECDA;}
	.st100{fill:#F1ECD9;}
	.st101{fill:#F1EAD7;}
	.st102{fill:#F0E4D1;}
	.st103{fill:#DAC3B8;}
	.st104{fill:#D4D6CB;}
	.st105{fill:#F5F4E6;}
	.st106{fill:#F6F4E7;}
	.st107{fill:#F1ECDB;}
	.st108{fill:#F2F2E3;}
	.st109{fill:#F5F3E6;}
	.st110{fill:#F4E9DA;}
	.st111{fill:#F3E8DA;}
	.st112{fill:#5F1417;}
	.st113{fill:#F3EBDA;}
	.st114{fill:#F1E9D6;}
	.st115{fill:#010102;}
	.st116{fill:#030101;}
	.st117{fill:#020101;}
	.st118{fill:#010202;}
	.st119{fill:#020203;}
	.st120{fill:#030203;}
	.st121{fill:#040303;}
	.st122{fill:#901923;}
	.st123{fill:#922C33;}
	.st124{fill:#645A58;}
	.st125{fill:#454444;}
	.st126{fill:#9A1522;}
	.st127{fill:#F4F2E9;}
	.st128{fill:#9D1424;}
	.st129{fill:#424142;}
	.st130{fill:#030202;}
	.st131{fill:#020103;}
	.st132{fill:#020303;}
	.st133{fill:#020302;}
	.st134{fill:#2B2F31;}
	.st135{fill:#717371;}
	.st136{fill:#D1D0CD;}
	.st137{fill:#717372;}
	.st138{fill:#9C2324;}
	.st139{fill:#CB3E3C;}
	.st140{fill:#2B2F30;}
	.st141{fill:#AE2B2C;}
	.st142{fill:#9C2426;}
	.st143{fill:#BCBDBA;}
	.st144{fill:#C83C3B;}
	.st145{fill:#982324;}
	.st146{fill:#9B2324;}
	.st147{fill:#727372;}
	.st148{fill:#727472;}
	.st149{fill:#CA3D3C;}
	.st150{fill:#747675;}
	.st151{fill:#747674;}
	.st152{fill:#2A2E2F;}
	.st153{fill:#2E3334;}
	.st154{fill:#747573;}
	.st155{fill:#D1CAC5;}
	.st156{fill:#CDC3C0;}
	.st157{fill:#2A2E30;}
	.st158{fill:#707271;}
	.st159{fill:#727473;}
	.st160{fill:#232323;}
	.st161{fill:#311A17;}
	.st162{fill:#DE3D3B;}
	.st163{fill:#6A6B6A;}
	.st164{fill:#6B6B6A;}
	.st165{fill:#6B6B6B;}
	.st166{fill:#6C6C6C;}
	.st167{fill:#696969;}
	.st168{fill:#6A696A;}
	.st169{fill:#FFFFFF;}
	.st170{fill:#6B6C6B;}
	.st171{fill:#FFFFFE;}
	.st172{fill:#D8D8D8;}
	.st173{fill:#9B9A99;}
	.st174{fill:#6C6D6D;}
	.st175{fill:#696967;}
	.st176{fill:#6A6A6A;}
	.st177{fill:#D8D8D7;}
	.st178{fill:#D8D7D5;}
	.st179{fill:#D8D9D6;}
	.st180{fill:#9A9B9C;}
	.st181{fill:#D9DAD9;}
	.st182{fill:#D7D7D5;}
	.st183{fill:#D9D9D7;}
	.st184{fill:#6C6C6D;}
	.st185{fill:#6D6D6D;}
	.st186{fill:#D9DBDA;}
	.st187{fill:#626564;}
	.st188{fill:#D8D8D6;}
	.st189{fill:#69696A;}
	.st190{fill:#F5F7F1;}
	.st191{fill:#1F2020;}
	.st192{fill:#F24966;}
	.st193{fill:#202121;}
	.st194{fill:#202120;}
	.st195{fill:#575858;}
	.st196{fill:#575757;}
	.st197{fill:#333334;}
	.st198{fill:#343435;}
	.st199{fill:#868787;}
	.st200{fill:#050202;}
	.st201{fill:#050303;}
	.st202{fill:#050302;}
	.st203{fill:#050203;}
	.st204{fill:#070404;}
	.st205{fill:#060303;}
	.st206{fill:#5A5B5A;}
	.st207{fill:#030304;}
	.st208{fill:#050404;}
	.st209{fill:#141617;}
	.st210{fill:#9E9FA2;}
	.st211{fill:#9D9FA1;}
	.st212{fill:#141616;}
	.st213{fill:#A0A1A3;}
	.st214{fill:#51555A;}
	.st215{fill:#9D9DA0;}
	.st216{fill:#52565B;}
	.st217{fill:#51342F;}
	.st218{fill:#3B3C41;}
	.st219{fill:#3B3C40;}
	.st220{fill:#393B40;}
	.st221{fill:#3B3B3F;}
	.st222{fill:#131616;}
	.st223{fill:#626469;}
	.st224{fill:#636569;}
	.st225{fill:#606368;}
	.st226{fill:#5E6167;}
	.st227{fill:#3F4044;}
	.st228{fill:#5F6166;}
	.st229{fill:#131516;}
	.st230{fill:#151717;}
	.st231{fill:#3C3D41;}
	.st232{fill:#393A3E;}
	.st233{fill:#3D3E41;}
	.st234{fill:#5D5F64;}
	.st235{fill:#5E6064;}
	.st236{fill:#3D3E42;}
	.st237{fill:#404043;}
	.st238{fill:#363739;}
	.st239{fill:#39383C;}
	.st240{fill:#5B5C60;}
	.st241{fill:#3A373A;}
	.st242{fill:#331C1A;}
	.st243{fill:#F4F4F1;}
	.st244{fill:#55585C;}
	.st245{fill:#5C5C60;}
	.st246{fill:#5C5B5F;}
	.st247{fill:#22201F;}
	.st248{fill:#3A3B3F;}
	.st249{fill:#626468;}
	.st250{fill:#5E6066;}
	.st251{fill:#282A2C;}
	.st252{fill:#3C3D42;}
	.st253{fill:#616369;}
	.st254{fill:#151616;}
	.st255{fill:#3B3D41;}
	.st256{fill:#3B3D40;}
	.st257{fill:#151718;}
	.st258{fill:#161818;}
	.st259{fill:#161717;}
	.st260{fill:#636368;}
	.st261{fill:#656064;}
	.st262{fill:#3C393B;}
	.st263{fill:#848589;}
	.st264{fill:#F1F1F0;}
	.st265{fill:#4F5250;}
	.st266{fill:#570E0C;}
	.st267{fill:#5A0C0B;}
	.st268{fill:#731A20;}
	.st269{fill:#4D4A4A;}
	.st270{fill:#590E0C;}
	.st271{fill:#563F3B;}
	.st272{fill:#0C1016;}
	.st273{fill:#0C0F17;}
	.st274{fill:#9B1328;}
	.st275{fill:#4F5351;}
	.st276{fill:#B9B8B8;}
	.st277{fill:#BAB9B9;}
	.st278{fill:#0F0F10;}
	.st279{fill:#AD3333;}
	.st280{fill:#131313;}
	.st281{fill:#AD3232;}
	.st282{fill:#666666;}
	.st283{fill:#7D2222;}
	.st284{fill:#646564;}
	.st285{fill:#A9AAA9;}
	.st286{fill:#656565;}
	.st287{fill:#101011;}
	.st288{fill:#0F1011;}
	.st289{fill:#7C201E;}
	.st290{fill:#7F2422;}
	.st291{fill:#111112;}
	.st292{fill:#101010;}
	.st293{fill:#111111;}
	.st294{fill:#4F4F4F;}
	.st295{fill:#812423;}
	.st296{fill:#262526;}
	.st297{fill:#A83131;}
	.st298{fill:#AB3231;}
	.st299{fill:#4C4C4D;}
	.st300{fill:#210A0A;}
	.st301{fill:#B1BCBB;}
	.st302{fill:#0E0F10;}
	.st303{fill:#0E0E0F;}
	.st304{fill:#7F2120;}
	.st305{fill:#646464;}
	.st306{fill:#802220;}
	.st307{fill:#666565;}
	.st308{fill:#101111;}
	.st309{fill:#121212;}
	.st310{fill:#832020;}
	.st311{fill:#782120;}
	.st312{fill:#802222;}
	.st313{fill:#11100F;}
	.st314{fill:#100F0F;}
	.st315{fill:#241111;}
	.st316{fill:#AB3233;}
	.st317{fill:#AA3232;}
	.st318{fill:#7D201F;}
	.st319{fill:#262627;}
	.st320{fill:#C6CDCC;}
	.st321{fill:#252626;}
	.st322{fill:#29292A;}
	.st323{fill:#1F1F20;}
	.st324{fill:#B0B3AF;}
	.st325{fill:none;stroke:#656565;stroke-width:7;stroke-miterlimit:10;}
</style>
<rect class="st0" width="576" height="418.09"/>
<g>
	<path class="st3" d="M384.38,309.89c-2.88-2.66-5.77-5.3-8.65-7.97c-2.42-2.25-4.81-4.52-7.22-6.77c-0.36-0.34-0.7-0.73-1.29-0.62
		c-0.33,0.42-0.05,0.81,0.07,1.21c1.11,3.82,2.23,7.64,3.3,11.47c0.18,0.65,0.92,1.54-0.44,1.96c-0.44,0.14-0.06,0.52,0.07,0.74
		c0.86,1.44,1.75,2.87,2.61,4.31c0.75,1.25,0.75,1.28-0.36,2.28c-2.96,2.67-5.98,5.27-8.88,8.01c-1.09,1.03-2.18,1.47-3.65,1.35
		c-1.42-0.12-2.87,0-4.3-0.06c-0.55-0.02-1.43,0.39-1.57-0.49c-0.13-0.8-0.41-1.75,0.39-2.45c0.52-0.45,0.98-0.98,1.56-1.33
		c2.59-1.55,4.14-3.85,5.07-6.67c0.39-1.17,0.99-2.27,1.27-3.49c-0.34-0.47-1.04,0.04-1.31-0.52c-2.18-5.26-4.51-10.46-6.5-15.8
		c-0.31-0.84-0.7-1.44-1.67-1.45c-0.43-0.03-0.86-0.09-1.29-0.1c-0.85-0.01-1.4-0.42-1.69-1.19c-0.32-0.86,0.25-1.24,0.88-1.58
		c0.09-0.05,0.13-0.2,0.24-0.39c-0.74-0.63-1.62-0.23-2.41-0.28c-0.71-0.04-1.26-0.21-1.34-0.96c-0.09-0.77-0.71-1.75,0.63-2.11
		c0.32-0.3,0.88,0.06,1.15-0.41l-0.01,0.01c0.36-0.28,0.77-0.36,1.22-0.36c0.34,0,0.56-0.14,0.6-0.53c0.15-1.3-1.46-3.34-2.75-3.43
		c-0.44-0.03-0.86-0.07-1.23-0.34c-0.18-0.04-0.36-0.11-0.54-0.12c-0.94-0.02-1.73-0.35-1.99-1.3c-0.28-1.02-0.05-1.93,0.95-2.5
		c2.27-0.58,2.32-0.6,1.36-2.97c-1.11-2.75-1.42-5.6-1.57-8.55c-0.33-6.19-0.5-12.39-0.99-18.58c-0.22-2.69,0.53-5.38-0.05-8.07
		c-0.02-0.25-0.37,0.14-0.17-0.01c0.05-0.04,0.1,0.01,0.11,0.14c0.23,2.24,0.79,4.52-0.72,6.57c-4.39,5.72-8.74,11.48-13.2,17.15
		c-1.72,2.19-2.93,4.59-3.96,7.14c-4.28,10.6-8.59,21.19-12.88,31.78c-0.37,0.92-0.5,2.16-1.18,2.69c-1.48,1.15-1.03,2.55-1.01,3.94
		c0.02,1.24,0.02,2.49,0.07,3.73c0.03,0.69-0.17,1-0.93,1.01c-1.06,0.01-2.11,0.18-3.16,0.23c-6.65,0.3-13.31,0.59-19.96,0.88
		c-0.31,0.01-0.61,0-0.93,0c-0.12-0.67,0.29-1.12,0.41-1.64c0.26-1.11,0.88-1.76,1.98-2.21c4.02-1.67,7.91-3.61,11.79-5.58
		c0.44-0.22,0.87-0.48,1.32-0.69c0.52-0.25,0.47-0.51,0.4-1.09c-0.13-1.15,0.32-2.31,0.7-3.43c0.42-0.42-0.03-1.07,0.38-1.5l0,0.01
		c2.53-9.04,5.33-18,8.14-26.96c1.01-3.21,1.88-6.46,2.91-9.66c0.59-1.85,1.29-3.65,2.24-5.33c6.08-10.66,11.96-21.44,17.86-32.19
		c0.8-1.45,1.84-2.08,3.52-1.61c2.28,0.63,4.61,1.1,6.73,1.93c-2.62-1.15-5.34-2.3-7.95-3.68c-2-1.06-2.23-1.55-1.35-3.53
		c3.95-8.86,7.37-17.95,11.33-26.42c-1.35,3.16-3.13,6.51-5.05,9.78c-0.33,0.55-0.51,1.33-1.42,1.27c-2.33,0.69-4.42,1.94-6.6,2.95
		c-3.83,1.77-7.55,3.8-11.46,5.36c-1.89,0.75-3.06,1.85-3.87,3.57c-0.7,1.48-2.01,2.53-2.88,3.88c-0.16,0.24-0.34,0.55-0.73,0.3
		c-0.34-0.22-0.58-0.48-0.44-0.91c0.25-0.75,0.51-1.5,0.82-2.4c-1.58,0.33-2.49,0.98-2.62,2.54c-0.09,1.04-0.43,2.06-0.61,3.1
		c-0.18,1.01-1.3,2.23-2.26,2.42c-0.38,0.07-0.59-0.14-0.7-0.45c-0.24-0.64-0.46-1.29-0.67-1.94c-0.1-0.33-0.24-0.56-0.64-0.49
		c-0.8-1.41-0.2-4.44,1.23-6.09c1.48-1.7,3.14-3.17,5.26-4.07c1.67-0.71,3.26-1.54,4.13-3.3c0.3-0.61,0.98-0.95,1.56-1.31
		c5.59-3.5,10.95-7.35,16.45-10.96c3.06-2.01,4.05-5.41,5.85-8.26c0.62-0.99-0.66-0.72-0.98-1.11c-5.74,1.1-11.35,2.66-16.89,4.5
		c-4.88,1.63-9.75,3.3-14.63,4.95c-0.35,0.12-0.72,0.17-1.09,0.25c-0.35-0.95-0.39-1,0.65-1.72c1.95-1.34,3.91-2.65,6-3.78
		c1.84-0.99,3.92-1.67,5.22-3.48c1.49-1.09,3.31-1.41,4.98-2.06c9.1-3.55,18.17-7.19,27.28-10.7c0.58-0.22,1.17-0.43,1.77-0.58
		c2.95-0.86,4.85-3.15,7.17-5.13c-7.15,1.03-14.01,2.8-21,3.86c-12.47,1.9-24.5,5.48-36.45,9.41c-0.85,0.28-1.9,0.98-2.62,0.2
		c-0.64-0.69,0.19-1.62,0.36-2.45c0.67-3.2,2.76-4.6,5.86-5.35c6.77-1.62,13.47-3.57,20.35-4.76c0.86-0.15,1.71-0.33,2.59-0.27
		c2.32,0.12,1.14,1.54,0.88,2.57c0.62,0.46,1.12,0.03,1.6-0.12c2.78-0.84,5.45-1.98,8.22-2.86c0.86-0.27,1.54-0.75,1.98-1.55
		c1.93-0.84,3.96-1.38,5.93-2.1c2.03,0.05,3.88-0.74,5.77-1.33c2.14-0.66,4.31-1.2,6.44-1.89c0.98-0.32,1.95-0.77,2.18-1.84
		c0.58-2.8,2.84-3.65,5.19-4.68c-3.48,1.48-7.04,1.25-10.54,1.39c-0.62,0.03-1.24,0.02-1.82,0.31c-5.9,2.15-11.66,4.68-17.49,7
		c-1.1,0.44-2.17,0.94-3.29,1.31c-0.65,0.22-1.48,0.8-1.98-0.13c-0.5-0.92-0.24-1.82,0.58-2.51c0.58-0.49,1.32-0.69,2.02-0.94
		c4.45-1.58,9.05-2.74,13.44-4.5c1.02-0.05,1.88-0.52,2.74-1.02c2.89-1.65,5.77-3.33,8.05-4.82c-0.71,0.38-2.13,0.55-3.39,1.17
		c-7.7,2.85-15.51,5.36-23.16,8.32c-5.51,2.13-11.01,4.28-16.54,6.36c-0.92,0.35-1.82,0.84-2.86,0.66
		c-0.19-1.43-0.92-1.59-2.22-1.16c-2.53,0.83-5.07,1.67-7.6,2.51c-3.35,1.11-5.2,3.53-5.47,7.11c-0.01,0.19-0.03,0.37-0.11,0.54
		c-0.76,0.79-1.77,1.12-2.75,1.5c-3.58,1.4-7.09,2.95-10.66,4.37c-8.45,3.45-16.84,7.04-25.35,10.35c-0.64,0.25-1.28,0.48-1.96,0.57
		c-0.61,0.08-1.23,0.09-1.85,0.18c-1.69,0.25-2.08-0.29-1.42-1.84c0.15-0.34,0.37-0.65,0.52-1.19c-1.82,0.16-3.39,0.87-5,1.35
		c-3.76,1.12-7.38,2.65-11.13,3.8c-1.05,0.32-1.71,0.95-1.95,2.04c-0.25,1.13-0.64,2.24-0.79,3.63c6.17-1.62,11.88-3.9,17.79-5.53
		c9.94-3.35,19.98-6.41,29.92-9.78c0.59-0.2,1.19-0.35,1.75-0.63c1.44-0.59,2.92-1.07,4.41-1.52c2.13-0.65,2.64-0.16,2.18,2
		c-0.05,0.23-0.19,0.46,0.03,0.81c2.93-0.65,5.76-1.76,8.66-2.61c6.2-1.82,12.41-3.64,18.55-5.68c2-0.66,3.67-0.12,5.34,0.78
		c1.38,0.74,1.39,1.46,0,2.24c-2.01,1.13-4.16,1.96-6.24,2.94c-4.38,2.07-8.82,4.03-13.12,6.27c-2.36,0.65-4.47,1.89-6.65,2.93
		c-7.47,3.57-14.96,7.09-22.51,10.48c-3.67,1.65-4.8,3.2-6.28,8.25c0.59,0.32,1.06-0.1,1.51-0.32c8.38-4.12,16.9-7.93,25.28-12.04
		c1.02-0.5,2.02-1.32,3.31-0.74c-0.81,2.28-1.64,4.56-2.43,6.85c-0.21,0.62-0.7,0.81-1.21,1.05c-3.2,1.51-6.4,3.03-9.59,4.57
		c-0.66,0.32-1.42,0.5-1.89,1.14c-1.03,1.05-2.47,1.4-3.67,2.16c-5.53,2.4-10.8,5.34-16.28,7.86c-6.53,3.06-12.88,6.49-19.45,9.45
		c-1.85,0.84-1.8,2.65-2.46,4.55c7.77-4.04,15.05-8.26,22.49-12.19c5.34-1.82,10.7-3.57,16.1-5.18c1.29-0.68,2.56-1.41,4.06-1.51
		c4.08-2.23,8.15-4.47,12.24-6.69c2.12-1.15,4.26-2.28,6.39-3.42c0.49-0.48,1.02-0.89,1.65-1.18c3.09-1.46,6.24-2.82,9.27-4.42
		c0.33-0.17,0.68-0.32,1.04-0.42c1.5-0.44,1.72-0.25,1.71,1.5c-0.95,1.08-2.23,1.76-3.39,2.55c-9.66,6.63-19.15,13.5-28.94,19.94
		c-0.31,0.21-0.63,0.4-0.77,0.77c-1.59,1.92-3.91,2.83-5.87,4.23c-3.13,2.25-6.28,4.5-9.57,6.48c-2.63,1.58-3.54,3.79-3.77,6.92
		c2.03-0.98,3.91-1.86,5.7-2.89c3.88-2.24,8.03-3.96,11.96-6.1c0.63-0.34,1.3-0.36,1.97-0.43c5.34-2.62,10.68-5.23,16.22-7.95
		c-0.22,1.81-0.62,3.15-2.22,4.1c-4.32,2.57-8.56,5.28-12.82,7.95c-0.57,0.36-1.24,0.6-1.61,1.23c-0.18,0.25-0.29,0.61-0.56,0.74
		c-2.47,1.19-2.53,3.33-2.52,5.68c0.06,11.52,0.02,23.05,0.04,34.57c0,2.72-0.75,5.15-2.44,7.28c-1.78,2.24-4.21,3.25-6.93,3.66
		c-18.24,2.74-36.43,5.78-54.67,8.51c-5.97,0.89-10.4-2.68-10.89-8.69c-0.44-5.41,0.28-10.82,0.01-16.23
		c-0.36-7.01-0.26-14.05-0.25-21.06c0.01-6.52,0.09-13.06,0.05-19.57c-0.03-4.71,0.06-9.45,0.1-14.16
		c0.07-8.41,0.16-16.82,0.05-25.22c-0.09-7.4-0.04-14.81-0.09-22.21c-0.11-15.06,0.11-30.12,0.18-45.18c0.03-5.5,4.13-9.37,9.6-9.24
		c3.37,0.08,6.65,0.94,9.99,1.39c1.34,0.18,1.95,1.1,2.18,2.43c0.49,2.83,1.4,3.79,4.16,4.27c8.9,1.53,17.87,2.68,26.79,4.08
		c2.24,0.35,3.11-0.28,3.98-2.47c0.79-2,1.25-2.3,3.38-1.99c2.22,0.32,4.44,0.64,6.63,1.13c4.98,1.11,8.1,4.89,8.15,10.01
		c0.07,7.23,0.02,14.45,0.02,21.68c0,0.56,0.02,1.12,0.01,1.68c-0.02,1.11,0.4,1.66,1.59,1.31c0.54-0.16,1.1-0.23,1.65,0.01
		c8.9-2.74,17.79-5.48,26.69-8.22c0.1-0.03,0.23,0.02,0.46,0.05c-0.32,1.34-1.04,2.49-1.56,3.71c-0.27,0.65-0.97,0.7-1.56,0.9
		c-7.39,2.57-14.77,5.15-22.15,7.74c-0.7,0.25-1.37,0.57-2.06,0.86c-0.43,0.7-1.15,0.91-1.86,1.15c-8.55,2.91-17.07,5.92-25.59,8.91
		c-0.9,0.32-1.95,0.47-2.39,1.54c0.58,0.53,1.13,0.2,1.63,0.08c8.67-2.07,17.39-3.89,26.06-5.95c0.86-0.2,1.7-0.29,2.57-0.24
		c7.74-2.49,15.5-4.96,23.23-7.49c11.33-3.71,22.67-7.42,33.96-11.25c3.25-1.1,6-3.24,8.9-5.06c1.1-0.69,2.16-1.43,3.46-2.29
		c-0.75-0.2-1.24-0.03-1.73,0.08c-6.2,1.42-12.12,3.68-18.11,5.77c-5.4,1.88-10.82,3.68-16.23,5.52c-0.23,0.08-0.47,0.18-0.75,0
		c0.22-0.76,0.5-1.42,1.37-1.76c3.35-1.32,6.68-2.7,10.02-4.05c0.3-0.39,0.87-0.04,1.16-0.44l-0.03,0.01
		c8.17-3.22,16.36-6.4,24.47-9.79c4.06-1.7,6.71-5.02,9.56-8.12c0.93-1.01,1.8-2.05,3.09-2.62c0.25-0.03,0.49-0.07,0.74-0.09
		c6.5-0.42,6.49-0.41,11.98,3.08c0.66,0.42,1.14,0.92,1.45,1.64c0.82,1.88,2.11,3.67,2.42,5.62c0.31,1.97-1.1,3.89-1.47,5.89
		c-0.4,2.13-1.47,3.77-3.18,5.06c-0.5,0.37-0.87,0.94-1.4,1.23c-2.12,1.16-1.59,3.14-1.61,4.95c-0.01,0.46,0.34,0.61,0.67,0.8
		c2.11,1.19,4.23,2.37,6.33,3.58c0.45,0.26,0.76,0.2,1.14-0.14c1.07-0.95,2.2-1.83,3.26-2.79c0.54-0.49,1.02-0.71,1.82-0.59
		c2.33,0.34,4.67,0.81,7.05,0.41c0.57-0.1,1.08,0.21,1.6,0.42c2.75,1.14,5.53,2.24,8.26,3.42c0.86,0.37,1.58,0.38,2.48,0.07
		c5.99-2.08,11.99-4.08,18-6.11c0.35-0.9,1.23-1,1.97-1.24c7.63-2.48,15.18-5.21,22.79-7.74c1.42-0.35,2.72-1.02,4.09-1.51
		c3.92-1.35,3.96-1.34,4.92,2.74c0.84,3.56,1.63,7.14,2.49,10.69c0.56,2.32,0.25,2.83-2.15,3.32c-4.99,1.02-10.01,1.85-14.99,2.87
		c-10.73,1.98-21.42,4.11-32.16,6.02c-1.74,0.31-3.19,0.98-4.22,2.47c-1.15,1.66-2.73,2.66-4.71,3.13
		c-1.94,0.47-3.85,1.04-5.78,1.55c-0.85,0.23-1.77,0.41-2.34-0.55c-0.61-1.02-0.22-1.93,0.49-2.72c0.77-0.86,1.88-1.19,2.83-1.79
		c1.5-0.95,1.57-1.93,0.09-2.83c-1.65-1-3.14-2.54-5.45-1.69c-1.19,0.44-1.63,0.96-1.18,2.19c0.61,1.64,1.01,3.34,1.57,4.99
		c1.7,5.02,3.25,10.08,4.86,15.13c0.5,1.58,1.3,2.61,2.97,2.95c2.38,0.49,3.85,2.29,5.19,4.06c1.51,1.99,3.35,2.86,5.78,2.74
		c4.49-0.23,8.96,0.41,13.44,0.43c1.94,0.31,3.89,0.45,5.85,0.25c6.15,0.05,12.29,0.41,18.43,0.75c1.54,0.09,2.32,0.85,2.24,2.35
		c-0.22,4.15-0.36,8.31-0.81,12.45c-0.16,1.44-0.89,1.83-2.8,1.58c-4.62-0.61-9.25-1.15-13.86-1.85c-1.41-0.22-2.84-0.36-4.23-0.69
		c-1.64-0.69-3.46,0.03-5.1-0.61c-5.34-0.92-10.73-1.44-16.08-2.31c-1.19-0.19-2.35-0.08-3.52,0.15c-2.14,0.42-4.26,0.97-6.46,0.94
		c-1.44-0.02-2.13,0.66-2.53,1.96c-0.89,2.85-1.59,5.81-2.79,8.51c-2.22,4.98-2.79,10.1-2.45,15.43c0.09,1.45-0.16,2.86-0.89,4.14
		c-0.34,0.61-0.76,1.26-1.58,0.99c-0.86-0.29-0.79-1.05-0.54-1.72c0.3-0.78,0.17-1.55,0.16-1.92c0.15,1.71-0.46,3.65-1.4,5.49
		c-0.36,0.71-1.03,1.13-1.87,0.85c-0.88-0.29-0.7-1.07-0.64-1.74c0.12-1.34,0.73-2.59,0.71-3.89c0.02-0.31-0.33,0.01-0.09-0.08
		c0.08-0.03,0.12,0.02,0.1,0.15c-0.15,1.63-0.61,3.17-1.32,4.64c-0.39,0.81-0.93,1.6-2,1.23c-0.99-0.34-0.91-1.24-0.76-2.06
		c0.34-1.89,0.74-3.78,1.45-5.58c-0.49,1.43-0.94,2.88-1.67,4.21c-0.4,0.72-0.9,1.44-1.89,1.11c-1.05-0.35-0.91-1.24-0.73-2.03
		c0.59-2.61,1.4-5.16,2.01-7.77c-0.46,0.33-0.77,0.89-1.36,1.11c-0.7,0.26-1.38,0.21-1.92-0.29c-0.5-0.47-0.24-1.08,0.03-1.55
		c0.74-1.28,1.23-2.74,2.45-3.7c1.24-0.58,2.35-1.39,3.52-2.1c0.86-0.52,1.39-1.26,1.65-2.34c0.89-3.74,2-7.44,3.03-11.14
		c0.36-1.31,0.2-2.3-0.93-3.08c-0.38-1.43-0.49-2.89-1.41-4.23c-0.76-1.1-0.09-1.91,1.54-2.47c-1.98-0.26-2.72-1.23-2.04-2.95
		c0.27-0.69,0.17-1-0.21-1.58c-0.83-1.28-0.45-2.28,1.02-3.15c0.18-0.04,0.37-0.06,0.55-0.07c2.04-0.12,2.08-0.22,0.99-1.95
		c-2.07-3.27-4.21-6.5-5.94-9.55c0.41,1.05,1.43,2.31,1.17,3.96c-4.17,12.52-8.27,25.07-12.02,37.72c-0.45,1.52-0.69,3.23-2.94,3.26
		c-0.8,0.01-0.87,0.96-1.04,1.6c-1.6,6.08-3.14,12.18-4.73,18.26c-1.23,4.7-2.38,9.42-3.58,14.12c-0.63,2.49-0.23,3.55,2.16,4.34
		c2.8,0.93,4.71,2.6,5.77,5.37c0.74,1.92,2,3.59,2.89,5.44c0.48,1,1.31,1.64,2.24,2.18c3.78,2.17,7.49,4.46,11.3,6.59
		c1.03,0.58,2.09,1.11,2.96,1.94c0.72,0.71,0.62,1.57,0.41,2.42c-0.99,4.01-1.96,8.03-3.03,12.02
		C385.56,308.68,385.43,309.62,384.38,309.89z"/>
	<path class="st4" d="M478.61,277.37c-1.03,2.44-2.51,4.63-3.73,6.97c-0.33,0.64-0.88,1.2-0.83,2.01c0.01,1.62-1.19,2.68-1.86,3.97
		c-2.07,3.96-4.25,7.87-6.48,11.75c-0.4,0.69-0.74,1.44-1.37,1.98c-1.18,0.35-1.77,1.2-2.21,2.31c-0.42,1.06-0.47,2.37-1.71,2.98
		c-0.73,0.12-1.18-0.16-1.3-0.91c0.46-2.83,1.8-5.44,2.12-8.31c0.08-0.68,0.27-1.34,0.2-2.04c-0.07-0.68-0.33-1.25-1.06-1.34
		c-0.75-0.1-0.89,0.56-1.06,1.08c-0.46,1.42-0.81,2.88-1.27,4.3c-0.65,2.04-1.62,3.91-2.96,5.58c-0.3,0.37-0.69,0.85-1.24,0.53
		c-0.42-0.24-0.36-0.77-0.27-1.2c0.19-0.98,0.48-1.95,0.89-2.85c1.64-3.58,0.92-7.35,1.02-11.06c0.02-0.76-0.29-1.34-1.2-1.33
		c-0.86,0.01-1.23,0.53-1.32,1.29c-0.12,1.05-0.44,2.1-0.38,3.15c0.2,3.95-1.78,7.19-3.37,10.55c-0.25,0.52-0.55,1.34-1.28,1.1
		c-0.68-0.23-0.55-1.04-0.46-1.65c0.16-1.17,0.35-2.35,0.68-3.48c0.89-3.04,0.32-6.05-0.03-9.07c-0.07-0.57-0.04-1.36-0.98-1.29
		c-0.8,0.05-1.25,0.54-1.29,1.33c-0.06,1.31-0.32,2.6-0.38,3.9c-0.26,5.81-2.63,10.82-5.72,15.58c-0.27,0.42-0.6,0.8-1.06,1.03
		c-0.95,0.27-1.9,0.53-2.89,0.62c-1.2-0.69-0.81-1.84-0.75-2.83c0.08-1.24,0.54-2.42,0.74-3.65c0.1-0.61,0.25-1.23,0.04-1.84
		c-0.19-0.57-0.58-0.95-1.2-1.03c-0.61-0.08-0.94,0.34-1.11,0.81c-0.97,2.68-2.52,5.16-2.72,8.09c-0.04,0.6,0.03,1.27-0.65,1.64
		c-1.77-0.03-3.36,0.77-5.06,1.09c-0.64,0.12-0.68,0.8-0.84,1.34c-1.59,5.36-3.23,10.71-4.77,16.09c-0.34,1.2-0.96,1.81-2.1,2.28
		c-13.05,5.36-26.22,10.42-39.32,15.62c-0.29,0.11-0.59,0.19-0.88,0.29c-1.25-0.55-0.75-1.59-0.57-2.43
		c0.73-3.54,1.86-6.98,2.75-10.48c2.8-10.98,5.77-21.92,8.68-32.87c4.21-15.83,8.37-31.67,12.6-47.49c0.41-1.54,1.28-2.24,2.81-2.54
		c10.03-1.96,19.95-4.41,29.98-6.34c3.12-0.6,6.21-1.34,9.33-1.94c0.96-0.19,2.03-0.53,2.47,0.86c0.07,1.78-0.77,3.34-1.2,5
		c-0.61,2.39-1.27,4.76-1.93,7.13c-0.26,0.94-0.49,1.93-1.39,2.53c-1.82,6.04-3.64,12.08-5.47,18.11c-0.18,0.6-0.29,1.12,0.62,1.1
		c-0.35,1.1-1.38,0.92-2.16,1.07c-4.38,0.89-8.76,1.81-13.14,2.7c-1.56,0.32-2.43,0.98-2.99,2.56c-3.3,9.17-6.65,18.33-9.95,27.5
		c-0.23,0.65-0.51,1.27-0.99,1.77c-2.61,1.55-5.62,1.94-8.43,2.9c-1.47,0.5-2.96,0.97-4.47,1.36c-1.37,0.36-2.04,1.21-2.36,2.57
		c-0.49,2.12-0.98,4.25-1.46,6.37c-0.17,0.75-0.83,1.71-0.14,2.26c0.64,0.51,1.54-0.18,2.28-0.45c3.63-1.32,7.28-2.57,10.88-3.98
		c4.41-1.72,8.93-3.15,13.35-4.82c1.62-0.61,3.5-3.76,3.24-5.42c-0.14-0.86-0.74-0.46-1.16-0.35c-2.59,0.67-5.19,1.35-7.8,1.94
		c-0.76,0.17-1.72,0.73-2.27-0.45c0.53-3.21,1.88-6.16,2.93-9.2c2.27-6.58,4.82-13.07,7.02-19.68c0.73-2.18,1.9-3.26,4.24-3.75
		c17.84-3.72,35.68-7.48,53.52-11.2C476.89,276.89,477.83,276.48,478.61,277.37z"/>
	<path class="st4" d="M114.25,138.84c-2.3-1.25-4.83-1.93-7.26-2.86c-4.24-1.62-8.5-3.17-12.75-4.76c-1.33-0.5-1.33-0.52-0.85-1.8
		c6.13-16.09,12.27-32.18,18.41-48.27c0.55-1.44,0.57-1.45,1.96-0.95c10.05,3.65,20.09,7.3,30.13,10.95
		c1.26,0.46,1.28,0.49,0.74,1.91c-2.33,6.17-4.68,12.32-7.03,18.49c-0.51,1.34-1.01,2.68-1.51,4.01c-0.2,0.52-0.44,1.04-0.12,1.59
		c-1.83,5.09-3.79,10.14-5.66,15.21c-1.13,2.82-2.14,5.68-3.27,8.49c-0.91,2.28-1.52,2.58-3.8,1.73c-2.44-0.9-4.9-1.74-7.32-2.7
		C115.29,139.67,114.59,139.53,114.25,138.84z"/>
	<path class="st3" d="M211.57,350.56c-0.57,0.19-1.09-0.04-1.63-0.17c-15.41-3.94-30.83-7.87-46.24-11.81
		c-4.45-1.14-8.9-2.32-13.35-3.48c-0.81-2.32-0.7-4.76-0.84-7.15c-0.17-2.97,0.03-5.96,0.07-8.94c0.01-0.81-0.06-1.61-0.29-2.39
		c-0.29-2.41-0.19-4.83-0.1-7.24c0-0.22,0-0.45,0-0.67c0.03-1.49-0.01-2.99,0.03-4.48c0.05-2.1,0.6-2.55,2.68-2.01
		c3.86,1,7.7,2.05,11.55,3.06c15.59,4.11,31.11,8.46,46.67,12.67c2.8,0.76,3.2,1.06,3.03,4c-0.51,8.81-0.45,17.64-1.07,26.45
		C212.03,349.16,211.89,349.88,211.57,350.56z"/>
	<path class="st4" d="M285.64,162.08c-0.94,0.33-1.88,0.67-2.82,0.99c-0.63,0.22-0.95-0.03-0.97-0.68
		c-0.01-0.62-0.02-1.25-0.02-1.87c-0.01-7.54-0.02-15.08-0.01-22.61c0-1.84-0.34-3.58-1.23-5.2c-1.58-2.89-4.08-4.43-7.29-4.94
		c-2.15-0.34-4.29-0.7-6.44-1.05c-1.41-0.23-1.59-0.09-1.93,1.45c-0.55,2.52-2.02,3.62-4.57,3.24c-6.08-0.91-12.16-1.88-18.24-2.82
		c-2.83-0.43-5.66-0.83-8.48-1.26c-0.73-0.11-1.51-0.2-2.17-0.51c-1.76-0.83-2.8-2.2-2.87-4.23c-0.07-1.77-0.09-1.82-1.87-2.13
		c-2.14-0.37-4.31-0.62-6.45-0.96c-1.17-0.18-2.33-0.34-3.52-0.42c-4.62-0.3-8.51,3.93-8.71,8.24c-0.03,0.68-0.03,1.37-0.03,2.06
		c-0.01,9.84,0.1,19.68-0.11,29.52c-0.06,3.05,0.14,6.08,0.11,9.13c-0.05,6.09-0.02,12.19-0.02,18.28
		c0,9.89-0.14,102.87-0.03,104.93c0.31,5.52,4.66,9.11,10.12,8.25c8.35-1.32,16.71-2.57,25.06-3.88c6.75-1.06,13.5-2.17,20.25-3.24
		c3.38-0.53,6.75-1.09,10.14-1.51c5.39-0.67,8.33-5.88,8.29-10.18c-0.12-11.96-0.04-23.92-0.03-35.88c0-3.39,0.01-3.39,3.1-4.96
		c0.16-0.08,0.35-0.13,0.52-0.19c0.03,0.81,0.1,1.61,0.1,2.42c0,13.7-0.01,27.4,0,41.1c0,3.37-1.27,6.15-3.59,8.54
		c-1.93,1.99-4.38,2.72-7.02,3.13c-9.15,1.45-18.3,2.95-27.45,4.41c-8.23,1.31-16.47,2.58-24.7,3.88c-1.97,0.31-3.93,0.64-5.89,0.97
		c-2.9,0.49-5.8,0.66-8.72,0.23c-0.04-0.35,1.17-0.39,0.21-1.01c-3.97-2.58-5.15-6.4-5.09-10.94c0.12-9.03,0.27-18.07-0.04-27.08
		c-0.23-6.65,0.56-13.3-0.23-19.95c-0.29-2.46,0.33-4.95,0.33-7.45c-0.03-36.62-0.02-73.23-0.02-109.85c0-0.87-0.01-1.74,0.01-2.62
		c0.14-5.79,3.29-9.64,8.82-10.8c2.2-0.38,4.34,0.11,6.48,0.46c12.71,2.05,25.41,4.14,38.11,6.19c6.57,1.06,13.14,2.07,19.72,3.11
		c4.75,0.75,8.37,4.64,8.95,9.68c0.11,0.92,0.11,1.86,0.11,2.8c0,7.78-0.01,15.56,0,23.35
		C285.55,160.84,285.61,161.46,285.64,162.08z"/>
	<path class="st4" d="M149.88,316.74c0.33,0.9,0.19,1.84,0.2,2.75c0.05,4.03-0.04,8.05,0.32,12.08c0.1,1.16,0.15,2.35-0.04,3.52
		c-1.31,1.16-2.44,2.51-3.86,3.55c-1.09,0.22-1.37-0.66-1.7-1.34c-3.05-6.26-6.18-12.48-9.14-18.78c-1.98-4.22-4.09-8.38-6.06-12.61
		c-3.61-7.78-7.34-15.51-11.03-23.25c-0.32-0.66-0.74-1.33-0.33-2.11c1.23-0.88,2.61-1.3,4.1-1.38c0.98,0.22,1.34,1.04,1.76,1.8
		c1.03,1.85,1.73,3.86,2.68,5.76c0.63,1.26,1.33,1.59,2.65,0.87c9.16-5.06,18.28-10.17,27.41-15.29c1.41-0.79,1.58-1.52,0.93-2.97
		c-2.64-5.91-5.64-11.66-8.24-17.59c-0.66-1.51-1.42-1.68-2.88-1.13c-7.09,2.72-14.17,5.48-21.37,7.94
		c-2.13,0.73-2.35,0.66-3.23-1.36c-0.74-0.66-1.25-0.07-1.77,0.33c-1.76,1.35-3.61,2.57-5.56,3.63c-0.98,0.53-1.87,1.18-2.55,2.09
		c-0.4,0.54-0.82,1.09-1.58,1.19c-2.08-1.59-3.08-3.7-3.02-6.32c0.45-0.81,1.32-0.88,2.07-1.13c11-3.61,22.07-7.02,33.07-10.65
		c0.7-0.23,1.4-0.59,2.17-0.25c1.49-0.44,3-0.83,4.45-1.36c0.87-0.31,1.3-0.24,1.71,0.67c1.37,3.06,2.85,6.08,4.29,9.12
		c1.49,3.15,2.99,6.29,4.48,9.44c0.24,0.51,0.41,1.06,1.12,1.04c1.76,3.92,3.63,7.79,5.46,11.68c-0.48,0.6,0.03,1.05,0.26,1.51
		c4.06,8.3,8.14,16.6,12.21,24.9c0.46,0.95,0.86,1.93,1.34,2.86c0.3,0.57,0.25,1.06-0.12,1.55c-0.64,0.5-1.32,0.23-1.96,0.05
		c-4.38-1.18-8.75-2.38-13.15-3.47c-0.67-0.17-1.31-0.4-1.73-1c-0.45-0.87,0.3-1.23,0.76-1.68c1.43-1.38,3.09-2.5,4.6-3.8
		c0.52-0.45,1.22-0.94,0.64-1.68c-0.66-0.84-1.21,0-1.7,0.37c-2.61,2-5.09,4.17-7.85,5.98c-1.42,0.22-2.62-0.18-3.62-1.21
		c-0.33-1.14,0.61-1.54,1.27-2.02c2.85-2.12,5.46-4.54,8.36-6.59c0.5-0.35,1-0.75,1.08-2.01c-4.72,3.53-9.23,6.69-13.46,10.24
		c-1.21,0.17-2.09,1.07-3.21,1.41c-0.42,0.13-0.57,0.44-0.55,0.85c0.08,1.9-0.2,3.82,0.16,5.72c0.03,0.09,0.01,0.18-0.04,0.25
		c-0.51,1.24-1.69,1.79-2.66,2.52c-1.64,1.23-3.21,2.55-4.86,3.75c-0.7,0.5-0.96,1.05-0.57,1.9c0.91,1.97,1.75,3.97,2.76,5.9
		c0.48,0.93,0.88,1.14,1.82,0.41c1.88-1.46,3.56-2.92,3.15-5.64C149.25,317.4,149.34,316.89,149.88,316.74z"/>
	<path class="st4" d="M177.41,196.31c0.01,10.45,0.03,20.89,0.03,31.34c0,1.42-0.03,1.4-1.52,1.76c-7.3,1.75-14.61,3.51-21.91,5.27
		c-3.08,0.74-6.15,1.51-9.22,2.27c-0.6,0.15-1.23,0.23-1.75,0.59c-0.32,0.64-0.96,0.76-1.55,0.88c-2,0.43-3.96,0.97-5.96,1.41
		c-0.84,0.19-1.72,0.37-2.45-0.35c-0.52-0.85-0.42-1.8-0.42-2.73c-0.01-18.38-0.01-36.75,0-55.13c0-3.53,0.39-3.82,3.82-2.84
		c8.39,2.39,16.86,4.49,25.26,6.81c1.02,0.28,2.08,0.44,2.92,1.18c0.45,0.47,0.56,1.08,0.63,1.69c0.2,1.55,0.68,2.97,1.62,4.25
		c0.42,0.58,0.9,1.21,0.48,2.02c-1.1,0.65-2.19,0.1-3.25-0.12c-3.58-0.76-7.14-1.64-10.78-2.07c4.96,1.42,10.09,2.01,15.1,3.18
		c1,0.22,1.56,1.95,2.95,0.87c0.35-0.13,0.73-0.07,1.17-0.18c-0.41-0.42-1.1-0.25-1.39-0.75c-0.53-1.26-1.1-2.5-1.72-3.72
		c-0.41-0.8-0.31-1.62,0.44-2.18c0.75-0.56,1.43-0.12,2,0.4c1.8,1.63,3.41,3.45,5.23,5.05
		C177.45,195.47,177.83,195.82,177.41,196.31z"/>
	<path class="st34" d="M212.17,114.63c-1.98,0.75-3.85,1.66-5.29,3.28c-1.76,1.97-2.76,4.26-2.9,6.9c-0.06,1.12-0.02,2.24-0.02,3.36
		c0,37.26,0,74.52,0.03,111.78c0,1.57-0.04,24.41-0.03,26.58c0.03,9.1,0.02,18.19,0.01,27.29c0,4.4,1.91,7.62,5.86,9.6
		c0.28,0.14,0.54,0.3,0.81,0.47c0.03,0.02,0.55,0.54,0.58,0.68c-0.85,0.06-1.93-0.11-3.04-0.24c-6.45-0.47-10.72-5.11-10.8-11.93
		c-0.08-6.96-0.02-13.92-0.03-20.88c0-2.17,0-4.35-0.03-6.52c-0.01-0.6,0.18-1.25-0.31-1.78c-0.22-4.39-0.52-8.77-0.44-13.16
		c-0.01-0.92,0.25-1.82,0.11-2.74c0-1.23-0.07-2.46,0.15-3.68c0.7-0.78,0.54-1.74,0.54-2.66c0-13.4,0-26.79,0-40.19
		c0-24.55-0.01-49.1-0.01-73.65c0-4.89,1.98-8.66,6.3-11.09c1.59-0.9,3.31-1.43,5.16-1.43
		C209.93,114.62,211.05,114.63,212.17,114.63z"/>
	<path class="st3" d="M129.91,132.2c1.58-4.69,3.33-9.32,5.15-13.92c0.18-0.46,0.35-0.94,0.9-1.11c1.28,0.76,2.57,1.51,3.96,2.33
		c1.03-2.23,2.02-4.43,3.05-6.62c4.49-9.54,9.74-18.63,15.99-27.13c5.42-7.36,11.72-13.87,18.76-19.7c1.03-0.86,1.97-1.11,3.19-0.6
		c0.68,0.29,1.43,0.42,2.15,0.62c0.45,0.8-0.27,1.1-0.66,1.52c-1.4,1.51-3.05,2.74-4.57,4.12c-10.24,9.31-18.17,20.38-25.03,32.3
		c-2.95,5.13-5.59,10.41-8.06,15.78c-0.4,0.86-0.93,1.67,0.23,2.41c5.24,3.34,10.44,6.77,15.74,10.03c0.27,0.16,0.58,0.23,0.86,0.36
		c1.69,1.19,3.61,1.8,5.63,2.12c1.45,0.53,3.05,0.64,4.31,1.64c1.58,0.75,3.3,1.02,4.96,1.53c2.13,0.66,4.25,1.37,6.41,1.95
		c1.56,0.42,2.83,1.18,3.91,2.37c0.53,0.59,1.19,1.06,1.78,1.58c-1.37,1.49-1.43,1.57-2.68,0.56c-1.49-1.21-3.06-1.93-5.39-1.63
		c0.76,0.45,1.19,0.79,1.68,0.98c2.97,1.19,4.75,3.72,6.81,5.94c0.65,0.7,0.06,1.1-0.29,1.57c-0.41,0.55-0.89,0.64-1.41,0.14
		c-0.76-0.74-1.55-1.44-2.26-2.22c-0.85-0.95-1.83-1.66-3.09-1.95c-0.29-0.22-0.62-0.26-0.91-0.05c-0.14,0.1,0.08,0.27,0.13,0.41
		c1.61,0.85,2.64,2.2,3.36,3.85c0.5,1.13,1.1,2.23,1.66,3.33c0.29,0.57,0.62,1.09-0.21,1.54c-0.76,0.41-1.42,0.48-1.96-0.29
		c-0.57-0.82-1.18-1.62-1.62-2.5c-1.15-2.32-3.36-3.09-5.64-3.86c0.85,0.85,1.68,1.71,2.55,2.54c1.69,1.61,1.84,3.87,2.51,5.91
		c0.12,0.36-0.21,0.57-0.53,0.61c-0.65,0.09-1.39,0.44-1.84-0.36c-0.39-0.7-0.75-1.43-1.06-2.17c-0.49-1.2-1.34-2.02-2.37-2.78
		c-2.34-1.71-4.86-2.97-7.68-3.66c-0.66-0.16-1.3-0.31-1.95-0.33c-0.38,0.8-0.12,1.41,0.26,1.99c0.47,0.73,0.96,1.45,1.42,2.19
		c1.16,1.86,1.06,2.25-0.91,3.56c-1.41-1.28-2.34-3.04-4.05-4.03c-1.24-0.32-1.77-1.3-2.15-2.38c-0.32-0.88-0.63-1.79-0.68-2.71
		c-0.15-2.64-1.68-3.8-4.02-4.7c-5.46-2.1-10.89-4.29-16.26-6.62c-1.42-0.62-1.96-0.42-2.49,1.1c-2.41,6.94-4.89,13.86-7.15,20.85
		c-0.15,0.47-0.3,0.95-0.6,1.36c-1.54,1.08-2.73-0.03-3.89-0.73c-1.09-0.66-0.36-1.68-0.11-2.53c1.99-6.88,4.69-13.53,6.91-20.34
		c0.69-2.12,0.72-2.11-1.29-3.06C130.81,133.03,130.2,132.83,129.91,132.2z"/>
	<path class="st4" d="M452.73,149.05c-7.32,2.5-14.65,5-21.97,7.51c-0.99,0.34-1.98,0.68-2.98,1.01c-0.98-0.83-2.26-0.52-3.36-0.9
		c-0.4-0.14-0.85-0.17-1.28-0.23c-0.96-0.13-1.44-0.52-1.62-1.61c-0.62-3.92-1.38-7.82-2.12-11.71c-1.03-5.42-2.08-10.84-3.52-16.17
		c-0.34-0.97,0.49-1.09,1.03-1.34c0.72-0.33,1.49-0.58,2.31-0.57c1.1,0.07,1.4,0.88,1.62,1.76c0.51,2.05,1.04,4.09,1.52,6.15
		c0.34,1.46,1.22,2.18,2.66,2.02c6.37-0.71,12.79,0.02,19.16-0.72c1.49-0.17,1.3-1.04,1.07-1.98c-0.84-3.57-1.51-7.17-2.3-10.75
		c-0.32-1.46-0.42-2.94-0.75-4.39c-1.3-4.72-2.21-9.53-3.4-14.27c-0.21-0.82-0.25-1.76-1.22-2.16c-0.63-0.18-1.22,0-1.83,0.15
		c-6.15,1.52-12.26,3.23-18.42,4.72c-2.21,0.54-2.29,0.74-1.69,2.97c0.29,1.08,0.62,2.15,0.96,3.22c0.27,0.85,0.41,1.7-0.05,2.53
		c-1.06,1.1-2.03,2.34-3.81,2.15c-0.39-2.97-1.32-5.81-2.14-8.66c-1.6-5.61-3.33-11.19-5-16.78c-0.44-1.49-0.75-1.35,0.92-1.96
		c9.27-3.37,18.54-6.74,27.82-10.09c0.98-0.36,1.93-0.86,3.02-0.88c0.72,0.59,0.95,1.44,1.18,2.28
		c5.74,21.32,10.89,42.77,14.57,64.55c0.13,0.8,0.21,1.6,0.31,2.4C453.52,148,453.44,148.65,452.73,149.05z"/>
	<path class="st4" d="M171.5,136.36c-1.61-0.02-3.02-0.78-4.54-1.16c0.59-1.77-0.46-2.9-1.56-4.02c-3.9-4-7.52-8.26-11.19-12.48
		c-0.48-0.56-0.76-1.6-1.81-1.24c-0.76,0.26-1.49,2.8-1.05,3.49c0.54,0.84,1.18,1.59,1.88,2.31c2.55,2.63,5.03,5.32,7.41,8.11
		c0.38,0.45,0.94,0.87,0.72,1.61c-1.38-0.3-2.45-1.2-3.6-1.93c-4.42-2.8-8.81-5.64-13.21-8.47c-1.3-0.84-1.31-0.85-0.7-2.18
		c5.54-12.02,11.92-23.55,19.98-34.09c4.78-6.24,10.06-12.02,16.08-17.12c1.11-0.94,2.39-1.77,3.13-3.11
		c0.65,0.18,0.69,0.81,0.91,1.29c4.48,9.72,8.94,19.45,13.42,29.18c0.75,1.64,0.78,1.64-0.28,2.74
		c-6.85,7.05-12.6,14.94-17.79,23.26C176.51,127.04,173.93,131.65,171.5,136.36z"/>
	<path class="st21" d="M129.91,132.2c1.04,0.4,2.08,0.8,3.12,1.19c0.84,0.32,1.07,0.74,0.72,1.7c-2.19,6.06-4.31,12.14-6.43,18.23
		c-0.53,1.52-0.98,3.06-1.47,4.6c-0.11,0.35-0.3,0.76,0.17,0.96c1.12,0.45,2.13,1.29,3.46,0.99c1.03-0.34,2.08-0.28,3.13-0.18
		c4,0.37,8.02,0.51,12.03,0.71c0.79,0.04,1.64-0.05,2.2,0.72c-0.83,1.56-0.73,3.35-1.17,5c-0.3,1.13-0.48,2.29-0.71,3.44
		c-1.22,0.78-2.42,0.09-3.57-0.17c-1.49-0.34-2.34,0.07-2.93,1.46c-0.43,1-0.75,2.14-1.87,2.69c-1.73,0.12-3.26-0.69-4.88-1.08
		c-2.89-0.7-5.66-1.86-8.63-2.23c-2.51,0.19-2.59,0.25-2.6,2.75c-0.02,7.26,0.01,14.52-0.02,21.78c0,1.03,0.22,2.14-0.67,2.98
		c-4.97-1.35-9.94-2.73-14.93-4.02c-0.94-0.24-1.17-0.56-1-1.5c2.33-13.21,4.89-26.38,7.5-39.53c0.85-4.26,1.68-8.53,2.54-12.79
		c0.07-0.36,0.23-0.71,0.35-1.06c3.28,0.96,6.43,2.31,9.65,3.45c1.62,0.57,1.82,0.54,2.46-1.11c1.08-2.78,2.11-5.57,3.18-8.35
		C129.62,132.6,129.78,132.41,129.91,132.2z"/>
	<path class="st34" d="M434.04,203.59c-2.02,0.09-4.04,0.2-6.03-0.32c-0.64-0.72-0.59-1.61-0.6-2.48
		c-0.01-5.97-0.03-11.94,0.01-17.92c0.01-2.53,0.43-3.04,2.88-3.55c5.48-1.13,10.99-2.15,16.49-3.17
		c9.19-1.78,18.39-3.55,27.58-5.36c1.13-0.22,2.29-0.69,3.46-0.12c0.94-0.12,1.88-0.24,2.82-0.36c1.11-0.35,1.29,0.45,1.4,1.2
		c0.18,1.17,0.16,2.37,0.02,3.54c-0.44,3.79-0.42,7.58-0.02,11.37c0.28,2.68-0.36,5.34-0.27,8.02c0.19,5.66,0.03,11.31,0.22,16.97
		c0.22,6.7-0.23,13.41-0.15,20.12c0.05,4.23-0.39,8.46,0.12,12.68c0.07,0.56,0.03,1.13-0.41,1.57c-0.43,0.08-0.81,0.05-1.26-0.09
		c-4.43-1.4-8.88-2.77-13.33-4.11c-1.36-0.41-1.39-0.35-1.49,1.15c-0.51,7.75-1.06,15.5-1.52,23.26c-0.07,1.15-0.45,1.87-1.54,2.2
		c-0.47,0.14-0.82,0.59-1.37,0.5c-0.58-0.42-0.64-1.04-0.59-1.67c0.47-5.95,0.81-11.91,1.21-17.87c0.21-3.1,0.44-6.2,0.57-9.31
		c0.07-1.57-0.49-2.15-2.06-2.38c-13.68-1.95-27.34-4.08-41.04-5.96c-1.03-0.14-2.13-0.15-3-0.88c-0.11-1.14,0.84-1.24,1.55-1.47
		c1.33-0.44,2.7-0.34,4.07-0.12c2.93,0.47,5.87,0.86,8.74,1.63c0.27-0.09,0.06-0.42,0.11-0.17c0.01,0.07-0.04,0.11-0.16,0.1
		c-2.48-0.15-2.98-0.61-3.02-2.99c-0.05-2.99-0.03-5.97,0-8.96c0.01-0.79-0.07-1.65,0.71-2.21c0.92,0.42,1.9,0.27,2.86,0.3
		c0.65,0.03,1.34-0.15,1.92,0.33c-1.15,1.2-1.85,5.84-1.03,7.17c0.51,0.82,1.45,0.92,2.28,1.14c5.24,1.39,10.46,2.84,15.7,4.21
		c7.78,2.03,15.56,4.03,23.31,6.12c0.6,0.16,1.21,0.3,1.82,0.41c0.86,0.15,1.3-0.21,1.37-1.07c0.05-0.62,0.05-1.24,0.05-1.87
		c0-16.94,0-33.88,0-50.82c0-3.22-0.01-3.25-3.24-2.78c-13.19,1.95-26.35,4.05-39.55,5.89c-1.48,0.21-2.02,0.84-2.01,2.29
		c0.04,4.23,0.03,8.47,0,12.7c-0.01,1.27,0.25,2.2,1.71,2.39C433.7,202.9,434.03,203.13,434.04,203.59z"/>
	<path class="st3" d="M430.18,316.02c-0.03-2.66,0.71-5.13,1.87-7.51c0.38-0.78,0.6-1.63,0.94-2.43c0.27-0.63,0.27-1.56,1.39-1.41
		c1.33,0.18,2.06,0.76,2.15,1.91c0.11,1.51-0.33,2.95-0.72,4.38c-0.33,1.21-0.53,2.41,0,3.62c1.37,1.63,1.86-0.34,2.75-0.68
		c3.21-4.03,4.93-8.76,6.21-13.64c0.46-1.77,0.3-3.71,0.42-5.57c0.03-0.43,0.02-0.87,0.07-1.31c0.13-1.23,1.63-2.18,2.84-1.81
		c0.36,0.11,0.47,0.37,0.51,0.7c0.41,3.88,1.11,7.76-0.08,11.65c-0.36,1.18-0.65,2.39-0.65,3.68c0.62-0.08,0.64-0.57,0.8-0.92
		c0.86-1.8,1.7-3.6,2.54-5.41c0.51-1.09,0.66-2.26,0.74-3.44c0.13-1.74,0.29-3.47,0.47-5.2c0.06-0.55,0.08-1.25,0.71-1.4
		c0.84-0.19,1.74-0.28,2.56,0.11c0.36,0.17,0.34,0.64,0.35,1.01c0.03,2.74,0.06,5.48,0.09,8.22c0.01,0.7-0.25,1.33-0.48,1.98
		c-0.63,1.8-1.34,3.58-1.63,5.51c1.82-2.05,3.1-4.38,3.83-7.02c0.38-1.38,0.77-2.76,1.17-4.13c0.15-0.52,0.22-1.17,0.99-1.15
		c0.73,0.02,2.05,1.01,2.1,1.58c0.04,0.49,0.01,1-0.07,1.49c-0.51,3.27-1.22,6.48-2.63,9.5c-0.16,1.44-0.89,2.63-1.3,3.25
		c0.38-0.66,1.35-1.66,2.46-2.55c0.45-1.15,0.9-2.29,1.34-3.45c0.64-1.7,0.63-1.71,2.44-1.78c1.11,0.04,1.09,0.84,0.96,1.58
		c-0.52,2.92-1.01,5.78-2.85,8.33c-1.99,2.75-3.79,5.66-5.64,8.52c-0.48,0.74-1,1.41-1.82,1.79c-1.81,2.76-3.62,5.51-5.44,8.26
		c-0.46,0.69-0.74,1.42-0.92,2.22c-0.62,2.92-1.27,5.83-1.92,8.74c-0.11,0.48-0.26,0.95-0.45,1.59c-6.07-1.14-12.08-2.27-18.29-3.43
		c0.76-1.84,1.46-3.54,2.18-5.25c0.68-1.6,1.35-3.21,2.06-4.8c0.38-0.85,0.39-1.62,0.06-2.51c-0.82-2.21-1.48-4.49-2.32-6.69
		c-0.63-1.64,0.03-3.19,0.08-4.78c0.1-0.2,0.06-0.42,0.11-0.62C430.15,316.53,430.16,316.28,430.18,316.02z"/>
	<path class="st21" d="M443.03,84.04c6.76-2.1,13.52-4.21,20.29-6.32c0.54,0.67,0.55,1.5,0.74,2.26c2.68,10.67,5.37,21.34,8,32.02
		c0.17,0.7,0.85,1.48,0.11,2.27c-2.51,1.09-5.2,1.6-7.78,2.51c-1.24,0.44-1.65,1.05-1.44,2.33c0.32,1.96,0.72,3.9,1.03,5.86
		c0.11,0.68,0.05,1.35-0.04,2.03c-0.35,0.64-0.84,0.25-1.28,0.16c-3.01-0.62-6.02-1.24-9.03-1.87c-0.36-0.07-0.72-0.23-1,0.17
		c-0.93-0.18-0.82-1-0.94-1.61c-2.53-12.35-5.44-24.61-8.61-36.8C442.84,86.08,442.22,85.05,443.03,84.04z"/>
	<path class="st21" d="M133.29,239.55c1.64,0.05,3.13-0.61,4.7-0.92c1.69-0.33,3.37-0.72,5.05-1.09c0.69,2.28,0.92,4.65,1.47,6.96
		c0.13,0.53,0.25,1.07,0.37,1.6c-3.28,1.12-6.55,2.29-9.86,3.36c-5.83,1.89-11.68,3.74-17.53,5.59c-3.24,1.03-6.51,1.96-9.7,3.16
		c-0.9,1.12-1.85,2.19-2.97,3.1c-0.9-2.65-1.26-5.42-1.8-8.15c-1.31-6.58-2.16-13.23-2.92-19.9c-0.24-2.1-0.31-4.22-0.55-6.31
		c-0.11-1.03,0.28-1.44,1.26-1.62c4.7-0.85,9.4-1.76,14.1-2.63c1.59-0.29,3.18-0.55,4.77-0.83c0.98,0.7,0.75,1.76,0.75,2.71
		c0.04,4.7,0,9.4,0.02,14.1c0.01,2.43,0.2,2.6,2.61,2.79c2.63-0.48,5.23-1.15,7.83-1.76C131.69,239.55,132.47,239.28,133.29,239.55z
		"/>
	<path class="st3" d="M416,230.5c2.46,0.32,4.92,0.6,7.37,0.95c3.98,0.56,7.96,1.16,11.94,1.75c3.92,0.58,7.83,1.28,11.76,1.73
		c4.74,0.55,9.4,1.65,14.16,2.02c0.43,0.03,0.85,0.19,1.26,0.3c0.43,0.11,0.52,0.38,0.5,0.83c-0.17,3.41-0.42,6.81-0.61,10.22
		c-0.22,3.9-0.42,7.81-0.8,11.69c-0.24,2.47,0.03,4.97-0.58,7.41c-0.1,0.4,0.03,0.86,0.05,1.3c-1.59,0.1-3.03-0.57-4.53-0.9
		c-5.28-1.16-10.53-2.41-15.79-3.63c1.39-4.84,2.78-9.68,4.17-14.52c0.23-0.38,0.19-0.75-0.23-0.91c-1.67-0.62-3.26-1.31-5.2-0.87
		c-7.32,1.67-14.69,3.07-22.05,4.54c-1.21,0.24-2.54,0.72-2.99-1.11c-0.37-4.53,0.3-9.02,0.46-13.53c0.05-1.35,0.11-2.72,0.3-4.07
		c0.27-0.88,0.36-1.79,0.49-2.7C415.74,230.8,415.85,230.64,416,230.5z"/>
	<path class="st3" d="M110.81,264.19c1.15-1.84,2.78-3.06,4.7-4.05c1.86-0.97,3.6-2.19,5.19-3.58c0.65-0.57,1.28-0.79,1.79,0.18
		c0.88,2.78-0.49,4.48-2.82,5.74c3.19-1.16,6.09-2.83,9.14-4.19c2.38-1.06,4.83-1.08,7.33-0.89c0.8,0.06,1.44,0.45,1.59,1.33
		c0.15,0.85-0.29,1.43-0.98,1.85c-0.54,0.33-1.14,0.53-1.76,0.6c-1.88,0.22-3.64,0.77-4.89,1.56c2.89-1.4,6.36-1.01,9.79-0.78
		c1.13,0.07,2.03,0.76,2.03,2.05c0,1.38-1.04,1.67-2.15,1.87c-2.68,0.48-5.52,0.1-7.78,1.49c2.65-0.53,5.43,0.14,8.21,0.71
		c0.7,0.14,1.28,0.57,1.24,1.42c-0.05,0.9-0.54,1.53-1.38,1.81c-0.96,0.33-1.97,0.23-2.97,0.21c-2.07-0.04-4.1,0.07-6.49,1.11
		c2.01,0.02,3.58,0.02,5.09,0.47c0.9,0.27,1.96,0.54,1.87,1.73c-0.08,1.13-1.08,1.51-2.05,1.5c-3.96-0.02-7.61,1.1-11.1,2.87
		c-0.65,0.33-1.32,0.27-1.99,0.31c-1.34,0.41-2.69,0.82-4.03,1.23c-0.95,0.78-2.16,0.74-3.27,1.04c-1.33,0.16-2.68,0.26-3.66,1.38
		c-0.34,0.39-0.87,0.4-1.35,0.47c-3.7,2.74-7.1,5.85-10.72,8.69c-0.73,0.57-1.45,1.16-2.16,1.73c-0.65-0.32-0.7-0.93-0.9-1.43
		c-1.66-4.08-3.3-8.17-4.94-12.27c-0.5-1.24-0.49-1.25,0.75-1.94c4.3-2.37,8.6-4.73,12.89-7.1c0.59-0.33,1.25-0.57,1.71-1.09
		c0.4-0.72,0.73-1.48,1.23-2.15C108.9,266.75,109.61,265.29,110.81,264.19z"/>
	<path class="st3" d="M419.03,125.46c-1.07,0.45-2.38,0.37-3.14,1.48c-0.33,1.39-0.7,2.78-0.98,4.18c-0.25,1.26-0.77,2.33-1.73,3.22
		c-1.04,0.98-2.05,2-2.9,3.17c-0.38,0.52-0.71,1.28-1.6,0.67c-0.82-0.56-1.19-1.45-0.77-2.24c0.4-0.77,0.94-1.47,1.39-2.21
		c0.41-0.67,1.21-1.38,0.65-2.17c-0.6-0.84-1.51-0.11-2.22,0.07c-3.02,0.73-5.59,2.37-8,4.28c-0.73,0.58-0.93,1.45-1.34,2.2
		c-0.27,0.49-0.46,1.02-0.74,1.51c-0.42,0.72-1.08,0.85-1.92,0.44c-0.71-0.34-0.28-0.86-0.19-1.28c0.57-2.63,1.72-4.92,3.93-6.58
		c0.19-0.14,0.33-0.36,0.53-0.58c-1.76,0.27-3.69,1.44-4.58,2.77c-0.69,1.03-1.38,2.07-2.07,3.11c-0.47,0.7-1.04,0.77-1.76,0.38
		c-0.55-0.29-0.71-0.63-0.42-1.19c0.88-1.71,1.74-3.44,2.63-5.15c0.32-0.61,0.83-1.07,1.43-1.44c0.68-0.43,1.34-0.89,1.96-1.43
		c-1.86,0.44-3.64,1.01-4.96,2.55c-0.56,0.66-1.26,1.2-1.89,1.81c-0.41,0.39-0.81,0.58-1.27,0.07c-0.42-0.47-0.91-0.9-0.32-1.58
		c1.63-1.88,3.09-3.91,5.4-5.08c0.87-0.44,1.81-0.8,2.6-1.57c-2.07,0.05-3.92,0.4-5.43,1.78c-0.77,0.7-1.43,0.57-2.01-0.37
		c1.53-1.89,3.21-3.46,5.72-4.17c4.6-1.3,9.14-2.84,13.69-4.32c1.35-0.44,2.86-0.38,4.03-1.35c1.22-0.53,2.26-1.37,3.34-2.13
		c1.82-2.21,4.43-3.34,6.75-4.85c4.05-2.64,8.05-5.37,12.15-7.92c0.9-0.56,1.82-1.03,2.79-1.45c0.84-0.22,1.03,0.28,1.18,0.98
		c0.7,3.13,1.45,6.24,2.18,9.36c0.5,2.15,1,4.31,1.5,6.47c0.07,1.1-0.86,1.26-1.55,1.55c-2.34,0.99-4.76,1.78-7.19,2.52
		c-3.38,1.04-6.65,2.35-10.05,3.34C422.27,124.77,420.71,125.35,419.03,125.46z"/>
	<path class="st21" d="M477.83,170.68c-3.21,0.64-6.41,1.29-9.62,1.93c-6.05,1.2-12.11,2.39-18.17,3.58
		c-0.97,0.19-1.94,0.34-2.91,0.5c-0.94-1.75-1.23-8.77-0.43-10.4c2.35-0.82,4.83-1.01,7.25-1.51c2.78-0.57,5.59-1.04,8.38-1.58
		c1.64-0.32,1.65-0.36,1.26-2.06c-1.01-4.33-2.02-8.67-3.04-13c-0.11-0.48-0.29-0.94-0.45-1.43c-1.31,0.02-2.36,0.88-3.61,0.88
		c-1.12-2.4-1.8-4.86-1.1-7.52c6.26-1.55,12.52-3.1,18.77-4.65c0.72-0.18,1.45-0.31,2.4-0.51
		C477,146.89,477.41,158.79,477.83,170.68z"/>
	<path class="st21" d="M454.98,324.04c2.67-4.02,5.34-8.05,8.02-12.06c0.35-0.53,0.59-1.1,0.73-1.7c0.39-1.75,0.73-3.51,1.15-5.25
		c0.15-0.62-0.08-0.94-0.55-1.21c0.15-0.4,0.24-0.83,0.45-1.2c2.77-4.97,5.55-9.93,8.34-14.88c0.27-0.48,0.61-0.93,0.92-1.39
		c3.16,1.74,6.31,3.49,9.49,5.19c0.82,0.44,0.96,0.86,0.65,1.77c-3.21,9.54-6.37,19.11-9.54,28.67c-1.45,4.37-2.87,8.74-4.3,13.11
		c-0.13,0.41-0.18,0.85-0.69,1.21c-3.33-2.86-6.68-5.73-10.03-8.61c-1.23-1.05-2.46-2.11-3.69-3.16
		C455.67,324.28,455.4,324.01,454.98,324.04z"/>
	<path class="st4" d="M146.85,161.11c-3.91-0.17-7.82-0.22-11.71-0.55c-1.88-0.16-3.83,0.08-5.65-0.69c1.4-4.85,3.07-9.6,4.72-14.37
		c1.04-3,2.12-5.98,3.2-8.97c0.45-1.24,0.5-1.28,1.73-0.78c6.58,2.67,13.14,5.36,19.72,8.02c0.77,0.31,1.23,0.75,1.38,1.59
		c0.18,1.04,0.55,2.05,0.7,3.09c0.25,1.78,0.91,3.33,2.19,4.6c-0.99,2.54-2,5.06-2.94,7.62c-0.29,0.8-0.66,1.18-1.59,1.12
		c-3.21-0.23-6.43-0.37-9.64-0.55c-0.61-0.11-1.24,0.06-1.85-0.13l-0.13,0.05L146.85,161.11z"/>
	<path class="st3" d="M136.63,173.32c0.61-1.21,1.27-2.41,1.82-3.65c0.41-0.93,0.88-1.32,1.99-1.01c1.48,0.42,3.02,0.6,4.53,0.89
		c4.86,1.07,9.79,1.74,14.68,2.65c3.24,0.6,6.48,1.21,9.72,1.76c0.88,0.15,1.66,0.43,2.42,0.88c5.09,2.99,10.16,6.01,15.64,8.26
		c0.57,0.24,1.11,0.56,1.66,0.84c0.52,0.26,0.41,0.69,0.3,1.12c-0.13,0.5-0.42,0.78-0.94,0.65c-1.2-0.32-2.38-0.69-3.58-1.01
		c-0.87-0.23-1.7-0.7-3.07-0.53c1.65,1.06,2.99,1.93,4.33,2.79c1.53,0.97,2.87,2.18,4.28,3.3c0.41,0.33,0.69,0.66,0.42,1.26
		c-0.39,0.87-0.66,1.04-1.54,0.58c-2.26-1.18-4.5-2.4-6.75-3.59c-0.64-0.34-1.3-0.64-2.12-0.71c1.79,1.67,3.58,3.33,5.36,5.01
		c0.99,0.94,1.97,1.9,2.92,2.89c0.29,0.3,1.01,0.57,0.43,1.17c-0.46,0.48-0.94,1.1-1.75,0.63c-0.59-0.34-1.18-0.7-1.72-1.11
		c-2.55-1.88-4.96-3.96-7.64-5.68c-0.46,0.53,0.09,0.79,0.3,1.08c1.55,2.02,3.14,4.02,4.71,6.03c0.27,0.34,0.53,0.69,0.76,1.06
		c0.33,0.53,0.72,1.06,0.02,1.63c-0.72,0.59-1.28,0.64-1.96-0.01c-1.26-1.21-2.48-2.45-3.71-3.68c-0.21-0.21-0.4-0.48-0.74-0.52
		c-1.93-2.17-4.08-4.11-6.18-6.11c-0.27-0.26-0.63-0.53-0.98-0.27c-0.47,0.35-0.74,0.86-0.52,1.47c0.15,0.4,0.41,0.76,0.62,1.14
		c0.54,0.97,1.12,1.93,1.28,3.06c0.27,0.46,0.18,0.88-0.16,1.27c-1.1,1.12-1.1,1.12-2.04,0.09c-0.25-0.27-0.49-0.55-0.73-0.82
		c-0.54-0.44-1.32-0.67-1.38-1.54c0.01-0.47-0.25-0.82-0.53-1.13c-1.59-1.78-2.07-3.94-2.13-6.24c-0.32-0.61-0.57-1.26-0.49-1.96
		c0.23-1.94-0.85-2.77-2.52-3.31c-7.67-2.5-15.36-4.95-23.08-7.28C137.82,174.44,136.75,174.53,136.63,173.32z"/>
	<path class="st3" d="M196.8,249.98c0.91,1.02,0.47,2.26,0.43,3.38c-0.07,2.1-0.01,4.18,0.29,6.26c0.18,1.25,0.23,2.48-0.5,3.61
		c-3.03,2.14-6.01,4.27-9.68,5.35c-5.83,1.71-11.28,4.45-16.95,6.62c-1.33,0.51-2.66,1-4,1.51c-0.63-0.16-0.83-0.71-1.07-1.21
		c-1.44-2.97-2.87-5.94-4.3-8.92c-0.24-0.5-0.59-1-0.09-1.54c6.09-1.5,12.19-3,18.29-4.5c1.49-0.37,1.49-0.36,1.55-1.94
		c0.08-2.24,0.17-4.48,0.25-6.72c0.02-0.69,0.07-1.34,0.52-1.94c1.52-2.04,3.01-4.12,4.61-6.32c0.47,0.46,0.91,0.84,1.29,1.28
		c0.44,0.51,0.57,1.05,0.2,1.71c-0.49,0.87-0.81,1.83-1.33,2.67c-0.69,1.12-0.51,2.07,0.26,3.04c2.15-1.15,4-2.6,5.65-4.32
		c1.47-1.52,2.99-2.99,4.62-4.33c0.63,0.41,0.42,1.06,0.44,1.63c0.03,0.71,0,1.43,0,2.15c-0.37,0.63-0.52,1.35-0.98,1.96
		C195.84,249.98,196.72,249.69,196.8,249.98z"/>
	<path class="st68" d="M414.89,251.51c0.18,0.71,0.65,0.78,1.29,0.65c7.38-1.55,14.75-3.1,22.13-4.64c0.54-0.11,1.12-0.12,1.64-0.32
		c2.09-0.79,3.56,0.52,5.1,1.5c0.36,0.23,0.16,0.67-0.15,0.95c-0.12-0.78-0.65-0.82-1.26-0.67c-3.48,0.9-7.02,1.52-10.54,2.26
		c-6.85,1.45-13.69,2.94-20.54,4.38c-3.21,0.68-6.39,1.54-9.65,1.98c-0.84,0.11-1.32,0.55-1.57,1.51c-2.5,9.79-5.3,19.51-7.72,29.32
		c-0.95,3.85-2.07,7.66-3.1,11.5c-1.39,5.15-2.78,10.3-4.15,15.45c-1.75,6.59-3.57,13.16-5.21,19.78
		c-1.19,4.82-2.66,9.55-3.79,14.38c-0.24,1.01-0.98,2.09-0.18,3.19c-0.51,0.29-0.89,0.16-1.33-0.23c-2.14-1.92-2.14-1.94-1.35-4.94
		c2.64-9.97,5.26-19.95,7.88-29.93c0.68-2.58,1.6-5.1,1.98-7.76c0.79-1.1,0.93-2.42,1.26-3.67c0.92-3.47,1.78-6.96,2.65-10.45
		c0.17-0.69,0.46-1.44-0.29-2.02c1.14-2.86,1.72-5.87,2.51-8.83c1.54-5.59,3.04-11.19,4.43-16.82c0.87-3.49,1.87-6.95,2.7-10.45
		c0.4-1.67,1.27-2.56,2.95-2.86c3.61-0.63,7.14-1.64,10.74-2.26C412.58,252.32,413.65,251.67,414.89,251.51z"/>
	<path class="st4" d="M340.08,202.61c1.82-2.61,3.1-5.53,4.69-8.28c0.74-1.28,1.39-2.61,2.16-4.07c0.41,0.62,0.1,0.97-0.05,1.32
		c-3.72,8.9-7.32,17.84-11.22,26.67c-0.1,0.23-0.19,0.46-0.3,0.68c-0.41,0.83-0.2,1.34,0.69,1.74c2.72,1.25,5.4,2.57,8.09,3.88
		c0.55,0.27,1.16,0.43,1.74,1.03c-0.54,0.18-0.98,0.09-1.41-0.02c-2.35-0.61-4.69-1.23-7.04-1.83c-1.63-0.42-1.67-0.43-2.49,1.05
		c-1.79,3.21-3.53,6.44-5.31,9.65c-3.99,7.18-7.95,14.38-12.03,21.52c-1.72,3.01-2.83,6.21-3.82,9.49
		c-1.79,5.89-3.59,11.78-5.42,17.66c-1.48,4.75-3,9.49-4.51,14.22c-0.19,0.58-0.23,1.23-0.72,1.69c0.36-2.9,1.19-5.71,1.95-8.52
		c2.74-10.19,5.06-20.5,8-30.64c0.28-0.97,0.64-1.88,1.1-2.75c4.47-8.39,8.95-16.77,13.42-25.16c1.72-3.23,3.43-6.46,5.13-9.66
		c-0.68-0.69-1.68-0.47-2.27-1.24C333.49,214.83,336.75,208.7,340.08,202.61z"/>
	<path class="st4" d="M481.68,245.56c-0.38-0.25-0.26-0.69-0.3-1.37c-0.09-1.66-0.15-3.32-0.18-4.98c-0.06-3.33-0.02-6.65,0.03-9.98
		c0.18-13.15-0.06-26.31,0-39.46c0.01-3.11,0.03-6.23,0.04-9.34c0.01-2.9,0.46-5.83,0.28-8.72c-0.04-0.66-0.05-1.27-0.88-1.39
		c1.43-0.51,2.63,0.32,3.91,0.68c0.5,0.14,0.35,0.74,0.35,1.16c0.01,1.93,0,3.86,0,5.79c0,21.62,0,43.23,0,64.85
		c0,1.06,0.09,1.99-1.03,2.55c-0.46,0.23-1.33,0.49-1.85,0.36C481.87,245.66,481.76,245.62,481.68,245.56z"/>
	<path class="st4" d="M123.56,242.08c-0.99,0.08-1.96,0.13-2.93-0.22c-0.55-0.19-0.82-0.49-0.81-1.07c0.01-0.43-0.01-0.87-0.01-1.3
		c0-5.13,0.01-10.26,0-15.4c0-0.74-0.08-1.48-0.12-2.21c0.04-0.55,0.12-1.11,0.12-1.66c0-7.49-0.01-14.99-0.02-22.48
		c0.01-8.46,0.02-16.92,0.03-25.38c0-0.44-0.02-0.87,0.01-1.31c0.08-1.16,0.27-1.36,1.49-1.42c0.74-0.03,1.49,0.02,2.24,0.03
		c0.95,1.05,0.67,2.36,0.67,3.57c0.02,20.69,0.01,41.37,0.01,62.06c0,1.43,0,2.87,0,4.3C124.23,240.49,124.12,241.35,123.56,242.08z
		"/>
	<path class="st34" d="M455.4,140.06c0.28,1.83,0.51,3.67,0.86,5.49c0.13,0.68,0.16,1.35,0.24,2.03c-1.18,0.68-2.45,1.14-3.77,1.47
		c0.68-1.29,0.07-2.59-0.15-3.8c-1.5-8.41-3.09-16.8-4.77-25.17c-0.88-4.37-1.99-8.7-3.03-13.03c-2.29-9.52-4.73-19.01-7.36-28.44
		c-0.05-0.18-0.03-0.37-0.04-0.56c3.57-1.19,3.56-1.19,4.52,2.3c0.34,1.24,0.56,2.52,1.14,3.69c0.14,1.81,0.73,3.52,1.19,5.25
		c3.04,11.32,5.54,22.76,8.04,34.2c0.14,0.66-0.12,1.39,0.38,1.97C453.56,130.33,454.48,135.19,455.4,140.06z"/>
	<path class="st34" d="M156.06,300.84c1.2,0.6,2.39,1.23,3.8,1.15c1.23-0.26,2.34,0.01,3.33,0.77c0.58,0.34,1.16,0.63,1.84,0.8
		c5.03,1.28,10.04,2.63,15.05,3.96c8.16,2.19,16.32,4.38,24.47,6.58c3.06,0.82,6.12,1.64,9.17,2.49c1.53,0.43,1.54,0.46,1.5,1.97
		c-0.17,5.23-0.34,10.45-0.53,15.68c-0.15,4.11-0.41,8.21-0.48,12.32c-0.03,1.44-0.37,2.53-1.6,3.29c-0.36,0.22-0.54,0.7-1.04,0.72
		c-0.13-1.3-0.15-2.59,0.11-3.89c0.13-0.66,0.13-1.36,0.12-2.04c-0.12-5.97,0.43-11.92,0.51-17.89c0.03-2.03,0.2-4.08,0.3-6.13
		c0.06-1.09-0.4-1.54-1.4-1.8c-10.73-2.87-21.45-5.76-32.16-8.66c-4.01-1.09-8-2.25-12.02-3.33c-5.21-1.4-10.43-2.77-15.65-4.13
		c-1.62-0.42-1.63-0.37-1.64,1.33c-0.01,1.55-0.01,3.11-0.01,4.66c-0.67-1.97-0.26-4-0.34-6.01c-0.01-0.34,0.24-0.55,0.49-0.73
		c0.69-0.51,1.39-1.01,2.06-1.56c0.56-0.45,1.04-0.07,1.56,0.06C154.46,299.9,155.29,300.16,156.06,300.84z"/>
	<path class="st34" d="M478.61,277.37c-0.5-0.01-1.02-0.12-1.48,0c-4.56,1.19-9.22,1.88-13.82,2.9c-5.98,1.32-12,2.52-18,3.78
		c-4.79,1.01-9.57,2.03-14.36,3.05c-3.33,0.71-6.65,1.48-9.99,2.11c-0.89,0.17-1.26,0.57-1.53,1.34c-1.59,4.43-3.22,8.85-4.8,13.29
		c-1.94,5.44-3.86,10.88-5.78,16.32c-0.1,0.29-0.17,0.59-0.26,0.89c-0.55,0.85-1.2,0.51-1.73,0.05c-0.71-0.6-1.14-1.35-0.52-2.29
		c0.6-1.5,1.25-2.97,1.79-4.49c1.05-2.92,2.01-5.87,3.07-8.78c1.82-5.01,3.69-10,5.53-15c0.15-0.41,0.39-0.81,0.42-1.23
		c0.13-1.86,1.36-2.36,2.95-2.67c5.22-1.01,10.42-2.1,15.62-3.16c0.05-0.01,0.1-0.08,0.14-0.12c1.25-0.28,2.5-0.57,3.75-0.84
		c0.66-0.14,1.33-0.25,1.83-0.75c2.02-1.23,4.38-1.23,6.59-1.67c3.44-0.68,6.8-1.85,10.36-1.81c1.6,0.23,3.06-0.45,4.57-0.74
		c4.15-0.8,8.3-1.65,12.41-2.64c1.18-0.28,1.93-0.07,2.53,0.87C478.22,276.28,479.34,276.43,478.61,277.37z"/>
	<path class="st34" d="M114.97,281.35c1.11-0.36,2.21-0.72,3.4-0.64c0.81,2.49,2.11,4.77,3.24,7.11c4.64,9.64,9.13,19.35,13.8,28.98
		c2.04,4.2,4.16,8.35,6.15,12.57c1.22,2.58,2.45,5.16,3.7,7.73c0.29,0.6,0.45,1.33,1.24,1.54c-1.09,0.91-2.46,0.66-3.72,0.83
		c-0.63,0.08-0.74-0.55-0.95-0.98c-1.21-2.45-2.44-4.89-3.6-7.36c-6.51-13.81-13.01-27.62-19.52-41.43
		C117.01,287.12,115.31,284.54,114.97,281.35z"/>
	<path class="st4" d="M300.6,198.71c-0.88,0.12-1.66,0.52-2.44,0.89c-6.23,2.96-12.46,5.95-18.69,8.92
		c-2.58,1.23-5.17,2.46-7.75,3.68c-0.65,0.31-1.3,0.64-2.17,0.68c0.07-0.94,0.43-1.65,0.77-2.37c0.55-1.18,1.23-2.32,1.67-3.54
		c0.55-1.52,1.57-2.48,3-3.13c3.57-1.62,7.12-3.26,10.68-4.91c3.27-1.52,6.53-3.04,9.79-4.58c2.87-1.35,5.73-2.73,8.59-4.08
		c0.5-0.24,0.99-0.56,1.59-0.36c0.25,1.24-1.01,1.8-1.26,2.82c-1.25,1.87-2.19,3.93-3.57,5.72
		C300.8,198.59,300.79,198.72,300.6,198.71z"/>
	<path class="st21" d="M159.15,252.09c-0.89-3.95-1.71-7.64-2.56-11.33c-0.2-0.86,0.46-0.92,0.95-1.07c3.02-0.95,6.05-1.89,9.09-2.8
		c2.01-0.61,3.97-1.38,6.07-1.81c0.72,3.25,1.42,6.4,2.14,9.55c0.17,0.74-0.07,1.13-0.78,1.42
		C169.16,248.01,164.27,250.01,159.15,252.09z"/>
	<path class="st4" d="M285.88,234.32c-6.69,3.39-13.37,6.78-20.27,10.27c0.05-2.17,0.67-3.92,1.17-5.69
		c0.16-0.56,0.64-0.9,1.11-1.21c5.63-3.78,11.26-7.56,16.89-11.33c0.2-0.13,0.45-0.17,0.68-0.26c0.23,2.16-0.01,4.33,0.1,6.5
		C285.59,233.17,285.28,233.84,285.88,234.32z"/>
	<path class="st4" d="M285.89,172.61c-2.44,0.91-4.99,1.43-7.53,1.97c-5.52,1.19-11.02,2.47-16.52,3.72
		c-1.75,0.4-3.5,0.83-5.25,1.26c-0.55,0.14-1.09,0.2-1.64,0.14c-0.01-1.78,0.12-2.07,1.48-2.54c9.69-3.34,19.3-6.88,29.05-10.04
		c0.03,1.45,0.04,2.91,0.09,4.36C285.58,171.87,285.39,172.35,285.89,172.61z"/>
	<path class="st4" d="M318.56,202.83c-0.33-1.46-0.35-1.51-1.56-1c-1.36,0.58-2.68,1.26-4.01,1.91c-2.66,1.29-5.33,2.56-8.1,3.62
		c0.63-2.08,1.37-4.14,1.86-6.25c0.32-1.41,1.12-2.06,2.37-2.53c5.23-1.97,10.43-3.99,15.65-5.99c2.07-0.79,4.15-1.58,6.25-2.37
		c0.44,1.33-0.21,1.93-1.21,2.43c-4.22,2.1-8.42,4.23-12.91,6.5c2.22,0.12,1.87,1.59,1.89,2.85
		C318.78,202.28,318.86,202.61,318.56,202.83z"/>
	<path class="st21" d="M458.41,278.31c-1.99,0.88-4.16,1.06-6.25,1.55c-2.99,0.69-6.02,1.24-9.04,1.82c-0.54,0.1-1.11,0.07-1.66,0.1
		c1.03-3.64,2.43-7.15,3.73-10.81c1.8,0.65,3.27,1.68,4.83,2.52C452.85,275.03,455.73,276.49,458.41,278.31z"/>
	<path class="st4" d="M340.93,185.44c0.66-0.07,1.25-0.57,2.08-0.29c-0.28,1.38-1.05,2.48-1.71,3.64c-0.43,0.75-1.04,1.43-1.35,2.22
		c-0.87,2.2-2.55,3.56-4.47,4.81c-4.26,2.77-8.44,5.68-12.67,8.51c-0.93,0.62-1.91,1.16-2.84,1.78c-0.86,0.57-1.84,1-2.06,2.25
		c-0.11,0.6-0.76,0.95-1.33,1.24c-0.83,0.42-1.63,0.93-2.5,1.24c-2.2,0.8-3.69,2.46-5.21,4.1c-0.21,0.23-0.45,0.47-0.54,0.75
		c-0.51,1.58-1.08,3.15-0.9,4.85c-0.2,0.34-0.45,0.65-0.87,0.58c-0.55-0.09-0.37-0.57-0.35-0.9c0.06-1.18,0.19-2.35,0.23-3.53
		c0.02-0.6,0.22-1.06,0.62-1.5c1.08-1.2,2.13-2.43,3.2-3.64c0.45-0.51,0.95-0.97,1.59-1.27c2.53-1.18,4.76-2.78,6.94-4.54
		c4.31-3.46,8.73-6.81,13.3-9.93C336.02,193.12,338.71,189.52,340.93,185.44z"/>
	<path class="st4" d="M343.29,246.55c0.72-2.39,0.51-4.87,0.74-7.32c0.33,1.07,0.6,2.13,0.58,3.25c-0.08,4.35,0.35,8.69,0.49,13.03
		c0.15,4.58,0.59,9.16,0.72,13.75c0.06,2.27,0.96,4.34,1.77,6.42c0.35,0.92,0.71,1.84,1.11,2.89c-1.25,0.05-2.3-0.3-3.37-0.56
		c0.28-0.83-0.25-1.47-0.6-2.08c-1.81-3.07-2.12-6.37-1.91-9.86c0.36-5.9,0.49-11.82,0.69-17.73
		C343.52,247.75,343.75,247.1,343.29,246.55z"/>
	<path class="st69" d="M463.95,127c-0.8-2.41-1.02-4.95-1.44-7.43c-0.13-0.79-0.7-1.7-0.17-2.49c0.49-0.72,1.47-0.54,2.21-0.84
		c2.17-0.9,4.47-1.43,6.72-2.07c0.34-0.1,0.61,0.02,0.9,0.12C469.51,118.57,466.81,122.83,463.95,127z"/>
	<path class="st21" d="M114.97,281.35c1.05,2.27,2.11,4.54,3.17,6.81c0.23,0.5,0.53,0.97,0.57,1.54c-1.77,0.56-3.55,1.1-5.32,1.69
		c-0.68,0.23-0.99,0.07-1.18-0.66c-0.54-2.1-1.16-4.19-1.76-6.27c-0.08-0.29-0.23-0.57-0.35-0.85c0.33-0.26,0.72-0.47,0.97-0.79
		C112.06,281.49,113.44,281.23,114.97,281.35z"/>
	<path class="st4" d="M300.8,198.45c-0.16-1.16,0.84-1.8,1.25-2.71c0.54-1.2,1.19-2.38,2.19-3.31c0.42-0.77,1.2-1.09,1.94-1.36
		c4.15-1.51,8.27-3.13,12.43-4.6c0.56-0.2,1.16-0.55,1.74,0.01c-0.16,1.01-1,1.32-1.76,1.74c-3.23,1.78-6.53,3.45-9.49,5.69
		c-0.4,0.3-1.12,0.43-0.79,1.21C305.77,196.13,303.2,197.09,300.8,198.45z"/>
	<path class="st4" d="M368.25,131.13c-2.18,2.37-4.31,4.79-6.56,7.11c-1.9,1.96-4.11,3.34-6.59,4.41
		c-5.07,2.18-10.29,3.97-15.42,5.98c-2.13,0.83-4.26,1.7-6.41,2.5c-0.68,0.25-1.34,0.68-2.14,0.53c2.72-1.5,5.65-2.52,8.49-3.73
		c4.18-1.77,8.37-3.51,12.57-5.21c2.38-0.96,4.53-2.32,6.65-3.74c0.81-0.55,1.26-1.35,1.74-2.15c2.36-3.92,2.36-3.91,6.58-5.51
		C367.53,131.17,367.87,131.04,368.25,131.13z"/>
	<path class="st70" d="M110.81,264.19c-0.56,1.56-1.55,2.84-2.57,4.11c-1.48-1.08-1.73-2.86-2.41-4.37
		c-0.35-0.77-0.54-1.61-0.96-2.36c-0.07-0.07-0.08-0.15-0.04-0.24c0.56-1.44,1.53-2.5,2.97-3.1c0.2,2.21,1.55,3.93,2.51,5.81
		C110.37,264.14,110.64,264.14,110.81,264.19z"/>
	<path class="st4" d="M286.26,217.46c-1.24,0.63-2.48,1.26-3.71,1.89c-0.84,0.38-1.23-0.2-1.28-0.81c-0.12-1.5-0.43-3.06,0.51-4.46
		c1.14-0.79,2.32-1.5,3.7-1.77c0.02,1.47,0.07,2.94,0.06,4.41C285.53,217.28,285.71,217.53,286.26,217.46z"/>
	<path class="st4" d="M352.89,293.6c1.54-0.43,1.52-0.43,2.01,0.82c1.79,4.6,3.59,9.19,5.38,13.79c0.33,0.86,0.77,1.69,0.78,2.64
		c-1.31-1.75-1.89-3.87-2.84-5.8C356.36,301.28,354.66,297.42,352.89,293.6z"/>
	<path class="st4" d="M329.35,148.39c-0.34,1.29-1.07,1.9-2.29,2.25c-2.35,0.68-4.64,1.58-7.16,2.47c0.16-1.04,0.25-1.84,1.26-2.18
		c2.58-0.87,5.15-1.75,7.73-2.62C328.99,148.27,329.12,148.34,329.35,148.39z"/>
	<path class="st71" d="M349.07,286.38c-0.54-0.04-1.09-0.11-1.63-0.12c-0.91-0.02-1.76-0.24-2.09-1.15
		c-0.3-0.83-0.18-1.68,0.65-2.25c0.84-0.15,1.61-0.6,2.51-0.47c1.05,0.15,1.66,0.7,1.79,1.77
		C350.43,285.2,350.41,286.15,349.07,286.38z"/>
	<path class="st72" d="M104.87,261.56c0.66,0.35,0.86,1.03,1.14,1.64c0.76,1.69,1.49,3.39,2.23,5.09c-0.34,0.77-0.71,1.51-1.51,1.9
		C106.09,267.32,105.27,264.49,104.87,261.56z"/>
	<path class="st4" d="M349.07,286.38c1.1-0.63,0.85-1.66,0.73-2.61c-0.09-0.66-0.64-0.83-1.24-0.85c-0.85-0.02-1.71-0.05-2.56-0.07
		c0.22-0.39,1.15-0.08,0.9-0.92c0.49-0.04,0.97-0.09,1.46-0.12c1.65-0.11,1.64-0.11,2.21,1.49c0.33,0.92,0.7,1.83,1.02,2.75
		c0.22,0.64-0.05,0.94-0.72,0.85c-0.6-0.09-1.21-0.2-1.81-0.31C349,286.52,349.01,286.45,349.07,286.38z"/>
	<path class="st73" d="M181.16,147.52c-0.6-0.16-1.07-0.51-1.68-1.12c1.1-0.03,1.8,0.28,2.46,0.76
		C181.67,147.28,181.3,147.14,181.16,147.52z"/>
	<path class="st74" d="M147.1,161.1c0.62-0.02,1.25-0.15,1.85,0.13C148.32,161.3,147.7,161.36,147.1,161.1z"/>
	<path class="st75" d="M303.11,298.98c0.06,0.55,0.08,1.08-0.38,1.5C302.67,299.93,302.73,299.42,303.11,298.98z"/>
	<path class="st76" d="M331.16,151.63c-0.27,0.47-0.7,0.5-1.16,0.44C330.31,151.72,330.71,151.6,331.16,151.63z"/>
	<path class="st77" d="M430.14,316.79c0.14,0.24,0.16,0.46-0.11,0.63C429.93,317.18,429.91,316.96,430.14,316.79z"/>
	<path class="st78" d="M414.89,251.51c-0.21,0.75-0.73,0.98-1.48,1.14c-4.49,0.93-8.95,1.98-13.44,2.87
		c-1.05,0.21-1.4,0.64-1.63,1.62c-0.89,3.73-8.62,32.99-9.29,35.44c-0.14,0.51-0.06,1.35-1.04,1.17c-4.34-2.78-8.84-5.31-13.32-7.85
		c-1.75-0.99-3.04-2.19-3.89-4.03c-1.02-2.2-2.29-4.28-3.34-6.46c-0.5-1.04-1.22-1.66-2.25-2.05c-0.99-0.37-1.93-0.85-2.92-1.23
		c-1.65-0.64-2.42-1.99-1.99-3.73c0.74-3.02,1.52-6.02,2.3-9.03c2.27-8.84,4.54-17.69,6.77-26.35c0.23-0.34,0.42-0.34,0.6-0.31
		c2.05,0.34,2.07,0.35,2.67-1.71c3.59-12.29,7.52-24.46,11.62-36.59c0.24-0.7,0.54-1.38,0.81-2.08c0.6,0,0.82,0.47,1.08,0.88
		c1.18,1.88,2.14,3.89,3.22,5.82c0.45,0.81,0.36,1.41-0.7,1.55c-1,0.2-0.92,0.97-0.97,1.73c-0.08,1.14,0.76,1.43,1.84,1.89
		c-0.64,0.18-1.11,0.22-1.35,0.62c-0.26,0.45-0.29,0.94-0.26,1.44c0.06,0.99,0.81,1.12,1.56,1.26c0.42,0.08,0.84,0.19,1.25,0.29
		c-0.03,0.37-0.31,0.32-0.51,0.38c-0.74,0.21-1.7,0.15-1.72,1.3c-0.02,1.09,0.53,1.74,1.8,2.16c0.04,0.01,0.07,0.08,0.2,0.23
		c-0.7,0.78-1.21,1.68-0.41,2.72c0.3,0.78,0.22,1.57,0.05,2.37c-0.92,4.1-1.71,8.22-2.63,12.32c-0.17,0.77-0.45,1.45-1.18,1.78
		c-1.37,0.62-2.41,1.7-3.66,2.49c-1.24,1.35-1.74,3.13-2.8,4.59c1.58,0.68,1.64,0.67,2.54-0.39c0.44-0.51,0.87-1.03,1.51-1.78
		c0.16,0.89-0.02,1.5-0.18,2.09c-0.7,2.64-1.42,5.28-2.11,7.93c-0.09,0.37-0.46,0.82,0.14,1.13c0.5,0.26,0.95,0.34,1.23-0.28
		c0.49-1.07,0.98-2.15,1.47-3.22c0.33-0.73,0.67-1.45,1.06-2.28c0.41,0.75,0.14,1.36,0.02,1.97c-0.33,1.65-0.65,3.29-1.01,4.93
		c-0.13,0.58-0.31,1.09,0.49,1.31c0.79,0.22,0.95-0.33,1.18-0.85c0.7-1.6,1.24-3.25,1.71-4.93c0.06-0.23,0.14-0.46,0.3-0.99
		c0.4,2.32-0.28,4.25-0.45,6.28c0.88,0.46,1.44,0.25,1.8-0.76c0.75-2.09,1.7-4.12,1.41-6.83c0.85,1.68,0.86,2.99,0.46,4.35
		c-0.07,0.25-0.19,0.65,0.21,0.79c0.34,0.13,0.61-0.06,0.78-0.35c0.64-1.08,1.13-2.19,1.07-3.51c-0.14-3.36,0.03-6.72,0.16-10.08
		c0.02-0.57-0.14-1.15,0.66-1.54c0.57-0.28,0.6-1.18,0.81-1.83c1.38-4.26,2.78-8.51,4.13-12.77c0.29-0.92,0.6-1.5,1.78-1.3
		c1.55,0.27,3.14-0.08,4.62-0.48c3.14-0.85,6.23-0.75,9.39-0.24c4.36,0.71,8.74,1.28,13.11,1.9c0.01,3.86,0.02,7.72,0.02,11.59
		c0,1.76-0.01,1.76,1.65,2.27c0.41,0.13,0.81,0.28,1.66,0.56c-1.1,0.1-1.75,0.03-2.41-0.09c-0.67-0.12-1.36-0.17-2.03-0.27
		c-1.9-0.3-3.81-0.59-5.71-0.95c-1.91-0.36-3.68-0.1-5.31,0.96c0,0,0.01,0,0.01,0c-0.33,0.85,0.04,1.76-0.23,2.61
		C415.45,239.24,414.95,245.36,414.89,251.51z"/>
	<path class="st4" d="M434.04,203.59c-0.36-0.32-0.8-0.28-1.24-0.3c-1.76-0.09-1.78-0.1-1.78-1.76c-0.01-4.86-0.01-9.72-0.01-14.57
		c0-1.82,0.12-1.81,1.85-2.03c3.87-0.49,7.73-1.09,11.59-1.65c3.74-0.55,7.48-1.12,11.22-1.68c2.82-0.42,5.64-0.83,8.46-1.26
		c3.68-0.56,7.35-1.16,11.02-1.7c1.62-0.24,1.86,0,1.86,1.62c0,18.31,0,36.62-0.01,54.93c0,1.83-0.28,2.05-2.13,1.57
		c-3.13-0.8-6.24-1.67-9.36-2.5c-7.26-1.92-14.53-3.82-21.79-5.74c-3.84-1.02-7.66-2.1-11.51-3.07c-0.92-0.23-1.22-0.62-1.2-1.51
		c0.04-1.62,0-3.24,0-4.86c0.01-1.89,0.01-1.89,1.91-2.02c4.25,0.58,8.5,1.17,12.75,1.75c2.09,0.29,4.19,0.58,6.28,0.84
		c1.19,0.14,1.39,0,1.46-1.06c0.28-4.22,0.57-8.44,0.8-12.66c0.08-1.52,0.02-1.52-1.53-1.59
		C446.48,204.09,440.26,203.84,434.04,203.59z"/>
	<path class="st79" d="M446.71,166.28c0.14,3.47,0.28,6.94,0.43,10.4c-5.78,1.13-11.56,2.26-17.34,3.39
		c-1.67,0.33-1.65,0.33-1.65,1.98c0.01,6.52,0.02,13.05,0.02,19.57c0,0.55,0.09,1.12-0.15,1.65c-5.23-0.19-10.45-0.4-15.68-0.56
		c-0.88-0.03-1.5-0.31-2.07-0.98c-1.08-1.28-2.28-2.47-3.39-3.73c-0.93-1.06-1.95-1.9-3.41-2.06c-1.65-0.17-2.47-1.08-2.97-2.72
		c-2.32-7.54-4.79-15.04-7.24-22.65c1.19-0.64,2.56-0.78,3.8-1.28c0.53-0.21,0.97,0.12,1.39,0.37c1.22,0.74,2.44,1.49,3.63,2.29
		c1.18,0.8,1.06,2.42-0.2,3.11c-0.98,0.53-1.98,1.04-2.98,1.54c-0.77,0.38-1.04,1.03-1.02,1.84c0.03,1.17,0.3,1.38,1.48,1.06
		c2.52-0.67,5.03-1.37,7.56-2.03c0.51-0.13,0.92-0.36,1.28-0.71c0.45-0.43,0.97-0.82,1.3-1.33c1.5-2.35,3.79-3.07,6.39-3.54
		c10.04-1.79,20.05-3.72,30.07-5.59C446.2,166.26,446.46,166.29,446.71,166.28z"/>
	<path class="st80" d="M320.36,186.49c-2.23,0.52-4.29,1.51-6.43,2.28c-3.25,1.17-6.46,2.44-9.68,3.67
		c-0.46-0.25-0.09-0.49,0.04-0.68c0.43-0.62,0.9-1.23,1.35-1.84c0.7-0.63,1.5-1.09,2.35-1.48c6.09-2.81,12.17-5.64,18.62-8.63
		c-2.32-0.74-3.95-2.19-6.55-1.35c-9.21,2.99-18.51,5.71-27.78,8.53c-0.12,0.04-0.24,0.05-0.57,0.12c0.34-1.22,0.65-2.36,1.02-3.71
		c-2.3,0.52-4.35,1.32-6.44,1.98c-1.27,0.26-1.23-0.73-1.34-1.47c-0.11-0.8-0.07-1.6,0.51-2.26c0.13-0.13,0.24-0.31,0.4-0.37
		c4.41-1.81,8.82-3.6,13.23-5.4c0.28-0.83,1.07-0.97,1.74-1.25c1.94-0.81,3.89-1.6,5.84-2.4c2.21-0.91,4.25-1.96,5.64-4.03
		c0.42-0.63,0.98-1.31,1.93-1.25c4.14-1.32,8.14-3.02,12.19-4.59c9.67-3.77,19.43-7.26,29.25-10.61c0.47-0.16,0.93-0.34,1.4-0.51
		c0.97,1-0.1,1.37-0.64,1.73c-2.17,1.42-4.34,2.86-6.7,3.96c-3.69,1.65-7.62,2.59-11.41,3.91c-0.94,0.33-1.88,0.62-2.82,0.95
		c-1.74,0.62-1.74,0.63-1.65,2.85c1.35-0.55,2.65-1.08,3.96-1.6c5.46-2.2,10.92-4.4,16.38-6.58c0.75-0.3,1.52-0.53,2.28-0.79
		c1.18-0.13,2.35-0.03,3.52,0.04c0.93,0.06,1.93,0.12,2.21,1.29c0.28,1.2,0.27,2.35-0.8,3.23c-0.39,0.32-0.83,0.55-1.29,0.73
		c-3.62,1.43-7.28,2.75-11.03,3.81c-0.19,0.01-0.42-0.05-0.55,0.04c-1.62,1.14-3.54,1.38-5.39,1.85c-0.63,0.71-1.52,0.77-2.36,0.9
		c-3.38,0.51-6.72,1.39-10.18,1.3c-3.6,0.31-7.11,1.15-10.61,1.96c-5.02,1.16-9.99,2.52-14.95,3.91c-1.05,0.29-1.56,0.77-1.88,1.75
		c-0.5,1.51-1.13,2.98-1.8,4.71c3.93-1.21,7.57-2.38,11.23-3.46c4.23-1.24,8.34-2.91,12.65-3.81c5.11-1.06,10.25-1.93,15.38-2.89
		c0.48,1.05-0.51,1.03-0.99,1.24c-2.28,0.99-4.62,1.82-6.93,2.72c-0.23,0.09-0.47,0.17-0.69,0.28c-0.81,0.4-2.07,0.69-1.64,1.84
		c0.36,0.95,1.43,0.27,2.15,0.1c6.47-1.48,12.89-3.2,19.42-4.38c0.76-0.14,1.79-0.82,2.29,0.51c-4.67,1.8-9.34,3.61-14.01,5.41
		c-6.47,2.51-12.87,5.18-19.42,7.48C320.67,186.27,320.52,186.39,320.36,186.49z"/>
	<path class="st4" d="M354.27,173.32c-0.4-0.71-0.98-0.27-1.46-0.18c-6.63,1.31-13.18,2.94-19.75,4.49
		c-1.13,0.27-2.23,0.71-3.41,0.65c-0.36-0.51-0.05-1.01-0.1-1.49c-0.1-0.87,0.3-1.31,1.13-1.62c2.9-1.07,5.79-2.19,8.65-3.36
		c0.45-0.18,1.17-0.09,1.31-0.82c1.66-0.42,3.37-0.58,5.05-0.95c3.62-0.79,7.27-1.48,10.93-2.1c1.87-0.32,3.71-0.86,5.86-0.95
		c-0.58,1.09-1.38,1.69-2.09,2.32c-1.58,1.38-3.03,2.95-5.05,3.73C354.99,173.18,354.67,173.4,354.27,173.32z"/>
	<path class="st4" d="M254.5,195.8c-3.36,1.1-6.72,2.16-10.06,3.3c-2.59,0.88-5.27,1.45-7.79,2.55c-0.15,0.07-0.36,0.01-0.69,0.01
		c0.24-2.02,0.83-3.89,1.34-5.77c0.15-0.56,0.59-0.73,1.09-0.9c5.78-1.92,11.55-3.86,17.32-5.79c0.3-0.1,0.6-0.16,0.92,0.22
		c-0.53,0.96-1.09,1.97-1.71,3.09c1.19,0.55,2.25-0.41,3.31-0.08c-0.35,1.88-2.3,1.7-3.39,2.62
		C254.61,195.25,253.81,195.19,254.5,195.8z"/>
	<path class="st4" d="M254.5,195.8c-0.29-0.06-0.62,0.05-0.88-0.23c0.27-0.8,1.08-0.92,1.68-1.3c0.97-0.63,2.22-0.79,2.93-1.82
		c4.58-1.55,9.01-3.46,13.48-5.28c4.36-1.77,8.7-3.58,13.05-5.36c0.22-0.09,0.48-0.1,0.71-0.15c0.03,0.99,0.09,1.97,0.08,2.96
		c-0.01,0.55,0.22,0.78,0.74,0.78c-1.38,0.71-2.89,1.07-4.35,1.55C272.81,189.9,263.65,192.85,254.5,195.8z"/>
	<path class="st4" d="M266.08,224.58c-2.37,1.36-4.72,2.76-7.11,4.08c-4.8,2.63-9.63,5.22-14.45,7.82
		c-0.43,0.23-0.83,0.56-1.43,0.53c0.05-1.51,0.77-2.85,1.05-4.29c0.11-0.59,0.68-0.85,1.19-1.1c4.82-2.33,9.61-4.71,14.47-6.97
		c1.86-0.87,3.55-2.08,5.53-2.69C266.77,222.27,266.92,222.79,266.08,224.58z"/>
	<path class="st4" d="M314.25,166.94c-0.14,0.12-0.3,0.23-0.41,0.37c-2.26,3.21-5.47,5.03-9.09,6.32c-1.91,0.68-3.77,1.49-5.65,2.24
		c-0.53-0.26-0.96-0.5-0.58-1.26c0.68-1.32,1.27-2.69,1.89-4.04c0.47-1.02,1.23-1.68,2.3-2.02c3.78-1.21,7.56-2.42,11.34-3.63
		c0.24-0.08,0.48-0.14,0.84,0.07C315,165.69,314.41,166.26,314.25,166.94z"/>
	<path class="st4" d="M266.08,224.58c0-0.6-0.01-1.19-0.01-1.79c0-0.5-0.25-0.77-0.74-0.83c5.19-2.54,10.28-5.25,15.57-7.58
		c0.28-0.12,0.59-0.19,0.88-0.28c-0.03,1.3-0.02,2.61-0.11,3.91c-0.05,0.73,0.08,1.23,0.88,1.35c-2.41,0.77-4.84,1.49-7.23,2.32
		C272.26,222.74,269.17,223.65,266.08,224.58z"/>
	<path class="st4" d="M349.1,164.75c1.99-1.14,4.18-1.81,6.31-2.62c1.62-0.61,3.24-1.2,4.84-1.86c1.45-0.6,1.86-1.42,1.66-2.91
		c-0.09-0.64-0.4-1.06-1.02-1.13c-1.47-0.17-2.9-0.64-4.4-0.59c1.09-0.62,2.35-0.46,3.43-0.38c2.97,0.21,5.79-0.39,8.63-1.02
		c0.28-0.06,0.55-0.3,0.94-0.03c-0.92,1.09-2.27,1.5-3.41,2.19c-0.97,0.59-1.68,1.2-1.83,2.36c-0.21,1.62-1.22,2.41-2.77,2.83
		c-3.41,0.93-6.78,1.99-10.16,2.99C350.59,164.79,349.85,164.83,349.1,164.75z"/>
	<path class="st81" d="M330.63,168.84c2.42-0.77,4.94-0.99,7.42-1.43c1.69-0.3,3.37-0.77,5.11-0.76c0.34,0.68-0.04,1.15-0.6,1.32
		c-3.89,1.26-7.65,2.91-11.73,3.97c-0.3-1.19,0.13-2.01,0.82-2.7C331.38,168.71,330.93,168.99,330.63,168.84z"/>
	<path class="st4" d="M382.68,233.55c0.8-1.15,1.82-2.04,3.11-2.58c0.77-0.32,1.07-0.81,1.23-1.64c0.98-4.92,2.05-9.83,3.09-14.75
		c1.64,0.64,1.68,0.65,1.23,2.36c-0.92,3.48-2.09,6.9-2.76,10.42c-0.49,2.61-1.81,4.25-4.1,5.28
		C383.86,232.94,383.45,233.61,382.68,233.55z"/>
	<path class="st4" d="M388.66,200.59c0.23-0.32,0.96-0.28,0.48-1.07c-1.42-2.36-2.73-4.79-4.08-7.19c-0.19-1.67-1.28-3.06-1.55-5.04
		c1.07,1.07,1.63,2.14,2.27,3.13c1.86,2.85,3.69,5.73,5.5,8.61c0.75,1.2,0.59,1.5-0.77,1.57
		C389.9,200.63,389.28,200.6,388.66,200.59z"/>
	<path class="st4" d="M349.75,156.91c1.84-1.55,3.97-2.65,5.92-4.02c0.5-0.35,1.02-0.69,1.5-1.07c0.23-0.18,0.16-0.43-0.08-0.6
		c1.72-0.6,3.44-1.21,5.16-1.81c-1.32,1.52-2.97,2.49-4.57,3.51c-1.99,1.26-4.09,2.35-6.15,3.5
		C350.97,156.72,350.41,157,349.75,156.91z"/>
	<path class="st82" d="M387.35,164.74c0.98-1.13,1.86-2.49,4.06-1.7C389.73,163.38,388.79,164.62,387.35,164.74z"/>
	<path class="st83" d="M393.41,166.36c-0.75,0.56-1.51,1.07-2.73,0.92C391.55,166.37,392.51,166.46,393.41,166.36z"/>
	<path class="st84" d="M406.35,318.82c0.33,2.01,0.65,2.33,2.25,2.23c1.65,0.22,3.12-0.57,4.66-0.89c2-0.41,3.95-1.05,5.93-1.57
		c1.13-0.3,1.34-0.07,1.01,1.05c-0.36,1.25-0.79,2.48-1.1,3.74c-0.28,1.14-0.95,1.78-2.06,2.17c-4.74,1.66-9.46,3.38-14.19,5.08
		c-4.03,1.45-8.05,2.92-12.07,4.38c-0.57,0.21-1.13,0.5-1.77,0.43c-0.36-0.54-0.21-1.07-0.07-1.62c0.71-2.95,1.43-5.89,2.08-8.86
		c0.24-1.08,0.76-1.7,1.86-2.02c3.86-1.11,7.71-2.29,11.55-3.45C405.07,319.3,405.71,319.05,406.35,318.82z"/>
	<path class="st85" d="M396.74,338.35c-0.03-0.23-0.05-0.3-0.05-0.35c0.14-2.45,1.52-3.61,3.84-4.28c5.02-1.45,9.79-3.64,14.73-5.33
		c0.66-0.23,1.44-0.94,2.06-0.34c0.68,0.66-0.19,1.5-0.2,2.29c-0.01,0.48-0.46,0.68-0.9,0.82c-5.53,1.72-10.75,4.27-16.22,6.13
		C398.95,337.64,398,338.31,396.74,338.35z"/>
	<path class="st86" d="M460.55,309.05c-0.66,1.82-2.4,2.76-3.47,4.27c0.57-1.77,1.33-3.42,2.31-4.96
		C459.53,309.01,460.02,309.07,460.55,309.05z"/>
	<path class="st87" d="M438.55,313.92c-0.52,0.87-1.04,1.75-1.62,2.73c-0.76-0.58-0.89-1.34-1.13-2.05
		C436.61,313.94,437.57,313.91,438.55,313.92z"/>
	<path class="st88" d="M149.88,316.74c-0.19,1.05-0.01,2.11-0.01,3.16c0,0.58-0.03,1.1-0.53,1.5c-1.44,1.17-2.86,2.37-4.36,3.62
		c-0.71-0.75-0.94-1.66-1.35-2.47c-0.95-1.88-1.86-3.79-2.8-5.68c-0.28-0.56-0.36-0.99,0.24-1.43c2.9-2.13,5.61-4.52,8.62-6.5
		C149.75,311.54,149.82,314.14,149.88,316.74z"/>
	<path class="st4" d="M189.69,318.97c0-0.25,0-0.5,0-0.75c0.01-0.67,0.33-0.86,0.97-0.69c2.04,0.56,4.09,1.08,6.14,1.63
		c3.19,0.86,6.37,1.73,9.55,2.6c0.47,0.13,1.07,0.13,1.19,0.73c0.16,0.79,0.25,1.63-0.09,2.38c-0.22,0.49-0.77,0.3-1.18,0.21
		c-1.51-0.36-3.02-0.75-4.53-1.15c-3.43-0.91-6.86-1.83-10.29-2.75C189.69,320.71,189.69,320.7,189.69,318.97z"/>
	<path class="st4" d="M206.32,341.04c-0.02,2.13-1.31,3.53-3.26,3.53c-1.97,0-3.93-2.3-3.85-4.53c0.06-1.81,1.72-3.52,3.27-3.4
		C204.75,336.82,206.34,338.51,206.32,341.04z"/>
	<path class="st34" d="M122.4,279.48c2.66-1.2,5.23-2.6,8.12-3.21c1.34-0.29,2.67-0.59,4.06-0.47c0.43,0.04,0.87,0.02,1.31,0.01
		c0.7-0.03,1.24-0.39,1.34-1.07c0.12-0.74-0.61-0.91-1.11-1.03c-1.45-0.34-2.92-0.56-4.42-0.58c-0.78-0.01-2.07,0.57-2.25-0.47
		c-0.13-0.75,1.26-0.72,1.97-1.03c2.44-1.04,5.02-0.7,7.56-0.68c0.89,0.01,1.58-0.16,1.95-1.08c0.26-0.63,0.26-1.05-0.52-1.26
		c-0.6-0.17-1.21-0.24-1.83-0.33c-2.39-0.36-4.76-0.87-7.19-0.34c-0.35,0.08-0.73,0.01-1.53,0.01c2.02-1.26,3.71-2.17,5.76-2.27
		c1.49-0.07,2.98-0.2,4.45-0.39c1.27-0.17,1.79-1.12,1.24-2.11c-0.31-0.56-0.88-0.69-1.43-0.74c-0.8-0.08-1.62-0.02-2.43-0.07
		c-2.89-0.19-5.71,0.09-8.42,1.18c-0.22,0.09-0.44,0.26-0.79-0.01c1.85-1.27,3.49-2.78,5.95-2.76c0.83,0.01,1.71-0.29,2.5-0.69
		c0.49-0.25,0.78-0.59,0.7-1.18c-0.09-0.64-0.44-1.07-1.09-1.06c-2.58,0.07-5.17-0.2-7.64,1.12c-2.85,1.52-5.85,2.76-8.79,4.11
		c-0.38,0.17-0.76,0.45-1.3,0.22c0.11-0.93,0.74-1.42,1.44-1.79c1.97-1.02,2.7-2.64,2.46-4.78c0.75,2.01,0.72,1.93,2.86,1.22
		c7.61-2.53,15.03-5.55,22.54-8.34c0.84-0.31,1.18-0.18,1.54,0.65c1.5,3.42,3.11,6.78,4.76,10.13c1.59,3.23,3.05,6.54,4.55,9.81
		c0.55,1.19,0.48,1.35-0.74,2.03c-6.57,3.67-13.17,7.27-19.69,11.02c-2.97,1.7-6.02,3.24-8.97,4.97c-1.71,1-1.91,0.93-2.79-0.89
		c-1.01-2.07-1.96-4.16-2.95-6.24C123.3,280.49,123.08,279.81,122.4,279.48z"/>
	<path class="st89" d="M160.01,275.32c0.93,1.54,0.94,1.56-0.38,2.41c-9.14,5.92-18.25,11.88-27.51,17.61
		c-0.36,0.22-0.69,0.54-1.22,0.53c-0.11-0.18-0.25-0.38-0.36-0.6c-0.67-1.34-0.68-1.36,0.57-2.15c6.02-3.76,12.04-7.52,18.06-11.27
		c3.06-1.91,6.13-3.81,9.2-5.71C158.9,275.83,159.36,275.39,160.01,275.32z"/>
	<path class="st90" d="M133.08,300.51c-0.18-0.32-0.33-0.53-0.42-0.75c-0.54-1.28-0.55-1.3,0.56-2.05c2.99-2.01,6-3.99,8.99-6
		c3.76-2.54,7.5-5.1,11.25-7.65c0.77-0.52,1.55-1.03,2.27-1.5c0.45,0.13,0.47,0.48,0.62,0.73c0.47,0.76,0.15,1.19-0.53,1.65
		c-2.46,1.68-4.86,3.45-7.32,5.13c-4.92,3.37-9.85,6.71-14.79,10.06C133.56,300.25,133.39,300.33,133.08,300.51z"/>
	<path class="st91" d="M149.19,292.31c0.2,0.15,0.34,0.2,0.38,0.3c0.83,2.06,1.04,1.57-0.65,2.77c-4.54,3.25-9.05,6.53-13.56,9.79
		c-0.15-0.13-0.28-0.2-0.32-0.3c-1-2.42-1.24-1.73,0.8-3.2C140.27,298.5,144.76,295.42,149.19,292.31z"/>
	<path class="st92" d="M156.06,300.84c-0.91,0.2-1.69-0.41-2.57-0.4c-0.15-0.73,0.48-0.95,0.89-1.26c3.25-2.49,6.52-4.95,9.79-7.42
		c0.84-0.63,1.68-1.26,2.51-1.9c1.07,1.37,1.11,1.42-0.13,2.43c-2.79,2.27-5.62,4.48-8.43,6.71
		C157.41,299.58,156.6,300.06,156.06,300.84z"/>
	<path class="st93" d="M163.19,302.75c-1.2,0.14-2.26-0.35-3.33-0.77c2.81-2.74,6.11-4.87,8.96-7.37c0.53,0.03,0.65,0.33,0.79,0.6
		c0.84,1.54,0.82,1.52-0.55,2.68C167.14,299.55,165,300.95,163.19,302.75z"/>
	<path class="st94" d="M139.31,313.62c-1.29-2.44-1.31-2.47,0.65-3.81c0.8-0.55,1.48-1.29,2.43-1.62c1.1,2.27,1.1,2.27-0.76,3.73
		C140.91,312.48,140.16,313,139.31,313.62z"/>
	<path class="st34" d="M123.56,242.08c0-24.14-0.01-48.28-0.01-72.41c4.42,1.02,8.73,2.4,13.08,3.65c1.06,0.87,2.43,0.85,3.64,1.25
		c3.88,1.28,7.8,2.45,11.69,3.69c3.36,1.07,6.72,2.17,10.08,3.26c0.41,0.13,0.81,0.3,1.22,0.44c1,0.34,1.53,0.95,1.44,2.08
		c-0.08,1.05-0.03,2.11-0.04,3.16c-2.4-1.06-4.98-1.52-7.49-2.19c-7.25-1.95-14.53-3.8-21.74-5.9c-2.15-0.63-2.16-0.61-2.16,1.6
		c0.01,19.61,0.01,39.22,0.02,58.82c-1.67,0.8-3.51,0.98-5.27,1.46C126.55,241.41,125.05,241.73,123.56,242.08z"/>
	<path class="st34" d="M135.55,227.7c0-1.43-0.02-2.86,0.01-4.3c0.03-1.6,0.13-1.68,1.66-1.82c3.95-0.37,7.88-0.84,11.83-1.17
		c2.03-0.17,4.05-0.55,6.09-0.66c1.68-0.09,1.71-0.01,1.72,1.6c0.02,2.18,0.02,4.36,0.01,6.54c-0.01,1.4-0.17,1.65-1.52,1.85
		c-5.21,0.79-10.27,2.34-15.48,3.11c-0.92,0.14-1.8,0.5-2.71,0.66c-1.25,0.21-1.57-0.07-1.59-1.33
		C135.52,230.69,135.54,229.19,135.55,227.7z"/>
	<path class="st34" d="M160.59,215.57c0-1.93-0.02-3.85,0.01-5.78c0.02-1.42,0.24-1.72,1.62-1.64c3.34,0.2,6.68,0.42,10.03,0.34
		c0.82-0.02,1.07,0.42,1.07,1.16c-0.01,3.48,0.02,6.96-0.01,10.43c-0.01,1.03-0.38,1.36-1.52,1.47c-3.13,0.3-6.26,0.64-9.38,1.11
		c-1.57,0.24-1.78-0.02-1.8-1.7C160.59,219.18,160.6,217.38,160.59,215.57C160.6,215.57,160.6,215.57,160.59,215.57z"/>
	<path class="st95" d="M135.94,187.96c1.69,0,3.12,0.45,4.58,0.72c2.56,0.48,5.11,1.04,7.68,1.49c0.97,0.17,1.36,0.57,1.34,1.59
		c-0.07,3.05-0.08,6.1-0.06,9.14c0.01,0.89-0.24,1.19-1.18,1.1c-3.77-0.37-7.56-0.66-11.34-0.97c-0.51-0.04-1.02-0.01-1.02-0.75
		C135.94,196.2,135.94,192.11,135.94,187.96z"/>
	<path class="st96" d="M136.08,182.26c2.51,0.38,4.94,1.14,7.41,1.71c2.42,0.56,4.82,1.21,7.23,1.81c1.71,0.42,1.71,0.42,1.54,2.51
		c-0.58,0.15-1.16-0.03-1.75-0.17c-4.18-0.95-8.35-1.91-12.54-2.83C135.68,184.79,135.67,184.82,136.08,182.26z"/>
	<path class="st34" d="M174.94,205.71c-1.36,0.73-2.73,0.58-4.1,0.4c-0.37-0.05-31.14-1.74-33.99-1.74c-0.18,0-0.38-0.02-0.55-0.07
		c-0.31-0.1-0.58-0.26-0.54-0.64c0.03-0.33,0.31-0.37,0.55-0.37c1.43,0,30.94,1.79,34.91,1.87
		C172.46,205.2,173.7,205.52,174.94,205.71z"/>
	<path class="st97" d="M153.57,215.18c0.46,0,1.33,0,2.2,0c0.44,0,0.71,0.17,0.69,0.65c-0.01,0.41-0.11,0.74-0.58,0.81
		c-0.25,0.03-0.5,0.04-0.74,0.06c-6.02,0.47-12.05,0.93-18.07,1.4c-0.57,0.04-1.13,0.18-1.16-0.72c-0.03-0.76,0.19-1.16,1-1.2
		c2.55-0.14,5.1-0.35,7.65-0.47C147.43,215.57,150.3,215.51,153.57,215.18z"/>
	<path class="st98" d="M146.65,213.97c-3.62,0.14-6.55,0.26-9.47,0.37c-0.62,0.02-1.26,0.17-1.29-0.83c-0.02-0.9,0.44-1,1.15-1.02
		c3.05-0.06,6.1-0.16,9.16-0.22c2.87-0.06,5.73-0.08,8.6-0.11c0.37,0,0.75,0,1.12,0.02c0.38,0.02,0.53,0.25,0.54,0.61
		c0.01,0.33-0.07,0.65-0.43,0.72c-0.42,0.09-0.86,0.1-1.3,0.12C151.8,213.75,148.87,213.71,146.65,213.97z"/>
	<path class="st99" d="M153.4,198.01c2.44,0.35,5.21,0.75,7.98,1.16c3.63,0.53,7.27,1.04,10.89,1.63c0.57,0.09,1.69-0.11,1.56,0.83
		c-0.14,0.96-1.1,0.41-1.69,0.33c-5.37-0.67-10.74-1.38-16.11-2.07c-1.05-0.14-2.1-0.29-3.15-0.38c-0.6-0.05-0.92-0.26-0.9-0.9
		C152.01,197.79,152.59,198.02,153.4,198.01z"/>
	<path class="st100" d="M145.97,210.41c-2.8,0-5.6,0-8.4,0c-0.37,0-0.75,0-1.12-0.03c-0.51-0.03-0.54-0.41-0.54-0.8
		c0-0.4,0.07-0.75,0.57-0.78c0.25-0.01,0.5-0.01,0.75-0.01c5.73,0.07,11.45,0.15,17.18,0.23c0.5,0.01,1,0.04,1.49,0.11
		c0.35,0.05,0.49,0.33,0.5,0.68c0.01,0.37-0.16,0.59-0.53,0.62c-0.37,0.03-0.74,0.03-1.12,0.03c-2.93,0-5.85,0-8.78,0
		C145.97,210.45,145.97,210.43,145.97,210.41z"/>
	<path class="st101" d="M167.31,194.59c0.74,0.27,1.13,0.84,1.38,1.54c-4.48-0.63-8.9-1.54-13.34-2.41
		c-0.91-0.18-1.82-0.37-2.74-0.5c-0.72-0.11-0.69-0.59-0.64-1.1c0.07-0.71,0.6-0.51,0.98-0.43c3.82,0.79,7.63,1.6,11.45,2.39
		C165.37,194.28,166.3,194.69,167.31,194.59z"/>
	<path class="st102" d="M165.24,198.2c-4.05-0.64-8.09-1.28-12.14-1.93c-0.18-0.03-0.37-0.06-0.55-0.09
		c-0.61-0.08-0.62-0.5-0.57-0.96c0.05-0.53,0.41-0.52,0.81-0.45c4.15,0.74,8.31,1.47,12.46,2.21c0.06,0.01,0.12,0.02,0.18,0.03
		c0.45,0.12,0.85,0.3,0.7,0.88C166.01,198.41,165.6,198.29,165.24,198.2z"/>
	<path class="st103" d="M171.46,196.87c0.05-0.42,0.1-0.84,0.15-1.26c0.57-0.12,1.11,0.06,1.64,0.22c0.37,0.11,0.37,0.47,0.32,0.78
		c-0.05,0.34-0.25,0.56-0.64,0.5C172.44,197.02,171.95,196.94,171.46,196.87z"/>
	<path class="st104" d="M196.8,249.98c-0.65,0.1-1,0.9-1.98,0.78c0.75-1.26,1.52-2.36,2.46-3.34
		C197.36,248.31,197.62,249.25,196.8,249.98z"/>
	<path class="st105" d="M161.37,132.97c-2-2.62-4.36-4.91-6.56-7.36c-1.29-1.43-2.54-2.9-3.9-4.26c-0.66-0.66-0.65-1.23-0.23-1.95
		c0.62-1.06,1.03-2.25,1.88-3.33c1.39,1.59,2.72,3.15,4.08,4.67c3.35,3.75,6.71,7.5,10.08,11.24c1.34,1.49,1.35,1.47,0.25,3.22
		C164.92,134.92,162.95,134.42,161.37,132.97z"/>
	<path class="st34" d="M419.03,125.46c0.84-0.56,1.83-0.73,2.76-1.05c5.93-2,11.87-3.95,17.78-5.98c1.08-0.37,2.33-0.48,3.08-1.55
		c0.57,1.44,0.55,3,0.88,4.5c0.92,4.03,1.73,8.09,2.57,12.14c0.25,1.23,0.21,1.2-0.99,1.32c-4.39,0.44-8.79,0.43-13.19,0.33
		c-2.31-0.05-4.56,0.43-6.86,0.39c-0.43-0.01-0.88,0.03-1.3-0.04c-0.9-0.16-1.53-0.53-1.76-1.6c-0.52-2.48-1.26-4.91-1.78-7.39
		C420.05,125.75,419.74,125.47,419.03,125.46z"/>
	<path class="st34" d="M437.78,100.08c-0.71,0.91-1.75,1.36-2.67,1.97c-6.14,4.07-12.44,7.9-18.5,12.09
		c-0.14,0.1-0.35,0.11-0.53,0.16c0.38-0.7,0.37-1.37,0.09-2.14c-0.54-1.52-0.96-3.08-1.41-4.63c-0.43-1.5-0.23-1.83,1.31-2.22
		c6.56-1.67,13.12-3.32,19.67-5.02C436.44,100.11,437.1,100.04,437.78,100.08z"/>
	<path class="st34" d="M435.11,86.53c0.07,1.08-0.51,1.33-1.13,1.5c-4.2,1.16-8.27,2.72-12.41,4.05c-3.02,0.96-6.04,1.92-9.06,2.86
		c-1.34,0.42-1.52,0.31-1.89-0.92c-0.39-1.3-0.17-1.79,0.93-2.17c6.53-2.24,13.05-4.48,19.58-6.73c0.76-0.26,1.52-0.55,2.26-0.86
		c0.76-0.32,1.19-0.08,1.36,0.71C434.89,85.58,435.03,86.18,435.11,86.53z"/>
	<path class="st34" d="M426.1,143.81c2.05,0.59,4.51,0.2,6.89,0.72c0.65,0.14,0.93,0.34,1.06,1.02c0.36,2.01,0.82,4.01,1.25,6.01
		c0.4,1.87,0.05,2.26-1.86,1.92c-2.07-0.37-4.11-0.94-6.2-1.22c-1.35-0.18-1.87-0.74-2.03-2.06c-0.2-1.66-0.63-3.28-0.98-4.92
		c-0.3-1.41-0.3-1.43,1.18-1.46C425.53,143.81,425.65,143.81,426.1,143.81z"/>
	<path class="st106" d="M447.56,141.11c-1.93,0-3.66,0.05-5.39-0.01c-3.98-0.15-7.96-0.33-11.93-0.54
		c-2.01-0.11-2.01-0.15-2.38-2.38c0.46-0.42,1.04-0.24,1.57-0.23c5.41,0.08,10.83,0.2,16.24,0.26c0.96,0.01,1.53,0.24,1.61,1.28
		C447.32,139.97,447.45,140.46,447.56,141.11z"/>
	<path class="st34" d="M413.09,99.02c-0.96,0.18-1.09-0.36-1.29-0.81c-0.26-0.59,0.17-0.82,0.59-0.94c1.31-0.38,2.64-0.68,3.94-1.08
		c4.08-1.27,8.15-2.57,12.23-3.85c1.83-0.57,3.68-1.1,5.51-1.7c0.71-0.23,1.29-0.47,1.55,0.56c0.24,0.96,0.23,1.08-1.05,1.48
		c-2.96,0.93-5.91,1.85-8.89,2.73c-3.8,1.13-7.61,2.21-11.42,3.31C413.78,98.87,413.3,98.97,413.09,99.02z"/>
	<path class="st107" d="M413.94,102.26c-0.58,0.09-0.81-0.12-0.89-0.57c-0.07-0.41-0.3-0.86,0.24-1.13c0.16-0.08,0.36-0.1,0.54-0.15
		c4.23-1.18,8.46-2.38,12.69-3.55c0.97-0.27,1.38,0.1,1.4,1.03c0.01,0.76-0.62,0.69-1.04,0.81c-3.22,0.9-6.44,1.76-9.67,2.64
		C416.09,101.66,414.96,101.98,413.94,102.26z"/>
	<path class="st34" d="M180.25,75.47c0.7,1.39,1.4,2.63,1.97,3.92c2.25,5.06,4.85,9.95,7.27,14.93c0.52,1.06,0.92,2.18,1.47,3.22
		c0.43,0.81,0.23,1.48-0.27,2.07c-2.19,2.54-4.38,5.08-6.29,7.84c-0.09,0.13-0.31,0.17-0.55,0.3c-1.3-2.13-2.6-4.24-3.88-6.35
		c-2.35-3.88-4.71-7.76-7.05-11.64c-0.55-0.9-1.04-1.84-1.59-2.75c-0.36-0.61-0.32-1.16,0.11-1.73c0.53-0.69,0.96-1.46,1.54-2.1
		C175.32,80.61,177.49,77.89,180.25,75.47z"/>
	<path class="st108" d="M163.76,96.85c2.35,3.66,4.69,7.32,7.05,10.97c0.54,0.84,1.09,1.67,1.65,2.49c0.3,0.45,0.35,0.87,0.02,1.37
		c-1.5,2.29-2.98,4.59-4.45,6.86c-0.73-0.15-0.94-0.73-1.25-1.15c-2.6-3.5-5.14-7.04-7.78-10.51c-0.64-0.84-0.65-1.44-0.11-2.31
		c1.32-2.11,2.52-4.3,3.79-6.43C162.95,97.68,163.12,97.1,163.76,96.85z"/>
	<path class="st34" d="M168.4,90.1c2.05,3.02,3.77,6.1,5.61,9.11c2.13,3.49,4.28,6.96,6.43,10.43c0.39,0.63,0.98,1.29,0.63,2.04
		c-0.35,0.76-0.69,1.8-1.57,1.95c-0.71,0.12-0.94-0.88-1.31-1.42c-3.98-5.76-7.6-11.76-11.35-17.67c-0.67-1.06-0.71-1.93,0.09-2.85
		C167.36,91.17,167.53,90.43,168.4,90.1z"/>
	<path class="st109" d="M173.86,112.46c1.22,1.65,2.24,3.05,3.28,4.42c0.33,0.44,0.5,0.88,0.16,1.35c-1.61,2.19-2.87,4.61-4.44,7
		c-1.22-1.51-2.33-2.9-3.45-4.28c-0.31-0.38-0.36-0.75-0.09-1.18C170.78,117.42,172.25,115.05,173.86,112.46z"/>
	<path class="st110" d="M164.84,121.6c-2.76-3.57-5.43-7.08-8.15-10.54c-0.66-0.84-0.66-1.5,0.06-2.2c0.42,0,0.56,0.32,0.73,0.56
		c2.57,3.42,5.12,6.87,7.71,10.28C165.77,120.44,165.8,120.98,164.84,121.6z"/>
	<path class="st111" d="M159.16,119.47c-1.59-1.91-3.12-3.69-4.59-5.52c-0.63-0.78,0.22-1.18,0.54-2.01
		c1.57,1.97,2.97,3.76,4.43,5.51C160.12,118.17,159.84,118.69,159.16,119.47z"/>
	<path class="st4" d="M478.51,174.53c0,0.62,0.07,1.27-0.67,1.58c-0.77,0.32-1.6,0.43-2.34,0.07c-0.68-0.34-0.39-2.38,0.36-2.76
		c0.27-0.14,0.59-0.21,0.89-0.28C478.22,172.77,478.52,173.01,478.51,174.53z"/>
	<path class="st4" d="M472.17,175.29c0.01-0.17-0.01-0.49,0.07-0.78c0.18-0.64,0.71-0.77,1.3-0.77c0.63,0.01,0.86,0.36,0.86,0.93
		c0,0.24,0.02,0.49,0,0.73c-0.08,0.98-0.48,1.35-1.36,1.32C472.12,176.69,472.19,176.04,472.17,175.29z"/>
	<path class="st4" d="M453.79,240.9c-0.06,1.23-0.19,1.44-1.47,1.26c-2.58-0.36-5.15-0.87-7.72-1.28
		c-5.28-0.84-10.56-1.65-15.84-2.47c-2.76-0.43-5.53-0.86-8.29-1.32c-1.3-0.22-1.49-0.53-1.28-1.71c0.17-0.97,0.44-1.16,1.6-0.99
		c6.21,0.91,12.42,1.85,18.63,2.77c3.75,0.55,7.5,1.09,11.26,1.64c0.55,0.08,1.11,0.16,1.65,0.28
		C453.77,239.38,453.85,239.49,453.79,240.9z"/>
	<path class="st4" d="M420.48,239.91c2.57,0.42,5.28,0.82,7.97,1.32c6.6,1.23,13.25,2.18,19.89,3.19c0.8,0.12,1.6,0.26,2.39,0.42
		c1.18,0.25,1.68,1.26,1.21,2.37c-0.21,0.48-0.57,0.36-0.94,0.3c-1.84-0.31-3.68-0.61-5.52-0.92c-7.9-1.35-15.81-2.71-23.71-4.07
		c-0.61-0.11-1.22-0.25-1.83-0.34c-0.55-0.08-0.91-0.29-0.96-0.92C418.87,240.15,419.16,239.84,420.48,239.91z"/>
	<path class="st4" d="M460.18,241.9c-0.33,3.87-0.65,7.58-0.95,11.28c-0.1,1.24-0.11,2.48-0.2,3.72c-0.09,1.17-0.33,1.38-1.31,1.32
		c-1.23-0.08-1.65-0.45-1.57-1.54c0.3-3.83,0.63-7.66,0.95-11.49c0.11-1.3,0.12-2.61,0.28-3.9c0.16-1.31,0.37-1.43,1.49-1.32
		c1.15,0.11,1.3,0.28,1.32,1.55C460.19,241.69,460.18,241.87,460.18,241.9z"/>
	<path class="st4" d="M429.21,247.65c-0.03,1.06-0.28,1.33-1.25,1.16c-2.82-0.48-5.63-1-8.44-1.55c-0.79-0.15-1.04-0.79-0.85-1.76
		c0.17-0.87,0.76-0.61,1.3-0.52c2.64,0.45,5.27,0.89,7.91,1.34C428.67,246.46,429.38,246.68,429.21,247.65z"/>
	<path class="st112" d="M415.78,233.11c0.01-0.88-0.3-1.78,0.23-2.61C416.01,231.37,416.28,232.27,415.78,233.11z"/>
	<path class="st34" d="M473,233.08c-2.6-0.64-5.25-1.24-7.86-1.97c-1.32-0.37-2.65-0.62-3.97-0.95c-2.03-0.51-2.08-0.56-2.08-2.61
		c0-8.96,0-17.91,0-26.87c0-0.44,0.02-0.87-0.01-1.31c-0.06-0.92,0.27-1.38,1.27-1.35c3.73,0.08,7.43-0.57,11.16-0.38
		c1.76,0.09,1.78,0.03,1.78,1.76c0.01,4.98,0.01,9.95,0.01,14.93c0,5.54,0.01,11.07-0.01,16.61
		C473.29,231.61,473.46,232.31,473,233.08z"/>
	<path class="st34" d="M473.3,188.32c0,1.74-0.01,3.48,0,5.22c0.01,0.77-0.32,1.15-1.11,1.13c-2.23-0.06-4.42,0.51-6.67,0.41
		c-1.6-0.07-3.18,0.45-4.81,0.36c-1.58-0.09-1.62-0.05-1.63-1.54c-0.02-2.86-0.01-5.72,0.01-8.57c0.01-1.33,0.21-1.64,1.57-1.79
		c1.91-0.21,3.79-0.55,5.69-0.8c1.59-0.21,3.19-0.38,4.76-0.71c0.24-0.05,0.49-0.06,0.74-0.06c1.25-0.03,1.42,0.1,1.44,1.33
		C473.32,184.96,473.3,186.64,473.3,188.32z"/>
	<path class="st34" d="M457.59,206.83c0,6.98,0,13.95-0.01,20.93c0,0.55-0.05,1.11-0.14,1.66c-0.02,0.12-0.28,0.27-0.42,0.27
		c-0.15,0-0.4-0.16-0.42-0.28c-0.08-0.55-0.13-1.11-0.13-1.66c-0.01-12.08,0-24.16,0-36.25c0-1.87,0-3.74,0.01-5.61
		c0-0.43,0.01-0.87,0.08-1.3c0.05-0.31,0.24-0.58,0.63-0.55c0.33,0.03,0.36,0.31,0.37,0.55c0.03,0.43,0.02,0.87,0.02,1.31
		c0,6.98,0,13.95,0,20.93C457.58,206.83,457.59,206.83,457.59,206.83z"/>
	<path class="st34" d="M434.96,189.39c-0.54,0.09-1.15,0.13-1.49-0.24c-0.44-0.48-0.11-1.31,0.58-1.58
		c1.23-0.49,2.56-0.44,3.83-0.66c3.22-0.55,6.47-0.96,9.74-1.23c1.35-0.11,2.68-0.45,4.02-0.65c0.6-0.09,1.28-0.24,1.43,0.69
		c0.17,1.05-0.16,1.8-1.06,1.79c-1.82-0.03-3.63,0.28-5.43,0.55c-2.97,0.45-5.98,0.72-8.97,0.98c-0.68,0.06-1.36,0.12-2.04,0.24
		C435.39,189.3,435.18,189.35,434.96,189.39z"/>
	<path class="st113" d="M445.81,192.35c0.5,0,0.99-0.01,1.49,0c0.38,0.01,0.76,0.02,0.82,0.53c0.06,0.51,0.07,1.02-0.56,1.21
		c-0.23,0.07-0.48,0.13-0.72,0.14c-4.15,0.27-8.29,0.55-12.44,0.8c-0.98,0.06-1.31-0.36-1.12-1.13c0.15-0.59,0.63-0.53,1.03-0.57
		c1.67-0.17,3.33-0.31,5-0.44c2.16-0.17,4.33-0.31,6.5-0.47C445.81,192.39,445.81,192.37,445.81,192.35z"/>
	<path class="st114" d="M434.17,198.79c-0.58,0.01-0.94-0.12-0.92-0.81c0.01-0.59,0.18-0.94,0.83-0.97c3.22-0.14,6.44-0.3,9.67-0.46
		c0.64-0.03,1.06,0.1,1.07,0.89c0.01,0.72-0.26,1-0.97,1C442.17,198.42,435.72,198.77,434.17,198.79z"/>
	<path class="st34" d="M445.85,226.41c-3.93-0.95-7.72-1.87-11.51-2.79c-0.18-0.04-0.35-0.12-0.53-0.18
		c-0.33-0.12-0.53-0.35-0.41-0.71c0.13-0.38,0.47-0.36,0.78-0.28c1.86,0.46,3.73,0.93,5.59,1.4c2.04,0.51,4.09,1.02,6.13,1.54
		c0.38,0.1,0.76,0.29,0.61,0.75C446.4,226.48,446.01,226.42,445.85,226.41z"/>
	<path class="st4" d="M125.79,199.44c0-1.68-0.03-3.35,0.01-5.03c0.02-1.16,0.16-1.26,1.32-1.24c0.31,0,0.63,0.01,0.93,0.08
		c3.89,0.99,3.32,0.02,3.36,4.06c0.02,2.42-0.01,4.84,0.03,7.26c0.01,0.92-0.29,1.39-1.28,1.34c-1.05-0.05-2.11-0.05-3.17-0.02
		c-0.88,0.02-1.21-0.38-1.2-1.24C125.81,202.91,125.79,201.18,125.79,199.44C125.79,199.44,125.79,199.44,125.79,199.44z"/>
	<path class="st4" d="M125.81,180.32c1.7-0.04,3.1,0.58,4.59,0.57c0.66-0.01,1,0.45,1,1.1c0.01,2.79,0,5.59,0,8.38
		c0,0.6-0.24,0.95-0.92,0.79c-1.26-0.3-2.53-0.6-3.79-0.9c-0.54-0.13-0.89-0.39-0.89-1C125.82,186.3,125.81,183.33,125.81,180.32z"
		/>
	<path class="st4" d="M130,176.22c-1.18-0.33-2.37-0.62-3.53-0.99c-0.92-0.3-1.34-1.39-0.94-2.22c0.21-0.42,0.59-0.46,0.95-0.38
		c1.02,0.22,2.05,0.44,3.03,0.79C130.41,173.75,130.48,174.33,130,176.22z"/>
</g>
</svg>
