<?xml version="1.0" encoding="utf-8"?>
<!-- Generator: Adobe Illustrator 24.3.0, SVG Export Plug-In . SVG Version: 6.00 Build 0)  -->
<svg version="1.1" id="Layer_1" xmlns="http://www.w3.org/2000/svg" xmlns:xlink="http://www.w3.org/1999/xlink" x="0px" y="0px"
	 viewBox="0 0 750.65 705.1" style="enable-background:new 0 0 750.65 705.1;" xml:space="preserve">
<style type="text/css">
	.st0{fill:#FAF8F7;}
	.st1{fill:#FCFBFA;}
	.st2{fill:#1C1A1D;}
	.st3{fill:#F59564;}
	.st4{fill:#2A2A2B;}
	.st5{fill:#C6C3C2;}
	.st6{fill:#C5C4C2;}
	.st7{fill:#4C3527;}
	.st8{fill:#E3EAF4;}
	.st9{fill:#FDFDFC;}
	.st10{fill:#FEFEFD;}
	.st11{fill:#618ECA;}
	.st12{fill:#FDFCFB;}
	.st13{fill:#F6ABC2;}
	.st14{fill:#E9BE93;}
	.st15{fill:#E4E9F4;}
	.st16{fill:#E9BE94;}
	.st17{fill:#4C7CBF;}
	.st18{fill:#333E83;}
	.st19{fill:#8075B6;}
	.st20{fill:#2A306D;}
	.st21{fill:#FCD464;}
	.st22{fill:#796EB2;}
	.st23{fill:#618EC9;}
	.st24{fill:#E4EAF4;}
	.st25{fill:#608ECA;}
	.st26{fill:#618DC9;}
	.st27{fill:#FEFDFC;}
	.st28{fill:#E8BC92;}
	.st29{fill:#F1BE97;}
	.st30{fill:#DAA576;}
	.st31{fill:#E8BF96;}
	.st32{fill:#DAA577;}
	.st33{fill:#628ECA;}
	.st34{fill:#4C7BBE;}
	.st35{fill:#DBA676;}
	.st36{fill:#FDFCFC;}
	.st37{fill:#4B7CBE;}
	.st38{fill:#E6EBF3;}
	.st39{fill:#ED825A;}
	.st40{fill:#CB8D6B;}
	.st41{fill:#F1BE98;}
	.st42{fill:#E7C096;}
	.st43{fill:#F4824D;}
	.st44{fill:#FCFCFB;}
	.st45{fill:#DAA778;}
	.st46{fill:#DBA576;}
	.st47{fill:#618DC8;}
	.st48{fill:#DDA679;}
	.st49{fill:#DFA577;}
	.st50{fill:#DFAA80;}
	.st51{fill:#EF835C;}
	.st52{fill:#D1906A;}
	.st53{fill:#4BA668;}
	.st54{fill:#4BA969;}
	.st55{fill:#7B6DB0;}
	.st56{fill:#796CAE;}
	.st57{fill:#4CA86A;}
	.st58{fill:#DCAB7D;}
	.st59{fill:#E5BA93;}
	.st60{fill:#F3F2F1;}
	.st61{fill:#E4B88F;}
	.st62{fill:#EEBB97;}
	.st63{fill:#F0A8BE;}
	.st64{fill:#4BA669;}
	.st65{fill:#F1F2F1;}
	.st66{fill:#6791CA;}
	.st67{fill:#D1976F;}
	.st68{fill:#BD875B;}
	.st69{fill:#CF9A6F;}
	.st70{fill:#BE845A;}
	.st71{fill:#E8B991;}
	.st72{fill:#EBBD9A;}
	.st73{fill:#E7B893;}
	.st74{fill:#513629;}
	.st75{fill:#E3E6EB;}
	.st76{fill:#E97746;}
	.st77{fill:#E4AB80;}
	.st78{fill:#E3B391;}
	.st79{fill:#F0EFEC;}
	.st80{fill:#DBAC84;}
	.st81{fill:#F2F2F2;}
	.st82{fill:#84654E;}
	.st83{fill:#D0AF98;}
	.st84{fill:#EAE8E7;}
	.st85{fill:#DDDEDC;}
	.st86{fill:#5E78A4;}
	.st87{fill:#362922;}
	.st88{fill:#433128;}
	.st89{fill:#433129;}
	.st90{fill:#44322B;}
	.st91{fill:#524137;}
	.st92{fill:#58453A;}
	.st93{fill:#574339;}
	.st94{fill:#E4AE84;}
	.st95{fill:#B67E5B;}
	.st96{fill:#292A33;}
	.st97{fill:#2E2729;}
	.st98{fill:#2D2B31;}
	.st99{fill:#B8D4EC;}
	.st100{fill:#86A9CB;}
	.st101{fill:#607285;}
	.st102{fill:#6B7A8C;}
	.st103{fill:#69788B;}
	.st104{fill:#FCFAFA;}
	.st105{fill:#F8D7AD;}
	.st106{fill:#D1D8E3;}
	.st107{fill:#B7D3EC;}
	.st108{fill:#8DACCB;}
	.st109{fill:#516278;}
	.st110{fill:#F6AC79;}
	.st111{fill:#B6D3EC;}
	.st112{fill:#B5D3ED;}
	.st113{fill:#86A7C8;}
	.st114{fill:#526278;}
	.st115{fill:#B5D2EB;}
	.st116{fill:#D2DAE3;}
	.st117{fill:#89ADD0;}
	.st118{fill:#5E6F82;}
	.st119{fill:#5D6D80;}
	.st120{fill:#516176;}
	.st121{fill:#5F6F83;}
	.st122{fill:#85A7C6;}
	.st123{fill:#F6C8B2;}
	.st124{fill:#56667C;}
	.st125{fill:#B5D3EC;}
	.st126{fill:#B8D5ED;}
	.st127{fill:#54647A;}
	.st128{fill:#84A7C8;}
	.st129{fill:#F4C9B4;}
	.st130{fill:#5E6E81;}
	.st131{fill:#C0A492;}
	.st132{fill:#ADC9E3;}
	.st133{fill:#C29F86;}
	.st134{fill:#B1CEE8;}
	.st135{fill:#CCD6E2;}
	.st136{fill:#F1C5AD;}
	.st137{fill:#F6CDB7;}
	.st138{fill:#E4B9A5;}
	.st139{fill:#8FA9C3;}
	.st140{fill:#FADC85;}
	.st141{fill:#FADC84;}
	.st142{fill:#F58E6E;}
	.st143{fill:#F7AD7A;}
	.st144{fill:#8FAECD;}
	.st145{fill:#F8D5A9;}
	.st146{fill:#F6AC7A;}
	.st147{fill:#FDFBFB;}
	.st148{fill:#8FAECC;}
	.st149{fill:#F7D4A7;}
	.st150{fill:#F5AC79;}
	.st151{fill:#F6AE7C;}
	.st152{fill:#362F25;}
	.st153{fill:#F5906C;}
	.st154{fill:#F8D4A7;}
	.st155{fill:#F7CCB7;}
	.st156{fill:#FBF9F9;}
	.st157{fill:#E3ECF2;}
	.st158{fill:#F7D77E;}
	.st159{fill:#F48967;}
	.st160{fill:#F9D985;}
	.st161{fill:#E2ECF2;}
	.st162{fill:#FAFAFA;}
	.st163{fill:#F3CFA0;}
	.st164{fill:#B3D0EA;}
	.st165{fill:#F3CAB4;}
	.st166{fill:#F0C999;}
	.st167{fill:#F1C894;}
	.st168{fill:#EABD8E;}
	.st169{fill:#EBC495;}
	.st170{fill:#82A5C4;}
	.st171{fill:#ECC695;}
	.st172{fill:#EEEEEF;}
	.st173{fill:#F0F4F6;}
	.st174{fill:#E88C6D;}
	.st175{fill:#F5C5AF;}
	.st176{fill:#E0EBF2;}
	.st177{fill:#C1A391;}
	.st178{fill:#E4EDF3;}
	.st179{fill:#E5EDF2;}
	.st180{fill:#E2EBF1;}
	.st181{fill:#E3ECF1;}
	.st182{fill:#E4EAEF;}
	.st183{fill:#D9E2E8;}
	.st184{fill:#DBE1E5;}
	.st185{fill:#C4C7CC;}
	.st186{fill:#9B9EA5;}
	.st187{fill:#2B2C35;}
	.st188{fill:#2C2D36;}
	.st189{fill:#382D31;}
	.st190{fill:#383A45;}
	.st191{fill:#2E313C;}
	.st192{fill:#5B4B48;}
	.st193{fill:#65504A;}
	.st194{fill:#4E3937;}
	.st195{fill:#413534;}
	.st196{fill:#312D2E;}
	.st197{fill:#353234;}
	.st198{fill:#584643;}
	.st199{fill:#4E3D3A;}
	.st200{fill:#353339;}
	.st201{fill:#D2DAE4;}
	.st202{fill:#D1D9E3;}
	.st203{fill:#F48C6E;}
	.st204{fill:#96B7D4;}
	.st205{fill:#AECCE5;}
	.st206{fill:#DFECF5;}
	.st207{fill:#F6CB87;}
	.st208{fill:#F2AB79;}
	.st209{fill:#FAF7F6;}
	.st210{fill:#F2A975;}
	.st211{fill:#F3906C;}
	.st212{fill:#EEB57D;}
	.st213{fill:#EFEFEE;}
	.st214{fill:#E8B181;}
	.st215{fill:#E6E5E2;}
	.st216{fill:#89A9C4;}
	.st217{fill:#624537;}
	.st218{fill:#424145;}
	.st219{fill:#4B3125;}
	.st220{fill:#FFFFFF;}
	.st221{fill:#292424;}
	.st222{fill:#2D241F;}
	.st223{fill:#2B2726;}
	.st224{fill:#26211F;}
	.st225{fill:#D5E6EC;}
	.st226{fill:#C48358;}
	.st227{fill:#F8C9AE;}
	.st228{fill:#F7C9AC;}
	.st229{fill:#634646;}
	.st230{fill:#F6C9AF;}
	.st231{fill:#D7D2CC;}
	.st232{fill:#D9D2CB;}
	.st233{fill:#95B2D8;}
	.st234{fill:#94B1D8;}
	.st235{fill:#95B2D9;}
	.st236{fill:#94B1D7;}
	.st237{fill:#96B3D9;}
	.st238{fill:#DBE4EC;}
	.st239{fill:#DAE3EC;}
	.st240{fill:#DDE4EB;}
	.st241{fill:#DBE4EB;}
	.st242{fill:#93B1D8;}
	.st243{fill:#DCE5EC;}
	.st244{fill:#99B5DA;}
	.st245{fill:#DDE5EC;}
	.st246{fill:#DDE3EA;}
	.st247{fill:#8FAED7;}
	.st248{fill:#C6CFDB;}
	.st249{fill:#97B3D9;}
	.st250{fill:#DCE3E8;}
	.st251{fill:#D9E2EA;}
	.st252{fill:#E0E5E9;}
	.st253{fill:#E0E6EB;}
	.st254{fill:#D9E1E7;}
	.st255{fill:#8CABD2;}
	.st256{fill:#8FADD2;}
	.st257{fill:#5B6069;}
	.st258{fill:#E6B187;}
	.st259{fill:#F6A87C;}
	.st260{fill:#D2986F;}
	.st261{fill:#E5B187;}
	.st262{fill:#D69B72;}
	.st263{fill:#E6B185;}
	.st264{fill:#E4AF84;}
	.st265{fill:#C4D2EA;}
	.st266{fill:#D59B73;}
	.st267{fill:#F4BDB5;}
	.st268{fill:#EDD3B4;}
	.st269{fill:#EED6B7;}
	.st270{fill:#E4B086;}
	.st271{fill:#E6B289;}
	.st272{fill:#ECD0B2;}
	.st273{fill:#EDD3B6;}
	.st274{fill:#F3A379;}
	.st275{fill:#F5A67C;}
	.st276{fill:#C4D4EA;}
	.st277{fill:#95B1D7;}
	.st278{fill:#C9C9C7;}
	.st279{fill:#EBCFAF;}
	.st280{fill:#ECE7DA;}
	.st281{fill:#91AFD5;}
	.st282{fill:#8CABD3;}
	.st283{fill:#F2A57B;}
	.st284{fill:#EBE8DC;}
	.st285{fill:#E9E5D7;}
	.st286{fill:#F1A77D;}
	.st287{fill:#91ADD1;}
	.st288{fill:#E5CDB0;}
	.st289{fill:#D79B78;}
	.st290{fill:#DC9870;}
	.st291{fill:#D49B72;}
	.st292{fill:#E5B086;}
	.st293{fill:#D49B73;}
	.st294{fill:#C5D5EA;}
	.st295{fill:#F9EEDE;}
	.st296{fill:#8DACD4;}
	.st297{fill:#F0A37A;}
	.st298{fill:#F3A67C;}
	.st299{fill:#8EABD3;}
	.st300{fill:#8FACD3;}
	.st301{fill:#8FACD4;}
	.st302{fill:#8AA9D2;}
	.st303{fill:#C3D2E9;}
	.st304{fill:#8CAAD3;}
	.st305{fill:#8DABD3;}
	.st306{fill:#8DAAD4;}
	.st307{fill:#97B1D4;}
	.st308{fill:#EDD1B0;}
	.st309{fill:#92AED4;}
	.st310{fill:#E2AE87;}
	.st311{fill:#A3BAD8;}
	.st312{fill:#7D5E56;}
	.st313{fill:#F4ECDC;}
	.st314{fill:#DFCAB0;}
	.st315{fill:#D7A681;}
	.st316{fill:#E7E5DE;}
	.st317{fill:#839CBD;}
	.st318{fill:#93B2DA;}
	.st319{fill:#F7A97E;}
	.st320{fill:#7C9AC5;}
	.st321{fill:#95B3D9;}
	.st322{fill:#92AFD4;}
	.st323{fill:#EED2B4;}
	.st324{fill:#91B0D8;}
	.st325{fill:#F5A57C;}
	.st326{fill:#EDD4B7;}
	.st327{fill:#EDD2B3;}
	.st328{fill:#EED4B6;}
	.st329{fill:#C3D1E8;}
	.st330{fill:#C5CFDC;}
	.st331{fill:#EDD4B4;}
	.st332{fill:#3F2C22;}
	.st333{fill:#3B332D;}
	.st334{fill:#483B31;}
	.st335{fill:#483A31;}
	.st336{fill:#4F3D33;}
	.st337{fill:#4C3E33;}
	.st338{fill:#4F453B;}
	.st339{fill:#3F2D22;}
	.st340{fill:#483427;}
	.st341{fill:#42352A;}
	.st342{fill:#553A2A;}
	.st343{fill:#382920;}
	.st344{fill:#3D2E24;}
	.st345{fill:#4F3729;}
	.st346{fill:#30241C;}
	.st347{fill:#473122;}
	.st348{fill:#3B2B29;}
	.st349{fill:#3E352D;}
	.st350{fill:#3E342A;}
	.st351{fill:#3D3229;}
	.st352{fill:#3C322A;}
	.st353{fill:#3D2D24;}
	.st354{fill:#443C33;}
	.st355{fill:#483124;}
	.st356{fill:#4D3425;}
	.st357{fill:#3A312E;}
	.st358{fill:#453730;}
	.st359{fill:#282729;}
	.st360{fill:#CDD1D0;}
	.st361{fill:#E3AE85;}
	.st362{fill:#E0AC82;}
	.st363{fill:#E3AF84;}
	.st364{fill:#EC9D75;}
	.st365{fill:#FBEDDB;}
	.st366{fill:#FCECDD;}
	.st367{fill:#302E2F;}
	.st368{fill:#35322D;}
	.st369{fill:#4D4842;}
	.st370{fill:#4C4740;}
	.st371{fill:#4E4742;}
	.st372{fill:#4F4A44;}
	.st373{fill:#423E39;}
	.st374{fill:#5F5751;}
	.st375{fill:#58534F;}
	.st376{fill:#4C443E;}
	.st377{fill:#4A3C36;}
	.st378{fill:#51443D;}
	.st379{fill:#48423E;}
	.st380{fill:#3A3532;}
	.st381{fill:#92B0D6;}
	.st382{fill:#F0A47B;}
	.st383{fill:#383636;}
	.st384{fill:#473927;}
	.st385{fill:#44362E;}
	.st386{fill:#FBCF7E;}
	.st387{fill:#504134;}
	.st388{fill:#473930;}
	.st389{fill:#504031;}
	.st390{fill:#55453C;}
	.st391{fill:#5A4636;}
	.st392{fill:#584436;}
	.st393{fill:#776662;}
	.st394{fill:#7C6C68;}
	.st395{fill:#84716F;}
	.st396{fill:#685551;}
	.st397{fill:#564845;}
	.st398{fill:#554542;}
	.st399{fill:#614640;}
	.st400{fill:#654943;}
	.st401{fill:#EEF4F9;}
	.st402{fill:#EDF4F9;}
	.st403{fill:#4C4C68;}
	.st404{fill:#7796CA;}
	.st405{fill:#FAD576;}
	.st406{fill:#ACB0BA;}
	.st407{fill:#F8CAB7;}
	.st408{fill:#955F5B;}
	.st409{fill:#AAB0B9;}
	.st410{fill:#F4BF64;}
	.st411{fill:#EDF3F9;}
	.st412{fill:#A8AEB7;}
	.st413{fill:#A7AFB7;}
	.st414{fill:#F3BF66;}
	.st415{fill:#6FAF83;}
	.st416{fill:#6DB082;}
	.st417{fill:#F6C7BC;}
	.st418{fill:#F7D171;}
	.st419{fill:#EFF4F8;}
	.st420{fill:#F7D06F;}
	.st421{fill:#F7D273;}
	.st422{fill:#ABB0B9;}
	.st423{fill:#ECF2F8;}
	.st424{fill:#EDF3F7;}
	.st425{fill:#EDF2F6;}
	.st426{fill:#AAAEB7;}
	.st427{fill:#ABB1B9;}
	.st428{fill:#FAF9F8;}
	.st429{fill:#A8AEB6;}
	.st430{fill:#F29A6F;}
	.st431{fill:#A9AFB7;}
	.st432{fill:#5B9B6D;}
	.st433{fill:#65A378;}
	.st434{fill:#5C9B6E;}
	.st435{fill:#E5EAED;}
	.st436{fill:#E0E8EE;}
	.st437{fill:#EC976E;}
	.st438{fill:#669E74;}
	.st439{fill:#989999;}
	.st440{fill:#CAC5C3;}
	.st441{fill:#AEA7AA;}
	.st442{fill:#B5CAD2;}
	.st443{fill:#F4C169;}
	.st444{fill:#F4C067;}
	.st445{fill:#F4C066;}
	.st446{fill:#F4C167;}
	.st447{fill:#F3B562;}
	.st448{fill:#F6D06F;}
	.st449{fill:#F7CF6E;}
	.st450{fill:#F7D272;}
	.st451{fill:#F3C067;}
	.st452{fill:#F1BF66;}
	.st453{fill:#F5D073;}
	.st454{fill:#EDCC75;}
	.st455{fill:#F69A6C;}
	.st456{fill:#F6996B;}
	.st457{fill:#F6986A;}
	.st458{fill:#F6996C;}
	.st459{fill:#F5996B;}
	.st460{fill:#EC7F50;}
	.st461{fill:#EC8051;}
	.st462{fill:#F7D27C;}
	.st463{fill:#F6D371;}
	.st464{fill:#F3C973;}
	.st465{fill:#DBBF79;}
	.st466{fill:#E6C16D;}
	.st467{fill:#DBAC63;}
	.st468{fill:#434140;}
	.st469{fill:#636262;}
	.st470{fill:#604C43;}
	.st471{fill:#554239;}
	.st472{fill:#685147;}
	.st473{fill:#5A473F;}
	.st474{fill:#5C4F49;}
	.st475{fill:#FBFAF9;}
	.st476{fill:#0C0C0C;}
	.st477{fill:#111010;}
	.st478{fill:#111111;}
	.st479{fill:#131213;}
	.st480{fill:#191818;}
	.st481{fill:#1A1818;}
	.st482{fill:#1A1819;}
	.st483{fill:#BBBBBB;}
	.st484{fill:#FEFEFE;}
	.st485{fill:#FEFDFD;}
	.st486{fill:#F9F8F8;}
	.st487{fill:#B9BBBB;}
	.st488{fill:#CCCCCE;}
	.st489{fill:#B9BAB9;}
	.st490{fill:#B7B8B8;}
	.st491{fill:#B8B9B8;}
	.st492{fill:#0E0E0E;}
	.st493{fill:#141213;}
	.st494{fill:#131212;}
	.st495{fill:#161616;}
	.st496{fill:#181717;}
	.st497{fill:#0D0D0E;}
	.st498{fill:#201F20;}
	.st499{fill:#212122;}
	.st500{fill:#232325;}
	.st501{fill:#151414;}
	.st502{fill:#FCFBFB;}
	.st503{fill:#FBFBFA;}
	.st504{fill:#F8F7F6;}
	.st505{fill:#EBEAE8;}
	.st506{fill:#E8E7E5;}
	.st507{fill:#F9F9F8;}
	.st508{fill:#E8E9E8;}
	.st509{fill:#F8F7F7;}
	.st510{fill:#F3F2F2;}
	.st511{fill:#F5F5F4;}
	.st512{fill:#F6F5F1;}
	.st513{fill:#030303;}
	.st514{fill:#D4D4CE;}
	.st515{fill:#030404;}
	.st516{fill:#D7D7D1;}
	.st517{fill:#D2D2CD;}
	.st518{fill:#DAD9D3;}
	.st519{fill:#DCDBD6;}
	.st520{fill:#F6F5F0;}
	.st521{fill:#D9D9D3;}
	.st522{fill:#D2D1CA;}
	.st523{fill:#161514;}
	.st524{fill:#A8A69F;}
	.st525{fill:#D8D7D2;}
	.st526{fill:#181715;}
	.st527{fill:#D7D8D2;}
	.st528{fill:#181615;}
	.st529{fill:#171514;}
	.st530{fill:#D9D8D3;}
	.st531{fill:#DBDAD4;}
	.st532{fill:#DCDBD5;}
	.st533{fill:#151412;}
	.st534{fill:#DADAD4;}
	.st535{fill:#D8D7D3;}
	.st536{fill:#141412;}
	.st537{fill:#141211;}
	.st538{fill:#1C1A18;}
	.st539{fill:#161513;}
	.st540{fill:#D8D8D3;}
	.st541{fill:#171615;}
	.st542{fill:#1B1918;}
	.st543{fill:#1C1B1A;}
	.st544{fill:#1B1A18;}
	.st545{fill:#201E1C;}
	.st546{fill:#1C1B19;}
	.st547{fill:#D7D6D1;}
	.st548{fill:#2B2927;}
	.st549{fill:#D9D9D4;}
	.st550{fill:#1A1917;}
	.st551{fill:#1B1917;}
	.st552{fill:#1E1D1B;}
	.st553{fill:#1E1C1A;}
	.st554{fill:#1C1A19;}
	.st555{fill:#21201E;}
	.st556{fill:#1A1816;}
	.st557{fill:#1F1D1B;}
	.st558{fill:#1D1B1A;}
	.st559{fill:#1E1E1C;}
	.st560{fill:#22201F;}
	.st561{fill:#F0EFEB;}
	.st562{fill:#272623;}
	.st563{fill:#1D1C1B;}
	.st564{fill:#262422;}
	.st565{fill:#1E1C1B;}
	.st566{fill:#191715;}
	.st567{fill:#2C2A28;}
	.st568{fill:#D6D3CD;}
	.st569{fill:#CECEC8;}
	.st570{fill:#2A2725;}
	.st571{fill:#2F2C29;}
	.st572{fill:#322F2C;}
	.st573{fill:#2D2A27;}
	.st574{fill:#24211F;}
	.st575{fill:#2E2B29;}
	.st576{fill:#212120;}
	.st577{fill:#2B2826;}
	.st578{fill:#34322F;}
	.st579{fill:#2C2927;}
	.st580{fill:#373431;}
	.st581{fill:#232220;}
	.st582{fill:#282725;}
	.st583{fill:#302D2B;}
	.st584{fill:#3D3B38;}
	.st585{fill:#292725;}
	.st586{fill:#2C2926;}
	.st587{fill:#393531;}
	.st588{fill:#34312E;}
	.st589{fill:#322F2B;}
	.st590{fill:#2E2B2A;}
	.st591{fill:#1F1E1D;}
	.st592{fill:#413F3C;}
	.st593{fill:#33302E;}
	.st594{fill:#504D4B;}
	.st595{fill:#383633;}
	.st596{fill:#393533;}
	.st597{fill:#3B3937;}
	.st598{fill:#5A5854;}
	.st599{fill:#2D2D2B;}
	.st600{fill:#45413D;}
	.st601{fill:#585450;}
	.st602{fill:#67645E;}
	.st603{fill:#BFC2C2;}
	.st604{fill:#6E6D68;}
	.st605{fill:#4A4440;}
	.st606{fill:#938D87;}
	.st607{fill:#43403C;}
	.st608{fill:#7E7D79;}
	.st609{fill:#6B6660;}
	.st610{fill:#695C56;}
	.st611{fill:#AAA9A2;}
	.st612{fill:#F6F4EF;}
	.st613{fill:#F6F6F1;}
	.st614{fill:#F5F4F0;}
	.st615{fill:#C6C5BE;}
	.st616{fill:#D2D4D2;}
	.st617{fill:#D9D9D7;}
	.st618{fill:#7B7E77;}
	.st619{fill:#F6F5EF;}
	.st620{fill:#F5F4EF;}
	.st621{fill:#121210;}
	.st622{fill:#F4F3ED;}
	.st623{fill:#191816;}
	.st624{fill:#171715;}
	.st625{fill:#151413;}
	.st626{fill:#221F1D;}
	.st627{fill:#24221F;}
	.st628{fill:#272421;}
	.st629{fill:#2B2825;}
	.st630{fill:#302E2A;}
	.st631{fill:#2C2925;}
	.st632{fill:#1C1B18;}
	.st633{fill:#292723;}
	.st634{fill:#272624;}
	.st635{fill:#302D29;}
	.st636{fill:#201F1C;}
	.st637{fill:#292624;}
	.st638{fill:#272524;}
	.st639{fill:#302E2B;}
	.st640{fill:#282623;}
	.st641{fill:#242321;}
	.st642{fill:#43413E;}
	.st643{fill:#312F2D;}
	.st644{fill:#3A3936;}
	.st645{fill:#413D3A;}
	.st646{fill:#3E3B38;}
	.st647{fill:#53524F;}
	.st648{fill:#46423E;}
	.st649{fill:#7B7973;}
	.st650{fill:#6F6A63;}
	.st651{fill:#7B7A74;}
	.st652{fill:#F8F7F3;}
	.st653{fill:#DCDCD9;}
	.st654{fill:#AAA8A6;}
	.st655{fill:#878A8A;}
	.st656{fill:#646666;}
	.st657{fill:#828888;}
	.st658{fill:#A9ADAD;}
	.st659{fill:#B0B3B3;}
	.st660{fill:#9DA0A0;}
	.st661{fill:#9AAAAF;}
	.st662{fill:#151312;}
	.st663{fill:#F7F6F1;}
	.st664{fill:#1E1E1D;}
	.st665{fill:#191716;}
	.st666{fill:#252220;}
	.st667{fill:#272523;}
	.st668{fill:#2E2C29;}
	.st669{fill:#3D3B37;}
	.st670{fill:#3D3935;}
	.st671{fill:#5B5752;}
	.st672{fill:#252422;}
	.st673{fill:#33312D;}
	.st674{fill:#4D4742;}
	.st675{fill:#3F3E3B;}
	.st676{fill:#74726D;}
	.st677{fill:#262421;}
	.st678{fill:#D9D9D2;}
	.st679{fill:#282624;}
	.st680{fill:#23211F;}
	.st681{fill:#22201E;}
	.st682{fill:#3E3C39;}
	.st683{fill:#605C56;}
	.st684{fill:#6C6964;}
	.st685{fill:#D7D6D0;}
	.st686{fill:#3E3B36;}
	.st687{fill:#3F3B37;}
	.st688{fill:#3C3835;}
	.st689{fill:#746F6A;}
	.st690{fill:#252321;}
	.st691{fill:#2E2D2A;}
	.st692{fill:#3A3634;}
	.st693{fill:#4D4946;}
	.st694{fill:#FBF9F8;}
	.st695{fill:#151514;}
	.st696{fill:#171313;}
	.st697{fill:#2F67B1;}
	.st698{fill:#F6B71D;}
	.st699{fill:#1C1B3B;}
	.st700{fill:#7E433A;}
	.st701{fill:#F6B61C;}
	.st702{fill:#3066B1;}
	.st703{fill:#7D453C;}
	.st704{fill:#7E453B;}
	.st705{fill:#1F1C3A;}
	.st706{fill:#F498B2;}
	.st707{fill:#F397B1;}
	.st708{fill:#FEFDFB;}
	.st709{fill:#F396B0;}
	.st710{fill:#F396B1;}
	.st711{fill:#7B423B;}
	.st712{fill:#7E453A;}
	.st713{fill:#F398B3;}
	.st714{fill:#F6B61A;}
	.st715{fill:#FDFDFD;}
	.st716{fill:#F8B61C;}
	.st717{fill:#F496B0;}
	.st718{fill:#F6B61B;}
	.st719{fill:#201E3C;}
	.st720{fill:#F394AE;}
	.st721{fill:#FBFAFA;}
	.st722{fill:#F094AF;}
	.st723{fill:#F3B51F;}
	.st724{fill:#F6F6F5;}
	.st725{fill:#F093AC;}
	.st726{fill:#EF95B0;}
	.st727{fill:#F09CB6;}
	.st728{fill:#F199B5;}
	.st729{fill:#F092AD;}
	.st730{fill:#EC9CB4;}
	.st731{fill:#F4F3F2;}
	.st732{fill:#EF9BB5;}
	.st733{fill:#F5F4F2;}
	.st734{fill:#EDEDED;}
	.st735{fill:#F6F4F3;}
	.st736{fill:#ED8EA9;}
	.st737{fill:#ECECEB;}
	.st738{fill:#ECECEA;}
	.st739{fill:#F5F4F4;}
	.st740{fill:#E9B029;}
	.st741{fill:#75413A;}
	.st742{fill:#DD93A8;}
	.st743{fill:#C696A4;}
	.st744{fill:#B49649;}
	.st745{fill:#BBBEBA;}
	.st746{fill:#857781;}
	.st747{fill:#C3C6C7;}
	.st748{fill:#262322;}
	.st749{fill:#221A13;}
	.st750{fill:#40201D;}
	.st751{fill:#1F1412;}
	.st752{fill:#150D0C;}
	.st753{fill:#180F0E;}
	.st754{fill:#150C0B;}
	.st755{fill:#1A1110;}
	.st756{fill:#1B1919;}
	.st757{fill:#241614;}
	.st758{fill:#1C100F;}
	.st759{fill:#201512;}
	.st760{fill:#EDECEC;}
	.st761{fill:#121111;}
	.st762{fill:#171616;}
	.st763{fill:#181614;}
	.st764{fill:#171614;}
	.st765{fill:#1C1917;}
	.st766{fill:#181716;}
	.st767{fill:#1A1B1B;}
	.st768{fill:#B8B7B3;}
	.st769{fill:#B8B7B2;}
	.st770{fill:#AEAEAB;}
	.st771{fill:#A7A7A4;}
	.st772{fill:#F6F4F0;}
	.st773{fill:#AFAFAC;}
	.st774{fill:#ADAEAA;}
	.st775{fill:#EAE9E3;}
	.st776{fill:#D3D1D0;}
	.st777{fill:#BFBEBB;}
	.st778{fill:#A7A7A6;}
	.st779{fill:#C0C0BD;}
	.st780{fill:#B1AFAD;}
	.st781{fill:#D1D0CD;}
	.st782{fill:#E1DEDB;}
	.st783{fill:#D6D5CE;}
	.st784{fill:#DEDBD8;}
	.st785{fill:#D7D5D4;}
	.st786{fill:#7D7B75;}
	.st787{fill:#C3C2BF;}
	.st788{fill:#C2C1BF;}
	.st789{fill:#C2C1BE;}
	.st790{fill:#C1C1BD;}
	.st791{fill:#B9B9B4;}
	.st792{fill:#B9BAB6;}
	.st793{fill:#D2B48B;}
	.st794{fill:#B1B3AE;}
	.st795{fill:#B6B3B4;}
	.st796{fill:#B2B0B1;}
	.st797{fill:#AEAFAE;}
	.st798{fill:#E0DDD8;}
	.st799{fill:#9F9EA1;}
	.st800{fill:#949396;}
	.st801{fill:#AAABA8;}
	.st802{fill:#AEACA7;}
	.st803{fill:#E7E7E2;}
	.st804{fill:#A1A49F;}
	.st805{fill:#99968E;}
	.st806{fill:#B4B2AF;}
	.st807{fill:#AEAEAA;}
	.st808{fill:#B5B5B2;}
	.st809{fill:#272322;}
	.st810{fill:#242120;}
	.st811{fill:#23201F;}
	.st812{fill:#262321;}
	.st813{fill:#252322;}
	.st814{fill:#2F2C2A;}
	.st815{fill:#302E2C;}
	.st816{fill:#282523;}
	.st817{fill:#2E2A28;}
	.st818{fill:#2F2B29;}
	.st819{fill:#2F2D2B;}
	.st820{fill:#312E2B;}
	.st821{fill:#2D2A28;}
	.st822{fill:#020302;}
	.st823{fill:#111011;}
	.st824{fill:#141313;}
	.st825{fill:#171517;}
	.st826{fill:#161516;}
	.st827{fill:#FAFAF9;}
	.st828{fill:#EBECE9;}
	.st829{fill:#E5E4DF;}
	.st830{fill:#E2E1DE;}
	.st831{fill:#B4B7B6;}
	.st832{fill:#F5F4F3;}
	.st833{fill:#EEEFEC;}
	.st834{fill:#E7E7E3;}
	.st835{fill:#DEE0DD;}
	.st836{fill:#BAB7B4;}
	.st837{fill:#A09F9F;}
	.st838{fill:#E8EBE8;}
	.st839{fill:#E7E8E5;}
	.st840{fill:#E1E1DA;}
	.st841{fill:#ECEAE9;}
	.st842{fill:#AFB8BB;}
	.st843{fill:#DFDFDF;}
	.st844{fill:#070707;}
	.st845{fill:#FDFDFB;}
	.st846{fill:#FAF9F7;}
	.st847{fill:#F9F8F6;}
	.st848{fill:#F9F8F7;}
	.st849{fill:#FBFBF9;}
	.st850{fill:#FBFAF8;}
	.st851{fill:#F3F2F0;}
	.st852{fill:#F4F4F2;}
	.st853{fill:#F8F8F6;}
	.st854{fill:#F7F6F5;}
	.st855{fill:#F8F7F5;}
	.st856{fill:#F7F8F8;}
	.st857{fill:#F6F5F3;}
	.st858{fill:#F2F1F0;}
	.st859{fill:#E9E8E6;}
	.st860{fill:#B7B6B3;}
	.st861{fill:#B8B9B5;}
	.st862{fill:#A9A8A5;}
	.st863{fill:#767676;}
	.st864{fill:#211F1F;}
	.st865{fill:#242322;}
	.st866{fill:#44413E;}
	.st867{fill:#474544;}
	.st868{fill:#252626;}
	.st869{fill:#37393C;}
	.st870{fill:#161313;}
	.st871{fill:#050505;}
	.st872{fill:#060607;}
	.st873{fill:#9D9B99;}
	.st874{fill:#BA8451;}
	.st875{fill:#2D9654;}
	.st876{fill:#F9CC3E;}
	.st877{fill:#EAE5DE;}
	.st878{fill:#697676;}
	.st879{fill:#BC9E81;}
	.st880{fill:#D14B4A;}
	.st881{fill:#84572F;}
	.st882{fill:#FCFCFC;}
	.st883{fill:#BC8655;}
	.st884{fill:#060606;}
	.st885{fill:#BB8551;}
	.st886{fill:#84562E;}
	.st887{fill:#BE8561;}
	.st888{fill:#6B787A;}
	.st889{fill:#A55033;}
	.st890{fill:#6A7575;}
	.st891{fill:#A45034;}
	.st892{fill:#7F552C;}
	.st893{fill:#8D5831;}
	.st894{fill:#FCFAF9;}
	.st895{fill:#6B7676;}
	.st896{fill:#B49C83;}
	.st897{fill:#83582F;}
	.st898{fill:#8E572F;}
	.st899{fill:#697877;}
	.st900{fill:#8D5930;}
	.st901{fill:#DDCCB1;}
	.st902{fill:#6F7B7C;}
	.st903{fill:#DFD0B6;}
	.st904{fill:#BD9D80;}
	.st905{fill:#B59D86;}
	.st906{fill:#BE8460;}
	.st907{fill:#8E5930;}
	.st908{fill:#D3AF8E;}
	.st909{fill:#6F797A;}
	.st910{fill:#DECFB7;}
	.st911{fill:#697677;}
	.st912{fill:#BE8663;}
	.st913{fill:#935A30;}
	.st914{fill:#CC8070;}
	.st915{fill:#8C5A30;}
	.st916{fill:#90552F;}
	.st917{fill:#905C30;}
	.st918{fill:#E4D0B0;}
	.st919{fill:#905630;}
	.st920{fill:#6F7A7A;}
	.st921{fill:#E6CDAC;}
	.st922{fill:#8F5830;}
	.st923{fill:#8D5B30;}
	.st924{fill:#8D5B31;}
	.st925{fill:#855830;}
	.st926{fill:#8A5D32;}
	.st927{fill:#C38865;}
	.st928{fill:#8E5A2F;}
	.st929{fill:#C38864;}
	.st930{fill:#855630;}
	.st931{fill:#8A5A33;}
	.st932{fill:#F2F0EE;}
	.st933{fill:#8F562F;}
	.st934{fill:#915C31;}
	.st935{fill:#89562F;}
	.st936{fill:#BFA185;}
	.st937{fill:#8D5A30;}
	.st938{fill:#959891;}
	.st939{fill:#B1AC9C;}
	.st940{fill:#925B32;}
	.st941{fill:#905A30;}
	.st942{fill:#C3984D;}
	.st943{fill:#8E5A31;}
	.st944{fill:#C69945;}
	.st945{fill:#8F5C33;}
	.st946{fill:#9FA198;}
	.st947{fill:#A8A69C;}
	.st948{fill:#9C9F97;}
	.st949{fill:#8D5731;}
	.st950{fill:#AAA89F;}
	.st951{fill:#DEDEDD;}
	.st952{fill:#E4E7E6;}
	.st953{fill:#F0EFED;}
	.st954{fill:#925F35;}
	.st955{fill:#815B32;}
	.st956{fill:#E7E9E9;}
	.st957{fill:#DADDDD;}
	.st958{fill:#C2BCA9;}
	.st959{fill:#C4BDAA;}
	.st960{fill:#C9C5B1;}
	.st961{fill:#D0C9B3;}
	.st962{fill:#D4CEB7;}
	.st963{fill:#CECBB7;}
	.st964{fill:#9D753D;}
	.st965{fill:#CDC7B5;}
	.st966{fill:#D3CCB1;}
	.st967{fill:#E0DAC2;}
	.st968{fill:#A5AAAB;}
	.st969{fill:#A07B3D;}
	.st970{fill:#C0BCAD;}
	.st971{fill:#CBC4B1;}
	.st972{fill:#9F824D;}
	.st973{fill:#9A9796;}
	.st974{fill:#211B18;}
	.st975{fill:#1C1A16;}
	.st976{fill:#1B1B16;}
	.st977{fill:#1C1B17;}
	.st978{fill:#1B1A16;}
	.st979{fill:#1B1A14;}
	.st980{fill:#1D1C16;}
	.st981{fill:#1A1915;}
	.st982{fill:#1A1914;}
	.st983{fill:#1E1D17;}
	.st984{fill:#1B1914;}
	.st985{fill:#1D1C17;}
	.st986{fill:#1D1B16;}
	.st987{fill:#161413;}
	.st988{fill:#251C16;}
	.st989{fill:#231B17;}
	.st990{fill:#1D1814;}
	.st991{fill:#2B231A;}
	.st992{fill:#2D241D;}
	.st993{fill:#241512;}
	.st994{fill:#201714;}
	.st995{fill:#1E1613;}
	.st996{fill:#291D16;}
	.st997{fill:#271D17;}
	.st998{fill:#271C16;}
	.st999{fill:#1C1B16;}
	.st1000{fill:#1C1C15;}
	.st1001{fill:#E3CDB6;}
	.st1002{fill:#171311;}
	.st1003{fill:#1E1E17;}
	.st1004{fill:#241F1C;}
	.st1005{fill:#1E1814;}
	.st1006{fill:#231B15;}
	.st1007{fill:#2A201B;}
	.st1008{fill:#30241D;}
	.st1009{fill:#291E19;}
	.st1010{fill:#322720;}
	.st1011{fill:#362A22;}
	.st1012{fill:#24211B;}
	.st1013{fill:#2D241C;}
	.st1014{fill:#201E1D;}
	.st1015{fill:#242220;}
	.st1016{fill:#7B7843;}
	.st1017{fill:#6B7777;}
	.st1018{fill:#6A7676;}
	.st1019{fill:#6C797A;}
	.st1020{fill:#6A7677;}
	.st1021{fill:#BB885B;}
	.st1022{fill:#6A7778;}
	.st1023{fill:#6B7778;}
	.st1024{fill:#BF8E62;}
	.st1025{fill:#6A7678;}
	.st1026{fill:#697576;}
	.st1027{fill:#697476;}
	.st1028{fill:#6C787A;}
	.st1029{fill:#8B5830;}
	.st1030{fill:#83572E;}
	.st1031{fill:#A67D3D;}
	.st1032{fill:#BA8653;}
	.st1033{fill:#81552E;}
	.st1034{fill:#687576;}
	.st1035{fill:#6F7C7D;}
	.st1036{fill:#CA9D60;}
	.st1037{fill:#A37C42;}
	.st1038{fill:#C6A981;}
	.st1039{fill:#CBAA6F;}
	.st1040{fill:#C7A975;}
	.st1041{fill:#17110E;}
	.st1042{fill:#281F19;}
	.st1043{fill:#31261D;}
	.st1044{fill:#2D221B;}
	.st1045{fill:#3D2E23;}
	.st1046{fill:#231B16;}
	.st1047{fill:#E6E5E3;}
	.st1048{fill:#38322D;}
	.st1049{fill:#3B3430;}
	.st1050{fill:#332F2B;}
	.st1051{fill:#2C2723;}
	.st1052{fill:#39322D;}
	.st1053{fill:#38312E;}
	.st1054{fill:#35312D;}
	.st1055{fill:#302C27;}
	.st1056{fill:#3B342E;}
	.st1057{fill:#403934;}
	.st1058{fill:#3A3531;}
	.st1059{fill:#3C332C;}
	.st1060{fill:#2B2720;}
	.st1061{fill:#33291F;}
	.st1062{fill:#292623;}
	.st1063{fill:#687676;}
	.st1064{fill:#2B2823;}
	.st1065{fill:#161111;}
	.st1066{fill:#151111;}
	.st1067{fill:#171111;}
	.st1068{fill:#040505;}
	.st1069{fill:#0F0E0E;}
	.st1070{fill:#1D1A1A;}
	.st1071{fill:#1F1C1C;}
	.st1072{fill:#1E1C1C;}
	.st1073{fill:#222020;}
	.st1074{fill:#282626;}
	.st1075{fill:#24619C;}
	.st1076{fill:#A05F30;}
	.st1077{fill:#A16031;}
	.st1078{fill:#24609C;}
	.st1079{fill:#F37021;}
	.st1080{fill:#B1693F;}
	.st1081{fill:#824921;}
	.st1082{fill:#246099;}
	.st1083{fill:#F8CB17;}
	.st1084{fill:#25619A;}
	.st1085{fill:#B16A3F;}
	.st1086{fill:#7C4725;}
	.st1087{fill:#25619C;}
	.st1088{fill:#245E99;}
	.st1089{fill:#F7CA17;}
	.st1090{fill:#804721;}
	.st1091{fill:#256099;}
	.st1092{fill:#26619B;}
	.st1093{fill:#F27021;}
	.st1094{fill:#7F4923;}
	.st1095{fill:#E62D2C;}
	.st1096{fill:#F7CA18;}
	.st1097{fill:#245E96;}
	.st1098{fill:#EB6C23;}
	.st1099{fill:#F5C81B;}
	.st1100{fill:#E96823;}
	.st1101{fill:#F1C51D;}
	.st1102{fill:#EC7223;}
	.st1103{fill:#B2683C;}
	.st1104{fill:#EABF25;}
	.st1105{fill:#AB643D;}
	.st1106{fill:#AC653D;}
	.st1107{fill:#D82C28;}
	.st1108{fill:#A36139;}
	.st1109{fill:#255E96;}
	.st1110{fill:#774626;}
	.st1111{fill:#E16925;}
	.st1112{fill:#E76924;}
	.st1113{fill:#A25D3B;}
	.st1114{fill:#2C598B;}
	.st1115{fill:#E57026;}
	.st1116{fill:#25619D;}
	.st1117{fill:#25609B;}
	.st1118{fill:#583828;}
	.st1119{fill:#583829;}
	.st1120{fill:#E82D2C;}
	.st1121{fill:#5C3B2A;}
	.st1122{fill:#040404;}
	.st1123{fill:#F9CC17;}
	.st1124{fill:#F8CA18;}
	.st1125{fill:#24619A;}
	.st1126{fill:#F36F21;}
	.st1127{fill:#F9CB18;}
	.st1128{fill:#F26C21;}
	.st1129{fill:#E32C2C;}
	.st1130{fill:#F26F22;}
	.st1131{fill:#F16F22;}
	.st1132{fill:#B3B2AF;}
	.st1133{fill:#E52C2C;}
	.st1134{fill:#E62E2C;}
	.st1135{fill:#F8CA17;}
	.st1136{fill:#ED6C22;}
	.st1137{fill:#EE6E22;}
	.st1138{fill:#E32D2C;}
	.st1139{fill:#F5C619;}
	.st1140{fill:#316396;}
	.st1141{fill:#EDC124;}
	.st1142{fill:#2F5B8C;}
	.st1143{fill:#DB282A;}
	.st1144{fill:#E8A466;}
	.st1145{fill:#030403;}
	.st1146{fill:#E72D2D;}
	.st1147{fill:#24609D;}
	.st1148{fill:#E6A367;}
	.st1149{fill:#F9CA17;}
	.st1150{fill:#F37121;}
	.st1151{fill:#F6C916;}
	.st1152{fill:#E32F2C;}
	.st1153{fill:#E42E2C;}
	.st1154{fill:#25609A;}
	.st1155{fill:#27619B;}
	.st1156{fill:#E4312C;}
	.st1157{fill:#ED6F22;}
	.st1158{fill:#EEC21F;}
	.st1159{fill:#E66B24;}
	.st1160{fill:#DF352B;}
	.st1161{fill:#E76B24;}
	.st1162{fill:#EBBF2B;}
	.st1163{fill:#EEC120;}
	.st1164{fill:#E1A163;}
	.st1165{fill:#E3A66B;}
	.st1166{fill:#DE9E63;}
	.st1167{fill:#DD2C2A;}
	.st1168{fill:#DB9A60;}
	.st1169{fill:#AFAFAD;}
	.st1170{fill:#8F8E8C;}
	.st1171{fill:#1F1610;}
	.st1172{fill:#221712;}
	.st1173{fill:#2C1B17;}
	.st1174{fill:#2C1F19;}
	.st1175{fill:#2D1F18;}
	.st1176{fill:#231814;}
	.st1177{fill:#2D1512;}
	.st1178{fill:#341715;}
	.st1179{fill:#26110E;}
	.st1180{fill:#0C1118;}
	.st1181{fill:#150F0D;}
	.st1182{fill:#1B1410;}
	.st1183{fill:#2E221F;}
	.st1184{fill:#281D19;}
	.st1185{fill:#34231D;}
	.st1186{fill:#31221C;}
	.st1187{fill:#34241E;}
	.st1188{fill:#262424;}
	.st1189{fill:#1F1F20;}
	.st1190{fill:#42403D;}
	.st1191{fill:#1A1C1C;}
	.st1192{fill:#F9F7F7;}
	.st1193{fill:#0F0F0F;}
	.st1194{fill:#101010;}
	.st1195{fill:#514D4A;}
	.st1196{fill:#F8F8F7;}
	.st1197{fill:#F2F1F1;}
	.st1198{fill:#F0EFEF;}
	.st1199{fill:#F1F1F0;}
	.st1200{fill:#F1F0EF;}
	.st1201{fill:#2C2B2A;}
	.st1202{fill:#F8F8F8;}
	.st1203{fill:#DFDDDC;}
	.st1204{fill:#8B8888;}
	.st1205{fill:#BDBAB9;}
	.st1206{fill:#737373;}
	.st1207{fill:#879093;}
	.st1208{fill:#FAF9F9;}
	.st1209{fill:#F7F7F7;}
	.st1210{fill:#F6F5F5;}
	.st1211{fill:#F7F6F6;}
	.st1212{fill:#F7F7F6;}
	.st1213{fill:#F2F0F0;}
	.st1214{fill:#E6E6E5;}
	.st1215{fill:#E2E2E1;}
	.st1216{fill:#555350;}
	.st1217{fill:#EBEAEA;}
	.st1218{fill:#EDEBEB;}
	.st1219{fill:#F5F5F5;}
	.st1220{fill:#EAE9E7;}
	.st1221{fill:#E2E1E0;}
	.st1222{fill:#F1EEEC;}
	.st1223{fill:#ECEBEB;}
	.st1224{fill:#E4E3E3;}
	.st1225{fill:#DFDEDD;}
	.st1226{fill:#E3E2E1;}
	.st1227{fill:#E2E1E1;}
	.st1228{fill:#E3E3E3;}
	.st1229{fill:#E7E6E6;}
	.st1230{fill:#E1E1E1;}
	.st1231{fill:#D9DAD9;}
	.st1232{fill:#D8D8D8;}
	.st1233{fill:#C9CBCB;}
	.st1234{fill:#686A6B;}
	.st1235{fill:#BABCBC;}
	.st1236{fill:#807A73;}
	.st1237{fill:#242121;}
	.st1238{fill:#232121;}
	.st1239{fill:#2B2523;}
	.st1240{fill:#3C3938;}
	.st1241{fill:#3D3B3A;}
	.st1242{fill:#282726;}
	.st1243{fill:#252120;}
	.st1244{fill:#252222;}
	.st1245{fill:#343230;}
	.st1246{fill:#2A2726;}
	.st1247{fill:#2C2725;}
	.st1248{fill:#333130;}
	.st1249{fill:#3F3C3B;}
	.st1250{fill:#34312F;}
	.st1251{fill:#080909;}
	.st1252{fill:#181819;}
	.st1253{fill:#1A1919;}
	.st1254{fill:#1C1B1B;}
	.st1255{fill:#1F1F1F;}
	.st1256{fill:#201F1E;}
	.st1257{fill:#232322;}
	.st1258{fill:#F6F4F2;}
	.st1259{fill:#F8F6F6;}
	.st1260{fill:#F7F5F4;}
	.st1261{fill:#EFEDEC;}
	.st1262{fill:#C3BDBC;}
	.st1263{fill:#EBE8E6;}
	.st1264{fill:#222021;}
	.st1265{fill:#252325;}
	.st1266{fill:#2C2D2E;}
	.st1267{fill:#272525;}
	.st1268{fill:#393737;}
	.st1269{fill:#33302F;}
	.st1270{fill:#2D2B2A;}
	.st1271{fill:#2D2C2E;}
	.st1272{fill:#17191A;}
	.st1273{fill:#171716;}
	.st1274{fill:#20201F;}
	.st1275{fill:#1A1A1A;}
	.st1276{fill:#232221;}
	.st1277{fill:#242423;}
	.st1278{fill:#1A1A19;}
	.st1279{fill:#181919;}
	.st1280{fill:#292929;}
	.st1281{fill:#0C0D0D;}
	.st1282{fill:#121211;}
	.st1283{fill:#141413;}
	.st1284{fill:#F4F2F1;}
	.st1285{fill:#F5F3F2;}
	.st1286{fill:#F0EFEE;}
	.st1287{fill:#EDEDEC;}
	.st1288{fill:#B7B2AF;}
	.st1289{fill:#171817;}
	.st1290{fill:#1E1D1C;}
	.st1291{fill:#181A1B;}
	.st1292{fill:#1B1B1B;}
	.st1293{fill:#2F2829;}
	.st1294{fill:#292827;}
	.st1295{fill:#0F0F0E;}
	.st1296{fill:#060707;}
	.st1297{fill:#050606;}
	.st1298{fill:#161515;}
	.st1299{fill:#141414;}
	.st1300{fill:#151515;}
	.st1301{fill:#191817;}
	.st1302{fill:#1B1B1A;}
	.st1303{fill:#222121;}
	.st1304{fill:#232423;}
	.st1305{fill:#F6F4F4;}
	.st1306{fill:#EFEEED;}
	.st1307{fill:#E3E2E0;}
	.st1308{fill:#A19E98;}
	.st1309{fill:#908785;}
	.st1310{fill:#A49B99;}
	.st1311{fill:#7A7C7D;}
	.st1312{fill:#9AA09D;}
	.st1313{fill:#B5AFAD;}
	.st1314{fill:#181816;}
	.st1315{fill:#1C1C1A;}
	.st1316{fill:#181817;}
	.st1317{fill:#1B1B1C;}
	.st1318{fill:#1D1D1B;}
	.st1319{fill:#2E2F2B;}
	.st1320{fill:#2E2A2B;}
	.st1321{fill:#373437;}
	.st1322{fill:#3E3B3F;}
	.st1323{fill:#4B474C;}
	.st1324{fill:#453D43;}
	.st1325{fill:#312C2F;}
	.st1326{fill:#383336;}
	.st1327{fill:#474447;}
	.st1328{fill:#363133;}
	.st1329{fill:#443E41;}
	.st1330{fill:#9D999C;}
	.st1331{fill:#A7A7A9;}
	.st1332{fill:#474449;}
	.st1333{fill:#636062;}
	.st1334{fill:#666064;}
	.st1335{fill:#6F6C71;}
	.st1336{fill:#413B3C;}
	.st1337{fill:#504C4E;}
	.st1338{fill:#676669;}
	.st1339{fill:#6B6363;}
	.st1340{fill:#636167;}
	.st1341{fill:#605C5C;}
	.st1342{fill:#E4E4E1;}
	.st1343{fill:#F6F6F6;}
	.st1344{fill:#434242;}
	.st1345{fill:#464142;}
	.st1346{fill:#403D3D;}
	.st1347{fill:#47464A;}
	.st1348{fill:#343134;}
	.st1349{fill:#38373A;}
	.st1350{fill:#040405;}
	.st1351{fill:#FFFEFD;}
	.st1352{fill:#ECEBEA;}
	.st1353{fill:#BFC5C4;}
	.st1354{fill:#F5F5F2;}
	.st1355{fill:#EDECEB;}
	.st1356{fill:#C3C5C4;}
	.st1357{fill:#CED0D0;}
	.st1358{fill:#B4B8B6;}
	.st1359{fill:#1A191A;}
	.st1360{fill:#181818;}
	.st1361{fill:#2B2828;}
	.st1362{fill:#1D1D1D;}
</style>
<g>
	<path class="st12" d="M750.65,705.1c-250.2,0-500.4,0-750.65,0C0,470.11,0,235.12,0,0c250.18,0,500.42,0,750.65,0
		C750.65,234.99,750.65,470.04,750.65,705.1z"/>
	<path class="st513" d="M638.66,460.6c-2.3,2.08-2.28,2.04-5.22,0.64c-11.67-5.57-22.9-11.94-33.83-18.85c-3-1.9-5.61-4.15-7.79-7
		c-3.89-5.09-7.14-10.58-10.37-16.08c-0.31-0.52-0.42-1.21-1.3-1.55c-0.87,2.28-1.77,4.52-2.58,6.81c-1.19,3.38-2.27,6.8-3.49,10.18
		c-0.77,2.14-1.07,4.32-0.96,6.58c0.44,8.86,0.86,17.71,1.28,26.57c0.16,3.51,0.27,7.03,0.46,10.54c0.06,1.15-0.01,2.14-1.42,2.28
		c-1,0.09-0.81,0.74-0.78,1.37c0.11,2.07,0.32,4.15,0.27,6.22c-0.06,2.87-0.53,3.34-3.41,3.38c-7.03,0.09-14.04,0.81-21.08,0.54
		c-0.56-0.02-1.12,0.02-1.68-0.03c-2.5-0.23-3.48-2.03-2.23-4.2c0.88-1.52,2.33-2.34,3.95-2.93c2.55-0.91,5.18-1.59,7.65-2.71
		c0.79-0.36,1.67-0.57,1.99-1.69c-0.62-0.56-1.74,0.01-2.25-0.89c-0.46-0.82-0.38-1.7-0.49-2.56c-1.2-8.86-2.49-17.71-3.57-26.58
		c-0.9-7.45-1.86-14.92-1.13-22.45c0.66-6.75,1.4-13.5,2.56-20.19c0.74-4.24,1.06-8.55,2.1-12.75c0.11-0.44,0.29-0.99-0.32-1.22
		c-1.13-0.43-1.1-1.51-1.31-2.38c-2.61-10.86-5.21-21.72-7.76-32.59c-0.33-1.39-0.83-2.33-2.21-3.08c-4.06-2.2-7.99-4.68-12.2-6.58
		c-7.61-3.44-13.72-8.67-18.99-15.01c-3.47-4.17-6.89-8.39-10.31-12.61c-0.63-0.78-1.46-1.55-0.69-2.74
		c0.35-0.54-0.06-0.91-0.49-1.16c-1.04-0.59-2.11-1.13-3.16-1.7c-3.03-1.65-5.9-3.51-8.08-6.26c-0.72-0.91-1.67-1.1-2.73-1.25
		c-6.23-0.91-12.45-1.88-18.68-2.77c-0.98-0.14-1.82-0.46-2.67-0.93c-2.85-1.6-5.7-3.2-8.6-4.71c-1-0.52-1.01-1.08-0.47-1.86
		c1.63-2.37,3.26-4.74,4.91-7.09c8.98-12.81,17.81-25.73,27-38.39c0.99-1.36,2.08-2.64,2.99-4.04c0.7-1.09,1.43-1.21,2.6-0.77
		c2.83,1.05,5.7,2.01,8.59,2.88c1.39,0.42,2.09,1.23,2.51,2.57c1.85,5.93,3.77,11.84,5.65,17.76c3.49,11,6.77,22.07,10.54,32.98
		c0.94,2.71,1.82,5.44,2.65,8.19c0.45,1.49,0.02,1.95-1.5,1.72c-3.3-0.5-6.59-1.04-9.97-1.58c0.28,0.95,1.04,1.42,1.66,1.99
		c3.94,3.63,7.96,7.16,11.81,10.87c2.84,2.73,6.25,4.39,9.87,5.68c4.73,1.68,9.49,3.23,14.46,4.11c1.04,0.18,2.04,0.19,2.98,0.19
		c0.45-0.68,0.07-1.2,0.03-1.73c-0.12-1.32-0.74-1.99-2.14-2.37c-4.03-1.09-5.39-3.43-4.71-7.53c0.23-1.37,0.8-2.72-0.83-3.79
		c-0.76-0.49-0.45-1.48,0.18-2.11c0.39-0.39,0.88-0.68,1.35-0.97c1.47-0.89,2.71-1.96,3.16-3.72c0.06-0.23,0.18-0.44,0.29-0.66
		c1.26-2.43,1.37-2.43,1.29-5.15c-0.09-2.87,3.62-5.98,6.62-3.92c1.89,1.29,3.99,1.85,6.21,2.29c2.61,0.52,4.84,1.68,5.51,4.61
		c0.15,0.67,0.66,1.09,1.13,1.51c2.88,2.62,3.07,7.03,1.05,10.08c-1.37,2.07-2.77,4.09-3.61,6.44c-0.27,0.76-0.74,1.44-1.41,1.9
		c-0.74,0.51-1.04,0.98-0.69,1.95c0.36,1,0.89,1.29,1.91,1.36c5.49,0.38,10.39,2.3,14.64,5.81c5.12,4.23,10.18,8.51,14.37,13.7
		c3.59,4.44,4.25,9.33,2.12,14.59c-1.14,2.83-2.76,5.4-4.53,7.86c-0.83,1.15-1.08,2.22-0.6,3.55c0.45,1.26,1.05,2.54,0.08,3.87
		c-0.33,0.45,0.07,0.9,0.3,1.3c2.69,4.68,4.29,9.73,5.44,14.99c0.82,3.74,2.69,7.16,4.25,10.64c1.63,3.63,3.12,7.33,5.13,10.79
		c1.27,2.18,2.87,3.97,4.99,5.38c8.57,5.7,17.23,11.27,25.65,17.18c1.24,0.87,2.47,1.76,3.7,2.64c0.46,0.33,1.02,0.7,0.85,1.32
		c-0.36,1.31,0.55,1.6,1.41,2.04c1.78,0.9,3.55,1.81,5.28,2.79c2.16,1.23,2.37,1.87,1.56,4.29c-0.33,0.98-0.69,1.96-1.09,2.91
		c-2.06,4.84-4.14,9.67-6.23,14.5c-0.51,1.17-1.05,2.34-1.88,3.32c-0.86,1.03-1.6,1.17-2.72,0.48c-1.21-0.74-1.98-1.81-2.21-3.25
		c-0.28-1.77,0.03-3.5,0.26-5.24c0.21-1.66,0.41-3.33,0.6-4.99C640.31,462.67,639.89,461.47,638.66,460.6z"/>
	<path class="st822" d="M191.69,378.22c-6.87,0.01-13.69-0.5-20.43-1.9c-0.65,0.5-0.43,1.19-0.48,1.79
		c-0.37,3.73-0.72,7.47-1.06,11.2c-0.11,1.17-0.31,2.25-2.09,2.31c1.48,2.89,2.87,5.63,4.27,8.36c3.65,7.09,7.22,14.21,10.15,21.64
		c1.29,3.27,1.68,6.62,1.4,10.1c-0.77,9.56-2.16,19.04-3.39,28.54c-0.49,3.8-1.12,7.58-1.66,11.37c-0.41,2.86-0.39,2.86-3.16,2.95
		c-0.38,0.01-0.79-0.1-1.19,0.27c0.11,1.82,1.35,2.77,2.91,3.3c2.33,0.8,4.71,1.46,7.07,2.19c1.54,0.48,2.94,1.22,4.06,2.42
		c0.55,0.59,1.03,1.23,1.26,2.01c0.64,2.19,0.01,3.13-2.26,3.31c-5.03,0.4-10.07,0.35-15.1,0.15c-3.11-0.13-6.23-0.17-9.34-0.28
		c-2.54-0.09-2.98-0.48-3.04-2.93c-0.07-2.95-0.11-5.92,0.38-8.84c0.19-1.11,0.28-1.83-1.24-1.78c-1.28,0.04-1.47-0.93-1.38-2.02
		c0.38-4.38,0.76-8.75,1.09-13.13c0.59-7.8,1.05-15.62,1.76-23.41c0.27-2.95-0.65-5.31-2.44-7.47c-3.87-4.67-7.77-9.32-11.67-13.98
		c-0.15-0.18-0.36-0.31-0.56-0.48c-0.72,0.82-0.84,1.87-1.13,2.81c-1.49,4.8-3.4,9.45-5.12,14.16c-1.49,4.09-3.66,7.77-6.4,11.15
		c-6.23,7.69-12.4,15.44-18.6,23.16c-1.7,2.12-3.45,4.2-5.15,6.31c-1.48,1.83-1.73,1.88-3.71,0.56c-0.58-0.39-1.13-0.82-1.72-1.25
		c-1.32,1.6-1.42,3.23-0.64,4.98c0.32,0.73,0.59,1.48,0.94,2.2c0.69,1.42,1.65,2.45,3.31,2.84c2.19,0.51,3.7,1.95,4.26,4.11
		c0.53,2.06-0.06,3.23-2.22,3.1c-2.79-0.17-5.59-0.11-8.39-0.01c-1.59,0.05-2.82-0.52-3.78-1.68c-3.6-4.38-7.18-8.77-10.72-13.19
		c-0.97-1.22-0.88-1.77,0.23-3.18c1.98-2.51,4.23-4.77,6.28-6.78c0.28-0.42,0.24-0.55,0.08-0.68c-2.11-1.72-2.02-1.6-0.59-3.83
		c5.67-8.79,11.67-17.36,17.92-25.75c0.43-0.58,0.84-1.17,1.27-1.74c2.16-2.84,3.5-5.93,4.12-9.53c1.19-6.91,2.8-13.75,4.23-20.62
		c0.52-2.51,0.66-5.06,0.97-7.59c0.47-3.89,1.35-7.7,2.85-11.34c0.42-1.03,0.53-1.79-0.75-2.25c-1.07-0.39-1.08-1.16-0.64-2.13
		c6.16-13.49,12.23-27.04,19.5-39.99c2.9-5.16,6.86-9.39,11.97-12.48c0.68-0.41,1.35-1.03,2.09-1.13c1.89-0.26,2.19-1.89,2.99-3.1
		c0.35-0.52,0-0.89-0.25-1.29c-1.72-2.77-2.48-5.87-2.97-9.02c-0.49-3.15,0-6.06,2.72-8.2c0.57-0.45,0.91-1.1,1.3-1.7
		c1.37-2.09,3.36-3.1,5.84-3.16c0.8-0.02,1.61-0.08,2.4,0.02c2.87,0.37,5.7,0.29,8.56-0.29c1.78-0.36,3.58,0.74,4.32,2.34
		c0.86,1.85,0.7,3.72-0.74,5.09c-1.09,1.04-1.36,1.95-0.87,3.28c0.19,0.51,0.19,1.1,0.19,1.66c0.01,1.73,0.51,3.24,1.52,4.68
		c1.43,2.05,1.21,2.71-1.07,3.75c-0.61,0.28-0.84,0.65-0.98,1.2c-0.16,0.62-0.31,1.24-0.49,1.85c-1,3.34-2.82,4.75-6.29,4.64
		c-1.21-0.04-1.96,0.14-2.23,1.44c-0.13,0.61-0.47,1.18-0.77,1.75c-0.24,0.46-0.31,0.86,0.05,1.31c2.84,3.61,3.7,8.07,5.17,12.26
		c0.92,2.63,1.72,5.31,2.52,7.98c0.5,1.68,0.27,2.05,2.81,2.15c0.7,0.03,1.45-0.08,2.09,0.35c1.7,1.05,3.74,0.1,5.55,0.99
		c0.9,0.45,1.89,0.62,2.46,1.56c0.57,1.22,0.84,2.48,0.64,3.83c-0.21,1-0.89,1.45-1.84,1.37c-1.09-0.08-2.15,0.16-3.23,0.17
		c-1.11-0.07-2.19-0.36-3.28-0.5c-2.53-0.32-3.85-1.6-4.03-4.13c0.09,2.57,1.39,3.76,3.93,4.16c2.03,0.32,4.05,0.74,6.11,0.94
		c2.8-0.14,5.48,0.69,8.22,1.04c0.96,0.04,1.91,0.14,2.85,0.36c2.75,0.64,2.79,0.65,3.28-2.28c0.38-2.23,1.24-4.27,2.2-6.3
		c0.94-1.98,2.62-2.69,4.54-3.12c0.95-0.22,1.83,0.06,2.32,0.86c1.22,1.97,2.45,3.93,1.83,6.47c-0.89,3.65-1.26,7.39-1.8,11.11
		c-0.75,5.18-2.62,6.88-7.82,7.24c-0.81,0.06-1.59,0.17-2.31,0.54C198.34,379.77,194.98,378.58,191.69,378.22z"/>
	<path class="st513" d="M370.79,269.82c-1.51-2.61-1.58-5.45-1.32-8.34c0.06-0.63,0.1-1.3,0.32-1.89c0.49-1.35,0.3-2.25-1.25-2.66
		c-1.25-0.33-1.14-1.32-0.89-2.33c0.86-3.49,1.99-6.89,3.45-10.18c3.82-8.6,7.74-17.16,13.06-24.98c1.45-2.13,3.14-4.03,4.96-5.83
		c1.6-1.59,3.46-2.81,5.72-3.32c0.39-0.09,0.78-0.22,1.12-0.42c0.84-0.5,0.87-1.33-0.01-1.81c-1.71-0.92-3.11-2.23-4.59-3.44
		c-3.06-2.48-3.24-5.26-0.32-7.88c2.29-2.06,4.07-4.42,5.69-7.02c3.45-5.54,9.31-7.27,15.41-4.8c2.09,0.85,4.07,1.84,5.72,3.39
		c2.32,2.17,2.98,5.64,1.75,8.55c-0.85,2.03-1.14,4.08-0.26,6.25c0.83,2.04,0.64,2.29-1.48,3.06c-0.5,0.18-0.82,0.43-1.03,0.89
		c-0.17,0.36-0.33,0.72-0.52,1.08c-1.41,2.68-3.53,4.14-6.62,3.51c-1.06-0.22-1.55,0.13-1.78,0.99c-0.24,0.91-1.31,1.75-0.19,2.81
		c3.07,2.91,6.1,5.87,9.14,8.82c0.82,0.8,1.65,0.94,2.81,0.64c4.56-1.19,8.9-2.96,13.24-4.75c1.05-0.43,1.2-1.1,1.14-2.05
		c-0.21-3.83-0.39-7.66-0.57-11.48c-0.17-3.43-0.28-6.86-0.51-10.29c-0.09-1.29,0.24-1.89,1.62-1.96c2.79-0.15,5.57-0.45,8.35-0.66
		c4.94-0.36,9.88-0.69,14.81-1.03c4.7-0.32,9.4-0.6,14.1-0.94c1.48-0.1,2.84,0.17,4.15,0.85c2.62,1.36,5.25,2.69,7.89,3.99
		c1.04,0.51,1.47,1.21,1.53,2.41c0.45,8.93,0.95,17.86,1.51,26.79c0.29,4.7,0.71,9.39,1.09,14.09c0.17,2.07,0.14,2.21-1.93,2.38
		c-5.25,0.44-10.51,0.79-15.76,1.21c-7.16,0.57-14.31,1.16-21.47,1.77c-1.69,0.14-3.31,0.16-4.79-0.9c-0.9-0.65-2.04-1-2.86-1.72
		c-1.74-1.53-3.3-1.16-5.16-0.14c-3.55,1.96-7.22,3.73-11.03,5.15c-2.32,0.87-4.72,1.48-7.15,1.9c-2.07,0.36-4.13,0.18-6.11-0.63
		c-0.8-0.33-1.62-0.59-2.4-0.87c-0.52,0.44-0.66,0.97-0.78,1.53c-0.73,3.29-0.36,3.89,2.91,4.41c5.9,0.94,11.75,2.09,17.45,3.93
		c1.98,0.64,3.87,1.49,5.61,2.63c2.96,1.94,5.06,4.52,6.32,7.88c1.6,4.29,2.28,8.78,3.22,13.21c1.76,8.28,2.44,16.73,3.83,25.06
		c0.42,2.51,0.8,5.04,1.2,7.55c0.06,0.39,0.15,0.79,0.17,1.18c0.11,1.86-0.21,2.23-2.07,2.41c-1.11,0.11-2.23,0.2-3.34,0.32
		c-0.14,0.02-0.27,0.15-0.45,0.26c0.69,3.33,2.55,5.75,5.63,7.23c1.43,0.69,2.88,1.35,4.31,2.05c1.78,0.87,3.18,2.12,3.81,4.08
		c0.58,1.8-0.17,2.87-2.02,2.67c-4.04-0.44-8.08-0.94-12.05-1.84c-1.59-0.36-2.97-1.12-4.03-2.41c-0.5-0.61-1.07-1.17-1.59-1.73
		c-0.19,0.09-0.43,0.13-0.44,0.21c-0.49,3.78-1.27,3.14-3.61,2.61c-0.54-0.12-1.12-0.09-1.66-0.23c-1.58-0.4-1.8-0.65-1.78-2.32
		c0.03-2.8,0.15-5.59,0.18-8.38c0.01-0.55,0.37-1.39-0.58-1.53c-1.04-0.15-1.01,0.78-1.24,1.42c-0.03,0.07-0.03,0.16-0.05,0.23
		c-0.68,3.27-0.68,3.28-3.8,2.45c-1-0.26-1.98-0.6-2.97-0.91c-0.84-0.22-1.67,0.07-2.52,0.06c-2.76-0.37-5.46-0.98-8.09-1.9
		c-1.15-0.46-2.34-0.71-3.57-0.79c-6.28-0.51-7.04-1.66-5.21-7.68c2.71-8.93,5.43-17.85,8.07-26.8c0.97-3.29,0.33-4.13-3.28-3.72
		c-3.27,0.37-6.53,0.27-9.79,0.35c-2.25,0.08-4.44-0.11-6.42-1.34c-4-0.2-7.96-0.62-11.74-2.06c-2.89-1.1-5.5-2.58-7.14-5.35
		C371.43,271.83,371.04,270.85,370.79,269.82z"/>
	<path class="st823" d="M390.73,279.48c0.16,0,0.38-0.08,0.47,0c1.75,1.57,3.91,1.39,6.03,1.43c-0.4,1.23-1.49,1.05-2.39,1.1
		c-9.08,0.51-18.15,1.21-27.22,1.94c-2.62,0.21-2.74,0.39-2.87,3.03c-0.28,5.52,0.59,11,0.46,16.51
		c-0.24,10.14,0.75,20.26,0.54,30.4c-0.05,2.23,0.54,4.43,0.48,6.68c-0.04,1.49,0.85,1.9,2.2,1.77c9.85-0.97,19.72-1.69,29.58-2.55
		c4.77-0.41,9.54-0.89,14.32-1.17c1.09-0.07,2.38,0.12,2.94-1.12c0.56-1.22-0.33-2.11-1.02-2.99c-0.39-0.5-0.8-1-1.1-1.57
		c-0.57-1.1-1.11-1.21-2.2-0.42c-1.87,1.35-3.69,0.3-5.34-0.67c-1.46-0.85-1.59-2.34-1.19-3.82c0.84-3.15,1.62-6.33,3.18-9.24
		c1.22,0,2.36,0.29,3.45,0.83c-2.31,2.45-2.69,5.69-3.5,8.74c-0.15,0.58,0.07,1.12,0.7,1.35c0.63,0.23,1.08-0.04,1.43-0.54
		c0.23-0.33,0.37-0.71,0.61-1.03c1.01-1.38,1.96-1.45,3.12-0.25c0.22,0.23,0.44,0.48,0.56,0.77c2.46,5.91,8.18,6.84,13.28,8.71
		c0.15,0.05,0.31-0.04,0.55-0.25c-0.07-1.48-1.28-2.21-2.3-3.03c-2.3-1.86-4.58-3.73-5.73-6.6c-0.77-1.92-1.06-3.82-0.26-5.79
		c0.78-0.45,1.48-0.37,2.07,0.34c-0.96,0.85-0.59,1.95-0.33,2.87c0.53,1.85,1.37,3.59,2.81,4.93c1.58,1.47,3.25,2.83,4.84,4.28
		c0.54,0.5,1.16,0.44,1.79,0.5c2.15,0.19,4.3,0.35,6.44,0.55c2.3,0.21,2.47,0.42,2.51,2.81c0.21,15.34,0.41,30.68,0.63,46.02
		c0,0.23,0.05,0.46,0.1,0.83c1,0.25,2.03,0.1,3.02,0.01c8.27-0.77,16.56-1.26,24.83-1.98c2.74-0.24,4.97,0.36,7.27,1.51
		c5.91,2.95,11.83,5.89,17.78,8.76c1.61,0.78,2.2,1.78,2.26,3.67c0.47,14.94,0.76,29.87,0.91,44.81c0.02,2,0.03,2.02,1.94,2.68
		c5.72,1.97,11.44,3.91,17.16,5.88c2.39,0.82,2.39,0.84,2.36,3.39c-0.11,8.23-0.25,16.46-0.31,24.69c-0.01,1.25-0.44,2.03-1.38,2.81
		c-6.91,5.81-13.71,11.75-20.68,17.49c-3.32,2.73-2.15,2.88-6.67,1.02c-8.25-3.39-16.49-6.8-24.73-10.21
		c-1.94-0.8-1.94-0.8-1.95-2.99c-0.03-7.75-0.05-15.5-0.11-23.25c-0.01-0.93,0.25-1.92-0.32-2.73c-5.46,0.42-10.87,0.85-16.28,1.23
		c-0.91,0.06-1.71,0.23-2.41,0.85c-4.38,3.85-8.76,7.68-13.21,11.57c0.27,0.9,0.88,1.53,1.37,2.21c3.7,5.11,7.42,10.2,11.14,15.29
		c0.09,0.13,0.22,0.24,0.31,0.37c0.85,1.28,0.67,1.76-0.89,2.1c-1.09,0.24-2.2,0.37-3.31,0.54c-10.56,1.61-21.12,3.23-31.68,4.83
		c-0.79,0.12-1.61,0.06-2.38,0.23c-1.97,0.44-2.61-0.09-1.84-2.33c1.35-3.92,2.61-7.87,3.92-11.8c0.5-1.51,1.01-3.01,1.61-4.81
		c-15.88-0.65-31.58-1.29-47.17-1.93c-0.44,0.66-0.11,1.06,0.05,1.49c3.06,8.64,6.12,17.28,9.18,25.92c0.11,0.3,0.21,0.6,0.3,0.91
		c0.44,1.46,0.06,2.02-1.38,1.84c-2.45-0.3-4.9-0.68-7.34-1.04c-4.81-0.7-9.62-1.42-14.43-2.1c-1.77-0.25-1.83-0.19-1.99,1.36
		c-0.75,7.31-7.06,15.24-16.73,15.62c-7.74,0.31-15.47-4.71-17.79-13.27c-3.11-11.51,5.78-23.52,18.67-22.4
		c5.1,0.44,9.2,2.95,12.36,6.97c0.3,0.37,0.57,0.76,0.87,1.14c0.04,0.05,0.14,0.04,0.21,0.06c1.76-1.95,10.68-14.85,11.54-16.75
		c-2.89-0.18-5.73-0.37-8.56-0.53c-1.2-0.07-2.4-0.07-3.6-0.11c-2.74-0.1-2.87-0.2-2.92-2.85c-0.07-3.99-0.09-7.99-0.13-11.99
		c-0.01-1.11,0-2.22,0-3.17c-0.53-0.51-0.93-0.29-1.27-0.17c-7,2.42-14.09,4.56-21.18,6.7c-1.09,0.33-2.1,0.42-3.26,0.15
		c-5.98-1.36-11.99-2.59-17.99-3.86c-0.54-0.11-1.1-0.14-1.67-0.21c-0.57,0.65-0.32,1.39-0.31,2.06c0.07,5.83,0.2,11.66,0.27,17.5
		c0.03,2.55,0,2.54-2.48,2.62c-5.19,0.17-10.38,0.35-15.58,0.53c-0.16,0.01-0.32,0.01-0.48,0.02c-1.84,0.13-1.86,0.13-1.87,1.95
		c-0.02,2.8-0.01,5.59-0.01,8.39c0,2.32-0.06,4.64,0.01,6.95c0.03,1.08-0.29,1.8-1.28,2.29c-5.43,2.69-11.06,4.92-16.63,7.31
		c-0.45,0.19-0.88,0.24-1.38,0.14c-7.43-1.44-14.96-2.36-22.34-4.05c-2.01-0.46-2.03-0.47-2.03-2.4
		c-0.02-5.51-0.03-11.03-0.05-16.54c-0.01-2.11-0.02-2.13-2.14-1.95c-3.03,0.26-6.07,0.22-9.11,0.29c-1.08,0.02-2-0.27-2.92-0.84
		c-6.19-3.79-12.39-7.56-18.62-11.28c-1.42-0.85-1.79-1.97-1.81-3.55c-0.44-30.2-0.91-60.4-0.88-90.61c0-0.79,0-1.59,0-2.34
		c-0.77-0.76-1.8-0.19-2.53-0.71c1.25-0.02,2.51-0.1,3.76-0.04c2.15,0.11,4.22-0.03,5.99-1.45c0.77,2.19-0.82,2.6-2.26,2.53
		c-2.14-0.1-2.39,0.8-2.36,2.66c0.12,8.07,0.14,16.14,0.03,24.21c-0.28,21.17,0.81,42.33,0.47,63.5c-0.04,2.26,0.78,3.76,2.75,4.86
		c4.4,2.46,8.65,5.16,12.94,7.8c0.78,0.48,1.64,1.42,2.57,0.86c0.8-0.48,0.45-1.62,0.45-2.48c0-10.38-0.3-20.76-0.38-31.14
		c-0.25-32.44-0.13-64.88-0.03-97.33c0.01-2.98-0.86-4.68-3.63-5.9c-4.31-1.89-8.46-4.17-12.69-6.26c-0.61-0.3-1.3-0.94-1.96-0.36
		c-0.56,0.49-0.09,1.21,0.09,1.8c0.6,1.98,0.44,3.96,0,5.93c-0.32,1.4-0.32,2.65,0.86,3.73c0.77,0.7,0.97,1.71,0.64,2.67
		c-1.06,3.08-1.93,6.22-2.62,9.4c-2.33-0.54-4.76-0.58-7.07-1.25c-0.38-0.11-0.88,0.22-1.33,0.34c-0.38-1.44-2.55-0.2-2.78-1.86
		c1.28,0.01,2.54-0.48,3.86-0.09c0.65,0.19,0.88-0.47,0.99-1.03c2.06,1.86,2.79,1.69,4.13-0.96c0.57-1.13,0.76-2.42,1.46-3.59
		c-0.74,0.65-1.42,1.57-2.47,0.81c-0.83-0.6-0.35-1.44-0.13-2.19c0.82-2.81,1.23-5.7,1.72-8.59c-1.69,2.53-2.34,5.47-3.38,8.25
		c-0.37,0.99-0.37,2.27-1.73,2.63c-2.04-0.86-3.93-2.28-6.38-1.59c-0.74,0.21-1.19-0.26-1.39-0.97c1.91,0.15,3.84,0.07,5.71,0.56
		c1.04,0.27,1.35-0.2,1.62-1.11c0.66-2.21,1.41-4.4,2.2-6.57c0.54-1.5,1.17-2.99,2.42-4.07c0.89-0.76,0.58-1.77,0.59-2.68
		c0.07-3.6,0.04-3.59,3.68-3.8c8.93-0.53,17.88-0.69,26.82-0.97c13.74-0.42,27.48-0.68,41.23-0.97c1.8-0.04,3.43,0.26,5.07,1
		c6.82,3.06,13.68,6.05,20.55,9.01c1.01,0.44,1.48,0.89,1.49,2.07c0.14,11.42,0.36,22.84,0.52,34.27c0.06,4.23-0.01,8.47,0.01,12.7
		c0.01,1.55,0.15,1.67,1.64,1.34c3.58-0.78,7.19-1.46,10.71-2.43c2.63-0.72,5.17-0.69,7.76-0.09c0.39,0.09,0.77,0.23,1.32-0.01
		c-1.26-2.02-2.53-4.02-3.78-6.04c-3.48-5.64-6.92-11.29-10.45-16.9c-0.71-1.13-0.55-2.01,0.04-3.07
		c4.39-7.87,8.74-15.77,13.1-23.65c0.89-1.6,1.79-3.2,2.66-4.81c0.5-0.92,1.17-1.29,2.27-1.39c6.91-0.59,13.82-1.33,20.73-1.92
		c1.4-0.12,1.48-0.8,1.44-1.88c-0.23-6.78-0.49-13.57-0.63-20.36c-0.24-11.82-0.62-23.64-0.46-35.47c0.01-0.48,0.03-0.96,0-1.44
		c-0.08-1.14,0.26-1.74,1.57-1.82c2.94-0.18,5.87-0.59,8.82-0.78c6.3-0.4,12.6-0.72,18.89-1.07c0.65-0.04,1.55,0.26,1.43-0.96
		c0.55,0.79,1.43,1.4,1.33,2.53c-0.69,0.64-1.57,0.85-2.44,0.88c-7.42,0.23-14.81,1.15-22.24,1.14c-0.32,0-0.64-0.01-0.7-0.1
		c5.27,2.02,10.59,4.49,16.1,6.47c2.38,0.86,4.92-0.05,7.37-0.22c6.29-0.44,12.56-1.08,18.87-0.87
		C389.64,279.66,390.21,279.76,390.73,279.48z"/>
	<path class="st824" d="M516.05,525.05c-2.45-0.69-4.9-1.36-7.34-2.07c-4.66-1.35-9.31-2.69-13.96-4.08
		c-1.86-0.55-1.89-0.66-0.79-2.18c5.46-7.56,10.93-15.11,16.42-22.65c1.06-1.45,1.54-1.47,2.67,0.08c2.63,3.6,5.18,7.27,7.78,10.89
		c2.78,3.89,5.59,7.76,8.37,11.65c1.15,1.61,1.12,1.75-0.63,2.61c-3.64,1.79-7.3,3.53-10.94,5.31
		C517.13,524.86,516.67,525.21,516.05,525.05z"/>
	<path class="st825" d="M607.21,487.94c5.43-0.37,11.15,4.61,10.99,11.09c-0.17,6.99-5.85,11.25-11.08,11.11
		c-6.03-0.17-10.78-5.11-10.92-11.34C596.09,493.91,600.83,487.48,607.21,487.94z"/>
	<path class="st826" d="M203.11,508.89c0.12,6.28-4.43,11.08-10.61,11.18c-6.03,0.1-11.06-4.8-11.13-10.82
		c-0.07-6.27,4.65-11.39,10.75-11.47C198.81,497.69,203.39,503.25,203.11,508.89z"/>
	<path class="st10" d="M522.4,312.41c-4.25-0.68-8.16-1.29-12.06-1.93c-0.84-0.14-1.3-0.6-1.54-1.54c-0.59-2.31-1.36-4.58-2.1-6.85
		c-0.19-0.6-0.46-1.19-0.77-1.75c-0.33-0.61-0.88-0.9-1.59-0.83c-0.74,0.06-1.1,0.54-1.36,1.17c-0.45,1.11-0.16,2.32-0.47,3.83
		c-2-1.78-3.76-3.35-5.52-4.93c-0.53-0.48-1.01-1.03-1.57-1.47c-1.61-1.25-2-1.24-3.11,0.47c-0.46,0.7-0.93,0.43-1.42,0.44
		c-1.23,0.01-1.79,0.63-1.63,1.81c0.1,0.72,0.16,1.27-0.36,1.94c-0.72,0.93-0.2,1.95,0.24,2.92c0.61,1.33,0.32,1.72-1.16,1.5
		c-2.91-0.43-5.82-0.94-8.72-1.41c-3.35-0.55-6.7-1.09-10.31-1.68c11.57-16.61,23.03-33.04,34.73-49.83
		C510.12,273.78,515.63,293.15,522.4,312.41z"/>
	<path class="st10" d="M467.02,303.7c-2.84-1.6-5.59-3.16-8.31-4.7c-0.19-0.61,0.27-0.91,0.51-1.26
		c7.22-10.33,14.43-20.66,21.69-30.96c3.77-5.35,7.63-10.63,11.42-15.95c0.62-0.87,1.12-1.28,2.33-0.79
		c2.49,1.02,5.09,1.77,7.86,2.7C490.66,269.77,478.87,286.69,467.02,303.7z"/>
	<path class="st485" d="M565.71,333.57c-3.71-0.11-6.9,0.54-10.2,1.37c-0.6-0.88-0.48-1.96-0.86-2.85c0.63-0.68,1.45-0.24,2.07-0.57
		c0.47-0.25,1.14-0.41,0.9-1.16c-0.17-0.56-0.7-0.61-1.19-0.53c-1.41,0.22-2.78,0.45-4.25,0.06c-3.36-0.88-4.39-2.21-3.98-5.62
		c0.06-0.47,0.18-0.94,0.31-1.4c0.41-1.49,0.44-2.85-1.15-3.58c0.12-0.6,0.49-0.79,0.83-0.96c1.87-0.95,3.08-2.47,3.84-4.38
		c0.21-0.52,0.47-1.01,0.72-1.51c0.46-0.92,1.05-1.03,1.88-0.38c0.62,0.49,1.36,0.83,2.03,1.25c1.84,1.17,2.17,1.93,1.77,4.17
		c-0.11,0.63-0.21,1.27-0.06,1.9c0.29,1.19,0.96,1.6,2.08,1.06c0.72-0.34,1.4-0.64,1.91,0.04c0.57,0.75,0.11,1.52-0.38,2.18
		c-0.49,0.67-1.28,0.93-1.98,1.29c-1.06,0.55-1.27,1.34-0.81,2.38c0.96,2.16,2.12,4.2,4.62,4.79
		C565.11,331.42,565.01,332.41,565.71,333.57z"/>
	<path class="st9" d="M555.72,490.45c-2.8,0-5.59,0.01-8.39-0.01c-0.51,0-1.18,0.19-1.41-0.54c-0.19-0.6,0.14-1.1,0.47-1.55
		c0.74-1.02,1.87-1.44,3-1.83c2.33-0.8,4.68-1.54,6.98-2.43c1.4-0.55,2.83-1.19,3.39-2.79c0.21-0.59,0.69-0.59,1.17-0.59
		c2.96,0.02,5.91,0.09,8.87,0.07c1.01-0.01,1.21,0.57,1.24,1.34c0.1,2.07,0.12,4.15,0.27,6.22c0.09,1.33-0.55,1.59-1.7,1.61
		C564.97,490.03,560.35,490.57,555.72,490.45z"/>
	<path class="st12" d="M640.83,472.43c0.18-1.29,0.38-3.03,0.67-4.76c0.22-1.35,0.23-2.7,0.3-4.05c0.08-1.44-0.39-2.69-1.32-3.73
		c-0.69-0.77-0.8-1.37-0.23-2.3c1.3-2.1,2.42-4.3,3.36-6.59c0.23-0.56,0.42-1.05,1.19-0.63c2.1,1.13,4.21,2.25,6.33,3.34
		c0.86,0.45,1.1,1.07,0.74,1.96c-0.36,0.89-0.68,1.78-1.04,2.67c-1.98,4.87-3.92,9.75-6.18,14.5c-0.21,0.43-0.33,0.93-0.63,1.28
		c-0.58,0.66-0.58,2.18-1.82,1.82c-1.04-0.3-1.3-1.51-1.38-2.59C640.82,473.2,640.83,473.04,640.83,472.43z"/>
	<path class="st827" d="M494.52,311.04c1.52-0.4,1.67-0.65,0.81-1.47c-0.75-0.71-1.62-1.3-2.41-1.97c-1.14-0.97-2.01-2.15-2.43-3.71
		c1.19,1.11,2.34,2.26,3.59,3.3c0.79,0.66,1.7,2.26,2.67,1.26c1.03-1.07-0.66-1.84-1.38-2.52c-1.62-1.53-3.39-2.9-4.46-5.03
		c0.88-0.3,1.17,0.38,1.57,0.75c1.66,1.49,3.28,3.04,4.96,4.52c0.37,0.33,0.87,0.87,1.4,0.19c0.46-0.59,0.11-1.08-0.35-1.43
		c-1.47-1.13-2.68-2.51-3.78-3.99c-0.32-0.44-0.75-0.83-0.75-1.86c1.21,1.07,2.2,1.98,3.22,2.86c1.45,1.25,2.9,2.51,4.38,3.72
		c0.56,0.46,1.22,0.86,1.98,0.53c0.85-0.37,0.63-1.2,0.66-1.89c0.04-0.86,0.01-1.72,0.01-2.56c0.92-0.16,0.77,0.49,0.93,0.87
		c1.3,2.92,1.59,6.19,3.04,9.05c0.36,0.71-0.03,1.03-0.44,1.41c-1.24,1.13-2.53,2.21-3.73,3.37c-0.68,0.66-1.25,0.45-1.92,0.07
		c-2.75-1.57-5.7-2.81-8.13-4.91C493.86,311.13,494,310.89,494.52,311.04z"/>
	<path class="st828" d="M557.88,393.32c1.73-0.99,3.12-0.92,4.39-1.19c9.65-2.07,19.36-3.92,28.51-7.83
		c0.61-0.26,1.52-1.04,1.88-0.22c0.46,1.06-0.85,1.06-1.48,1.35c-4.99,2.35-10.26,3.88-15.61,5.16c-4.34,1.04-8.68,2.07-13.1,2.72
		C561.14,393.5,559.8,393.74,557.88,393.32z"/>
	<path class="st829" d="M592.72,375.84c-1.57-1.86-9.73-23.58-9.76-26.06c0.23,0.08,0.58,0.11,0.63,0.25
		c2.91,8.33,6.83,16.28,9.37,24.75C593.07,375.16,593.13,375.57,592.72,375.84z"/>
	<path class="st830" d="M586.59,400.44c-0.38,1.26-0.73,2.66-1.21,4c-1.18,3.3-2.42,6.58-3.64,9.86c-0.11,0.3-0.25,0.59-0.4,0.87
		c-0.23,0.45-0.6,0.88-1.11,0.62c-0.57-0.29-0.22-0.77-0.06-1.23c1.59-4.67,3.7-9.16,5.04-13.92c0.06-0.23,0.18-0.44,0.28-0.66
		c0.15-0.36,0.27-0.84,0.79-0.67C586.76,399.46,586.58,399.95,586.59,400.44z"/>
	<path class="st831" d="M494.52,311.04c-0.19,0.19-0.38,0.37-0.56,0.56c-1.25-0.79-2.43-1.64-3.04-3.12
		C492.29,309.08,493.43,310.03,494.52,311.04z"/>
	<path class="st485" d="M196.31,363.22c-0.54-1.42-0.34-2.82,0.13-4.2c0.59-1.73,1.26-3.44,1.79-5.19c0.49-1.63,0.29-2.19-1.3-2.76
		c-0.86-0.3-0.93-0.67-0.79-1.36c0.23-1.09,0.49-2.18,0.69-3.27c0.33-1.8,0.75-3.55-0.45-5.29c-0.57-0.83-0.25-2.02-0.16-3.17
		c1.45,0.29,2.65,1.08,3.9,1.68c5.01,2.43,9.97,4.98,15.01,7.37c1.26,0.6,1.18,1.51,1.17,2.54c-0.03,9.1-0.02,18.21-0.09,27.31
		c-0.25,33.86,0.3,67.72,0.43,101.57c0.01,2.15,0,4.3,0,6.53c-1.19,0.18-1.73-0.8-2.49-1.24c-5.29-3.11-10.52-6.32-15.8-9.44
		c-1.14-0.67-1.66-1.42-1.67-2.83c-0.22-30.58-0.5-61.17-0.77-91.75c0-0.3,0-0.6,0-1.08c1.32,0,2.5-0.02,3.69,0
		c1.31,0.02,1.92-0.59,1.85-1.89c0.66-0.87,1.61-0.51,2.44-0.52c4.41-0.08,6.04-1.35,6.84-5.68c0.79-4.3,1.09-8.67,2.12-12.94
		c0.25-1.05,0.29-2.24-0.86-3.01c-0.53-0.36-0.32-1.03-0.5-1.53c-0.47-1.31-1.73-1.92-2.75-1.04c-0.79,0.68-1.88,0.02-2.48,0.99
		c-0.75,1.22-1.46,2.46-2.01,3.78c-0.73,1.77-1.17,3.62-1.39,5.53c-0.11,0.95-0.2,1.9-0.63,3
		C200.62,363.44,198.44,363.42,196.31,363.22z"/>
	<path class="st36" d="M105.37,486.48c-6.52-0.14-5.53,0.54-9.38-4.2c-2.51-3.09-5-6.19-7.56-9.24c-0.82-0.97-0.92-1.68,0.02-2.63
		c1.85-1.86,3.64-3.79,5.39-5.75c0.71-0.8,1.23-0.68,1.98-0.06c1.78,1.47,3.61,2.88,5.45,4.27c0.86,0.65,1.03,1.23,0.34,2.15
		c-0.75,1-0.81,2.2-0.61,3.43c0.36,2.25,1.42,4.2,2.53,6.12c0.56,0.97,1.58,1.3,2.58,1.59c1.41,0.41,2.67,1.07,3.48,2.34
		c0.78,1.22,0.42,1.92-1,1.97C107.32,486.51,106.05,486.48,105.37,486.48z"/>
	<path class="st9" d="M174.84,486.44c-3.92,0-7.83,0.04-11.75-0.02c-1.7-0.02-1.73-0.13-1.84-1.76c-0.21-3.05,0.29-6.06,0.45-9.09
		c0.04-0.84,0.45-1.07,1.21-1.06c2.8,0.03,5.6,0.06,8.39,0.03c0.94-0.01,1.23,0.43,1.35,1.27c0.28,1.95,1.55,3.03,3.3,3.74
		c2.3,0.93,4.68,1.57,7.05,2.26c1.55,0.45,2.99,1.12,4.1,2.34c0.48,0.53,1.01,1.12,0.7,1.9c-0.32,0.8-1.11,0.48-1.69,0.49
		c-3.76,0.03-7.51,0.02-11.27,0.02C174.84,486.51,174.84,486.47,174.84,486.44z"/>
	<path class="st9" d="M177.4,306.88c1.05,3.07-0.24,6.78,3.08,9.37c-2.64,0.2-3.01,1.89-3.42,3.63c-0.38,1.63-0.79,3.29-2.53,4.1
		c-1.47,0.68-2.93,0.66-4.38-0.05c-0.93-0.46-1.83-0.95-2.76-1.4c-0.4-0.19-0.8-0.13-1,0.3c-0.14,0.3-0.04,0.63,0.2,0.88
		c0.16,0.17,0.36,0.31,0.54,0.46c0.52,0.46,1.6,0.44,1.62,1.22c0.02,0.74-0.46,1.49-0.73,2.23c-0.08,0.22-0.21,0.42-0.37,0.75
		c-2.44-1.96-4.91-3.81-8.2-4.47c0.61-1.95,1.46-3.48,3.49-4.15c0.81-0.27,1.54-0.84,2.23-1.36c1.89-1.42,1.9-1.59,0.55-3.51
		c-0.42-0.6-0.74-1.22-0.73-1.98c0-0.66,0.06-1.36,0.68-1.69c0.63-0.34,0.96,0.34,1.37,0.67c1.42,1.13,2.93,0.81,3.12-0.99
		c0.28-2.64,1.42-3.51,3.95-3.3C175.13,307.67,176.22,307.15,177.4,306.88z"/>
	<path class="st428" d="M205.29,361.43c-0.04,1.03,0.67,0.89,1.32,0.86c0.95-0.31,0.61,0.78,1.07,1c0.92,0.22,1.23-0.22,1.43-1.08
		c0.39-1.68,0.76-3.39,1.94-4.84c-0.33,1.84-0.6,3.69-1.02,5.51c-0.48,2.11-0.36,4.28-0.73,6.4c-0.81,4.76-2.12,5.69-7.08,4.99
		c0.08-2.02,0.52-4.05,0.19-6.09c-0.11-0.67,0.17-0.98,0.78-1.24c0.83-0.35,1.07-1.13,1.06-1.98c-0.01-1.37,0.32-2.68,0.58-4.01
		C205.26,360.84,205.49,360.92,205.29,361.43z"/>
	<path class="st832" d="M189.57,355.68c1.06-1.27,1.25-2.9,1.71-4.4c0.68-2.21,1.37-4.41,2.43-6.47c0.35-0.68,0.59-1.48,1.07-1.59
		c0.66-0.02,0.81,0.08,0.78,0.27c-0.6,3.59-0.97,7.23-2.31,10.66c-0.18,0.45-0.43,0.91,0.11,1.26c0.64,0.42,1.03-0.04,1.41-0.46
		c0.55-0.61,0.76-1.52,1.84-1.94c-0.64,2.32-1.37,4.39-2.33,6.38c-0.27,0.56-0.71,1.06-1.14,1.52c-0.48,0.51-0.93,1.1-1.81,0.91
		c-1.08-0.24-0.97-1.09-1.09-1.86c-0.03-0.22-0.18-0.43-0.27-0.65C190.13,358.09,189.53,356.92,189.57,355.68z"/>
	<path class="st833" d="M163.64,391.04c-5.7-0.55-10.92-1.62-16.1-2.84c-6.49-1.53-12.97-3.13-19.17-5.66
		c-0.37-0.15-0.73-0.31-1.11-0.43c-0.43-0.13-0.78-0.35-0.6-0.82c0.19-0.48,0.68-0.35,1.03-0.23c2.41,0.79,4.81,1.64,7.23,2.41
		c8.95,2.85,18.1,4.85,27.41,6.15c0.39,0.05,0.8,0.06,1.18,0.16c0.38,0.1,0.86,0.3,0.84,0.71
		C164.32,391.16,163.71,391.03,163.64,391.04z"/>
	<path class="st834" d="M169.69,375.1c-0.52,0.5-1,0.19-1.47-0.11c-1.5-0.95-2.73-2.16-3.75-3.64c-2.1-3.04-3.5-6.43-4.95-9.8
		c-1.26-2.93-2.44-5.88-3.43-8.92c-0.15-0.45-0.26-0.92-0.4-1.37c-0.1-0.33-0.12-0.64,0.25-0.78c0.34-0.13,0.66,0.03,0.79,0.34
		c0.35,0.89,0.67,1.79,0.97,2.7c1.5,4.63,3.54,9.04,5.63,13.43c1.36,2.84,3.08,5.4,5.77,7.18
		C169.43,374.36,169.74,374.61,169.69,375.1z"/>
	<path class="st215" d="M133.9,397.83c0.54-0.11,0.74,0.22,0.96,0.56c2.7,4.32,5.93,8.24,9.11,12.21c0.25,0.31,0.53,0.6,0.72,0.95
		c0.09,0.16,0.06,0.49-0.06,0.63c-0.19,0.23-0.51,0.4-0.81,0.12c-0.35-0.32-0.72-0.63-1.01-0.99c-2.87-3.6-5.87-7.1-8.14-11.13
		C134.24,399.44,133.6,398.77,133.9,397.83z"/>
	<path class="st835" d="M185.12,360.45c0.57,0.55,1.33,0.34,2,0.5c0.74,0.18,1.08,0.59,0.78,1.36c-2.66-0.48-5.31-0.99-7.92-1.7
		c-0.95-0.26-1.53-0.63-1.81-1.62c-0.34-1.22-0.85-2.4-1.26-3.6c-0.11-0.31-0.09-0.66,0.29-0.77c0.33-0.1,0.63,0.01,0.76,0.38
		c0.34,0.97,0.72,1.94,1,2.93c0.26,0.92,0.69,1.52,1.72,1.69C182.17,359.88,183.58,360.5,185.12,360.45z"/>
	<path class="st836" d="M207.69,363.28c-0.69,0.03-0.53-0.86-1.07-1c0.84-2.98,1.35-6.09,3.44-9.13c0.45,1.54-0.18,2.34-0.57,3.06
		c-0.89,1.64-1.18,3.46-1.75,5.19C207.54,362,207.4,362.65,207.69,363.28z"/>
	<path class="st837" d="M205.29,361.43c-0.16-0.16-0.31-0.32-0.47-0.48c0.38-2.93,0.74-3.89,2.45-6.31
		c0.06,1.48-0.75,2.39-1.04,3.42C205.91,359.18,206.01,360.42,205.29,361.43z"/>
	<path class="st10" d="M407.59,318.77c0.32,0.74-0.04,1.39-0.26,2.07c-0.79,2.51-1.6,5.01-2.3,7.55c-0.59,2.16-0.33,2.53,1.85,3.32
		c0.15,0.05,0.3,0.11,0.45,0.17c2.83,1.14,2.96,1.63,4.49-1.94c0.75-0.01,0.81,0.67,1.06,1.11c0.79,1.38,1.41,2.88,2.79,3.83
		c0.43,0.3,0.52,0.74,0.59,1.24c0.33,2.5,0.08,2.9-2.43,3.13c-4.37,0.4-8.76,0.69-13.13,1.06c-6.76,0.58-13.51,1.21-20.27,1.78
		c-4.92,0.41-9.84,0.76-14.86,1.14c-0.33-1.28-0.17-2.47-0.21-3.65c-0.66-17.81-0.98-35.62-1.3-53.44c-0.01-0.4,0.03-0.8-0.02-1.2
		c-0.15-1.13,0.34-1.58,1.45-1.66c4.46-0.3,8.92-0.68,13.38-0.98c5.74-0.39,11.48-0.73,17.21-1.11c0.39-0.03,0.76-0.19,1.14-0.29
		c2.71-0.09,5.42-0.08,8.12-0.29c2.17-0.17,4.28,0.05,6.52,0.26c0.23,1.05-0.25,1.92-0.51,2.78c-2.95,9.91-5.96,19.8-8.93,29.71
		c-1.26,4.22-1.24,4.24,3.04,5.15C406.16,318.66,406.88,318.69,407.59,318.77z"/>
	<path class="st485" d="M446.05,224.38c-0.14-1.76-0.28-3.33-0.38-4.9c-0.33-5.34-0.66-10.68-0.97-16.02
		c-0.1-1.68-0.06-1.67,1.59-1.78c9.87-0.7,19.75-1.32,29.6-2.26c2.22-0.21,4.47-0.07,6.69-0.43c0.91-0.14,1.31,0.28,1.34,1.2
		c0.08,2.15,0.21,4.31,0.33,6.46c0.39,7.1,0.76,14.19,1.19,21.29c0.22,3.59,0.58,7.16,0.86,10.74c0.14,1.86,0.11,1.83-1.62,1.97
		c-7.08,0.57-14.15,1.19-21.23,1.75c-4.85,0.38-9.71,0.73-14.57,1.02c-1.83,0.11-1.91,0.26-1.93-1.69
		c-0.01-1.27-0.15-2.55-0.33-3.82c-0.17-1.13,0.06-1.68,1.35-1.89c2.35-0.4,4.67-1.08,6.8-2.19c1.55-0.81,3.61-1.36,2.91-3.94
		c-0.06-0.23,0.41-0.62,0.66-0.92c0.37-0.44,0.77-0.96,0.48-1.51c-0.4-0.76-0.16-1.23,0.25-1.9c0.72-1.17,0.43-1.74-0.97-2.3
		c-0.42-0.17-0.83-0.12-1.12-0.69c-0.95-1.9-1.33-2.04-3.24-1.33c-1.41,0.53-2.78,1.19-4.18,1.76
		C448.47,223.46,447.36,223.87,446.05,224.38z"/>
	<path class="st485" d="M390.73,279.48c-2.79,0.77-5.68,0.57-8.52,0.84c-5.71,0.54-11.44,0.94-17.16,1.39
		c-0.79,0.06-1.6,0.21-2.37-0.11c-5.7-2.38-11.4-4.77-17.1-7.36c8.83-1.03,17.69-1.27,26.52-1.89c2.83,3.95,7.02,5.52,11.52,6.42
		C385.96,279.23,388.34,279.57,390.73,279.48z"/>
	<path class="st12" d="M434.72,196.78c2.68,1.58,4.98,2.97,7.33,4.29c0.67,0.38,0.84,0.9,0.87,1.56c0.3,5.17,0.6,10.35,0.9,15.53
		c0.02,0.41,0.02,0.86-0.35,1.08c-1.5,0.9-1.84,2.55-2.58,3.93c-0.68,1.26-1.36,2.53-2.23,3.67c-0.27,0.36-0.56,0.86-1.15,0.51
		c-0.45-0.26-1.12-0.3-1.17-1.03c-0.03-0.48-0.13-0.95-0.16-1.43c-0.41-7.65-0.81-15.29-1.21-22.94
		C434.9,200.37,434.82,198.78,434.72,196.78z"/>
	<path class="st475" d="M481.26,197.46c-4.84,0.32-9.3,0.59-13.74,0.93c-7.31,0.56-14.61,1.18-21.92,1.77
		c-0.7,0.06-1.39,0.24-2.08-0.18c-2.09-1.27-4.2-2.48-6.75-3.97c1.52-0.19,2.53-0.37,3.54-0.44c8.35-0.56,16.71-1.09,25.06-1.64
		c0.56-0.04,1.11-0.12,1.66-0.22C472.16,192.8,476.73,194.13,481.26,197.46z"/>
	<path class="st12" d="M419.51,321.67c-0.36,4.43,1.38,7.89,4.81,10.61c1.18,0.94,2.32,1.95,3.4,3.01c0.8,0.78,1.41,1.71,1.12,2.93
		c-0.61,0.35-1.09,0.02-1.61-0.15c-2.65-0.85-5.19-1.97-7.77-3c-2.4-0.96-4.24-2.46-5.23-4.91c-0.3-0.73-0.75-1.41-1.24-2.03
		c-0.78-0.99-1.61-0.92-2.26,0.13c-0.16,0.27-0.23,0.59-0.35,0.89c-0.77,1.82-1.27,1.97-2.99,1.09c-0.72-0.37-0.88-0.87-0.68-1.55
		c0.84-2.82,1.69-5.64,2.53-8.46c0.31-1.06,1.17-0.49,1.79-0.62C413.86,320.29,416.69,320.98,419.51,321.67z"/>
	<path class="st36" d="M455.77,332.5c-1.12,0.35-2.08,0.2-2.99,0.07c-2.68-0.39-5.34-0.94-8.02-1.29c-2.11-0.28-3.73-1.27-5.08-2.84
		c-0.62-0.73-1.22-1.49-1.92-2.14c-0.97-0.88-1.75-0.64-2.12,0.59c-0.09,0.3-0.08,0.63-0.13,0.95c-0.34,2.04-0.68,2.26-2.61,1.87
		c-0.94-0.19-1.3-0.67-1.26-1.65c0.11-2.63,0.14-5.27,0.17-7.9c0.01-0.93,0.21-1.51,1.33-1.47c2.4,0.08,4.79-0.1,7.16-0.41
		c1.01-0.13,1.67,0.07,1.9,1.21c0.82,4.05,3.45,6.5,7.15,8.02c1.32,0.54,2.6,1.22,3.84,1.93C454.39,330.1,455.3,331.05,455.77,332.5
		z"/>
	<path class="st44" d="M417.19,194.31c0.2,1.51,0.16,3.07,0.04,4.63c-0.12,1.51-0.43,3.01,0.39,4.45c0.25,0.44,0.19,1.04-0.43,1.12
		c-1.18,0.15-1.5,1.04-1.89,1.92c-0.19,0.44-0.46,0.84-0.67,1.27c-1.25,2.53-4.03,3.41-6.89,1.53c-0.6-0.39-1.12-0.9-1.68-1.34
		c-0.24-0.19-0.49-0.43-0.82-0.15c-0.33,0.28-0.52,0.62-0.31,1.04c0.1,0.21,0.28,0.38,0.42,0.57c0.41,0.57,1.43,0.78,1.34,1.55
		c-0.11,0.92-0.48,1.84-1.15,2.72c-2.13-1.96-4.99-2.48-7.58-3.8c0.98-0.82,1.56-0.02,2.21,0.06c2.4,0.31,3.61-0.47,4.18-2.84
		c0.24-1.01,0.35-2.04,0.47-3.07c0.16-1.32,0.25-2.49-1.02-3.38c-0.9-0.63-0.6-1.58-0.33-2.41c0.23-0.72,0.81-1.03,1.52-0.66
		c4.23,2.23,7.44-0.12,10.68-2.35C416.1,194.89,416.25,194.19,417.19,194.31z"/>
	<path class="st827" d="M451.78,233.25c-3.28,1.28-6.83,1.32-10.27,2.42c-0.69-2-1.45-3.83-2.35-5.59
		c-0.19-0.36-0.36-0.69-0.03-1.08c1.86-2.12,2.94-4.71,4.31-7.12c0.07-0.12,0.26-0.17,0.56-0.36c-0.04,0.75-0.08,1.4-0.11,2.05
		c-0.11,2.2,0.53,2.74,2.65,2.25c2.18-0.51,4.17-1.52,6.25-2.32c0.7-0.27,1.35-0.9,2.4-0.57c-1.49,1.51-3.42,1.99-5.11,2.89
		c-0.68,0.36-2.12,0.37-1.54,1.59c0.37,0.79,1.43,0.21,2.15-0.09c1.76-0.73,3.52-1.48,5.27-2.23c0.43-0.18,0.84-0.48,1.5-0.18
		c-0.49,0.77-1.26,1.08-2,1.41c-1.45,0.64-2.94,1.21-4.35,1.93c-0.6,0.31-1.92,0.27-1.49,1.42c0.49,1.3,1.5,0.35,2.22,0.12
		c1.21-0.38,2.37-0.92,3.55-1.38c0.35-0.14,0.71-0.25,1.13-0.21c-0.9,1.3-2.37,1.63-3.64,2.26c-0.71,0.35-1.56,0.52-2.13,1.02
		c-0.49,0.43-0.96,1.33,0.46,1.34C451.64,232.62,451.82,232.79,451.78,233.25z"/>
	<path class="st505" d="M427.96,317.59c0.38-4.18,1.36-7.79,1.98-11.45c1.67-9.91,3.44-19.8,3.31-29.92
		c-0.08-5.66-2.41-9.76-7.6-12.2c-5.07-2.38-10.45-3.77-15.83-5.18c-0.83-0.22-2.36-0.03-2.1-1.2c0.19-0.86,1.51-0.08,2.32,0.08
		c5.32,1.06,10.47,2.65,15.46,4.82c6.13,2.66,8.98,7.32,8.97,13.91c-0.01,9.53-1.33,18.92-3.03,28.27
		c-0.66,3.6-1.43,7.19-2.15,10.78C429.15,316.16,429.11,316.89,427.96,317.59z"/>
	<path class="st838" d="M405.66,253.86c-4.48,3.45-28.48,6.17-33.68,4.01c1.59-0.98,3.15-0.28,4.63-0.38
		c1.59-0.1,3.19-0.06,4.79-0.11c1.59-0.06,3.19-0.11,4.78-0.27c1.66-0.17,3.31-0.46,4.97-0.71c1.57-0.24,3.14-0.48,4.7-0.79
		c1.56-0.31,3.09-0.8,4.66-1.03C402.05,254.37,403.56,253.8,405.66,253.86z"/>
	<path class="st839" d="M403.35,222.79c1.65,0.84,2.81,2.03,4.1,3.03c2.77,2.14,5.54,4.29,8.25,6.5c1.31,1.07,2.62,1.25,4.21,0.66
		c3.79-1.41,7.63-2.72,11.44-4.08c0.6-0.21,1.17-0.59,1.78-0.66c0.6-0.07,1.45-1.06,1.79,0c0.29,0.92-0.94,0.83-1.47,1.19
		c-0.45,0.3-1.02,0.42-1.55,0.6c-3.82,1.33-7.66,2.6-11.45,4.01c-2.07,0.77-3.79,0.5-5.57-0.82c-3.65-2.71-7.1-5.65-10.56-8.58
		C403.89,224.25,403.17,224,403.35,222.79z"/>
	<path class="st840" d="M393.14,236.25c1.72,0.9,3.15,2.29,4.75,3.44c2.84,2.05,5.77,3.96,8.72,5.83c0.33,0.21,1.09,0.3,0.73,0.95
		c-0.32,0.58-0.82,0.21-1.23-0.01c-3.56-1.96-6.88-4.28-10.13-6.7c-1.02-0.76-1.98-1.6-2.95-2.43
		C392.78,237.13,392.65,236.83,393.14,236.25z"/>
	<path class="st841" d="M445.39,243.04c-1.77-1.14-3.39-1.74-4.9-2.99c0.97-0.69,2.02-1.02,1.98-2.46
		c-0.02-0.69,1.36-0.79,2.44-1.04C445.06,238.71,445.21,240.7,445.39,243.04z"/>
	<path class="st842" d="M451.78,233.25c-0.19-0.15-0.39-0.3-0.58-0.45c1.57-0.63,3.14-1.26,4.71-1.89
		C454.88,232.45,453.33,232.84,451.78,233.25z"/>
	<path class="st485" d="M292.11,482.71c-1.63,0.4-3.15,0.36-4.66,0.43c-3.83,0.16-7.66,0.32-11.5,0.45
		c-2.95,0.1-2.46,0.14-2.54-2.32c-0.06-1.84-0.09-3.67-0.18-5.51c-0.11-2.38-0.12-2.45-2.54-2.9c-3.13-0.58-6.29-1.08-9.44-1.56
		c-2.76-0.42-5.54-0.7-8.29-1.18c-2.16-0.38-4.15-0.23-6.31,0.41c-4.58,1.34-9.17,2.66-13.77,3.97c-0.38,0.11-0.76,0.21-1.14,0.34
		c-2,0.72-2,0.73-2.01,2.85c-0.01,2.24-0.04,4.47-0.03,6.71c0.01,0.81-0.31,1.12-1.13,1.14c-3.11,0.07-6.23-0.04-9.34,0.33
		c-0.72,0.09-1.01-0.31-0.99-0.99c0.01-0.32,0-0.64,0-0.96c0.27-28.93-0.65-57.84-0.52-86.77c0.07-15.66,0.13-31.32,0.2-46.98
		c0-0.24,0.03-0.48,0-0.72c-0.14-1.12,0.31-1.52,1.48-1.54c4.55-0.1,9.1-0.33,13.65-0.49c12.46-0.43,24.91-0.88,37.37-1.28
		c6.31-0.2,12.62-0.32,18.94-0.44c2.08-0.04,2.07,0.01,2.14,2.07c0.57,18.69,0.71,37.39,0.45,56.08
		c-0.35,25.41-0.26,50.81,0.13,76.22C292.12,480.96,292.11,481.83,292.11,482.71z"/>
	<path class="st485" d="M418.62,458.54c-0.36-0.09-0.45-0.09-0.5-0.13c-1.64-1.54-1.84-1.5-2.58,0.63
		c-1.82,5.27-3.62,10.55-5.47,15.82c-0.47,1.34-0.51,3.11-1.67,3.86c-1.06,0.69-2.65,0.17-4,0.11c-14.45-0.6-28.89-1.24-43.34-1.81
		c-1.12-0.04-1.47-0.52-1.85-1.41c-0.62-1.43-1.35-1.56-2.15-0.26c-0.88,1.43-1.95,1.47-3.43,1.33c-3.58-0.34-7.19-0.16-10.77-0.56
		c-1.84-0.21-1.88-0.15-1.87-2.08c0.09-19.57-0.72-39.14-0.55-58.71c0.01-1.68,0.01-3.36-0.13-5.03c-0.09-1.14,0.35-1.34,1.36-1.3
		c8.86,0.4,17.72,0.74,26.58,1.14c4.47,0.2,8.94,0.22,13.41,0.48c6.22,0.36,12.46,0.33,18.68,0.72c5.42,0.34,10.86,0.18,16.28,0.72
		c1.09,0.11,1.46,0.33,1.47,1.52C418.23,428.51,418.43,443.44,418.62,458.54z"/>
	<path class="st9" d="M443.14,400.43c4.78-0.39,9.38-0.74,13.98-1.16c5.96-0.54,11.91-1.16,17.86-1.72
		c4.29-0.41,8.58-0.79,12.87-1.18c1.67-0.15,3.34-0.29,5-0.44c0.69-0.06,1.06,0.18,1.04,0.92c-0.01,0.56,0.03,1.12,0.04,1.68
		c0.29,14.29,0.58,28.58,0.86,42.87c0.01,0.46,0.16,0.95-0.25,1.48c-1.45-0.17-2.79-0.92-4.17-1.44c-1.65-0.62-2.97-0.46-4.45,0.58
		c-7.37,5.19-14.82,10.26-22.22,15.41c-0.95,0.66-1.88,1.15-3.03,1.25c-5.25,0.45-10.49,0.92-15.73,1.41
		c-0.84,0.08-1.44,0-1.31-1.07c0.04-0.31,0-0.64,0-0.96C443.46,438.9,443.3,419.74,443.14,400.43z"/>
	<path class="st9" d="M378.85,371.39c0.19,8.14,0.39,16.29,0.58,24.43c0.01,0.56-0.03,1.12,0.01,1.68c0.05,0.94-0.44,1.19-1.3,1.28
		c-8.8,0.98-17.59,1.96-26.38,3c-2.93,0.35-5.86,0.71-8.81,0.93c-0.91,0.07-1.41-0.2-1.9-0.99c-5.32-8.52-10.69-17.02-16.06-25.51
		c-0.5-0.79-0.66-1.41-0.13-2.36c5.13-9.19,10.2-18.41,15.24-27.65c0.57-1.05,1.32-1.49,2.45-1.56c5.1-0.29,10.17-0.91,15.24-1.52
		c1.4-0.17,2.69-0.07,3.88,0.74c1.82,1.23,3.79,1.3,5.94,1.01c3-0.42,6.04-0.56,9.07-0.76c1.66-0.11,1.72-0.05,1.73,1.64
		C378.45,354.31,378.61,362.85,378.85,371.39z"/>
	<path class="st485" d="M419.88,373.05c0.12,8.14,0.25,16.28,0.37,24.43c0.03,1.94,0.01,1.96-1.98,1.75
		c-8.72-0.9-17.44-1.86-26.17-2.71c-3.25-0.32-6.51-0.57-9.76-0.95c-0.94-0.11-1.22-0.47-1.22-1.32c-0.02-2.16-0.09-4.31-0.14-6.46
		c-0.23-11.73-0.45-23.47-0.69-35.2c-0.05-2.31-0.24-4.62-0.31-6.94c-0.06-1.91-0.03-1.91,1.95-2.06c4.01-0.3,7.96,0.45,11.94,0.71
		c4.37,0.29,8.73,0.82,13.1,1.22c3.73,0.34,7.47,0.71,11.21,0.95c1.22,0.08,1.4,0.64,1.4,1.67c0.01,4.87,0.1,9.74,0.13,14.61
		c0.02,3.43,0,6.87,0,10.3C419.76,373.05,419.82,373.05,419.88,373.05z"/>
	<path class="st715" d="M441.24,396.22c0.05,1.04,0.1,1.72,0.11,2.41c0.3,19.89,0.48,39.79,0.56,59.68
		c0.01,2.09-0.46,3.47-2.17,4.82c-3.51,2.76-6.76,5.86-10.11,8.82c-0.23,0.2-0.5,0.37-0.94,0.69c-2.06-2.78-3.98-5.6-6.15-8.21
		c-1.69-2.03-2.28-4.17-2.3-6.78c-0.1-14.46-0.32-28.92-0.57-43.38c-0.03-1.75,0.44-2.79,1.98-3.85
		c5.97-4.12,11.79-8.48,17.66-12.75C439.85,397.26,440.4,396.84,441.24,396.22z"/>
	<path class="st485" d="M315.76,464.63c0-2.31,0.02-4.38,0-6.44c-0.22-15.65-0.42-31.3-0.71-46.95c-0.03-1.4,0.35-1.86,1.71-2.15
		c6.46-1.39,12.85-3.03,19.2-4.89c1.45-0.42,2.88-0.79,4.36,0.15c0.57,0.37,1.46,0.25,2.3,0.36c-0.54,0.78-1.28,1.14-1.95,1.49
		c-1.63,0.87-2.03,2.15-2,3.94c0.2,13.26,0.31,26.51,0.44,39.77c0.02,2.16,0,4.31,0.02,6.47c0.01,0.76-0.09,1.22-1.04,1.51
		c-7,2.13-13.96,4.38-20.94,6.58C316.84,464.56,316.51,464.54,315.76,464.63z"/>
	<path class="st485" d="M363.33,342.79c-3.33-1.5-6.65-2.97-9.96-4.48c-3.04-1.39-6.03-2.89-9.08-4.24
		c-1.02-0.45-1.39-1.02-1.41-2.14c-0.34-14.05-0.99-28.1-0.95-42.16c0.01-4.07-0.02-8.15-0.04-12.22c0-0.78,0-1.56,0-2.61
		c2.97,1.21,5.67,2.31,8.38,3.41c3.46,1.41,6.9,2.89,10.41,4.2c1.25,0.47,1.75,1.08,1.72,2.43c-0.05,2.71,0.11,5.43,0.12,8.15
		c0.05,15.74,0.68,31.46,1.05,47.19C363.6,341.08,363.83,341.88,363.33,342.79z"/>
	<path class="st9" d="M313.99,464.84c-4.69-0.98-9.41-1.97-14.14-2.97c-1.55-0.33-3.09-0.81-4.65-1.03
		c-1.44-0.21-1.74-0.92-1.73-2.26c0.06-6.06-0.02-12.13,0-18.19c0.03-10.69,0.08-21.38,0.13-32.08c0.01-2.07,0.11-2.12,2.19-1.75
		c5.25,0.93,10.5,1.87,15.75,2.78c1.74,0.3,1.78,0.27,1.8,2.05c0.12,8.54,0.21,17.07,0.35,25.61c0.14,8.78,0.33,17.55,0.49,26.33
		C314.18,463.79,314.33,464.28,313.99,464.84z"/>
	<path class="st485" d="M422.34,398.65c-0.55-0.81-0.41-1.54-0.42-2.23c-0.24-15.96-0.45-31.93-0.74-47.89
		c-0.03-1.46,0.36-2.29,1.7-2.96c4.63-2.32,9.18-4.78,13.77-7.17c0.33-0.17,0.62-0.53,1.15-0.34c0.04,0.18,0.13,0.39,0.14,0.59
		c0.07,15.88,0.76,31.76,0.66,47.64c-0.01,1.53-0.4,2.43-1.76,3.25C432.01,392.47,427.26,395.55,422.34,398.65z"/>
	<path class="st10" d="M311.88,504.73c0.09-8.86,7.49-16.17,16.22-16.04c8.59,0.13,15.72,7.6,15.64,16.39
		c-0.08,8.72-7.49,16.23-16.08,15.88C318.42,520.6,312.05,513.57,311.88,504.73z"/>
	<path class="st10" d="M463.78,460.43c1.85,0.67,3.35,1.16,4.81,1.74c7.17,2.85,14.33,5.71,21.48,8.59
		c0.78,0.31,1.75,0.51,1.54,1.74c-0.05,0.31-0.02,0.64-0.02,0.96c0,8.29,0,16.59,0,24.76c-0.63,0.46-1.04,0.2-1.49,0.02
		c-8.07-3.34-16.15-6.67-24.23-10c-2.07-0.85-2.07-0.84-2.07-3.04c-0.01-7.5-0.02-15-0.03-22.5
		C463.78,462.07,463.78,461.44,463.78,460.43z"/>
	<path class="st27" d="M381.5,397.33c2.36-0.11,4.8,0.42,7.23,0.65c6.19,0.6,12.37,1.29,18.57,1.81c4.05,0.34,8.1,0.74,12.13,1.24
		c1.55,0.19,2.81-0.21,4.06-1c2.29-1.45,4.63-2.82,6.89-4.32c1.07-0.71,2.17-0.97,3.4-0.84c1.7,0.18,3.46-0.05,5.39,0.53
		c-1.25,1.31-2.57,2.05-3.78,2.93c-5.16,3.75-10.36,7.45-15.51,11.21c-0.83,0.61-1.65,0.85-2.65,0.81
		c-9.81-0.45-19.62-0.85-29.42-1.31c-5.1-0.24-10.21-0.24-15.32-0.51c-9.88-0.52-19.78-0.79-30.04-1.17
		c2.57-1.96,4.86-3.56,8.04-3.76c9.79-0.62,19.47-2.3,29.21-3.37c1.08-0.12,1.61-0.53,1.53-1.65
		C381.19,398.21,381.07,397.79,381.5,397.33z"/>
	<path class="st9" d="M302.4,366.46c3.92-7.09,7.81-14.13,11.71-21.18c1.2-2.16,2.39-4.32,3.57-6.5c0.38-0.7,0.8-1.17,1.69-0.83
		c6.4,2.41,12.98,4.3,19.33,6.46c0.39,0.57,0.02,0.89-0.15,1.2c-4.78,8.65-9.58,17.3-14.38,25.94c-0.27,0.49-0.61,0.94-0.83,1.45
		c-0.37,0.82-0.83,0.96-1.7,0.64c-6.12-2.24-12.27-4.41-18.41-6.62C302.94,366.91,302.7,366.67,302.4,366.46z"/>
	<path class="st715" d="M464.77,458.85c4.35-3.08,8.29-5.9,12.26-8.66c3.14-2.19,6.36-4.25,9.45-6.5c1.25-0.91,2.31-0.96,3.74-0.45
		c8.17,2.89,16.37,5.67,24.57,8.49c0.2,0.76-0.51,0.88-0.9,1.19c-6.82,5.38-13.67,10.72-20.45,16.16c-0.86,0.69-1.46,0.64-2.35,0.28
		c-4.92-2.02-9.85-4.02-14.79-5.99C472.63,461.9,468.93,460.48,464.77,458.85z"/>
	<path class="st12" d="M287.48,343.73c-0.51,0.49-1,0.34-1.44,0.35c-12.45,0.36-24.9,0.64-37.35,1.06
		c-9.89,0.34-19.78,0.85-29.68,1.04c-1.14,0.02-2.19-0.07-3.22-0.63c-5.12-2.74-10.31-5.33-15.58-7.77
		c-0.26-0.12-0.58-0.25-0.62-0.6c0.12-0.31,0.38-0.22,0.59-0.22c12.45-0.36,24.9-0.73,37.35-1.08c9.58-0.27,19.16-0.49,28.74-0.77
		c1.06-0.03,2.04,0.04,3.03,0.47c5.9,2.58,11.82,5.14,17.73,7.71C287.14,343.37,287.24,343.52,287.48,343.73z"/>
	<path class="st485" d="M231.43,477.34c2.97,0.01,5.59,0.83,8.27,1.17c3.95,0.5,7.86,1.21,11.8,1.81c2.35,0.36,2.4,0.33,2.41,2.79
		c0.03,8.54,0.04,17.07,0.04,25.61c0,1.51-0.05,1.6-1.65,1.35c-4.32-0.68-8.62-1.44-12.93-2.18c-2.27-0.39-4.54-0.85-6.82-1.19
		c-0.81-0.12-1.11-0.48-1.11-1.22c0-0.32-0.01-0.64-0.01-0.96C231.43,495.53,231.43,486.53,231.43,477.34z"/>
	<path class="st27" d="M417.12,459.96c7.99,10.91,15.72,21.44,23.68,32.31c-12.18,2.06-24.17,3.68-36.5,5.6
		C408.35,485.12,412.74,472.85,417.12,459.96z"/>
	<path class="st485" d="M493.32,497.81c0-8.49,0.01-16.87-0.02-25.25c0-0.99,0.35-1.6,1.12-2.19c7.07-5.48,14.11-10.99,21.16-16.49
		c0.05-0.04,0.14-0.01,0.5-0.03c0,0.58,0,1.17,0,1.77c-0.05,7.27-0.12,14.54-0.16,21.81c-0.01,0.99-0.15,1.76-1.02,2.49
		c-6.94,5.77-13.81,11.62-20.71,17.44C493.96,497.55,493.78,497.83,493.32,497.81z"/>
	<path class="st9" d="M491.15,394.28c-7.01,0.67-13.92,1.35-20.82,1.99c-5.96,0.55-11.92,1.05-17.88,1.59
		c-2.54,0.23-5.08,0.51-7.62,0.78c-1.63,0.17-1.65,0.16-1.72-1.35c-0.18-3.68-0.18-3.66-3.85-3.79c-1.39-0.05-2.84,0.17-4.36-0.65
		c1.39-0.92,2.61-1.78,3.88-2.57c0.94-0.58,1.69-1.2,1.49-2.45c-0.13-0.82,0.28-1.08,1.08-1.15c2.78-0.23,5.55-0.59,8.33-0.8
		c6.52-0.5,13.05-0.93,19.58-1.41c1.37-0.1,2.62,0.12,3.92,0.69c5.61,2.49,11.03,5.34,16.55,8.01
		C490.2,393.43,490.79,393.56,491.15,394.28z"/>
	<path class="st485" d="M255.57,509.75c0-0.74,0-1.52,0-2.3c0-8.22,0.01-16.43,0.01-24.65c0-2.54-0.12-2.07,2-2.83
		c4.12-1.47,8.27-2.84,12.4-4.26c0.38-0.13,0.74-0.29,1.16-0.19c0.38,0.15,0.3,0.5,0.31,0.79c0.21,8.21,0.34,16.43,0.29,24.64
		c-0.01,1.46-0.41,2.3-1.79,2.89c-4.32,1.83-8.58,3.79-12.88,5.65C256.67,509.68,256.23,509.98,255.57,509.75z"/>
	<path class="st10" d="M334.62,402.87c-4.06,1.03-8.12,2.07-12.18,3.1c-0.69,0.18-1.42,0.26-2.09,0.51
		c-4.25,1.59-8.53,1.43-12.9,0.45c-4.11-0.92-8.28-1.64-12.44-2.31c-1.16-0.19-1.45-0.63-1.41-1.68c0.06-1.91,0.07-3.83-0.02-5.75
		c-0.05-0.97,0.39-1.2,1.2-1.38c4.66-1.03,9.28-2.27,13.97-3.12c2.42-0.44,4.9,0.33,7.33,0.78c0.52,0.1,0.81,0.48,1,0.94
		c0.53,1.32,1.66,1.8,2.89,2.28c4.9,1.88,9.77,3.82,14.65,5.73C334.63,402.57,334.63,402.72,334.62,402.87z"/>
	<path class="st485" d="M303.74,369c4.7,1.67,9.35,3.52,14.12,4.96c3.49,1.05,5.77,3.03,7.61,6.19c4.29,7.36,8.96,14.51,13.61,21.96
		c-3.25-1.2-6.34-2.3-9.4-3.48c-3.12-1.2-6.19-2.51-9.31-3.68c-1.15-0.43-1.76-1.28-2.35-2.24c-4.4-7.11-8.81-14.22-13.22-21.33
		c-0.42-0.67-0.86-1.33-1.29-1.99C303.59,369.26,303.67,369.13,303.74,369z"/>
	<path class="st10" d="M368.59,507.16c-7.54-1.13-14.62-2.21-21.71-3.23c-1.02-0.15-1.58-0.38-1.63-1.55
		c-0.06-1.35-0.44-2.68-0.99-3.92c-0.33-0.73-0.31-1.31,0.16-1.98c4.32-6.13,8.61-12.28,12.93-18.42c0.12-0.18,0.35-0.28,0.67-0.52
		C361.52,487.34,364.99,497.05,368.59,507.16z"/>
	<path class="st36" d="M355.54,341.62c-4.51,0.49-9.02,0.98-13.53,1.46c-0.79,0.08-1.57,0.11-2.36-0.15
		c-5.65-1.87-11.3-3.71-16.96-5.57c-0.05-0.02-0.08-0.13-0.2-0.37c4.76-0.49,9.44-0.98,14.13-1.46c0.55-0.06,1.15,0.05,1.67-0.11
		c3-0.92,5.55,0.16,8.15,1.51c3,1.57,6.13,2.9,9.2,4.34C355.6,341.38,355.57,341.5,355.54,341.62z"/>
	<path class="st502" d="M234.68,475.78c5.07-1.47,9.56-2.76,14.05-4.08c1.12-0.33,2.23-0.1,3.32,0.06
		c5.42,0.77,10.84,1.59,16.72,2.46c-4.66,1.63-8.91,3.12-13.16,4.6c-1.02,0.35-2.06,0.13-3.08-0.03c-4.95-0.76-9.89-1.54-14.83-2.34
		C236.84,476.31,236,476.08,234.68,475.78z"/>
	<path class="st162" d="M417.76,336.33c3.69,1.31,7.08,2.85,11.15,4.03c-3.06,1.64-5.63,3.31-8.42,4.41
		c-1.65,0.65-3.63-0.08-5.45-0.26c-5.32-0.51-10.63-1.08-15.97-1.41c-1-0.06-2.04,0-3.27-0.69c2.75-0.24,5.17-0.46,7.59-0.66
		c4.29-0.35,8.59-0.7,12.88-1c1.12-0.08,1.58-0.53,1.49-1.65C417.71,338.26,417.76,337.39,417.76,336.33z"/>
	<path class="st843" d="M435.22,337.02c-1.48,1.17-3.07,1.82-4.75,2.73c0-1.15,0-2.11,0-3.28
		C431.98,336.47,433.53,336.34,435.22,337.02z"/>
	<path class="st485" d="M515.32,523.1c-6.72-1.96-13.1-3.81-19.8-5.76c5.17-7.08,10.24-14.03,15.54-21.29
		C512.51,505.28,513.89,514.04,515.32,523.1z"/>
	<path class="st12" d="M527.81,517.78c-3.63,1.77-7.04,3.44-10.73,5.24c-1.33-8.42-2.63-16.68-3.93-24.93
		c0.13-0.05,0.26-0.1,0.39-0.15C518.27,504.5,522.99,511.07,527.81,517.78z"/>
	<path class="st715" d="M607.48,489.73c5.59-0.03,9.13,4.68,9.08,9.42c-0.05,4.99-4.6,9.48-9.38,9.34c-5.17-0.15-9.18-4.5-9.14-9.75
		C598.07,494.48,601.53,489.43,607.48,489.73z"/>
	<path class="st9" d="M183.14,508.72c0.09-5.1,4.3-9.25,9.34-9.21c5.14,0.04,9.07,4.33,8.96,9.76c-0.1,5.11-4.14,9.08-9.18,9.02
		C186.98,518.24,183.05,514.11,183.14,508.72z"/>
</g>
</svg>
