<svg width="2500" height="2500" viewBox="0 0 2500 2500" fill="none" xmlns="http://www.w3.org/2000/svg">
<g clip-path="url(#clip0_1501_2968)">
<path d="M2500 0H0V2500H2500V0Z" fill="#FDF7EB"/>
<g clip-path="url(#clip1_1501_2968)">
<path d="M2056.21 1805.86C2056.09 1778.99 2066.76 1721.84 2059.45 1696.02C2043.91 1641.29 2045.39 1559.46 2053.67 1503.28C2070.74 1387.31 2068.2 1269.57 2065.62 1152.42C2064.69 1110.47 2062.34 1064.73 2033.91 1033.21C2000.2 995.862 1942.81 991.956 1891.72 990.823C1825.94 989.339 1760.2 987.854 1694.41 986.331C1390.39 945.823 1082.62 931.292 775.898 943.05C740 944.417 702.93 946.448 670.781 961.839C636.094 978.44 612.695 1007.7 595.078 1041.29C582.109 1051.1 571.25 1063.99 564.18 1078.17C545.82 1115.08 546.64 1157.93 547.812 1198.91L561.484 1674.1C562.734 1717.78 565.469 1765.24 594.922 1798.21C623.398 1830.08 669.336 1839.89 712.031 1847.66C1057.54 1910.51 1406.37 1956.21 1756.68 1984.49C1867.11 1993.4 1900.62 2017.19 2011.17 2009.46C2053.09 2009.46 2056.72 1913.36 2056.29 1805.9L2056.21 1805.86Z" fill="#FFAD92"/>
<path d="M1990.16 627.613H521.602C510.815 627.613 502.07 636.358 502.07 647.145V2015.35C502.07 2026.13 510.815 2034.88 521.602 2034.88H1990.16C2000.94 2034.88 2009.69 2026.13 2009.69 2015.35V647.145C2009.69 636.358 2000.94 627.613 1990.16 627.613Z" stroke="#4761E3" stroke-width="35.1562" stroke-miterlimit="10"/>
<path d="M2009.65 647.695V2012.34C2009.65 2024.34 1999.26 2033.71 1987.3 2032.46L605.117 1888.71L591.758 1887.5C590.937 1887.11 590.156 1887.11 588.906 1887.11C539.531 1876.6 501.914 1832.46 501.914 1779.88V647.695C501.914 636.523 510.977 627.46 522.148 627.46H1989.38C2000.55 627.46 2009.65 636.523 2009.65 647.695Z" stroke="#4761E3" stroke-width="66.4062" stroke-miterlimit="10"/>
<path d="M1990.16 627.613H521.602C510.815 627.613 502.07 636.358 502.07 647.145V960.895C502.07 971.681 510.815 980.426 521.602 980.426H1990.16C2000.94 980.426 2009.69 971.681 2009.69 960.895V647.145C2009.69 636.358 2000.94 627.613 1990.16 627.613Z" stroke="#4761E3" stroke-width="66.4062" stroke-miterlimit="10"/>
<path d="M1037.97 1712.31H950.586V1299.57H817.851V1237.27H843.75C873.945 1237.27 898.086 1232.54 916.172 1223.09C934.258 1213.68 949.218 1195.98 961.093 1170.08H1037.97V1712.31Z" fill="#4761E3"/>
<path d="M1640.86 1712.31H1186.84V1654.85C1186.84 1621.41 1191.68 1593.09 1201.41 1569.89C1211.13 1546.72 1227.03 1526.76 1249.18 1510C1271.29 1493.28 1300.98 1478.71 1338.2 1466.29L1467.69 1421.8C1489.8 1413.67 1507.07 1405.59 1519.49 1397.5C1531.91 1389.42 1540.94 1379.85 1546.6 1368.79C1552.27 1357.74 1555.08 1344.38 1555.08 1328.71C1555.08 1309.85 1550.62 1293.91 1541.72 1280.98C1532.81 1268.05 1518.52 1258.32 1498.83 1251.84C1479.14 1245.35 1453.12 1242.11 1420.74 1242.11C1384.57 1242.11 1355.7 1246.29 1334.14 1254.65C1312.54 1263.01 1296.76 1275.28 1286.8 1291.49C1276.8 1307.66 1271.84 1327.89 1271.84 1352.19V1361.1H1186.05V1352.97C1186.05 1319.53 1194.14 1288.24 1210.35 1259.1C1226.56 1229.96 1252.03 1206.53 1286.84 1188.71C1321.64 1170.9 1367.34 1161.99 1423.98 1161.99C1475.23 1161.99 1516.91 1169.42 1549.02 1184.26C1581.09 1199.1 1604.73 1219.07 1619.8 1244.14C1634.92 1269.26 1642.46 1297.97 1642.46 1330.35C1642.46 1359.49 1636.41 1384.57 1624.26 1405.63C1612.11 1426.68 1594.57 1444.49 1571.64 1459.07C1548.71 1473.64 1521.33 1485.78 1489.49 1495.47L1375.39 1530.28C1351.09 1538.4 1331.8 1547.27 1317.54 1556.99C1303.24 1566.72 1293.01 1578.28 1286.8 1591.8C1280.59 1605.28 1277.5 1622.27 1277.5 1642.78L1408.59 1633.87H1640.86V1712.39V1712.31Z" fill="#4761E3"/>
<path d="M501.953 1779.88C501.953 1832.5 539.571 1876.6 588.946 1887.11C590.156 1887.11 590.977 1887.11 591.797 1887.5L605.157 1888.71C607.188 1889.14 609.219 1889.14 611.211 1889.14C671.485 1889.14 720.469 1840.15 720.469 1779.88L2009.65 2034.8" fill="#FDF7EB"/>
<path d="M501.953 1779.88C501.953 1832.5 539.571 1876.6 588.946 1887.11C590.156 1887.11 590.977 1887.11 591.797 1887.5L605.157 1888.71C607.188 1889.14 609.219 1889.14 611.211 1889.14C671.485 1889.14 720.469 1840.15 720.469 1779.88L2009.65 2034.8" stroke="#4761E3" stroke-width="66.4062" stroke-miterlimit="10"/>
<path d="M1262.46 462.895H1256.64C1211.98 462.895 1175.78 499.097 1175.78 543.754V707.27C1175.78 751.927 1211.98 788.129 1256.64 788.129H1262.46C1307.12 788.129 1343.32 751.927 1343.32 707.27V543.754C1343.32 499.097 1307.12 462.895 1262.46 462.895Z" fill="#FDF7EB" stroke="#4761E3" stroke-width="66.4062" stroke-miterlimit="10"/>
<path d="M1666.37 462.895H1660.55C1615.89 462.895 1579.69 499.097 1579.69 543.754V707.27C1579.69 751.927 1615.89 788.129 1660.55 788.129H1666.37C1711.02 788.129 1747.23 751.927 1747.23 707.27V543.754C1747.23 499.097 1711.02 462.895 1666.37 462.895Z" fill="#FDF7EB" stroke="#4761E3" stroke-width="66.4062" stroke-miterlimit="10"/>
<path d="M855.157 462.895H849.336C804.679 462.895 768.477 499.097 768.477 543.754V707.27C768.477 751.927 804.679 788.129 849.336 788.129H855.157C899.814 788.129 936.016 751.927 936.016 707.27V543.754C936.016 499.097 899.814 462.895 855.157 462.895Z" fill="#FDF7EB" stroke="#4761E3" stroke-width="66.4062" stroke-miterlimit="10"/>
</g>
</g>
<defs>
<clipPath id="clip0_1501_2968">
<rect width="2500" height="2500" fill="white"/>
</clipPath>
<clipPath id="clip1_1501_2968">
<rect width="1598.71" height="1637.7" fill="white" transform="translate(468.75 429.688)"/>
</clipPath>
</defs>
</svg>
