<svg width="827" height="324" viewBox="0 0 827 324" fill="none" xmlns="http://www.w3.org/2000/svg">
<path d="M333 324H732.5L826.031 162L732.5 0H333V324Z" fill="#0646F5"/>
<path d="M93.5307 162L0 0H381.469L475 162L381.469 324H0L93.5307 162Z" fill="#1900A8"/>
<path d="M151.616 176.548C144.405 176.548 137.685 175.183 131.456 172.452C125.227 169.679 119.765 165.817 115.072 160.868C110.379 155.919 106.709 150.116 104.064 143.46C101.461 136.761 100.16 129.487 100.16 121.636C100.16 113.999 101.44 106.873 104 100.26C106.56 93.604 110.208 87.8013 114.944 82.852C119.68 77.86 125.333 73.9773 131.904 71.204C138.475 68.388 145.771 66.98 153.792 66.98C157.845 66.98 162.133 67.3853 166.656 68.196C171.221 68.964 175.723 70.18 180.16 71.844C184.64 73.508 188.757 75.6413 192.512 78.244L179.584 100.132C176.085 97.4867 171.968 95.5027 167.232 94.18C162.496 92.8147 158.187 92.132 154.304 92.132C150.421 92.132 147.008 92.7933 144.064 94.116C141.12 95.396 138.645 97.2733 136.64 99.748C134.635 102.18 133.12 105.145 132.096 108.644C131.115 112.1 130.624 116.004 130.624 120.356C130.624 125.135 131.2 129.401 132.352 133.156C133.504 136.868 135.083 140.025 137.088 142.628C139.136 145.231 141.525 147.215 144.256 148.58C147.029 149.903 150.016 150.564 153.216 150.564C155.776 150.564 158.165 150.159 160.384 149.348C162.645 148.537 164.608 147.428 166.272 146.02C167.979 144.569 169.301 142.927 170.24 141.092C171.221 139.257 171.712 137.337 171.712 135.332V135.204H151.616V113.572H200.384V134.052C200.384 139.769 199.083 145.188 196.48 150.308C193.92 155.428 190.379 159.972 185.856 163.94C181.333 167.865 176.128 170.959 170.24 173.22C164.395 175.439 158.187 176.548 151.616 176.548ZM202.001 174.5L245.009 68.9H271.121L314.129 174.5H283.793L277.457 156.964H238.673L232.337 174.5H202.001ZM248.273 132.26H267.857L258.065 107.172L248.273 132.26ZM317.772 174.5V68.9H353.484C363.553 68.9 371.489 71.076 377.292 75.428C383.095 79.78 385.996 86.436 385.996 95.396C385.996 105.892 381.815 113.487 373.452 118.18C380.577 119.417 385.996 122.233 389.708 126.628C393.463 131.023 395.34 136.783 395.34 143.908C395.34 150.265 393.889 155.727 390.988 160.292C388.129 164.857 384.076 168.377 378.828 170.852C373.623 173.284 367.479 174.5 360.396 174.5H317.772ZM345.932 108.452H346.572C350.54 108.452 353.548 107.663 355.596 106.084C357.687 104.505 358.732 102.223 358.732 99.236C358.732 96.2493 357.751 94.052 355.788 92.644C353.825 91.236 350.753 90.532 346.572 90.532H345.932V108.452ZM345.932 152.868H350.284C355.575 152.868 359.457 152.079 361.932 150.5C364.407 148.879 365.644 146.383 365.644 143.012C365.644 139.599 364.343 137.017 361.74 135.268C359.18 133.519 355.361 132.644 350.284 132.644H345.932V152.868ZM409.919 174.5V68.9H451.647C459.071 68.9 465.535 70.2227 471.039 72.868C476.543 75.4707 480.81 79.268 483.839 84.26C486.868 89.2093 488.383 95.2253 488.383 102.308C488.383 107.343 487.594 111.951 486.015 116.132C484.436 120.271 482.132 123.897 479.103 127.012C476.116 130.084 472.426 132.559 468.031 134.436L502.207 174.5H466.495L438.143 137.892H438.079V174.5H409.919ZM438.079 114.596H442.431C446.015 114.596 449.002 114.169 451.391 113.316C453.823 112.463 455.636 111.183 456.831 109.476C458.068 107.727 458.687 105.593 458.687 103.076C458.687 99.1933 457.3 96.2707 454.527 94.308C451.796 92.3027 447.764 91.3 442.431 91.3H438.079V114.596ZM511.294 174.5V68.9H539.454V174.5H511.294ZM564.544 174.5V68.9H627.008V93.604H592.704V109.22H625.472V133.924H592.704V149.796H627.008V174.5H564.544ZM650.294 174.5V68.9H678.454V149.796H712.502V174.5H650.294Z" fill="white"/>
<path d="M106.272 262.5V209.7H120.352V230.244L136.8 209.7H153.888L133.408 234.596L157.408 262.5H138.016L120.352 241.316V262.5H106.272ZM184.296 263.524C180.605 263.524 177.149 262.82 173.928 261.412C170.706 260.004 167.88 258.052 165.448 255.556C163.016 253.039 161.106 250.127 159.72 246.82C158.354 243.492 157.672 239.929 157.672 236.132C157.672 232.335 158.354 228.783 159.72 225.476C161.106 222.148 163.016 219.236 165.448 216.74C167.88 214.223 170.706 212.26 173.928 210.852C177.149 209.444 180.605 208.74 184.296 208.74C187.986 208.74 191.442 209.444 194.664 210.852C197.885 212.26 200.712 214.223 203.144 216.74C205.576 219.236 207.474 222.148 208.84 225.476C210.226 228.783 210.92 232.335 210.92 236.132C210.92 239.929 210.226 243.492 208.84 246.82C207.474 250.127 205.576 253.039 203.144 255.556C200.712 258.052 197.885 260.004 194.664 261.412C191.442 262.82 187.986 263.524 184.296 263.524ZM184.296 249.956C186.024 249.956 187.592 249.636 189 248.996C190.407 248.335 191.613 247.396 192.616 246.18C193.618 244.964 194.386 243.513 194.92 241.828C195.474 240.121 195.752 238.223 195.752 236.132C195.752 234.041 195.474 232.153 194.92 230.468C194.386 228.761 193.618 227.3 192.616 226.084C191.613 224.868 190.407 223.94 189 223.3C187.592 222.639 186.024 222.308 184.296 222.308C182.568 222.308 181 222.639 179.592 223.3C178.184 223.94 176.978 224.868 175.976 226.084C174.973 227.3 174.194 228.761 173.64 230.468C173.106 232.153 172.84 234.041 172.84 236.132C172.84 238.223 173.106 240.121 173.64 241.828C174.194 243.513 174.973 244.964 175.976 246.18C176.978 247.396 178.184 248.335 179.592 248.996C181 249.636 182.568 249.956 184.296 249.956ZM219.147 262.5V209.7H233.227L252.171 239.14V209.7H266.251V262.5H252.171L233.227 233.06V262.5H219.147ZM278.772 262.5V209.7H292.852V230.244L309.3 209.7H326.388L305.908 234.596L329.908 262.5H310.516L292.852 241.316V262.5H278.772ZM334.46 262.5V209.7H348.54V250.148H365.564V262.5H334.46ZM371.46 262.5V209.7H402.692V222.052H385.54V229.86H401.924V242.212H385.54V250.148H402.692V262.5H371.46Z" fill="white"/>
<path d="M455.96 262.5V209.7H467.192C470.947 209.7 474.435 210.372 477.656 211.716C480.899 213.06 483.725 214.937 486.136 217.348C488.547 219.737 490.424 222.532 491.768 225.732C493.133 228.932 493.816 232.388 493.816 236.1C493.816 239.833 493.144 243.3 491.8 246.5C490.456 249.7 488.568 252.505 486.136 254.916C483.725 257.305 480.899 259.172 477.656 260.516C474.435 261.839 470.947 262.5 467.192 262.5H455.96ZM459.448 259.364H466.968C470.232 259.364 473.272 258.777 476.088 257.604C478.904 256.409 481.368 254.756 483.48 252.644C485.592 250.532 487.235 248.068 488.408 245.252C489.603 242.436 490.2 239.385 490.2 236.1C490.2 232.815 489.613 229.764 488.44 226.948C487.267 224.132 485.613 221.668 483.48 219.556C481.368 217.444 478.904 215.801 476.088 214.628C473.272 213.433 470.232 212.836 466.968 212.836H459.448V259.364ZM508.585 262.5V209.7H534.505V212.804H512.073V234.5H533.737V237.572H512.073V259.396H534.505V262.5H508.585ZM549.085 262.5V209.7H552.573L582.333 256.452V209.7H585.821V262.5H582.333L552.573 215.812V262.5H549.085ZM615.585 262.5L593.441 209.7H597.409L616.961 257.252L636.513 209.7H640.481L618.337 262.5H615.585ZM653.585 262.5V209.7H679.505V212.804H657.073V234.5H678.737V237.572H657.073V259.396H679.505V262.5H653.585ZM694.085 262.5V209.7H706.725C710.138 209.7 713.082 210.297 715.557 211.492C718.032 212.665 719.941 214.351 721.285 216.548C722.65 218.724 723.333 221.327 723.333 224.356C723.333 227.236 722.725 229.764 721.509 231.94C720.293 234.116 718.576 235.855 716.357 237.156C714.16 238.457 711.546 239.215 708.517 239.428L726.149 262.5H721.701L704.453 239.684H697.573V262.5H694.085ZM697.573 236.58H706.085C708.88 236.58 711.301 236.079 713.349 235.076C715.418 234.073 717.018 232.665 718.149 230.852C719.28 229.039 719.845 226.895 719.845 224.42C719.845 220.751 718.618 217.86 716.165 215.748C713.712 213.636 710.352 212.58 706.085 212.58H697.573V236.58Z" fill="white"/>
<path d="M443.736 259.563C443.621 259.755 443.472 259.878 443.291 259.931C443.114 259.998 442.938 260.011 442.764 259.969C442.585 259.936 442.432 259.869 442.306 259.768L421.71 241.886L420.293 244.245C420.084 244.593 419.867 244.798 419.642 244.862C419.423 244.917 419.208 244.881 418.997 244.755C418.778 244.623 418.639 244.471 418.581 244.299C418.528 244.118 418.603 243.858 418.806 243.52L420.454 240.777L413.798 234.986C412.776 234.098 412.084 233.24 411.723 232.413C411.366 231.577 411.242 230.78 411.348 230.023C411.455 229.266 411.706 228.558 412.101 227.9C412.316 227.543 412.632 227.161 413.052 226.753C413.462 226.34 413.86 226.05 414.246 225.884C414.434 225.798 414.653 225.755 414.902 225.756C415.147 225.741 415.363 225.889 415.549 226.201C415.757 226.537 415.809 226.824 415.705 227.06C415.591 227.29 415.465 227.438 415.326 227.504C415.004 227.646 414.682 227.851 414.36 228.118C414.037 228.385 413.805 228.637 413.662 228.875C413.228 229.597 413.094 230.338 413.26 231.097C413.422 231.842 414.048 232.685 415.138 233.625L421.451 239.117L422.992 236.553C423.201 236.205 423.405 236.011 423.605 235.969C423.795 235.921 423.995 235.961 424.205 236.087C424.434 236.224 424.585 236.377 424.658 236.546C424.731 236.714 424.671 236.958 424.479 237.278L422.716 240.213L443.405 258.188C443.602 258.357 443.749 258.557 443.846 258.789C443.943 259.022 443.906 259.28 443.736 259.563ZM439.974 239.387C439.156 240.749 438.067 241.557 436.707 241.81C435.344 242.049 433.886 241.702 432.331 240.768C430.622 239.74 429.259 238.56 428.242 237.228C427.232 235.886 426.62 234.523 426.407 233.138C426.199 231.744 426.447 230.462 427.15 229.292C428.018 227.847 429.124 226.969 430.469 226.657C431.805 226.339 433.236 226.639 434.763 227.557C436.07 228.342 437.181 229.228 438.095 230.212C439 231.192 439.686 232.214 440.154 233.279C440.621 234.344 440.846 235.399 440.827 236.446C440.808 237.492 440.524 238.472 439.974 239.387ZM438.507 238.505C439.056 237.591 439.211 236.576 438.972 235.462C438.73 234.333 438.165 233.223 437.279 232.13C436.383 231.032 435.231 230.06 433.823 229.214C432.818 228.609 431.837 228.387 430.882 228.548C429.918 228.703 429.158 229.242 428.604 230.165C428.087 231.025 427.941 231.982 428.165 233.038C428.395 234.084 428.922 235.123 429.747 236.153C430.577 237.175 431.641 238.075 432.939 238.855C434.1 239.553 435.189 239.884 436.207 239.848C437.224 239.812 437.99 239.364 438.507 238.505ZM445.626 229.794C445.489 230.023 445.313 230.16 445.099 230.205C444.885 230.251 444.65 230.166 444.394 229.95L433.698 220.63C433.411 220.383 433.25 220.124 433.213 219.853C433.177 219.582 433.219 219.346 433.34 219.145C433.472 218.926 433.662 218.785 433.911 218.723C434.151 218.655 434.43 218.761 434.748 219.039L437.457 221.395C436.62 219.971 436.092 218.634 435.874 217.382C435.651 216.116 435.774 215.095 436.241 214.317C436.46 213.952 436.701 213.748 436.963 213.706C437.23 213.655 437.496 213.616 437.761 213.589C438.023 213.547 438.255 213.357 438.459 213.018C438.601 212.781 438.681 212.492 438.698 212.154C438.72 211.806 438.722 211.534 438.704 211.336C438.688 210.991 438.733 210.688 438.839 210.428C438.951 210.159 439.099 209.975 439.284 209.874C439.469 209.774 439.671 209.789 439.89 209.921C440.073 210.031 440.21 210.176 440.301 210.355C440.398 210.525 440.464 210.726 440.499 210.959C440.524 211.186 440.538 211.443 440.539 211.73C440.546 212.195 440.488 212.633 440.366 213.044C440.234 213.45 440.104 213.758 439.978 213.969C439.764 214.325 439.479 214.571 439.124 214.706C438.775 214.832 438.444 214.938 438.131 215.024C437.809 215.104 437.576 215.263 437.433 215.501C437.285 215.748 437.215 216.154 437.224 216.719C437.229 217.27 437.395 218.06 437.722 219.09C438.045 220.106 438.607 221.439 439.407 223.089L445.331 228.235C445.609 228.477 445.76 228.742 445.786 229.031C445.811 229.32 445.758 229.575 445.626 229.794Z" fill="white"/>
<path d="M525 5.5L531.735 26.2295H553.532L535.898 39.041L542.634 59.7705L525 46.959L507.366 59.7705L514.102 39.041L496.468 26.2295H518.265L525 5.5Z" fill="#FFC800"/>
</svg>
