<?xml version="1.0" encoding="utf-8"?>
<!-- Generator: Adobe Illustrator 24.3.0, SVG Export Plug-In . SVG Version: 6.00 Build 0)  -->
<svg version="1.1" id="Layer_1" xmlns="http://www.w3.org/2000/svg" xmlns:xlink="http://www.w3.org/1999/xlink" x="0px" y="0px"
	 viewBox="0 0 427.16 572.87" style="enable-background:new 0 0 427.16 572.87;" xml:space="preserve">
<style type="text/css">
	.st0{fill:#351CEA;}
	.st1{fill:#010302;}
	.st2{fill:#D9DAD5;}
	.st3{fill:#F9F9F9;}
	.st4{fill:#5E5E5F;}
	.st5{fill:#5A5AFF;}
	.st6{fill:#1A17AA;}
	.st7{fill:#D1CDC4;}
	.st8{fill:#605F5B;}
	.st9{fill:#C6C5BD;}
	.st10{fill:#FEFEFE;}
	.st11{fill:#FDFEFD;}
	.st12{fill:#010201;}
</style>
<g>
	<rect class="st0" width="427.16" height="572.87"/>
	<path d="M213.6,445.12c-34.46,0-68.93,0-103.39,0c-4.25,0-4.23-0.01-5.41-3.96c-11.38-38.03-22.77-76.07-34.16-114.1
		c-8.3-27.72-16.59-55.44-24.88-83.16c-0.96-3.22-0.9-3.46,2.01-5.58c12.2-8.86,24.43-17.67,36.62-26.55
		c32.48-23.64,64.94-47.31,97.4-70.97c9.91-7.23,19.81-14.47,29.72-21.7c2.36-1.72,2.38-1.72,4.61-0.1
		c25.73,18.74,51.46,37.5,77.2,56.24c26.19,19.07,52.39,38.14,78.59,57.21c2.88,2.09,5.76,4.18,8.62,6.29
		c2.49,1.83,2.51,1.92,1.62,4.91c-5.84,19.56-11.68,39.12-17.54,58.67c-13.87,46.29-27.74,92.57-41.62,138.85
		c-1.18,3.93-1.17,3.94-5.44,3.94C282.91,445.12,248.26,445.12,213.6,445.12z"/>
	<path class="st5" d="M241.5,235.84c1.08-1.59,2.39-0.96,3.71-0.41c10.46,4.36,19.36,10.88,26.83,19.39
		c8.73,9.94,14.6,21.46,18.55,33.99c5.99,19,7.53,38.48,5.89,58.26c-0.45,5.41-0.85,10.82-1.97,16.14
		c-0.88,1.08-1.86,0.94-2.99,0.39c-10.96-5.26-22.05-10.25-32.96-15.61c-1.31-0.65-2.23-1.63-3.05-2.79
		c-7.06-10.01-13.94-20.15-21.01-30.16c-2.3-3.26-2.82-3.19-5.93-0.72c-3.01,2.39-5.52,5.31-8.54,7.69
		c-5.96,4.71-12.57,6.5-19.98,4.51c-10.56-2.84-21.34-4.87-31.74-8.31c-0.54-0.18-1.08-0.29-1.65-0.24
		c-0.85,0.11-1.74,0.62-2.5-0.24c-2.11-2.05-5.06-2.26-7.59-3.37c-3.7-1.62-3.85-1.69-3.18-5.58c0.53-3.04,1-6.1,1.76-9.08
		c0.38-1.49,0.64-3.23,2.73-3.45c0.64-0.04,1.26-0.2,1.89-0.3c7.64,0.49,15.31,0.23,22.95,0.86c5.6,0.46,11.22-0.06,16.83,0.37
		c1.98,0.15,3.23-1.25,4.29-2.75c2.12-2.97,4.06-6.07,6.11-9.09c0.77-1.14,1.66-1.98,3.05-2.18c3.92-5.79,7.82-11.6,11.79-17.36
		c0.98-1.42,0.48-3.12,1.2-4.54c0.4-4.52,2.52-8.27,5.08-11.88c2.59-3.65,4.98-7.44,7.47-11.16
		C239.29,237.1,240.11,236.13,241.5,235.84z"/>
	<path class="st2" d="M167.98,380.68c-0.4,0.32-0.58,0.95-0.83,2.14c-0.42,1.99-1.48,3.28-3.1,4.42
		c-6.67,4.74-13.89,8.46-21.37,11.7c-4.2,1.82-4.21,1.78-3.74,6.23c-2.8,0.34-5.61,0.02-8.41,0.09c-1.76,0.05-2.15-1.09-2.43-2.47
		c-0.49-2.36-0.32-3.14,1.06-3.93c0.49-0.27,1.03-0.44,1.56-0.64c7.91-3.01,15.24-7.12,22.26-11.82c1.31-0.88,2.24-1.94,2.56-3.52
		c0.21-1,0.55-1.98,0.83-2.97c0.03-0.2,0.07-0.38,0.11-0.55c0.71-0.16,2.27-0.56,3.24-0.55c2.62,0.01,3.65,0.13,4.23-1.11
		C163.53,381.25,167.73,380.72,167.98,380.68z"/>
	<path class="st0" d="M294.51,363.22c-0.84,5.36-1.82,10.7-3.24,15.93c-1.55,5.77-4.19,10.97-8.11,15.53
		c-5.62,6.56-12.81,9.88-21.29,10.5c-4.1,0.3-8.22,0.27-12.33-0.04c-15.6-1.05-25.07-10.59-32.01-23.42
		c-5.13-9.48-8.7-19.67-13.03-29.52c-2.07-4.7-3.98-9.47-6.18-14.49c-1.73,3.51-0.99,7.72-4.21,10.22
		c-2.34,10.32-4.7,20.63-6.99,30.95c-0.36,1.58-0.97,2.6-2.76,2.44c-1.81,1.74-4.04,1.06-6.12,0.98c-1.29-0.04-2.58-0.34-3.89-0.43
		c-3.03-0.22-5.57,0.27-6.67,3.66c-0.38,1.17-1.49,1.86-2.47,2.6c-5.09,3.85-10.72,6.75-16.42,9.56c-3.75,1.85-8.17,2.88-9.85,7.48
		c-0.47-4.45-0.46-4.41,3.74-6.23c7.48-3.24,14.7-6.96,21.37-11.7c1.62-1.14,2.68-2.43,3.1-4.42c0.25-1.19,0.43-1.82,0.83-2.14
		c-0.25,0.04-4.45,0.57-4.03-2.98c-0.58,1.24-1.61,1.12-4.23,1.11c-0.97-0.01-2.53,0.39-3.24,0.55c0.33-1.18,1.09-1.8,2.56-2.03
		c3.11-0.47,4.21-1.65,4.22-4.92c0.02-6,0.76-11.95,0.74-17.95c-0.02-6.07,0.36-12.14,0.95-18.18c-0.02-0.13-0.04-0.25-0.04-0.38
		c-0.09-1.02,0.2-1.86,1.28-2.42c1.25-0.64,2.29-1.61,3.3-2.56c2.27-2.13,1.78-5.5-0.98-6.97c-1.35-0.72-3.14-1.02-2.94-3.17
		c-0.55-1.64-0.02-3.06,0.88-4.4c5.28,1.21,10.42,2.96,15.7,4.16c6.65,1.51,13.23,3.36,19.88,4.87c6.14,1.39,11.75-0.17,16.54-4.13
		c3.96-3.27,7.66-6.87,11.46-10.33c2.09-1.9,2.1-1.92,3.68,0.35c7.48,10.76,14.96,21.51,22.38,32.29c1.21,1.76,2.63,3.02,4.59,3.93
		c10.27,4.76,20.47,9.64,30.71,14.46C292.4,362.45,293.47,362.81,294.51,363.22z"/>
	<path class="st0" d="M174.26,239.47c-1.8-1.35-2.14-3.45-2.63-5.42c-0.84-3.34-0.45-6.7,0.26-10.01c1.06-4.92,3.12-9.4,6.14-13.42
		c4.68-6.22,10.92-9.49,18.71-9.74c0.75-0.02,1.5-0.02,2.24-0.02c1.27,0,1.71-0.54,1.21-1.76c-0.57-1.39-0.95-2.83-0.98-4.35
		c-0.05-3.64,1.61-6.28,4.92-7.78c6.78-3.05,16.01,0.24,19.31,6.88c2.56,5.15,1.11,10.06-3.82,12.97c-1.61,0.95-1.66,1.04-0.15,2.65
		c5.02,5.36,7.36,11.82,7.93,19.03c0.29,1.63-0.97,2.12-2.05,2.58c-3.09,1.32-6.25,2.47-9.47,3.49c-1.52,0.48-2.52,0.02-3.33-1.23
		c-0.97-1.49-1.77-3.09-2.93-4.45c-1.21-1.43-2.72-2.5-4.66-1.69c-2.06,0.86-2.12,2.7-1.59,4.54c0.57,1.97-0.17,2.98-2.02,3.56
		c-7.41,2.32-14.89,4.37-22.62,5.34C177.1,240.85,175.62,240.38,174.26,239.47z"/>
	<path class="st3" d="M174.26,239.47c8.77-0.37,17.14-2.7,25.49-5.15c0.88-0.26,1.82-0.39,2.52-1.04c0.12-0.76-0.42-1.24-0.63-1.85
		c-0.73-2.09-0.28-4.05,1.26-5.37c1.65-1.41,3.44-1.25,5.25-0.38c1.86,0.89,2.95,2.54,4.02,4.21c2.34,3.63,2.35,3.63,6.43,2.24
		c3.01-1.02,6-2.11,8.81-3.63c4.66,2.51,9.52,4.63,14.09,7.33c-0.1,1.09-0.85,1.85-1.4,2.69c-3.9,6.01-8.09,11.84-11.84,17.95
		c-0.94,1.53-1.52,3.18-2.26,4.78c-0.31-1.73,0.75-3.7-0.42-5.17c-1.5-1.89-3.63-3.12-5.84-4.61c-0.73,1.58-1.34,2.92-1.96,4.25
		c-0.63,1.35-1.24,2.72-1.93,4.05c-1.87,3.62-3.48,4.3-7.25,2.99c-2.82-0.98-5.65-1.98-8.38-3.17c-1.7-0.74-2.98-0.64-4.21,0.78
		c-0.47,0.54-1.04,1.07-1.92,1.31c-1.67-2.08-2.94-4.47-4.26-6.81c-1.09-1.93-2.45-3.32-4.57-4.24
		C180.15,248.42,176.89,244.22,174.26,239.47z"/>
	<path class="st0" d="M213.01,283.16c-2.99,4.53-6.05,9.02-8.95,13.61c-1.04,1.65-2.28,2.15-4.17,2.07
		c-10.01-0.42-20.02-0.73-30.03-1.06c-3.36-0.11-6.74,0.19-10.09-0.38c0.13-1.46,1.31-1.35,2.29-1.5c3.47-0.55,4.15-1.17,4.09-4.7
		c-0.06-3.6,0.48-7.04,1.76-10.41c1.72-4.55,4.96-7.83,8.73-10.67c2.63-1.99,5.85-1.49,8.84-1.98c3.36-0.69,6.68-0.43,10.01,0.26
		c6.07,1.25,10.3,5.04,13.78,9.88C210.46,279.94,211.47,281.75,213.01,283.16z"/>
	<path class="st3" d="M186.79,400.98c-0.88,1.63-2.51,2.73-3.9,3.98c-0.44,0.41-1.05,0.33-1.61,0.33
		c-14.02-0.02-28.04-0.05-42.06-0.08c-0.1,0-0.19-0.03-0.28-0.04c-0.47-4.45-0.46-4.41,3.74-6.23c7.48-3.24,14.7-6.96,21.37-11.7
		c1.62-1.14,2.68-2.43,3.1-4.42c0.25-1.19,0.43-1.82,0.83-2.14c0.43-0.35,1.11-0.35,2.4-0.31c4.67,0.15,9.34,0.4,13.98,0.95
		c0.05,5.17,1.25,10.19,2.03,15.27c0.03,0.18,0.11,0.36,0.13,0.55C186.66,398.43,187.4,399.84,186.79,400.98z"/>
	<path class="st3" d="M166.57,321.41c1.41,0.96,3.09,1.26,4.62,1.94c0.95,0.42,1.6,0.98,1.22,2.14c-0.24,0.75-0.25,1.49,0.22,2.14
		c1.03,1.43,0.3,2.47-0.77,3.36c-1.92,1.59-3.68,3.41-6.01,4.46c-1.03,2.15-2.65,2.67-4.91,1.99c-2.26-0.68-4.75-0.73-6.49-2.66
		c-1.39-0.4-2.48-1.19-3.32-2.39c-1.02-1.45-2.12-2.84-3.13-4.3c-2.6-3.74-2.93-7.98-2.69-12.34c0.05-1.01,0.6-1.76,1.33-2.36
		c0.85-0.7,1.76-1.34,2.79-2.12c-0.64-1.16-1.82-1.81-2.75-2.63c-1.08-0.95-1.52-1.97-1.42-3.42c0.21-2.88,0.33-5.78,0.35-8.67
		c0.01-1.36,0.44-2.3,1.57-3.03c1.1-0.7,2.09-1.57,3.2-2.25c1.78-1.09,3.38-2.28,4.01-4.44c0.34-1.18,1.25-1.55,2.44-1.17
		c0.19,0.03,0.43,0.01,0.54,0.12c2.2,2.23,2.63,8.88,0.75,11.44c-1.09,0.62-1.39,1.74-1.61,2.83c-0.63,3.2-1.24,6.41-1.76,9.64
		c-0.33,2.07-0.14,2.31,1.88,3.1c2,0.78,4.01,1.53,6.04,2.24c1.15,0.4,2,1,2.08,2.33C164.87,318.93,165.26,320.38,166.57,321.41z"/>
	<path class="st6" d="M194.11,347.93c1.1-4.61,2.19-9.23,3.28-13.8c1.22,0.09,1.25,0.89,1.48,1.44c4.76,11.1,9.48,22.21,14.23,33.31
		c2.94,6.89,6,13.71,10.51,19.79c5.93,7.98,13.63,13.22,23.26,15.67c0.9,0.23,1.79,0.53,2.68,0.8c-16.13,0.27-28.68-6.41-37.82-19.6
		c-3.48-5.03-5.84-10.63-8.04-16.3c-2.53-6.54-5.07-13.07-7.65-19.58C195.71,348.83,195.74,347.39,194.11,347.93z"/>
	<path class="st6" d="M163.99,378.83c-1.21,0.28-1.65-0.01-4.27-0.02c-0.97-0.01-2.53,0.39-3.24,0.55
		c-0.22,0.05-0.35,0.08-0.38,0.07c-2.91-0.88-2.56-3.22-2.49-5.45c0.33-11.39,0.66-22.77,0.97-34.16c0.05-1.68,0.24-3.36-0.14-5.03
		c2.08,0.01,4.07,0.56,6.05,1.1c1.54,0.42,3,0.53,4.42,0.01c0.31-0.12,0.62-0.26,0.93-0.44
		C165.87,340.22,163.99,378.83,163.99,378.83z"/>
	<path class="st6" d="M158.11,297.23c0.05-3.91-0.69-7.72-1.29-11.56c0.36-8.94,9.04-16.96,17.76-17.75
		c3.67-0.33,7.27,0.17,10.89,0.21c-1.35,0.37-2.73,0.63-4.04,1.12c-7.96,2.98-13.69,11.18-13.84,19.73
		c-0.03,1.87,0.05,3.74-0.04,5.61c-0.1,2.13-0.57,2.54-2.76,2.63c-1.68,0.07-3.37-0.14-5.04,0.16
		C159.22,297.34,158.67,297.28,158.11,297.23z"/>
	<path class="st6" d="M166.57,321.41c-2.24-0.52-4.28-1.51-6.61-2.54c1.55-1.5,3.56-0.24,4.78-1.51c0.63-0.23,0.57-1.67,1.72-0.99
		C166.49,318.05,166.53,319.73,166.57,321.41z"/>
</g>
</svg>
