<?xml version="1.0" encoding="UTF-8"?>
<svg id="_图层_1" xmlns="http://www.w3.org/2000/svg" xmlns:xlink="http://www.w3.org/1999/xlink" version="1.1" viewBox="0 0 355.1 339.1">
  <!-- Generator: Adobe Illustrator 29.0.1, SVG Export Plug-In . SVG Version: 2.1.0 Build 192)  -->
  <defs>
    <style>
      .st0 {
        fill: #76c8dc;
      }

      .st1 {
        fill: #f9cd3f;
      }

      .st2 {
        fill: #231815;
      }

      .st3 {
        fill: #e1a1c6;
      }

      .st4 {
        fill: #d44c37;
      }

      .st5 {
        fill: #e47513;
      }

      .st6 {
        fill: #2d70aa;
      }

      .st7 {
        clip-path: url(#clippath);
      }
    </style>
    <clipPath id="clippath">
      <rect class="st6" x="-4.3" y="-65" width="363.8" height="454.7"/>
    </clipPath>
  </defs>
  <g>
    <rect class="st6" x="-4.3" y="-65" width="363.8" height="454.7"/>
    <g class="st7">
      <rect class="st1" x="-4.3" y="-65" width="363.8" height="454.7"/>
    </g>
  </g>
  <path class="st6" d="M68.1,272.2c20.9-5.3,44.5-10.2,62.8,1.1,1.1-42.3,5.8-84.4,13.9-125.9-12.2.6-24.4,1.8-36.6,3.6-5.5.9-12,1.2-17.3,3.3-4,1.5-6.3,4.7-11.1,5-1,0-2,0-2.7.6-1,.7-1.2,2-1.4,3.2-2.7,18.7-3.7,37.6-5.5,56.5-.4,4.6-1.4,52.3-2.1,52.5Z"/>
  <path class="st4" d="M99.1,228.2c8.4-.5,16.8-1.5,25.1-2.9-1.6-8.6-3.1-17.2-4.7-25.9,0,0-20.1,2.2-22,4.4-3.8,4.3.9,19,1.6,24.3Z"/>
  <path class="st1" d="M121.3,159c.7,7.2,2.1,14.3,4.2,21.2-1.6-5.3-26.7,6.5-27.3-3.1s17.9-15.4,23.1-18.1Z"/>
  <path class="st5" d="M187.8,97.8c22.2,22.6,42.1,47.4,59.5,74-25.6,2.7-51.2,5.4-76.8,8s-11.2,3.1-14.3-3.3-2.1-8.2-1.1-12.6c2.6-11,8.4-22.2,13.3-32.3,1.4-2.9,19.7-33.7,19.5-33.9Z"/>
  <path class="st0" d="M158.2,202.6c2.2,21.5,4.8,42.8,4.1,64.5,34-3.2,68.2,1,102.1,5.1-1.8-.2-5.5-27.5-6.1-30.4-1.8-10.5-3.4-21.1-4.8-31.7-.4-3-5.1-39-6.6-39.1-30.4-1.1-61,.5-91.2,4.8.6,9,1.4,18,2.3,26.9Z"/>
  <path class="st1" d="M170.1,222.7c6.3-1.6,12.5-3.1,18.8-4.7.3,0,.7-.2.8-.4.2-.3.1-.8,0-1.2-1.9-6.5-3.8-13.1-5.7-19.6-.2-.6-.4-1.2-.9-1.6-3.1-2.3-12.1-.2-15.9-.7.2,2.5,4.6,27.8,2.8,28.2Z"/>
  <path class="st1" d="M221,218.2c5.6,2.1,11.2,4.3,16.8,6.4,1.1-11,1.8-22.1,2-33.2-4.7,1.4-15,.2-17.6,4.4-1,1.7-2.4,21.9-1.2,22.3Z"/>
  <path class="st5" d="M241.2,77c-1.5,3.7-2.7,7.4-3.2,11.6,11.6-2.9,23.1-6.5,34-11.2.7-.3,1.4-.7,1.5-1.4,0-.4-.2-.8-.4-1.2-3-5.2-4.9-11.2-8-16.5s-10.5-14.2-10.5-14.1c-4,7.1-6.5,14.8-9.3,22.5-1.3,3.6-2.9,7-4.2,10.4Z"/>
  <path class="st3" d="M73.9,169.3c17.5-10.3,37.4-16.6,57.7-18.1-.4,0-24.2-64.9-26.6-70.2-9.7,15.2-15.4,29.4-20.7,46.4-2.2,6.8-4.1,13.8-5.8,20.7-.8,3.2-2.2,19.7-4.5,21.1Z"/>
  <g id="_x38_7Uzwq">
    <g>
      <g>
        <path class="st2" d="M114.6,92.9c-.1,3.2,1.6,5.5,2.6,8.1,1.9,5.3,3.6,10.6,5.7,15.8,1.6,4,2.7,8.1,4.1,12.1,1.8,5.3,3,10.8,5,16,0,.2,0,.5.2.7.6,1.5,1.1,2.5,3.2,2,2.6-.6,5.4.7,8.1,0,.9-.2.9.7,1,1.1.5,2.7.5,5.4.3,8.1-.2,2.7-.8,5.2-.8,8,.1,5,0,10.1-.2,15.1-.1,4.6-1.3,9.1-1.7,13.7-.3,3.1-1.1,6.1-1.7,9.1-.4,2.4-.7,5-.8,7.5,0,2.6-.3,5.2-1.7,7.5-.3.6.7.5.6,1.3-.4,2.9-.8,5.7-1.3,8.6-.3,1.6.2,3.2,0,4.8-.2,1.2-.2,2.5,0,3.7.3,1.3-1,2.4-1.1,3.8,0,1.3-.2,2.7-.2,4,0,1,.2,1.9-.7,2.6-.4.3-.3.7-.2,1.1.9,3.2,0,6.4-.4,9.6-.2,1.6-.2,3.2-.5,4.7-.4,2.4-.1,4.9-.6,7.3,0,0,0,.1,0,.2-.3,1,.8,2.4,0,2.8-1.4.6-3.2.9-4.6.5-2.8-.8-5.5-1.5-8.5-1.5-1.3,0-2.6-1-3.9-1.5-1.6-.7-3.3-.5-4.7-1.4-.4-.3-.9-.3-1.3,0-1,1-2,.8-2.7,0-1.6-1.8-3.1.4-4.7-.1-1.1-.4-2.4-.1-3.4-.8-.8-.5-1.6-.1-1.6.3-.3,1.5-1.4,1.2-2.2,1.2-1.9,0-3.8.5-5.7-.2-.8-.3-1.7.5-2.7.6-3,.2-6-.4-9,0-2.5.3-4.9.9-7.5.6-.8,0-.8.5-.9,1-.1.5-.5.8-1,.7-.6,0-.9-.4-.9-1,.1-2-.5-3.9-.4-6,.2-3.4.2-7.1-.8-10.3-1.1-3.7.5-6.9.3-10.4-.1-1.5-.3-3-.3-4.6,0-.8,0-1.6,0-2.5,0-5.3-.2-10.6,0-15.8.2-3.9.9-7.8,1.4-11.7.6-5,1.1-10,1.6-15.1.6-5.6,2-11.2,3.6-16.7.7-2.3,2.2-4.8,1.2-7.3-.6-1.5-.9-3-1-4.6-.2-3,.4-5.9.9-8.8.6-3.7,1.6-7.2,2.6-10.7,1-3.4,2.3-6.8,3.5-10.2,1.8-5.1,3.3-10.3,5.4-15.2.9-2.2,1.6-4.5,2.6-6.7.6-1.2,1.5-2.1,2.1-3.5.7-1.9,1.5-3.9,2.5-5.7,1.7-3,3.4-6,4.1-9.4.5-2.5,1.5-4.7,3.1-6.7.3-.4.5-.9.5-1.4-.1-.8.2-1.5.7-2,2-1.7,2.4-4,2.9-6.3.4-2,2-1.1,3-1.6,1-.5,1.3.6,1.6,1.2,1.8,3.4,3.4,6.9,4.4,10.6.4,1.4,1.9,2.4,1.3,3.8ZM95.7,125.2c1,.8,4,.9,5.1.2.8-.5.5-1,.1-1.6-.4-.5-1.2-1.1-.4-1.8,1.1-1,.3-2.1,0-3-.1-.5-1.5-.8-2.2-.6-1,.3-1.3,1.3-1.6,2.2-.2.6.1,1.2-.4,2-.4-1-.4-2-1.1-2.5-.8.9,0,1.4.3,2.1.4.8,1.3,1.5.4,2.5-.2-.4-.5-.7-.9-.4-.3.3-.5.8-.1,1.2.3.3.7,0,.9-.3ZM110.2,259c-.6-.3-.9,0-1.3.5-1.5,2-3.1,2.1-5.1.3.6-.2,1.1-.4,1.7-.7-.9-1-1.6-2.2-3.1-2.3-.4,0-1-.4-.9-1.1,0-.1.5-.3.6-.3,1,.5,1.8.2,2.6-.4.6-.5,1.1,0,1.3.6.1.3.5.9-.3,1-.3,0-1-.3-.8.3.2,1.2,1.8,1.5,2.1,2.7.2,0,.5,0,.7-.2.1,0,.3-.3.3-.4.1-1.1,1.3-2.2.3-3.4-.2-.2-.3-.7-.1-.9,1.9-2,.3-1.7-1.1-1.8-.3,0-.6-.2-.9-.4-1.5-.7-2.8-1.2-3.2,1.1,0,.4-.4.9-1,.7-.6-.2-.5-.8-.3-1.1.7-1.1,1.2-2.3,2.8-2.6,1.2-.2,2.1,0,2.9,1,.2.3.7.6,1.2.5.3-.1.4-.4.3-.6-.4-1.3-.5-3-1.3-3.9-.7-.7-2.2-1.3-3.3-1.3-1.7-.1-3.4-.3-5.1-.8-1.2-.4-1.8-.1-1,1.3.4.6.4,1.5.5,2.2.4,3.6.5,7.2,1.6,10.7.6,1.9,1.4,3.8,1.7,5.8.2,1,.6,1.1,1.3,1,1.9-.2,3.8-.2,5.5.2,1.4.4,1.7,0,1.4-1.2-.5-2.1-.6-4.2-.3-6.3.5,0,.4-.3.3-.6,0,0-.2,0-.2,0-.2.2-.2.4,0,.7ZM68.4,226.7c0,2.1.4,3.7.2,5.3-.2,1.7.7,1.8,1.7,1.4.9-.3,1.3-.4,1.2.7,0,.4.3.5.7.3,1.2-.7,1.8.5,2.6.9.2.1.3.6.7.6,3.3-.2,6.1,1.3,9,2.3,1,.3,2.4.9,3.1.6,1.4-.5,2.3,0,3.4.4,1.2.3,1.9,1.5,3.1,1.5,1.5,0,2.9.4,4.2,1.1,1,.5,2,1.3,3.4,1.1.8,0,1.3,2.3,2.7.5,1.7,1.2,3.9.4,5.7,1.1.5.2,1.2.4.8,1.2-.2.3-.6.6-.2.9.6.4.7-.2,1-.6.2-.3.5-.4.8-.3,2.8.4,5.3-.7,7.9-1.7,2.6-.9,4.9-3,8-2.2.3,0,.6-.2.8.2.1.4,0,.6-.3.8-.4.3-.9.5-1.3.7-1.7.9-3.7.8-5.3,1.8-3.2,2-6.8,3.2-10.4,2.4-2.7-.6-1.6.8-1.4,1.7.4,2.3,1.5,4.6,1.3,6.7-.3,2.9.6,5.4,1.1,8.1.1.5.7,1.1-.2,1.4-.3.1-.6.3-.5.7.1.3.5.4.8.4,2,.2,3.9.5,5.8,1,3.9,1.2,7.9,1.6,11.8,2.5.5.1,1.7.6,1.5-.7-.6-3.4.3-6.7.5-10,.2-2.9,1-5.8.9-8.7,0-1.4-.2-2.9.2-4.1,1.1-3.4.4-7,1.3-10.5.6-2.1.5-4.4.5-6.7,0-2.6,1.1-5.2.9-7.7-.4-4.8,1.4-9.2,1.7-13.9.2-3,.7-6.1,1.6-9.1.7-2.3.7-5.2.9-7.8.1-1.7.3-3.3.5-5,.4-3.6.6-7.1.5-10.7,0-1-.3-2.1,0-3.1.6-2.3.2-4.6.3-6.9.1-2.3-.4-4.8.2-7,.7-2.5.2-5,.4-7.4,0-1.3-.7-1.6-1.6-1.6-1.4,0-2.7-.2-4-.3-3.9,0-3.9,0-2.1,3.4.2.3.3.7.5,1,.9,1.3.2,2.1-.9,2.6-1,.5-2,.5-2.7-.9-.5-1.3-1.2-2.4-1.1-3.8,0-.8-.2-1.9-1.6-1.7-3.8.7-7.7,1.5-11.5,2.2-1,.2-1.6.8-.5,1.7.5.4.7,1.1,0,1.2-1,.1-2.9,0-3-.4-.7-1.9-1.9-.8-2.8-.7-2.6.1-4.8,1.8-7.3,2.1-1.1.1-2.3.2-3.1.8-.5.5.4,1.3.4,2,0,1.2-.8,1.4-1.4,1.5-1,.2-.8-.7-.9-1.3,0-1.9-.3-2-2-1.1-.6.3-1.1.6-1.7.9-5.4,2-10.6,4.4-15.7,7-1.3.6-1.9,1.6-2.3,2.9-1.3,4.9-2.7,9.9-3.9,14.8-.9,3.6-2.3,7.1-2.4,10.8-.1,6.3-1.2,12.4-1.8,18.6-.4,4.8-1.3,9.6-.9,13.9ZM98,251.5c.2-2,.2-2-1.3-2.7-1.7-.8,1.3-2.3-.4-3.2,0,0-.1,0-.2-.1-1-1-.6-1.5.5-1.9.3-.1.9,0,.8-.6,0-.5-.5-.5-.9-.5-.8-.1-1.5.1-2.3-.2-3.9-1.5-7.9-2.5-12-3.2-1.2-.2-2.5-.5-3.7-1-3-1.3-6.2-1.7-9.1-3.3-.7-.4-1.1,0-1,.7.3,4-.2,8-.2,12-.1,6.3,1.5,12.5,1.1,18.9,0,1.5.7,1.9,2.1,1.3,1.6-.7,3.1-1.1,4.7.2.5.4,1.4.4,2-.2.6-.6,1-1.1,1.5,0,.1.3.5.3.6.1,1.6-2.2,4.1-.8,6-1.6.8-.3,1.6,0,2.4.6-.9.7-1.9.2-2.6.7,1.8.9,2.4.7,3.1-.7,0-.1.3-.4.4-.3,1.5.6,3-.4,4.6-.1.3,0,.8.2.7.7,0,.4-.5.4-.8.4-.9.2-1.9-.3-2.9.7,1.4.2,3,.3,3.6-.4,1.1-1.3,2.3-1.2,3.7-1.1.5,0,1.2,0,1.2-.9,0-2.4-2.2-4.5-1.3-7.1,0-.2-.5-.5-.8-.8-.2-.2-.7-.3-.6-.7.2-1.3-.9-2.9.6-4-1.1-1.1-1.4-2.5-1.2-4,0,0,.2-.1.3-.2,1.2.5.4,2,1.4,2.6ZM75.5,169c.6-.6,1-1.3.9-2.1-.2-1.1.2-1.6,1.1-2.1,3.2-1.7,6.5-3.3,9.9-4.6,5.1-1.8,9.7-4.8,15.1-5.6.4,0,.8-.2.9-.6.4-1.6.7-3.3-.2-4.9-.5-.8-.6-1.4-.2-2.1.4-.8.1-1.4-.7-1.2-1.7.4-3.1,0-4.7-.6-.7-.3-2.1-.7-2.2.6-.2,1.6,0,3.2.1,4.8,0,.7.6,1.8,0,2.2-1,.5-2.4,1-3.3.6-1.2-.5,1.1-2.2-.4-3.2-.2-.1.1-.4.5-.6.9-.3,1.2-2.7.4-3.3-.6-.4-.5.6-1,.6,0-.7-.1-1.4-.2-2.1-.1-.7-.5-1.2-1.1-.5-.8,1-1.1.9-1.4-.3,0-.1-.5-.3-.6-.3-1.4.6-2.6-.7-3.9-.7-.2,0-.8-.2-.8-.7,0-.4.5-.6.9-.7,1,0,2-.5,3,0,.9.4,2,.6,3,.5,1.3,0,2.6,0,.9-1.7-.3-.3-.1-1-.2-1.5-.2-1.3.6-2.5.2-3.8-.6-1.9.5-3.7,1.1-5.1,1-2.4.4-2.2-1.4-1.9-.5,0-1.1-.2-1.7-.2-.5,0-1.1.1-1-.7,0-.7.5-.9,1.2-.9,3.8.3,3.7.3,3.7-3.4,0-2.2-1-4.7,1.5-6.3.1,0,.1-.5,0-.7-.6-.8-.4-1.8-.4-2.6,0-2.2-.5-4.6,1.9-6.1.6-.3.7-1.4-.3-1.3-1.2,0-1.3-.8-1.7-1.5-.6.8-1.1,1.4,0,2.1.4.3.8.7.4,1.3-.2.3-.5.5-1,.5-.9,0-.3-.9-.9-1.2-.2.9,0,1.9-.9,2.5-.2.1-.2.6.3.9,1.2.7,1.2.8,0,1.4-.6.3-.9.7-.7,1.3.2.4.3.9,0,1.3-1.8,3.3-3,6.8-4.1,10.3-.3,1.1-1.7,1.7-1.7,2.5.1,2.2-1.2,3.9-1.5,5.9-.2,1.5-.5,2.8-2.3,3.4-1,.4-1.4,1.7-1.5,2.8,0,.8,1-.3,1.4.4-.1.4-.4.7-.8.7-1.6.2-1.5,1.5-1,2.3.9,1.3,0,1.7-.8,2-1.7.7-1.8,1.9-1.1,3.2.4.7.4,1.1,0,1.7-1.2,2.4-1.7,5.1-2.1,7.7-.4,2.2-.6,4.4-1.1,6.7-.3,1.2-1.3,3.2.5,4.6ZM118.6,145.1c1,0,1.9,0,2.9-.1.5,0,.8.2,1,.5.2.4-.1.7-.4,1-1.1,1-4.4,1.3-5.7.5-.5-.3-1.1-.6-1.2.1-.2,1.2.5,2.2,1,3.2.4.8,1.3.3,1.9.1,1.1-.3,2.2-.7,3.3-.9,2.1-.3,4.2-1.1,6.5-1.1.5,0,1.7,0,1.3-1.1-.6-1.7-1.3-3.3-1.6-5.1-.3-1.7-1-3.5-2-5.2-.8-1.5-1.4-3.2-1.6-4.8-.1-1.6-1.7-3-.6-4.8,0,0-.4-.4-.7-.6-.3-.2-.7-.5-.4-.7,1.2-1.3-.1-2.1-.6-3-1.1-2.1-1.2-4.5-2.1-6.5-2-4.4-3.2-9.1-5.3-13.5-1.4-2.9-2.6-5.9-3-9.1-.1-.8-1.3-1.7-1.4-1.4-.5,1.2-2.9.5-2.4,2,.6,1.9.5,3.9.7,5.7.2,2.8,1.3,3.7,3.9,3.8.6,0,1.7.2,1.5,1.1-.2,1.1-1.2.5-1.9.4-.4,0-.8-.1-1.1-.3-1.8-.8-1.9.1-1.9,1.6,0,2.5.8,4.8.7,7.3,0,1.2.7,1.1,1.6,1.1,2.1-.1,4.1,0,6,.9.4.2.9.4.9.9,0,.5-.4.7-.9.9-1.4.3-2.6.7-3.8-.6-.7-.8-2-.2-3,0-.9.2-.5,1.1-.4,1.7.2,1.8,1,3.5.8,5.3,0,.5.4.7.9.7,2.6-.1,5,.8,7.6.9.8,0,1.6.3,2.4.5.3,0,.8.7.4.7-1.2.2-1.6,2.6-3.4,1.2-1.4-1.1-3.3.2-4.8-.9-.5-.4-1.5-1.1-2.1-.5-.6.5-.5,1.6-.3,2.4,1.1,4.1,1.9,8.1,2.8,12.2.8,3.7.9,3.6,4.7,3.5ZM95.2,141.7c0,1.2.3,2,1.6,2,1.6,0,3.1-.5,4.7.4.6.4,1.7-.9,1.3-1.3-.9-.9-.3-1.9-.6-2.8-.4-1.2.5-2.3,0-3.4-.9-2.2-.1-4.8-1.4-7-.1-.2.1-.7.2-1.1.1-.4.8-.9.1-1.3-.5-.4-1.2-.5-1.8-.1-.6.4-1.1.8-1.9.6-1.3-.4-1.6.4-1.6,1.4,0,1,.4,2.1.1,3.1-.8,3.2-.2,6.5-.7,9.5ZM105.3,140.5s0,0,0,0c0,.6.1,1.2.2,1.7,0,1.7.5,2.9,2.6,2.2.9-.3,1.8-.1,2.6.5.3.3.7.2,1.1,0,.3-.2.5-.6.2-.8-1.6-1.6-1.2-3.8-1.5-5.8-.5-3.2-2-6.1-2.1-9.3,0-1.6-2.2-2.7-3.8-2.2-.4.1-.5.3-.5.7.1,1.7.1,3.3.3,5,.3,2.7.7,5.5,1,8.2ZM105.1,89.8s0,0,0,0c0-.9-.1-1.8,0-2.7.1-.7.5-1.3,1.4-1.3,1.1,0,.9.9,1,1.4.1,1.3,0,2.7,0,4,0,1.1.2,1.4,1.3.9,1.1-.4,1.2-1.2.9-2-.8-2.5-1.4-5-2.7-7.3-.3-.5-.6-.7-1.1-.6-.5,0-.9.3-.7.9.3.8-.4,1.3-.6,1.9-.4,1-2,1.5-1.3,3.2.2.3-.9,2.4-2.3,2.3-.8,0-.6.3-.8.7-1.7,3-.4,6.5-1.6,9.7-.2.6.7.8,1.3.8.4,0,1.2.2,1-.4-.8-2.5,1.4-5,.2-7.4-1-2,1.6-1.4,1.7-2.5,0-.2.2-.4.4-.2.2,0,.3.2.4.4.4.5.4,1.7,1.3,1.3.8-.3.3-1.2.2-1.9,0-.3,0-.6,0-1ZM97.9,117.3c.6-1.2,3-.6,2.8-2-.4-2.5.3-4.8,0-7.2,0-1-.4-2.1.9-2.7.5-.3.4-.8,0-1.3-.7-1.4-2.1-1.3-3.2-1.4-.5,0-1.6,1.6-1.5,2,.9,1.9.9,3.5-.3,5.2-.2.3-.4.4-.2.8.6,1.8.8,3.7.3,5.6-.2.7.1,1.1,1,1.1ZM106.1,148.8c.1.7.3,1.3.3,1.8.3,2.9.3,2.9,3,2,.1,0,.3,0,.4,0,1.1-.4,2.7.2,3.4-.8.8-1.1-.9-2.1-.6-3.4.2-.8-.5-1.4-1.4-1.5-1.4-.2-2.8-.4-4.2-.6-.5,0-1,0-.9.6.2.7.2,1.4,0,1.9ZM103.7,121c0,1.2.2,1.9,0,2.7-.2,1.4.4,1.6,1.5,1.4.5,0,1,0,1.5,0,.9,0,1.2-.4.9-1.4-.7-1.9-1.5-3.8-.6-5.9.4-1-.9-1.3-1-1.1-.8,1-3,.8-2.3,3,.2.5,0,1.1,0,1.3ZM104.8,115.4c1.8-.1,2.1-.7,1.6-3.1-.4-2.1-.8-4.3-.2-6.4.2-.8,0-1.4-1-1.5-.8,0-1.3,0-1.4,1.2-.3,2.9.5,5.8-.2,8.7-.3,1.1.5,1.1,1.2,1ZM105.6,102.9c.5,0,.4-.5.2-1.1-.5-1.9-.8-3.9-.2-5.8.2-.8-.4-1.7-1-1.9-1-.3-.8.8-1,1.4-.5,1.4,0,2.8-.4,4.2-.4,1.6.9,3.2,2.4,3.2ZM83.4,131.9c-.7.8-.3,1.9-1.2,2.4-.2,0-.1.5.1.6.3.2.6.1.8-.2.4-.8.4-1.7.3-2.8ZM75.4,169.8c0,.2-.1.3-.1.5,0,0,.2.1.3.2,0-.1.1-.3.2-.4,0,0-.2-.1-.3-.2ZM77.4,151.9c-.2-.2-.4-.3-.5-.3,0,0-.2.1-.2.2,0,.1.1.4.2.4.1,0,.3-.1.5-.2Z"/>
        <path class="st2" d="M209.8,243c-1,1.7-1,1.8.9,4.2,0-1.7,1.6-3-.6-4.1-.6-.3-.2-.9.2-1.2.4-.3.7-.7.3-1.1-.3-.3-.7.2-1,.3-.5.3-1,.8-1.5,1.3-1-1.1-.2-2,.8-2,1.9-.2,2.1-1.5,2-2.7-.5-4.4-.6-9-3.4-12.8-.4-.5-.6-.9-1.3-.8-4.1.4-7.9,1.4-11,4.4-.3.3-.8.5-1.3.8-1.9,1.1-1.9,3.3-2,5-.2,5.4.8,10.7.9,16.1,0,1.2,1,2.3-.3,3.3.9.8,1.1,1.8,1.5,2.9.9,2.7,0,5.6,1,8.3.1.4,0,.8-.4,1-.5.1-.8-.2-1.1-.6-.7-1.2-.6-2.5-.5-3.8.2-3.7-1.2-7.1-1.9-10.6-.6-3-.8-5.9-1-9,0-2.8-.4-5.5-.6-8.3,0-1.3.9-1.3,1.9-1.5-1.5-1.8-1.1-4,1-4.7,1.7-.5,2.5-1.9,3.8-2.8,2.2-1.5,4.8-1.8,7.2-2.5.5-.2,1.1-.2,1.6-.5,1.9-1.2,2.7-1.1,3.4.9.7,1.9,2.4,3.1,3.3,4.8,1.4,2.8,1.4,5.9,1.5,8.9.2,6.5,1.3,13,1.2,19.4,0,3.4.6,7-.8,10.3-.3.8,0,1,.8,1,9.9.4,19.8,1,29.7,1.1,4.9,0,9.8.3,14.7.6,1,0,1.3-.1,1.2-1.1-.6-5.2.3-10.5-1.3-15.6-.3-1.1-.1-2.3-.2-3.5,0-4.5-1.2-8.9-1.7-13.4-.3-2.7-.6-5.4-.8-8-.4-3.5-1-7-1.3-10.5-.5-6.7-2.4-13.2-3.4-19.9-.4-2.6-.3-5.3-.7-7.9-.9-5.4-1.5-10.8-2.2-16.2-.3-2.2.3-4.4-.4-6.5-.4-1.2-.9-2.5-1.8-3.3-.6-.6-.8-1.2-.4-1.5.6-.5,1.7-.5,2,.4.7,1.9,1.6,3.7,1.9,5.8.7,6.2,1.8,12.4,2.4,18.7.4,4.6.8,9.2,1.8,13.7.8,3.6,1.1,7.3,2.1,10.8.5,1.8.7,3.8.6,5.9,0,2.3.5,4.7,1.1,6.9.6,2.2.4,4.5.6,6.7.2,3.1,1,6.2,1.3,9.3.2,3.5,1.1,7,1.5,10.6.8,6,.9,12.1,1.8,18.2.2,1.5-.7,2.5-2.4,2.7-2.4.3-4.8,0-7.2-.2-5.1-.4-10.2-1.1-15.3-.8-2,.1-3.9-.7-6-.5-3.3.4-6.5.2-9.8-.2-1.1-.1-2.9-1.7-4.1.2-2.4-1.7-5,.5-7.4-.6-1.1-.5-2.4,0-3.6,0-4.1,0-8.1-1.6-12.3-.5-2.3.6-4.3-.7-6.6-.6-7.7.4-15.4.6-23,1.4-3.2.3-5.1-2-4.1-5.7.5-2-.2-3.9.3-5.9.4-1.5-.3-3.3,0-4.9.7-4.3-.1-8.6-.1-12.9,0-3.6,0-7.2-.8-10.9-.3-1.4.2-3.1,0-4.7-.2-2.3-.2-4.6-.6-6.9-.4-2.4,0-4.8.1-7.3,0-3.2.3-6.4-.8-9.5-.6-1.6.2-3.1-.2-4.8-.6-3.1-1.2-6.3-1.5-9.4-.4-4.4-1.3-8.5-2.5-12.6-.1-.4-.4-1.1.3-1.3.6-.1.9.4,1.1.9,1,4.3,2.4,8.5,2.6,13,.1,3.3,1.1,6.5,1.5,9.7.5,4.7.9,9.5.9,14.3,0,8.3,1,16.6,1.3,24.9.2,6.2.6,12.3.3,18.5-.2,4.2,0,8.3-.1,12.5,0,.7.2.7.7.7,3.7.2,7.3,0,11-.3,3.5-.3,7-.3,10.5-.4,5.3-.3,10.5.4,15.7.4,3.4,0,6.8.3,10.2.4,1,0,1.3,0,1.4-1.1.2-3.4.1-6.8,0-10.3-.1-2.6-.5-5.1-2.8-6.8-.6-.5-.7-1.2-.8-1.9-.1-.8.2-1.6-.7-2.2-.4-.3-.5-1.3,0-1.6.7-.6,1.2.7,2.1.3Z"/>
        <path class="st2" d="M225.2,195.5c-3.5,2.1-2.9,4.8-2.3,7.5,0,.4.1.7-.2.9-1.7,1.1-.8,2.8-1,4.3-.1.8.6.9,1.2.8.6-.1.8-.5.7-1.1-.6-2.3,1.9-4.7,4.2-4.1-.5-2-1.6-2.2-3.5-.7-.3-.9,0-1.6.6-2.2.1-.1.6-.1.3-.5-2.6-2.5,1.6-1.2,1.3-2.4,1,0,1.1.6.8,1.2-.5,1.1,0,1.5.7,2.4,1.8,2.1,2.8,4.5,2.6,7.5-.2,2.1-1.6,3.2-2.5,4.8-.4.8-1.8,1.4-2.4,2.6-.3.7-1.7-.8-2.4.6,1.9,1.3,4.2,2,6.4,2.8,2,.8,4.2,1,6.4,1.5,1.2.3,1.9.3,2.2-1.3.3-1.7-.1-3.6,1-5.2.1-.2.6-1.8-1.2-1.5-1.2.2-2.6-.6-3.8-1.2,0-.7.6-.5.8-.7.5-.3,1.7-.3,1.4-1-.4-.7,0-1.9-1.3-2.3-1.1-.4-2.3-.6-2.3-2.6,0-1.7.6-1.7,1.7-1.7.3,0,.6,0,.9.2.6.2,1.2.3,1.5-.4.1-.3.1-.9,0-1.1-.5-.4-1.1-.3-1.6,0-.3.2-.6.3-.8.5-.3.2-.5.6-.8.3-.3-.2-.4-.6-.3-1.1.5-1.8,1.5-3.2,3.1-4.2,1-.6,1.8-1.5,3.1-1,.3.8-.5.9-.7,1.4-.2.4,0,.7.2,1.1.2.3.5.5.8.3.5-.2.4-.6.4-1,0-1.6,0-3.3.1-4.9,0-.8-.2-1.3-1.1-.7-.3.2-.7.4-.9.3-1.7-1.1-3.5-.6-5.2-.2-1.5.4-3.1.1-4.7.2-1.1,0-1.6,1.5-3,1.3-1-.1-1.6-.5-1.8-1.4-.2-1.1.9-.8,1.4-.9,2.1-.5,4.2-.7,6.3-1,3.3-.4,6.6-.4,9.9-.6,1,0,1.7.3,1.5,1.6-.3,2.4-.4,4.8-.5,7.2,0,.7-.3,1.2-.5,1.9-.2,1.3-.8,2.4,0,3.9.9,1.4-.9,2.7-.8,4.2,0,.3-.4.7-.3.8,1.9,2.4-.2,4.4-.6,6.6-.2,1.1-.1,2.3-.3,3.4-.3,2.5-.7,2.5-3.2,2.8-2.5.3-4.5-1-6.7-1.4-2.8-.5-5.3-1.6-7.7-3.2-2-1.3-2.1-2.9-1.9-4.8,0-.4.4-.9,0-1.3-1.2-1.8-.4-3.8-.6-5.6-.3-2.9.6-5.6.6-8.5,0-2.8.9-3.5,4.6-3.3ZM227.9,208.9c-.9.4-.8,1-.4,1.7.2.3.3.8.8.6.6-.2.8-.8.8-1.4,0-.4.2-.7.2-1.1,0-.6.5-1.5-.1-1.8-.7-.3-1.1.5-1.5,1.1-.5-.5-1.2-.9-1.8-.6-.4.2-.7.9-.3,1.9.6-1.2,1.4-1.2,2.2-.5ZM239,207c-1.5.7-.5,2.3-1,3.5-.3.6-1,1.1,0,1.7.3.2.5.6,1,.4.8-.5.9-1.3.7-2-.3-1.4.1-2.8.6-4.1.2-.5.5-1-.1-1.3-.6-.3-1.2.1-1.6.5-.7.6.6.6.4,1.3ZM224.3,215.4c0-1.6-.8-2.9-1-4.4-.1-.7-.6-1-1.2-.9-.7.1-.4.7-.3,1.1.1,1,.2,1.9.4,2.8.2,1.1.8,1.9,2.1,1.4ZM227.2,206.5c.3-.4.8-.9,1.1-1.4.1-.3-.2-.9-.6-.8-.7.2-1.2.7-1.3,1.4,0,.5.4.6.9.8Z"/>
        <path class="st2" d="M228.7,142.9c-.1,1.4-1,2.3-1.9,3.3-1.4,1.5-2.9.9-4.3,0-.5-.3-1-.8-1.6-1.1-.7-.4-1.2-.2-1,.7.6,2.4-.6,4.2-2.3,5.4-3,2.1-6.3,2.8-9.8,1.5-1.1-.4-1.6-.2-2.2.7-1.4,2-3.4,3.2-5.8,3.8-2.4.6-5.4-.7-6.6-2.8-.4-.7-1-1.1-1.6-.3-1.9,2.9-4.8,3.6-8,3.3-2.8-.3-5.8-.9-7.9-2.8-2.4-2.2-5.5-3.9-6.5-7.4,0-.2-.2-.5-.2-.7,0-.7-.3-1.6.5-1.8.8-.2.8.8,1,1.4,2,4.8,9.2,10.6,14.3,9.9,1.5-.2,2.9-.6,4.1-1.4,2-1.3,2.2-2.1,1.1-4.2-1.1-2.1-1.8-4.3-2.1-6.7,0-.5,0-.9.5-1.1.6-.2,1.4-.2,1.8.4,1.4,2.1,3.7,3.9,2.9,7-.7,2.7,1.7,3.9,3.4,5,1.5.9,3.6.7,5.4-.3.8-.5,1.3-1.2,1.9-1.9,1-1.1,1.8-1.8-.3-2.8-1.1-.5-1.7-2-2.4-3.1-.3-.5.2-1.1.6-1.5.4-.4.9-.2,1.2.1,1.6,1.5,4.5,1.8,4.7,4.8,0,.8.8,1.4,1.9,1.2,1.9-.2,3.9.7,5.7-.7,1.8-1.4,3.4-2.9,3.6-5.4,0-1.1-.3-2-1.4-2.6-.9-.4-1.2-1.1-.7-1.9.6-.9,1.3-.1,1.7.4,1.2,1.4,3,2.1,4.3,3.5,1.1,1.3,2.7.8,4.1-1.1.4-.5.5-1.1.8-1.7,1-.2.6.7.9,1.1Z"/>
        <path class="st2" d="M166.8,216.2c-.1-.8,0-1.7-.4-2.5-.6-1.3-.7-2.6-.4-4.1.4-2.1-.6-4.3-.1-6.5.4-1.4.4-2.9,1.2-4.3.6-1-.1-2.3.4-3.5.2-.6.2-1.2.4-1.8.2-.6.7-.7,1.3-.6.7,0,.6.6.6,1,0,.9,0,1.5,1.1.9,2.1-1.1,4.3,0,6.4-.2,4.3-.6,5.3,2.4,6.4,5.6,1.5,4.4,2.5,8.9,4.3,13.2.6,1.4-.5,1.8-1.5,1.8-3.7-.2-7.1,1-10.6,1.8-1.5.4-2.9,1.1-4.2,1.8-1,.5-2,.5-3,.4-1.9-.2-2-1.6-1.9-3.1ZM179.2,214.4c-2.8-.3-3.4-2.3-4.2-4.3-1.3-3.2-1.3-6.4-.2-9.6.3-1.1,0-2.3,1.4-2.9.4-.2.9-.4.7-1-.3-.6-.8-.4-1.3-.3-1.7.1-3.4.3-5,.1-1.2-.1-1.7.2-1.6,1.3.2,1.7-.4,3.4-.5,5.1-.3,4.7-.5,9.5.4,14.2.2.9.6.8,1.2.4,1.4-.7,2.9-1,4.3-1.6,1.6-.7,3.3-.5,4.9-1.5ZM183.1,213.5c1.2-.2,2.1-.3,1.5-2.1-.6-2-1.3-4-1.8-6.1-.4-1.5.1-3.5-1.6-4.8-.6-.5-.5-1.8-.8-2.7-.4-1.4-1.4-1.2-1.9-.3-.9,1.6-1.8,3.2-2.2,5-.6,2.7.3,5,1.4,7.3,1.4,2.9,2.3,3.7,5.3,3.6Z"/>
        <path class="st2" d="M156.7,172.6c5-.7,9.8-.8,14.6-.8,3.4,0,6.7-.4,10-.5,2.7,0,5.4-.6,8.1-.5,1.5,0,2.9.4,4.4,0,.1,0,.3,0,.4,0,3.1,2.3,6.4.9,9.7.6.2,0,.6-.1.7,0,1.5,1.4,3,.6,4.5,0,1.2-.5,2.2-.7,3.6-.2,2,.9,4-.2,6-.4,3.3-.3,6.4-.9,9.8-.5,3.6.5,7.2-.5,10.7-1.2,2.1-.4,4.2,0,6.3-.7.8-.2.8.6.9,1.2.1.8-.1,1.4-1,1.5-1.1,0-2.2,0-3.3.1-7.7,1.1-15.5.7-23.2,1.3-3.7.3-7.4.3-11.1.8-.9.1-2-.9-2.5.7,0,0-.1,0-.2,0-2.9-1.5-6.2,0-9.2-1-1.9-.6-4.2-.4-6.4-.1-4.7.6-9.5-.3-14.2,0-5.1.4-10.3,0-15.4.8-1.1.2-2.3,0-3.3-1.1Z"/>
        <path class="st2" d="M236.6,156.2c-1.8,1.3-2.5,3.4-3.9,5-.4.4-.8.7-1.4.8-2.9.3-5.7.6-8.6.7-.9,0-1.3.2-1.8,1.2-.9,1.8-2.9,2.6-4.6,3.5-1.7.9-3.6,1.3-5.6,1.2-.5,0-1.1,0-1.4-.3-1.7-2-3.2-.6-4.9,0-4.3,1.6-8.1,1.6-11.9-2.2-.4-.4-.7-.7-1.1-1.1-1.9-1.7-1.9-1.7-3.5.3-1.8,2.1-4.5,2.3-6.9,2.9-4.8,1.1-8.2-1.7-11.7-4.2-1.1-.8-2.4-1.4-3.2-2.5-.3-.4-1.2-.7-.5-1.3.6-.5,1.4-.2,1.7.3,1.9,2.7,4.8,4,7.6,5.3,3.9,1.8,7.6.7,11.1-1.3.9-.5,1.5-1.5,1.5-2.5.1-1.5.9-1.3,1.5-.6,1.5,1.7,3.3,3,5,4.5,2.4,2.2,8.2,3,10.2.6,2.2-2.7,3.1-1.3,4.8.1,1.4,1.2,3.3.5,4.8,0,1.8-.5,3.3-1.6,4.9-2.6.4-.3.9-.6.5-1.4-.6-1.2.3-1.4,1.3-1.6,2.7-.6,5.5,0,8.3-.2,1.6-.1,2.9-.6,3.7-2,1.1-1.8,2.6-3.1,4-4.6,1.1.6.3,1.2.1,1.9Z"/>
        <path class="st2" d="M219.5,132c-1.5,1.3-1.3,3.6-2.7,5-.9.9-1.6,1.1-1.9-.2-.3-1.1-1.1-1.5-1.8-2.4-.4,1.1-1.1,1.5-1.7,2.1-1.1,1.2-2.1,1.4-3.2.1-.4-.4-1-1-1.4,0-.9,2-2.3,1.3-3.5.7-.8-.5-1.4-.6-2.2,0-.8.6-1.7,0-2.6-.1-.8-.2-1.5-.2-1.3,1,.2,1.1-.3,1.8-1.3,2.1-1.1.3-2.3.5-3.3-.4,0,0,0-.1-.1-.2-2.1-2.7-4.7-4.3-8.2-3.5-3.4.8-4.6-1.5-5.8-3.9-.6-1.2-1.1-2.6-1.7-3.8.1-.6-1-1.3.2-1.8.6,0,1.2,0,1.3.7.5,2.4,2.3,4,3.2,6.2.5,1.1,4.1,1.8,5.5,1,1.8-1,.2-2.1,0-3.1,0,0,0-.1,0-.2-.2-.6-.3-1.3.4-1.6.7-.3,1.5,0,1.9.6.3.5.6,1.1.5,1.6-.5,3.2,2.2,4.4,3.8,6.3.5.6,1.2.5,1.8.3.7-.3.4-1,.5-1.5.1-1.1-.7-1.7-1.2-2.6-.4-.7-1-1.4,0-2.1,1.1-.7,1.5.2,1.9.9.3.5.4,1.1.8,1.5.8,1.1,2,1.2,3.1.9,1.3-.3.2-1.1.2-1.7,0-.5,0-1.1.5-1.3.7-.3,1,.2,1.4.7.6.8.3,1.9,1.3,2.5.5.3.8.7,1.4.4.5-.2.4-.7.5-1.2.2-1,.1-1.9-.1-2.8-.2-.8,0-1.7.8-1.9.8-.1.9.9,1,1.4.2,1,.5,1.8.9,2.7.3.6.6,1.2,1.4,1.2.8,0,1.3-.4,1.6-1.2.3-.9,1-1.7.9-2.7,0-.6.4-1,.9-1,.8,0,.7.7.6,1.1,0,1.1.8,1.7,1.1,2.6.4,1.4.9,1,1.4.1.7-1.3,1.5-2.5,2.4-3.7.4.3,1,.4.7,1.1Z"/>
        <path class="st2" d="M219.5,132c.4-.7-.3-.8-.7-1.1.1-.6-.1-1.1-.5-1.6-2.5-3.2-5.1-6.3-7.5-9.5-.8-1-1.1-.4-1.6.2,0-.5,0-1-.8-.7-.4-1.1-.5-2.4-1.1-3.4-1.3-2.1-2.9-4-4.3-6.1-1.1-1.6-2.8-2.7-3.9-4.3-.3-.5-.8-.6-1.3-.2-.5.4-1,.8-1.4,1.3-3,2.9-5.5,6.2-9.5,8.1-1,.5-2.6,1.2-2.8,2.9-.7-.4-.5-1.8-1.7-1.7,1.5,0,2.2-1.4,3.2-2.1,4.2-3,7.8-6.6,11.4-10.2,1.1-1.2,2.6-.6,3.4.4,2.5,3.1,5.7,5.6,7.7,9.2,1.6,2.8,3.8,5.4,5.9,7.9,1.6,2,3.8,3.6,5,5.9.3.6.7,1.2,1.5.8,1.4-.8,1.5.1,1.2,1-.4,1.3.4,1.9,1.2,2.5,1.5,1,2.9,2.1,3.7,3.8.3.5.8,1.2-.1,1.6-.8.3-.8-.4-1.2-.9-1.3-1.6-2.9-2.9-4.5-4.3-.3-.3-.8.3-1.1.6Z"/>
        <path class="st2" d="M182.3,116c1.2,0,1,1.3,1.7,1.7.4,1.5,1.8,1.6,2.9,2.3,2.8,1.6,4.5.9,4.9-2.2.1-.8,0-1.8,1.1-1.6.9.1.6,1.1.6,1.8,0,1.8,1.3,3.3,3,3.5,1.9.2,2.3-.4,1.7-2.2-.2-.6-.4-1.2-.5-1.8-.1-.9,0-1.7,1-2,.9-.2,1.6.1,2.2.8.7.9.5,1.9.2,2.9-.2.7-.6,1.5.3,2,1.1.5,1.8,1.4,2.5,2.3,1.1,1.4,2.3,1.3,3.2-.2.7-1.2.9-2.6,1.3-3.9.7-.3.7.2.8.7-.1.9-.2,1.8-.4,2.7-.3,1.6-1.5,2.7-2.9,3.1-1.2.3-2.5-.4-3.3-1.6-.2-.3-.5-.6-.8-.8-1.1-.9-2.1-2.7-3.8-.6-.4.4-1.2.4-1.8.2-1.2-.3-2.3-.7-3.2-1.6-.5-.5-1-.6-1.7,0-1.5,1.3-3.1,1.1-4.7.1-1.5-.9-3.4-1.5-4-3.6-2.1,2.6-4,5-5.9,7.4-.4.2-.8.4-1.1.6.2-2,1.8-3.2,2.9-4.6,1.3-1.7,3-3.2,3.8-5.3Z"/>
        <path class="st2" d="M236.6,156.2c.2-.6.9-1.3-.1-1.9,0-.4.3-1,.2-1.1-1.8-.8-1.6-2.8-2.7-4.1-1.3-1.6-2.1-3.5-3.2-5.2-.3-.5-.4-1.1-.8-1.5-.7-.8-1.2-.5-1.4.4-.3-.3.1-1.3-.9-1.1.4-1.9,0-3.9.6-5.8.6.3.2,1.4,1.2,1.3-.3,1,0,1.9.6,2.6,2.3,2.5,3.3,5.9,5.5,8.6.1.1.3.4.2.5-.9,2.4,1.6,2.4,2.5,3.6.1.2.8,0,.8.4,0,2.5.8,4.8,1.6,7.1-1.3-.8-2.1-2-2.3-3.2-.3-1.6-1-1.1-1.8-.8Z"/>
        <path class="st2" d="M168.1,142.9c-1.3,3.2-2.6,6.3-4.3,9.3-2.7,4.9-4.5,10.2-5.6,15.8,0,.4-.3.8-.4,1.4-1-.7-.5-1.7-.3-2.3,1.5-6.5,3.7-12.7,7-18.5,1.1-2,1.7-4.2,2.6-6.4,1-.7.9.1,1,.7Z"/>
        <path class="st2" d="M169.1,139.2c.2-1.6,1-2.9,1.6-4.3.5-1.1,1.3-2.2,1.9-3.3.2,0,.5,0,.7,0-1,2.2-2.1,4.3-3,6.6-.3.7-1.1.4-1.3.9,0,0,0,0,0,0Z"/>
        <path class="st2" d="M173.4,131.7c-.2,0-.5,0-.7,0,.9-1.9,1.4-4.1,2.9-5.7.4-.2.8-.4,1.1-.6,0,.4-.2.9.2,1.2-1.3.4,0,1.2-.2,1.8-1.1-.6-1.5.2-1.6,1-.2,1.1-.9,1.8-1.7,2.5Z"/>
        <path class="st2" d="M168.1,142.9c0-.6,0-1.4-1-.7,0-.9.2-1.8.2-2.7.6,0,1.3.6,1.9-.2,0,0,0,0,0,0,.7,1.5-.4,2.5-1.1,3.6Z"/>
        <path class="st2" d="M235.8,209.5c-.4.7-1,1-1.7,1-1,0-.8-1-1.2-1.5-.3-.3,0-.6.2-.8.6-.3,1,0,1.3.5.3.5,1,.4,1.4.8Z"/>
        <path class="st2" d="M244.3,163.9c-.3,0-.4,0-.4,0-.4-.8-1.8-1.1-1.4-2.4,0-.1.4-.2.4-.2.5.8.9,1.6,1.4,2.5Z"/>
        <path class="st2" d="M229.6,137.3c-1,.1-.6-1-1.2-1.3,0-.4-.3-.9,0-1,.7-.3.6.4.8.7.4.5.3,1.1.3,1.6Z"/>
        <path class="st2" d="M99,268.4c-.3,0-.4.2-.6.1-.1,0-.4-.1-.2-.3,0,0,.2-.2.3-.1.1,0,.3.2.5.3Z"/>
        <path class="st2" d="M95.8,124.7c0,.2,0,.3,0,.5-.3.3-.6.6-.9.3-.4-.3-.2-.9.1-1.2.4-.3.7,0,.9.4Z"/>
        <path class="st2" d="M227.8,208.1c.3.3.4.5,0,.8-.8-.7-1.5-.8-2.2.5-.5-1-.2-1.7.3-1.9.6-.3,1.3,0,1.8.6Z"/>
        <path class="st2" d="M97.6,208.6c-1.1-.2-1,.6-.9,1.2,0,.8-.1,1.8.7,2.3,4.1,2.5,8.9,2.3,13.4,3.1,3.1.5,6.7.3,9.1,3,.2.2.4.3.7.2.4-.2.5-.6.5-1,0-1.4-.3-2.9-.5-4.2-.6-3.3-1-6.5-.8-9.8,0-.8-.4-.7-.8-.7-2.3,0-4.7-.5-7-.2-1.3.2-1.4.9-1.1,1.7.8,2.1.3,4.4.5,6.5,0,.8-.3,1.6.2,2.4.2.3.4,1.5-.9.7-.5-.4-.7.6-1.3.7-.6-.8-.7-1.7-.7-2.7-.1-2.6-.3-5.2-.3-7.7,0-1-.4-1.2-1.2-.9-3.1,1.2-6.7.9-9.7,2.7-1,.6-2.1-.2-3.8.2,1.5-1.5,2.1-3,2.4-4.7.9,1.7,1.7,2.8,3.2.8.5-.7,1.6-.2,2.4-.5,3.9-1.7,8.1-1.9,12.3-2.3,2.3-.2,4.6.6,6.9.4.7,0,1.1.7.9,1.2-.8,2.2,0,4.5-.3,6.7-.2,1.1.6,2.4,1,3.6.6,1.8,1.1,3.5,1,5.5-.1,2.6-1,5.1-.5,7.7,0,.2,0,.5.3.6.5-.9.1-1.6-.4-2.3-.3-.4-.4-1.1.2-1.4.5-.3.7.4.9.8,1.2,2.1.5,4.5-1.5,5.8-.7.5-1.2.4-1.9,0-2.2-1.4-4.8-.7-7.2-1.4-.1,0-.5.2-.5.3.2,1.8-1.9,1.6-2.3,3.1q-1.1-3.5-4.4-2.1c-.3.1-.8.4-.9.3-1.8-2.2-3.8,0-5.6-.4-.4,0-1,.3-1.2-.3-.2-.6.4-.7.8-.9,1.1-.6.5-1.2-.2-1.6-.8-.4-1-.7-.3-1.4.4-.4.2-.7-.1-1-1.5-1.5-1.6-3.3-1.8-5.3-.2-2.6-.5-5.2-1-7.7-.2-1.1,0-2,.5-3.3.5,1,1.3,1.3,1.2,2.2h0ZM102,215.4c-.3.8,1.2.9.3,1.5-.5.3-1.1.1-1.2-.7-.1-.8-.6-1-1.1-.3-.3.4-.7.6-1.2.3-.3-.2-.6-.4-.8,0-.2.3-.1.7.2.8.7.3.8.9.3,1.2-1.9.9.2,1.6,0,2.4,2.3.3,1,1.9,1,3,0,.9,0,1,.6.9,1.5-.3,1,.4.6,1.1-.3.4-.4.9.1,1.1.4.2,1.1.3,1-.6,0-.6.5-.6.8-.5,2,.7,4.1,0,6.1,0,.7,0,1.3-.3,1-1-.5-1.1-.1-2.1-.2-3.2-.1-1.6-1.2-2.6-2-3.8-.5-.8-1.3.2-2,0-.8-.3-2.1,0-2.1-.9,0-1.4-.9-1-1.5-1.3ZM112.2,223c0,1.6.3,2.8,2.5,2.4,1.8-.3,3.8-.4,5.5,0,.7.1.9.1,1.2-.3.3-.5-.5-4.8-1-5.1-.3-.2-.6-.2-.9-.2-2.1.1-3-.3-4.4-2-.1-.2-.4-.3-.7-.4-.5-.1-.9-.5-1.4,0-.9,1-1.9,2.1-1.3,3.5.3.7.3,1.3.4,2.1Z"/>
        <path class="st2" d="M100.8,166.5c-.4.2-.8.4-1.2.5-.4,0-.8.1-.8.6,0,.4.2.6.8.6.6,0,1,.3.8,1-.3.9-1,.8-1.7.9-.9.1-.7-.5-.7-1,0-.9.5-1.7,0-2.6-.4-.7.4-.7.9-.8.7-.2,1.5-.5,1.5-1.3,0-.9-1-.5-1.6-.5-.5,0-1.1.1-1.3-.6-.1-.6.5-.8.9-1.1.7-.6,1.5-.8,2.4-.8,1.5,0,2.8-1.1,4.1-1.6,3-1.2,6.1-1.7,9.2-2.1.9-.1,1.8,0,2.7,0,1.6,0,3.4,1.2,3.4,2.7-.1,2,.8,3.7,1.2,5.6.9,3.6,1.3,7.4,2.9,10.9.5,1-.4,1.5-1.1,2-1.2.8-2.6.5-4,.7-1.7.2-3.4-.2-5,.7,0,0-.1,0-.2,0-2.6-1.1-2.6,0-2.3,2.2.3,2.1-1.9,1-2.9,1.6-.7.5-.8-.7-.9-1.3,0-.4-.1-.9,0-1.3.2-1-.2-1.4-1.1-1.1-1.1.4-2.2.3-3.3.2-.6,0-1.3-.2-2,.7-.6.9-2.1.1-2.2-1-.2-2.6-1.3-5.1-1-7.8,0-.7,0-1,.8-1.1.8-.2,1.3.4,1.2.8-.4,1.7.7,3.2.6,4.7-.7.5-.9-.7-1.4-.3-.5.5.4.9.4,1.3.1,2.3,1.8,1.4,2.8,1.3,1-.1,2-.2,3.1-.3,2.9-.1,3.5-1,2.4-3.6-.3-.7-1.1-1.2.5-.9.4,0,.7-.6.6-1,0-.5-.6-.5-.9-.5-1.2-.1-2.5.4-3.6-.3-.5-.4-2.2,0-1.3-1.6,0,0-.1-.2-.2-.3-2.4-.4-1.6-2.7-2.3-4.1,1-.3,1,.6,1.3,1.1.3.5.5,1.5,1.1,1.4,1.4,0,1.9,1.1,2.8,1.7-.2.3-.6.8-.5.9.5.6,1.2.3,1.9.2-.6-.5-1-.8-1.5-1.1,1.3-.6,1-1.6.7-2.6-.4-2-2.1-3.7-1-6,.1-.3-.4-1.2-1.2-.6-1.7,1.3-4.3,1.9-3.6,4.9ZM108.8,170.1h0c0,0,0,0,0,0-.9-1.6-.3-3.6-1.2-5.2-.2-.3-.4-1,.2-1.1.6-.1.6.4.9.8,1,1.7.7,3.6,1.3,5.4.3.9.5,1.1,1.5.8,2.3-.6,4.4-1.6,6.8-1.6,1,0,1.1-.5.7-1.6-.7-1.7-2-3.3-1.6-5.3.3-1.7-1.2-2.3-2.1-2.5-2.3-.6-4.6.4-6.8.9-.4.1-2,1.1-1.2,2.4.2.5-.1.9-.2,1.3-.3,1.9,1,3.6,1,5.5,0,0,.6,0,.9.1ZM117.8,171c-.7-.1-1.2.2-1.7.4-1.3.4-2.7,1.1-4.1,1.2-1.5,0-1.5.8-1.3,1.9,0,.4.3.9.3,1.3,0,2.5.2,2.6,2.6,2.7,2.2,0,4.2-.8,6.4-.3.7.1.9-.5.8-1.3,0-1.6-1.7-2.6-1.5-4.3.2-1.4-.4-1.7-1.6-1.5ZM108.6,181.9c.8,0,1.6.3,2-.6.1-.3,0-.7-.3-.8-1-.2-1.2.6-1.6,1.4Z"/>
        <path class="st2" d="M75.2,192.7c.2-.4.8-.5,1.1-.8,1-.9,2.2-1.9,3.6-.5.2.2.6.4.9.3.8-.2,2,1,2.2,0,.3-1.1-1.1-.5-1.8-.7-.3-.1-.7-.2-.5-.6.2-.5.6-.7,1.1-.5,2.4.7,4.9.4,7.4.4,3.1,0,6.2-1,9.3-1,3.3,0,6.7-.3,10-.6,5.6-.6,11.2-1.5,16.8-2.2,3.3-.4,6.6-.8,9.9-1.2.4,0,1,0,1.3-.2.6-.3,1.3-.5,1.8-.1.7.5-.3,1.2-.2,1.9,0,.6-.8.7-1.4.7-4.3,0-8.4.7-12.6,1.6-.3,0-.7.2-.9.1-3.3-1.2-6.5.5-9.7.7-3.3.1-6.6,1.1-9.9.9-1.6,0-3.2.2-4.8.5-.5,0-1,.3-1.4-.2-.5-.7-.9-.4-1.2,0-.2.3-.5.4-.8.4-2.2,0-4.4.7-6.6,1.1-1,.2-1.5-.6-2.5-.6-3.7,0-7.3,1.5-11,.6Z"/>
        <path class="st2" d="M97.5,208.7c.3-.1.4.1.4.3,0,0,0,.1,0,.2-.1-.2-.2-.4-.3-.5,0,0,0,0,0,0Z"/>
        <path class="st2" d="M81.9,140c-.2-.8,0-1.2.6-1.5.3.7.3,1.1-.6,1.5Z"/>
        <path class="st2" d="M108.6,181.9c.5-.8.6-1.6,1.6-1.4.4,0,.4.5.3.8-.4.9-1.1.5-2,.6Z"/>
        <path class="st2" d="M105.9,170.7s0,0,0,0c.4.3.9.7,1.5,1.1-.8.1-1.4.4-1.9-.2,0-.1.3-.6.5-.9Z"/>
      </g>
      <path class="st2" d="M271.7,80.8c1.2,3.3,2.2,6.6,3.3,10,.7,2.1,1.9,4.2,2.5,6.4,1.2,3.6,3.1,6.9,3.5,10.9.3,2.9,1.1,5.9,2.4,8.8.7,1.5,1,3.5,1.2,5.3.5,4.2,1.5,8.2,2.3,12.4.3,1.3.5,2.3-1.4,2.8-3.6,1-7.3,1.1-10.9,1.5-4,.5-8.1.4-12.2.7-5.3.4-10.7,0-16,.4-.8,0-1.6-.5-2.4-.3-.3,0-.8.2-.9-.4,0-.5-.4-1.1.1-1.4,1.1-.6.5-.8,0-1.5-.7-1.1-1.8-2.4-.9-4,.2-.3.2-1,0-1.3-.9-1.1-.8-2.4-.8-3.7,0-4.4-1.3-8.6-1.7-12.9-.5-4.7-1.9-9.2-2.4-13.9-.3-3.2-.7-6.5-1.6-9.6-.6-2.1-.6-4.6-1.3-6.8,0-.2,0-.6.1-.7.5-.2,1.1-.4,1.5.3.1.7,0,1.7,1,.3.5-.8.5.4.9.3.7,3.7,1.5,7.3,1.7,11,0,.7-.3,1.6.9,1.9,1,.2,1.9.4,2.5-.7.6-1.1,1.7-1.5,2.8-1.9,1.1-.4,3,.8,2.7,1.9-.5,2.2.5,4.3.4,6.5,0,1.2.3,2.5,2,2.2.3,0,.7,0,.7.4,0,.3.1.8-.2.8-1.9.4-1.3,2-1,2.9.5,1.5-.3,1.6-1.3,1.5-1.1-.1-2.1,0-3.2,0-1.5,0-3,0-3.4-2.3-.4-2.1-1.3-4.3-1.3-7.1q-.7,1.6-.5,2.5c1.1,7.7,2.9,15.3,3.3,23.2.2,3.3.2,6.7,1.8,9.8.3.5.3,1.2,1,1.1,2.7-.3,5.5.4,8.3.1-.4-.9-1.1-1.5-1.3-2.4-.4-3.5-.8-6.9-.8-10.4,0-1.8-.3-4,.5-5.5,1-1.8,2.3-3.6,4.2-4.9,2.5-1.7,5.2-.9,6.1,2,.4,1.3.3,3,1,4,1.9,2.6,1.7,5.8,3.1,8.5,1,2,1.1,4.5,1.4,6.7.2,1.1.6,1.4,1.7,1.3,3.1-.3,6.2-.5,9.4-.8,1.1-.1,2.4-.1,3.1-.7,1.1-.8-.3-1.9-.3-3,0-3.1-.9-6.1-1.3-9.1-.8-4.9-2.8-9.5-3.7-14.3-.9-4.4-2.6-8.4-4-12.6-1.6-4.5-3.3-9-4.7-13.6.2-.3-.6-1.7.7-.8.7.5.7,0,.8-.3.2-.4-.3-1,.4-1.4ZM260.9,138.1c.6,0,1.3,0,1.9,0,3.8,0,4.4-.7,3.8-4.4,0-.3,0-.8-.4-.7-2.4.3-2.6-2-3.9-3-.4-.3-.5-.9,0-1.2.5-.3.9.1,1,.6.1.7.5,1.5,1.1,1.1.6-.4.5-1.5,0-2.1-.7-.7-1.2-1.7-1.1-2.4.7-3.4-1.8-6-1.9-9.2,0-1.1-1.9-1.6-2.3-.6-.8,1.8-1.7,3.4-3.2,4.7-1.5,1.3.8,3.4-1.1,4.5,1.5,2.7.6,5.7,1,8.6.6,4.3,1,4.5,5,4.2ZM242.7,106c1.5-1.3,2.7-1.2,4-.8.8.3,1.7.2,1.3-1-.6-1.8-.9-3.7-1.1-5.6-.1-1.1-.8-1.8-1.8-1.4-1.1.5-2.1,1.1-2.4,2.7-.3,1.9.4,3.6,0,6.1ZM245.6,107c-.3,0-.6,0-.8,0-.5.2-1.4-.2-1.4.6,0,.6.6,1.1,1.3,1.2,1,0,2,0,3.1.3.5.1.8-.3.9-.8.1-.5-.2-1-.6-1-.9,0-1.6-1-2.5-.3Z"/>
      <path class="st4" d="M238.1,84.3c-.4.1-.3-1.1-.9-.3-.9,1.4-.9.3-1-.3.9-.6,1-1.6,1.2-2.5.2-1.3.6-2.6,1.5-3.8.6.6.4,1.1.1,1.5-.5.8-.4,1.7.2,2.3.6.6,1.5.7,2.3.5,4.1-.9,8.2-2.4,12.4-2.9,3.6-.4,7.2-1.4,10.8-1.3,1.3,0,2-.6,1.8-1.6-.2-1.1.4-3-1.8-2.9.2-.3.2-.7,0-1,.6-.4.5-.9.3-1.4-1.8-4.1-2.4-8.5-3.7-12.7-1.5-4.7-3.6-9.1-6-13.4-.4-.8-1.1-.8-1.4-.2-.6,1.1-1.1,2.3-2.2,3-.2.2-.4.5-.1.8.6.8.1,1.3-.2,2.1-.7,1.5-1.6,2.9-2.8,4.2-.5-.2-.3-1.1-1-1.2-.4.5,0,.9.1,1.4.3.5.2,1.1.2,1.6-.3,0-.8-.4-.8,0-.1,1.5-1,2.7-1.6,4-.3.6,0,.9.4,1.3-.6,0-.7.6-.9,1.1-.6-.3-1-.3-1.1.4-.2,1.8-1.5,3.2-1.8,5-.3,1.6-1.7,3.2-.5,5-1.6-.8-.8.6-1,1.1-1.4,0-.8,1-.9,1.6-.1.9,0,1.7-1.4,1.5-.7,0-1,.5-1.3,1.1-.4.8-.9,1.7-1.3,2.5-.2.4-.5.9-.9.7-.5-.3-.1-.7,0-1.1,1.2-3.1,2.5-6.2,3.8-9.2,2.5-5.6,4.4-11.4,7.7-16.6,2.6-4.1,4.9-8.3,6.8-12.8.3-.6.6-1.2,1.3-1.2.7,0,1.1.5,1.4,1.1,4.9,7.8,7.4,16.5,10.1,25.2,1.3,4.1,2.3,8.5,5.1,12.1.4.5.5,1.3.7,1.9-.6.3-.2.9-.4,1.4-.2.4-.1.8-.8.3-1.3-.9-.5.5-.7.8-.9-1.2-1.2-2.7-1.8-4-.5-1-1.1-1.5-2.2-1-1.9.9-3.8,1.4-5.9,1-.2,0-.4,0-.6,0-4.9,1.4-10.2,1.7-15.1,3.5-1.5.6-3.2,1-4.9.5-.8-.3-1.1.4-1.3,1.1Z"/>
      <path class="st4" d="M240.4,74c.2-.5-.6-1.9,1-1.1,1.5,2.5,2.6,2.5,4.2,0,0,0,0-.1,0-.2.5-1.2,1.2-1,1.5,0,.3,1,1.3,1.4,1.7,2.3.3.6.9.4,1.3.2.4-.2.6-.6.4-1.1-.3-.8-.7-1.5-1.1-2.3-.3-.6-.1-1.2.5-1.5.8-.4,1,.3,1.2.8.2.4.1.9.3,1.3.4.9.7,2.4,2,2.2.8-.1.6-1.5.5-2.4,0-.7,0-1.4,1-1.3.6,0,.9.7.5,1.4-.5.8,0,1.6,0,2.5,0,.6.6,1,1.1,1.2.7.3.7-.5,1-.9.6-.7.8-1.6,1.7-2.1.7.4.8,2,1.9,1.3.9-.6-.2-1.3-.4-1.9-.3-.9.2-1.3,1.2-1,.8.2,1.6.4,2.4.6.2.3.2.7,0,1-.6,0-1.1.2-1.4,1-.6,2-1.4,2.3-3.2,1.6-.7-.3-1-.3-1.3.4-.9,1.6-1.8,1.8-3.2.7-.6-.5-1.2-.6-1.8-.8-1.4-.5-2.3-.7-3.3.8-.7,1-1.7.2-2.3-.7-1.6-2.2-1.6-2.2-3.4-.3-1.1,1.2-2.6,1.1-3.5-.4-.3-.4-.4-.9-.9-1.3Z"/>
      <path class="st4" d="M245.7,61.4c.8,1.2,1.2,2.7,2.4,3.6,1.5,1.2,2.7.8,3.2-1,.1-.5,0-1.3.9-1.2.9.2.7,1,.5,1.6-.2.7-.3,1.4-.2,2.1.2.8.4,1.8,1.5,1.5.9-.3,1.5-1.1,1-2.1-.2-.6-.9-1.2.1-1.6.8-.3,1.7-.4,1.9.9.3,1.5,1.6,1.2,2.6,1.2,1.4,0,.7-1,.8-1.7,0-.4.1-.9.7-.6,1,.7.5,1.8.6,2.7,0,.7-.3,1-1.1.9-.4,0-.9.2-1.3.1-1.6-.1-3.1-1.4-4.5.9-.7,1.2-2.5.9-3.2-.8-.4-1-.8-1.1-1.8-.9-2,.5-3.1-.8-4-2.3-.4-.7-.8-1.5-1.1-2.2.1-.5.3-1,.9-1.1Z"/>
      <path class="st4" d="M248.5,54.3c0,.4.1.8.2,1.1.3,1.1.8,1.6,1.8.5.3-.3.7-.5,1-.8,1.1-1.2,1.5-.5,1.7.6.2,1.1.1,2.4,1.8,2.5,1.8.1,2.7-.7,2.9-2.7,0-.6-.2-1.4.7-1.3.9.1.5,1,.4,1.4-.2,2-1.6,3.9-3,4.1-2,.3-3.2-.7-3.8-2.5-.2-.7-.4-1.4-1.3-.6q-1.9,1.8-3.2-.6c0-.6,0-1.1-.2-1.6-.2-.4-.5-.9-.1-1.4.7,0,.6.9,1,1.2Z"/>
      <path class="st2" d="M268.1,106c-3.9.7-7.8,1.5-11.7,0-.6-.2-1.1-.4-1.1-1.1-.2-3.1-1.1-6.2-.9-9.3,0-1.4-.4-2.8-.7-4.1-.1-.5-.2-1.1.3-1.6.5-.4.9-.3,1.4-.1.5.1.7.5.6.8-1.4,2.5.2,4.9,0,7.4,2.4-.8,4.7-1.1,7-.9.4,0,1,.2.9-.3-.2-1.1-.5-2.3-1.1-3.2-.4-.6-1.6-.3-2.4.2-1,.6-2,.7-3.1.3-.3-.1-.6-.2-.7-.6,0-.4.2-.7.5-.7,1.8-.2,3.3-1.8,5.5-1.1,1,.3,1.6.6,2.1,1.4,1,1.6,2.3,3.5,1.9,5-.7,2.7,1.9,4.5,1,6.9,0,.1.6.1.6,1ZM259,99.4c-1,0-1.5-.4-1.9.2-.9,1.2.3,4.9,1.8,5.1,1.3.2,2.6.2,3.8,0,3.1-.5,3.1-.5,2.2-3.6-.1-.4-.2-.9-.2-1.3,0-1.1-.6-1.2-1.6-1-1.5.4-3.2,0-4.2.6Z"/>
    </g>
  </g>
</svg>