<?xml version="1.0" encoding="utf-8"?>
<!-- Generator: Adobe Illustrator 24.3.0, SVG Export Plug-In . SVG Version: 6.00 Build 0)  -->
<svg version="1.1" id="Layer_1" xmlns="http://www.w3.org/2000/svg" xmlns:xlink="http://www.w3.org/1999/xlink" x="0px" y="0px"
	 viewBox="0 0 576 614.58" style="enable-background:new 0 0 576 614.58;" xml:space="preserve">
<style type="text/css">
	.st0{fill:#EFEFEF;}
	.st1{fill:#4C4C4C;}
	.st2{fill:#DADADA;}
	.st3{fill:#0A0C0F;}
	.st4{fill:#E01928;}
	.st5{fill:#020102;}
	.st6{fill:#020202;}
	.st7{fill:#292827;}
	.st8{fill:#282828;}
	.st9{fill:#831F23;}
	.st10{fill:#A90D22;}
	.st11{fill:#010101;}
	.st12{fill:#A30C24;}
	.st13{fill:#A80E23;}
	.st14{fill:#A70E23;}
	.st15{fill:#080402;}
	.st16{fill:#A10C23;}
	.st17{fill:#A70F23;}
	.st18{fill:#0E0403;}
	.st19{fill:#360709;}
	.st20{fill:#404140;}
	.st21{fill:#7A7A7A;}
	.st22{fill:#E12829;}
	.st23{fill:#919E94;}
	.st24{fill:#565F57;}
	.st25{fill:#F0EDE0;}
	.st26{fill:#EFEFE2;}
	.st27{fill:#F3F2E9;}
	.st28{fill:#F4F3EA;}
	.st29{fill:#F5EBE1;}
	.st30{fill:#9C574E;}
	.st31{fill:#F2EDE2;}
	.st32{fill:#ED2826;}
	.st33{fill:#838D90;}
	.st34{fill:#7C0D0D;}
	.st35{fill:#848E90;}
	.st36{fill:#E1DBCC;}
	.st37{fill:#66151F;}
	.st38{fill:#A02B32;}
	.st39{fill:#F0F1E5;}
	.st40{fill:#E9E8E0;}
	.st41{fill:#788282;}
	.st42{fill:#838C8F;}
	.st43{fill:#F4F4EA;}
	.st44{fill:#F3F1E9;}
	.st45{fill:#F1EEE5;}
	.st46{fill:#F5F3EE;}
	.st47{fill:#F2EEE5;}
	.st48{fill:#F4F3EB;}
	.st49{fill:#F5F4ED;}
	.st50{fill:#F1F1E7;}
	.st51{fill:#EEF1EB;}
	.st52{fill:#E8ECE4;}
	.st53{fill:#23272C;}
	.st54{fill:#F2F4EC;}
	.st55{fill:#E2E7DF;}
	.st56{fill:#EDF0E9;}
	.st57{fill:#F5F4EC;}
	.st58{fill:#F2ECE3;}
	.st59{fill:#D3ABA9;}
	.st60{fill:#DBBDB9;}
	.st61{fill:#75131E;}
	.st62{fill:#F1EAE3;}
	.st63{fill:#F3F1E8;}
	.st64{fill:#F2F3E7;}
	.st65{fill:#E7EAE2;}
	.st66{fill:#E3E8E1;}
	.st67{fill:#E8D4CE;}
	.st68{fill:#601317;}
	.st69{fill:#5D6060;}
	.st70{fill:#641718;}
	.st71{fill:#0E0E0D;}
	.st72{fill:#4F4A4A;}
	.st73{fill:#8B9894;}
	.st74{fill:#494A4A;}
	.st75{fill:#841A1D;}
	.st76{fill:#71191C;}
	.st77{fill:#AF2126;}
	.st78{fill:#F6F5E9;}
	.st79{fill:#F6F6EA;}
	.st80{fill:#F7F6E9;}
	.st81{fill:#381312;}
	.st82{fill:#D2D6CF;}
	.st83{fill:#A0B0AD;}
	.st84{fill:#761A1B;}
	.st85{fill:#74181A;}
	.st86{fill:#464846;}
	.st87{fill:#EAE2D7;}
	.st88{fill:#EFF0E1;}
	.st89{fill:#F3F0E0;}
	.st90{fill:#F2EFE1;}
	.st91{fill:#F3EFE1;}
	.st92{fill:#F0EBDA;}
	.st93{fill:#F4F1E4;}
	.st94{fill:#F0E8D8;}
	.st95{fill:#F5F3E2;}
	.st96{fill:#F3F0DE;}
	.st97{fill:#F3EDDA;}
	.st98{fill:#F2EAD7;}
	.st99{fill:#F3ECDA;}
	.st100{fill:#F1ECD9;}
	.st101{fill:#F1EAD7;}
	.st102{fill:#F0E4D1;}
	.st103{fill:#DAC3B8;}
	.st104{fill:#D4D6CB;}
	.st105{fill:#F5F4E6;}
	.st106{fill:#F6F4E7;}
	.st107{fill:#F1ECDB;}
	.st108{fill:#F2F2E3;}
	.st109{fill:#F5F3E6;}
	.st110{fill:#F4E9DA;}
	.st111{fill:#F3E8DA;}
	.st112{fill:#5F1417;}
	.st113{fill:#F3EBDA;}
	.st114{fill:#F1E9D6;}
	.st115{fill:#010102;}
	.st116{fill:#030101;}
	.st117{fill:#020101;}
	.st118{fill:#010202;}
	.st119{fill:#020203;}
	.st120{fill:#030203;}
	.st121{fill:#040303;}
	.st122{fill:#901923;}
	.st123{fill:#922C33;}
	.st124{fill:#645A58;}
	.st125{fill:#454444;}
	.st126{fill:#9A1522;}
	.st127{fill:#F4F2E9;}
	.st128{fill:#9D1424;}
	.st129{fill:#424142;}
	.st130{fill:#030202;}
	.st131{fill:#020103;}
	.st132{fill:#020303;}
	.st133{fill:#020302;}
	.st134{fill:#2B2F31;}
	.st135{fill:#717371;}
	.st136{fill:#D1D0CD;}
	.st137{fill:#717372;}
	.st138{fill:#9C2324;}
	.st139{fill:#CB3E3C;}
	.st140{fill:#2B2F30;}
	.st141{fill:#AE2B2C;}
	.st142{fill:#9C2426;}
	.st143{fill:#BCBDBA;}
	.st144{fill:#C83C3B;}
	.st145{fill:#982324;}
	.st146{fill:#9B2324;}
	.st147{fill:#727372;}
	.st148{fill:#727472;}
	.st149{fill:#CA3D3C;}
	.st150{fill:#747675;}
	.st151{fill:#747674;}
	.st152{fill:#2A2E2F;}
	.st153{fill:#2E3334;}
	.st154{fill:#747573;}
	.st155{fill:#D1CAC5;}
	.st156{fill:#CDC3C0;}
	.st157{fill:#2A2E30;}
	.st158{fill:#707271;}
	.st159{fill:#727473;}
	.st160{fill:#232323;}
	.st161{fill:#311A17;}
	.st162{fill:#DE3D3B;}
	.st163{fill:#6A6B6A;}
	.st164{fill:#6B6B6A;}
	.st165{fill:#6B6B6B;}
	.st166{fill:#6C6C6C;}
	.st167{fill:#696969;}
	.st168{fill:#6A696A;}
	.st169{fill:#FFFFFF;}
	.st170{fill:#6B6C6B;}
	.st171{fill:#FFFFFE;}
	.st172{fill:#D8D8D8;}
	.st173{fill:#9B9A99;}
	.st174{fill:#6C6D6D;}
	.st175{fill:#696967;}
	.st176{fill:#6A6A6A;}
	.st177{fill:#D8D8D7;}
	.st178{fill:#D8D7D5;}
	.st179{fill:#D8D9D6;}
	.st180{fill:#9A9B9C;}
	.st181{fill:#D9DAD9;}
	.st182{fill:#D7D7D5;}
	.st183{fill:#D9D9D7;}
	.st184{fill:#6C6C6D;}
	.st185{fill:#6D6D6D;}
	.st186{fill:#D9DBDA;}
	.st187{fill:#626564;}
	.st188{fill:#D8D8D6;}
	.st189{fill:#69696A;}
	.st190{fill:#F5F7F1;}
	.st191{fill:#1F2020;}
	.st192{fill:#F24966;}
	.st193{fill:#202121;}
	.st194{fill:#202120;}
	.st195{fill:#575858;}
	.st196{fill:#575757;}
	.st197{fill:#333334;}
	.st198{fill:#343435;}
	.st199{fill:#868787;}
	.st200{fill:#050202;}
	.st201{fill:#050303;}
	.st202{fill:#050302;}
	.st203{fill:#050203;}
	.st204{fill:#070404;}
	.st205{fill:#060303;}
	.st206{fill:#5A5B5A;}
	.st207{fill:#030304;}
	.st208{fill:#050404;}
	.st209{fill:#141617;}
	.st210{fill:#9E9FA2;}
	.st211{fill:#9D9FA1;}
	.st212{fill:#141616;}
	.st213{fill:#A0A1A3;}
	.st214{fill:#51555A;}
	.st215{fill:#9D9DA0;}
	.st216{fill:#52565B;}
	.st217{fill:#51342F;}
	.st218{fill:#3B3C41;}
	.st219{fill:#3B3C40;}
	.st220{fill:#393B40;}
	.st221{fill:#3B3B3F;}
	.st222{fill:#131616;}
	.st223{fill:#626469;}
	.st224{fill:#636569;}
	.st225{fill:#606368;}
	.st226{fill:#5E6167;}
	.st227{fill:#3F4044;}
	.st228{fill:#5F6166;}
	.st229{fill:#131516;}
	.st230{fill:#151717;}
	.st231{fill:#3C3D41;}
	.st232{fill:#393A3E;}
	.st233{fill:#3D3E41;}
	.st234{fill:#5D5F64;}
	.st235{fill:#5E6064;}
	.st236{fill:#3D3E42;}
	.st237{fill:#404043;}
	.st238{fill:#363739;}
	.st239{fill:#39383C;}
	.st240{fill:#5B5C60;}
	.st241{fill:#3A373A;}
	.st242{fill:#331C1A;}
	.st243{fill:#F4F4F1;}
	.st244{fill:#55585C;}
	.st245{fill:#5C5C60;}
	.st246{fill:#5C5B5F;}
	.st247{fill:#22201F;}
	.st248{fill:#3A3B3F;}
	.st249{fill:#626468;}
	.st250{fill:#5E6066;}
	.st251{fill:#282A2C;}
	.st252{fill:#3C3D42;}
	.st253{fill:#616369;}
	.st254{fill:#151616;}
	.st255{fill:#3B3D41;}
	.st256{fill:#3B3D40;}
	.st257{fill:#151718;}
	.st258{fill:#161818;}
	.st259{fill:#161717;}
	.st260{fill:#636368;}
	.st261{fill:#656064;}
	.st262{fill:#3C393B;}
	.st263{fill:#848589;}
	.st264{fill:#F1F1F0;}
	.st265{fill:#4F5250;}
	.st266{fill:#570E0C;}
	.st267{fill:#5A0C0B;}
	.st268{fill:#731A20;}
	.st269{fill:#4D4A4A;}
	.st270{fill:#590E0C;}
	.st271{fill:#563F3B;}
	.st272{fill:#0C1016;}
	.st273{fill:#0C0F17;}
	.st274{fill:#9B1328;}
	.st275{fill:#4F5351;}
	.st276{fill:#B9B8B8;}
	.st277{fill:#BAB9B9;}
	.st278{fill:#0F0F10;}
	.st279{fill:#AD3333;}
	.st280{fill:#131313;}
	.st281{fill:#AD3232;}
	.st282{fill:#666666;}
	.st283{fill:#7D2222;}
	.st284{fill:#646564;}
	.st285{fill:#A9AAA9;}
	.st286{fill:#656565;}
	.st287{fill:#101011;}
	.st288{fill:#0F1011;}
	.st289{fill:#7C201E;}
	.st290{fill:#7F2422;}
	.st291{fill:#111112;}
	.st292{fill:#101010;}
	.st293{fill:#111111;}
	.st294{fill:#4F4F4F;}
	.st295{fill:#812423;}
	.st296{fill:#262526;}
	.st297{fill:#A83131;}
	.st298{fill:#AB3231;}
	.st299{fill:#4C4C4D;}
	.st300{fill:#210A0A;}
	.st301{fill:#B1BCBB;}
	.st302{fill:#0E0F10;}
	.st303{fill:#0E0E0F;}
	.st304{fill:#7F2120;}
	.st305{fill:#646464;}
	.st306{fill:#802220;}
	.st307{fill:#666565;}
	.st308{fill:#101111;}
	.st309{fill:#121212;}
	.st310{fill:#832020;}
	.st311{fill:#782120;}
	.st312{fill:#802222;}
	.st313{fill:#11100F;}
	.st314{fill:#100F0F;}
	.st315{fill:#241111;}
	.st316{fill:#AB3233;}
	.st317{fill:#AA3232;}
	.st318{fill:#7D201F;}
	.st319{fill:#262627;}
	.st320{fill:#C6CDCC;}
	.st321{fill:#252626;}
	.st322{fill:#29292A;}
	.st323{fill:#1F1F20;}
	.st324{fill:#B0B3AF;}
	.st325{fill:none;stroke:#656565;stroke-width:7;stroke-miterlimit:10;}
</style>
<g>
	<path class="st0" d="M0,614.58C0,409.74,0,204.89,0,0c191.97,0,383.95,0,576,0c0,204.83,0,409.7,0,614.58
		C384.01,614.58,192.01,614.58,0,614.58z"/>
	<path class="st4" d="M265.23,313.76c-1.84-0.66-3.79-0.47-5.69-0.69c-15.6-1.81-30.84-5.24-45.65-10.46
		c-17.7-6.25-33.97-15.06-48.18-27.42c-5.79-5.04-11.01-10.65-15.39-16.99c-0.18-0.26-0.44-0.46-0.66-0.68
		c-0.82-0.12-1.16-0.79-1.54-1.39c-4.22-6.65-7.51-13.69-9.14-21.45c-0.51-2.41-0.28-4.9-0.85-7.3c-0.24-5.35-0.18-10.69,0.69-16
		c1.74-10.51,5.93-19.98,12.08-28.62c5.65-7.93,12.52-14.67,20.19-20.63c16.37-12.73,34.87-21.11,54.69-26.84
		c13.24-3.82,26.74-6.26,40.44-7.51c11.08-1.01,22.19-0.88,33.29-0.6c9.44,0.23,18.78,1.44,28.08,2.99
		c13.83,2.31,27.31,5.95,40.31,11.2c17.32,6.99,33.31,16.16,46.62,29.5c8.98,9,16.01,19.25,19.87,31.48
		c1.69,5.37,2.5,10.88,2.58,16.5c0.04,2.55-0.05,5.1-0.09,7.66c-1.08,15.49-8.64,27.82-18.65,39.1
		c-11.17,12.57-24.89,21.55-39.71,29.06c-3.41,1.72-6.79,3.54-10.43,4.78c-1.62,0.64-3.31,1.12-4.87,1.92
		c-2.68,1.16-5.46,2.03-8.22,2.95c-0.66,0.03-1.24,0.33-1.85,0.55c-11.12,3.88-22.56,6.39-34.19,8.07
		c-11.38,1.64-22.84,2.59-34.33,2.47c-5.64-0.06-11.32-0.13-16.95-0.85C266.81,314.44,265.93,314.4,265.23,313.76z"/>
	<path class="st209" d="M355.86,364.63c0.66-0.83,1.6-0.55,2.43-0.56c6.1-0.04,12.2-0.06,18.29-0.08c0.5-0.12,0.89,0.11,1.27,0.38
		c3.97,3.78,7.82,7.69,11.71,11.56c3.31,2.73,6.23,5.87,9.33,8.82c1.3,1.23,1.94,2.55,1.89,4.38c-0.07,2.6-0.22,5.22,0.11,7.82
		c2.61,2.48,5.73,4.29,8.64,6.35c10.21,7.22,20.47,14.37,30.71,21.55c0.39,0.27,0.72,0.61,1.08,0.91c3.77,3.3,7.32,6.84,11.05,10.18
		c0.72,0.65,1.73,1.25,1.47,2.53c-3.16,2.16-6.62,3.81-9.93,5.71c-6.28,3.6-12.73,6.9-19.01,10.5c-6.08,3.49-12.27,6.77-18.4,10.17
		c-6.33,3.51-12.64,7.05-18.96,10.57c-5.08,2.83-10.15,5.65-15.24,8.47c-4.73,2.62-9.47,5.25-14.21,7.84
		c-0.68,0.37-1.3,0.98-2.19,0.83c-1.24-1.44-0.86-3.19-0.86-4.83c-0.02-37.64-0.02-75.28-0.02-112.92c0-1.6,0.03-3.2-0.01-4.79
		C354.98,368.19,355.25,366.38,355.86,364.63z"/>
	<path class="st210" d="M355.86,364.63c0.03,7.19,0.09,14.37,0.1,21.56c0.02,34.35,0.02,68.69,0.02,103.04
		c0,1.12-0.04,2.24-0.06,3.35c-0.79,0.04-1.59,0.11-2.38,0.11c-12.29,0.01-24.57-0.02-36.86,0.02c-4.77,0.01-9.54,0.26-14.31,0.23
		c-6.7-0.04-13.39-0.36-20.09-0.23c-4.05,0.08-8.1,0.17-12.14,0.24c-0.2,0-0.4-0.2-0.59-0.3c0.77-2.07,2.42-3.52,3.73-5.21
		c11.63-14.98,23.31-29.93,34.99-44.87c6.14-7.85,12.14-15.8,18.37-23.58c0.55-0.69,1.09-1.38,1.99-1.64
		c1.92-2.18,2.9-4.91,4.21-7.43c3.19-6.14,6.25-12.35,9.37-18.53c4.23-8.39,8.45-16.79,12.66-25.18
		C355.14,365.65,355.3,365.02,355.86,364.63z"/>
	<path class="st211" d="M242.1,408.58c-5.7,10.87-11.39,21.74-17.12,32.6c-5.17,9.8-10.39,19.59-15.58,29.38
		c-0.34,0.63-0.71,1.26-0.92,1.94c-0.12,0.38,0.36,0.4,0.65,0.46c-0.86,1-1.57,0.22-2.28-0.22c-3.17-1.99-6.34-4.01-9.51-6
		c-10.66-6.7-21.31-13.42-32.01-20.07c-1.42-0.88-2.01-1.96-2.36-3.58c-1.21-5.6-2.67-11.15-4-16.73
		c-1.67-6.97-3.32-13.95-4.98-20.92c-1.07-4.49-2.12-8.99-3.18-13.48c-0.05-0.23-0.14-0.47,0.11-0.71c3.07,1.45,5.79,3.55,8.76,5.23
		c0.49,0.28,0.93,0.62,1.5,0.69c3.22-1.34,6.46-1.19,9.71-0.11c1.07,3.76,1.24,7.5-0.13,11.23c3.83,2.32,7.92,4.13,11.89,6.16
		c5.9,3,11.81,5.99,17.71,8.98c2.56,1.3,5.14,2.56,7.71,3.85c1.13,0.57,2.06,0.6,3.3-0.17c7.99-4.98,16.06-9.84,24.12-14.71
		C237.67,411.09,239.89,409.85,242.1,408.58z"/>
	<path class="st212" d="M328.61,417.36c-3.58,4.68-7.15,9.37-10.76,14.02c-3.22,4.15-6.49,8.27-9.73,12.41
		c-6.08,7.78-12.16,15.56-18.24,23.34c-6.27,8.03-12.54,16.07-18.79,24.11c-0.44,0.57-0.84,1.16-1.56,1.42
		c-8.69-5.44-17.38-10.89-26.07-16.33c-0.47-0.29-0.9-0.63-1.36-0.94c-1.44-0.95-3.5-1.42-4.18-2.93c-0.63-1.41-0.22-3.29-0.28-4.97
		c-0.09-2.47-0.19-4.95-0.28-7.42c1.17-1.31,2.86-1.7,4.36-2.42c8.14-3.89,16.3-7.71,24.47-11.54c9.25-4.33,18.53-8.63,27.78-12.97
		c6.57-3.08,13.12-6.23,19.68-9.33c4.55-2.14,9.11-4.25,13.67-6.36C327.72,417.27,328.15,416.86,328.61,417.36z"/>
	<path class="st212" d="M170.68,397.26c-3.16-0.23-6.33-0.13-9.5-0.09c1.52-4.44,3.37-8.75,5.16-13.09
		c4.38-10.67,8.75-21.34,13.14-32c2.99-7.27,6.01-14.54,9.02-21.81c0.2-0.49,0.23-1.13,0.97-1.18c0.99,0.54,1.33,1.52,1.78,2.46
		c2.51,5.16,3.48,10.48,3.35,16.32c-0.33,15.54-0.11,31.09-0.13,46.64c0,0.85,0.29,1.75-0.27,2.55c-0.27,0.07-0.53,0.14-0.8,0.22
		c-1.52,0.56-3.09,0.76-4.7,0.76c-4.87,0-9.73,0.01-14.6-0.01C172.91,398.02,171.7,398.06,170.68,397.26z"/>
	<path class="st213" d="M168.84,334.86c-4.79,11.55-9.57,23.1-14.36,34.65c-1.68,4.05-3.4,8.08-5.11,12.12
		c-0.15,0.35-0.18,0.79-0.87,0.99c-0.45-1.89-0.9-3.77-1.35-5.66c-2.36-9.91-4.65-19.84-7.13-29.73c-0.7-2.78-0.21-5.38,0.31-8.03
		c1.32-6.72,2.71-13.42,4.08-20.13c0.46-2.26,0.95-4.51,1.42-6.77c0.69-0.2,1,0.35,1.38,0.72c7.09,6.85,13.86,14.01,20.91,20.9
		C168.4,334.2,168.58,334.55,168.84,334.86z"/>
	<path class="st214" d="M194.2,397.05c-0.01-18.02-0.03-36.03-0.02-54.05c0-1.21-0.19-2.32-0.66-3.47
		c-1.43-3.45-2.71-6.96-4.05-10.45c2.51,0.56,4.63,2.02,6.9,3.1c11.5,5.49,22.98,11.04,34.45,16.6
		c10.39,5.04,20.76,10.13,31.14,15.2c0.48,0.23,0.94,0.52,1.4,1.11c-0.58,0-1.15,0.03-1.73,0c-9.64-0.57-19.28-1.15-28.92-1.71
		c-6.21-0.36-12.43-0.72-18.65-1.01c-1.21-0.06-2.08-0.4-2.88-1.33c-4.81-5.64-9.66-11.23-14.51-16.84
		c-0.55-0.64-1.13-1.26-1.86-2.07c-0.39,1.21-0.26,2.15-0.26,3.07c-0.01,16.45-0.01,32.89-0.03,49.34
		C194.52,395.38,194.9,396.3,194.2,397.05z"/>
	<path class="st212" d="M388.99,311.85c1.34,0.23,0.93,1.31,0.94,2.09c0.04,4.22,0.03,8.45,0.04,12.68c0,4.94,0,9.89,0.01,14.83
		c0,0.08-0.02,0.17,0,0.24c0.23,0.73-0.56,2.08,0.78,2.08c1.08,0,0.65-1.26,0.67-1.97c0.06-2.31,0.04-4.62,0.05-6.94
		c0-0.48,0.03-0.96-0.01-1.43c-0.1-1.19,0.44-1.91,1.48-2.45c3.39-1.76,6.63-3.79,9.82-5.88c2.99-1.97,5.88-4.07,8.52-6.51
		c4.16-3.84,8.17-7.81,11.42-12.46c1.5-2.15,2.78-4.44,4.16-6.67c0.25-0.4,0.42-0.87,0.91-1.06c-0.76,3.43-2.28,6.59-3.55,9.83
		c-5.63,14.33-11.57,28.55-17.55,42.74c-0.32,0.76-0.34,1.78-1.38,2.08c-3.53-0.65-6.32-2.96-9.59-4.2
		c-0.74-0.28-1.4-0.76-2.18-0.99c-2.59-1.14-5.1-2.46-7.61-3.76c-0.81-0.42-2.06-0.67-1.63-2.12c0.74-0.54,1.56-0.42,2.29-0.11
		c1.92,0.81,2.14-0.19,2.14-1.77c-0.03-8.55,0.01-17.1-0.02-25.65C388.69,313.56,388.52,312.66,388.99,311.85z"/>
	<path class="st215" d="M138.13,227.38c0.72,1.11,0.66,2.45,0.84,3.66c1.26,8.64,4.63,16.44,9.12,23.82
		c0.54,0.88,1.04,1.77,1.56,2.66c-0.04,1.91-0.1,3.81-0.11,5.72c-0.01,11.05-0.01,22.11-0.01,33.16c0,1.36-0.09,2.7-0.46,4.01
		c-0.93,0.49-1.49-0.21-2.09-0.68c-3.01-2.31-6.09-4.55-8.97-7.04c-0.58-1.69-0.28-3.43-0.14-5.13c0.1-1.28,0.19-2.53-0.03-3.8
		c-0.34-1.99,0.18-3.97,0.17-5.96c-0.01-16.01,0-32.03,0.01-48.04C138.04,228.97,138.1,228.17,138.13,227.38z"/>
	<path class="st209" d="M138.02,292.69c0.42-0.48,0.68-0.05,0.97,0.17c2.84,2.18,5.67,4.37,8.51,6.54c0.49,0.38,0.89,0.94,1.58,1
		c3.07,2.9,6.58,5.23,9.85,7.88c4.76,3.85,9.57,7.65,14.42,11.41c1.02,0.79,1.12,1.49,0.65,2.6c-1.76,4.17-3.45,8.37-5.16,12.56
		c-0.41,0.12-0.77,0.06-1.08-0.27c-7-7.41-14.28-14.53-21.49-21.73c-0.17-0.17-0.3-0.37-0.45-0.55
		C143.38,305.7,140.71,299.19,138.02,292.69z"/>
	<path class="st216" d="M170.68,397.26c7.57-0.14,15.15-0.22,22.72,0.01c-1.37,1.27-3.17,1.79-4.78,2.59
		c-5.69,2.82-11.44,5.51-17.17,8.25c-0.21,0.1-0.46,0.13-0.69,0.19C170.73,404.62,170.7,400.94,170.68,397.26z"/>
	<path class="st217" d="M453.86,438.49c-1.38-1.65-2.98-3.07-4.57-4.52c-2.81-2.57-5.73-5.04-7.95-8.19
		c3.56,1.95,6.63,4.62,10.02,6.83c1.93,1.25,3.77,2.64,5.85,4.11C455.99,437.36,455.08,438.2,453.86,438.49z"/>
	<path class="st212" d="M202.98,159.91c-0.38,0.23-0.73,0.23-1.11-0.01c-3.08-1.96-6.07-4.05-9.06-6.42
		c2.27-1.64,4.6-2.68,6.87-3.77c12.57-6.04,25.66-10.61,39.28-13.58c10.53-2.29,21.16-3.97,31.94-4.68
		c6.46-0.43,12.91-0.78,19.38-0.73c0.78,0.01,1.6-0.2,2.33,0.3c1.38,2.63,0.8,5.4,0.55,8.13c-0.11,1.24-1.14,1.29-2.16,1.29
		c-3.17-0.03-6.34-0.02-9.51,0c-0.78,0.01-1.59-0.16-2.34,0.19c-0.18,1.11,0.02,2.22,0.08,3.32c1.19,2.62,0.68,5.45,0.96,8.18
		c0.07,0.67-0.47,1.15-1.02,1.52c-9.58,0.47-19.06,1.72-28.43,3.74c-9.77,2.11-19.22,5.15-28.34,9.31
		c-8.78,4.01-16.87,9.01-24.2,15.25c-5.94,5.06-10.9,10.96-14.79,17.74c-0.36,0.62-0.79,1.19-1.19,1.79
		c-3.77,5.14-8.37,9.64-11.5,15.29c-2.18,3.94-4.08,7.95-5.26,12.3c-0.22,0.83-0.1,1.99-1.4,2.19c-1.24-5.19-1.39-10.45-0.74-15.7
		c1.5-12.15,7.06-22.39,15.02-31.49c7.08-8.09,15.69-14.24,24.92-19.58c11.26-6.52,23.34-11.05,35.9-14.34
		c6.8-1.78,13.68-3.15,20.63-4.15c0.32-0.05,0.65-0.04,0.95-0.14c0.58-0.17,1.43-0.06,1.52-0.88c0.1-0.87-0.16-1.75-0.59-2.52
		c-0.11-0.2-0.56-0.28-0.86-0.28c-0.72-0.01-1.45-0.03-2.15,0.09c-12.75,2.23-25.41,4.79-37.55,9.44
		C210.75,155.9,205.71,158.26,202.98,159.91z"/>
	<path class="st218" d="M279.16,140.59c0.66-0.66,1.5-0.42,2.27-0.42c3.03-0.03,6.06,0,9.09-0.03c2-0.02,2.02-0.04,2.05-1.97
		c0.04-2.39,0.04-4.78,0.05-7.17c6.57-0.22,13.08,0.53,19.59,1.14c5.4,0.51,10.77,1.26,16.1,2.27c7.06,1.34,14.06,2.84,20.94,4.97
		c5.49,1.7,10.97,3.44,16.28,5.63c10.97,4.51,21.4,9.98,31.08,16.89c6.01,4.29,11.45,9.19,16.46,14.58
		c8.71,9.38,14.68,20.29,17.4,32.82c1.26,5.8,1.07,11.74,0.48,17.65c-0.09,0.95-0.27,1.89-0.41,2.84c-1.1,0.01-1.21-0.86-1.43-1.61
		c-2.83-9.71-7.62-18.39-13.97-26.23c-0.69-0.85-1.19-1.82-1.84-2.69c-0.79-0.73-1.12-1.73-1.61-2.64
		c-5.09-9.48-11.92-17.5-20.25-24.28c-10.24-8.34-21.74-14.44-33.97-19.3c-13.41-5.32-27.34-8.7-41.55-10.78
		c-11.3-1.66-22.71-2.03-34.13-1.68C280.92,140.6,280.04,140.59,279.16,140.59z"/>
	<path class="st219" d="M266.2,158.73c2-0.64,4.1-0.48,6.15-0.69c8.19-0.88,16.43-1.02,24.64-0.49c11.88,0.76,23.6,2.56,35.05,6
		c14.22,4.28,27.43,10.54,38.92,20c8.43,6.94,15.23,15.25,18.9,25.75c2.37,6.81,3.18,13.81,2.12,20.97
		c-0.15,0.99,0.22,2.11-0.58,2.98c-0.81-0.26-0.98-0.99-1.18-1.67c-3.05-10.44-9.63-18.38-17.84-25.16
		c-1.37-1.15-2.17-2.76-3.15-4.19c-2.59-3.79-5.86-6.94-9.09-10.16c-1.99-1.98-4.04-3.38-6.85-1.51c-2.54-0.33-4.66-1.62-6.76-2.94
		c-0.72-1.3-0.3-2.77-0.64-4.13c-0.27-1.79-1.78-2.34-3.1-3.04c-10.68-5.67-22.04-9.27-33.96-11.14c-2.2-0.35-14.71-1.58-16.43-1.59
		c-2.63-0.01-5.27,0.15-7.9-0.07c-1.86-0.16-4.81-0.02-6.67,0.19c-2.54,0.28-5.1,0.31-7.62,0.74c-1.1,0.19-2.23,0.21-3.25-0.43
		c-0.68-0.54-1.02-1.31-0.9-2.09C266.42,163.59,266.1,161.16,266.2,158.73z"/>
	<path class="st209" d="M351.12,282.11c-4.71,2.56-9.62,4.67-14.64,6.55c-0.97,0.36-5.03,1.87-6.24,2.12
		c-3.67,0.79-7.16,2.25-10.87,2.89c-0.79,0.13-1.39,0.39-1.33,1.34c0.92,2.76,0.65,5.61,0.65,8.44c0,1.25,0.17,1.72-0.93,2.21
		c-5.22,1.73-11.5,2.64-16.92,3.32c-0.48,0.06-0.95-0.04-1.38-0.27c-1.41-1.34-0.88-3.1-0.97-4.71c-0.07-1.18-0.07-2.37,0.06-3.55
		c0.02-2.07-1.12-2.69-3.04-2.71c-6.04-0.05-12.07,0.27-18.11,0.06c-5.18-0.18-10.32-0.58-15.43-1.37
		c-1.08-0.17-2.26-0.18-2.92-1.33c-0.64-3.24-0.59-6.48-0.04-9.73c0.97-1.51,2.4-0.94,3.69-0.73c7.82,1.26,15.71,2.06,23.6,1.94
		c17.67-0.27,34.84-3.4,50.87-11.12c10.86-5.23,20.9-11.72,28.61-21.28c4.95-6.14,8.46-12.94,10.11-20.68
		c0.25-1.15-0.03-2.62,1.46-3.25c0.97,0.73,0.9,1.82,0.89,2.83c-0.05,6.91,0.44,13.85-0.55,20.72c-0.57,3.98-0.89,8.11-3.69,11.39
		c-1.58,2.35-3.87,3.98-5.99,5.75c-4.22,3.53-8.76,6.6-13.55,9.3C353.3,280.9,352.9,281.18,351.12,282.11z"/>
	<path class="st212" d="M266.2,158.73c0.93,1.75,0.35,8.03,0.95,9.24c-0.07,0.1-0.15,0.19-0.22,0.29c-0.5,0.39-1.08,0.59-1.68,0.76
		c-6.93,1.52-13.94,2.68-20.62,5.21c-0.74,0.28-13.18,5.53-14.54,6.25c-6.88,3.65-13.2,8.04-18.63,13.65
		c-3.05,3.16-5.34,6.95-8.31,10.18c-8.2,6.87-14.33,15.16-17.67,25.41c-0.24,0.73,0.03,1.87-1.25,1.97
		c-0.77-1.2-0.73-2.62-0.87-3.93c-0.91-8.35,0.39-16.34,3.96-24.01c4.84-10.4,12.63-18.16,21.76-24.68
		c9.03-6.44,19.03-11.05,29.57-14.48c8.67-2.82,17.51-4.9,26.6-5.81C265.56,158.74,265.88,158.74,266.2,158.73z"/>
	<path class="st220" d="M299.28,300.37c0.01,1.97,0.01,3.93,0.05,5.9c0.02,0.76,0.5,3.47,0,3.97c-5.64,0.26-11.27,0.75-17.02,0.55
		c-1.43,0.05-2.45-0.03-2.85-0.05c-12.83-0.67-25.61-1.79-38.17-4.68c-6.63-1.59-13.41-3.18-14.99-3.66
		c-6.36-1.92-12.69-3.96-18.73-6.77c2.75-1.92,2.93-4.71,2.77-7.72c-0.07-1.38-0.57-3.05,1.12-4.02
		c10.36,4.62,20.89,8.76,31.97,11.34c8.63,2.01,17.35,3.53,26.17,4.33c9.15,0.84,18.31,0.68,27.47,0.16
		C297.9,299.67,298.67,299.72,299.28,300.37z"/>
	<path class="st221" d="M279.19,153.62c0.45-0.89,0.05-7.4,0.06-9.7c0.63,0.06,1.27,0.18,1.9,0.16c7.03-0.26,14.05,0.24,21.06,0.47
		c5.26,0.17,10.47,1.02,15.66,1.88c10.01,1.66,19.88,3.86,29.5,7.13c9.32,3.17,18.29,7.11,26.79,12.08
		c0.61,0.35,1.28,0.64,1.83,1.38c-1.55,1.62-3.72,2.34-5.48,3.65c-1.14,0.85-2.52,1.39-3.68,2.23c-1.13,0.83-2.02,0.77-3.23,0.06
		c-10.71-6.31-22.06-11.07-34.13-14.15c-5.65-1.44-11.32-2.7-17.1-3.45c-0.54-0.07-7.25-0.91-12.55-1.31
		C292.72,153.43,285.95,153.57,279.19,153.62z"/>
	<path class="st212" d="M188.48,168.86c-4.33,3.35-8.58,6.8-12.42,10.73c-4.64,4.74-8.62,9.95-11.75,15.8
		c-0.67,1.26-1.44,2.46-2.17,3.69c-2.5,4-5.69,7.49-8.21,11.49c-3.43,5.47-6.03,11.24-7.64,17.48c-0.28,1.07-0.13,2.53-1.78,2.75
		c-2.79-17,1.67-32.23,11.42-46.1c6.16-8.76,13.87-16,22.48-22.3c3.21-2.35,6.37-4.75,10.08-6.31c1.5,2.6,0.63,5.45,0.8,8.18
		C189.41,165.83,189.53,167.47,188.48,168.86z"/>
	<path class="st222" d="M380.2,287.83c-1.49,1.38-3.34,2.15-5.11,3.05c-1.56,0.79-3.2,1.44-4.75,2.26c-1.21,0.64-2.2,0.55-3.29-0.3
		c-3.21-2.5-6.48-4.91-9.71-7.38c-1.34-1.02-1.34-1.3,0.19-2.13c4.28-2.33,8.36-4.97,12.22-7.94c10.82-8.31,19.39-18.37,24.46-31.21
		c1.77-4.48,2.54-9.19,3.44-13.88c1.53,0.39,1.16,1.71,1.26,2.73c0.32,3.35-0.36,6.66-0.47,9.99c-0.13,3.82-0.08,7.63-0.08,11.44
		c0.33,1.86-0.32,3.49-1.16,5.09l-0.06,0c-0.32,1.26,0.27,2.61-0.36,3.84c-2.98,9-8.2,16.57-14.81,23.25
		C381.47,287.15,380.88,287.58,380.2,287.83z"/>
	<path class="st218" d="M390.06,197.69c-3.59-5.32-7.67-10.21-12.52-14.44c-2.1-1.83-4.31-3.55-6.48-5.31
		c-0.54-0.44-1.22-0.73-1.55-1.4c0.26-0.8,0.99-1.06,1.57-1.43c2.64-1.65,5.34-3.19,7.95-4.88c0.91-0.59,1.5-0.49,2.33,0.08
		c5.21,3.6,10.02,7.67,14.3,12.33c3.96,4.3,7.35,9.01,10.21,14.13c3.19,5.73,5.12,11.84,6.12,18.28c0.21,1.34,0.31,2.69,0.45,4.04
		c0.11,1.06-0.23,1.69-1.43,1.63c-1.27-0.06-2.56,0.13-3.82-0.15c-0.59-0.45-0.95-1.07-1.26-1.73c-3.19-6.82-8.18-12.34-13.02-17.96
		C391.99,199.81,391.27,198.52,390.06,197.69z"/>
	<path class="st223" d="M374.02,265.21c1.1-3.22,2.28-6.42,2.69-9.83c0.27-2.28,0.62-4.56,0.68-6.85
		c0.14-5.24,0.12-10.48,0.15-15.72c0-0.87,0.05-1.75-0.32-2.58c-0.85-0.45-0.58-1.25-0.52-1.91c0.63-6.84-0.74-13.3-3.59-19.5
		c-0.41-0.9-1.1-1.82-0.45-2.91c4.51,3,7.74,7.22,11.05,11.39c3.78,4.75,6.11,10.17,7.7,15.96c-0.82,6.14-2.89,11.88-5.87,17.27
		c-2.7,4.88-6.05,9.32-9.86,13.41C375.2,264.43,374.8,265.08,374.02,265.21z"/>
	<path class="st224" d="M144.52,230.8c0.6-0.39,0.7-1,0.83-1.64c1.12-5.44,3.13-10.58,5.85-15.37c3.03-5.33,6.37-10.49,10.94-14.72
		c-0.67,2.2-1.63,4.3-2.33,6.49c-1.88,5.9-2.66,11.92-2.47,18.1c0.04,1.28,0.59,2.49,0.36,3.79c0.3,4.85,0.6,9.7,0.4,14.56
		c-0.25,5.96,0.33,11.8,2.19,17.49c0.31,0.96,0.72,2-0.11,2.95c-1.91-1.61-3.23-3.72-4.68-5.7c-2.92-4.01-5.29-8.37-7.17-12.94
		C146.61,239.64,145.07,235.35,144.52,230.8z"/>
	<path class="st225" d="M164.09,231.24c1.04-2.64,1.56-5.45,2.71-8.08c2.5-5.72,5.74-10.95,9.71-15.73
		c1.22-1.46,2.53-2.85,3.73-4.32c0.57-0.7,1.23-1.23,2-1.65c-0.89,2.46-1.88,4.9-2.67,7.4c-1.96,6.23-2.69,12.6-1.79,19.11
		c1.09,9.89-0.76,20.06,2.8,29.72c0.33,0.89,0.55,1.86-0.21,2.7c-6.53-6.69-11.52-14.36-14.74-23.16
		C164.91,235.28,164.36,233.3,164.09,231.24z"/>
	<path class="st226" d="M184.23,231.69c1.19-4.39,2.85-8.58,5.22-12.47c3.25-5.34,7.24-10.07,11.84-14.28
		c0.47-0.43,0.99-0.8,1.6-1.02c0.58,0.78,0.23,1.55-0.12,2.25c-3.71,7.42-4.98,15.24-3.82,23.45c0.04,0.32,0.02,0.64,0,0.96
		c-0.15,6.44-0.16,12.88-0.04,19.32c0.03,1.93,0.91,3.85,1.35,5.79c0.23,1,0.6,2.02-0.27,2.92c-4.17-3.76-7.46-8.22-10.36-12.99
		c-2.29-3.77-3.85-7.84-5.07-12.06C184.38,232.93,184.16,232.34,184.23,231.69z"/>
	<path class="st227" d="M160.18,262.46c0.12-0.91-0.33-1.71-0.58-2.53c-1.51-4.95-2.5-9.94-2.31-15.17
		c0.18-4.92,0.03-9.85,0.05-14.77c0-0.85-0.26-1.76,0.36-2.53c1.59,10.66,6.01,20.06,12.54,28.56c4.69,6.11,10.1,11.48,16.32,16.02
		c0.75,0.63,0.79,1.53,0.81,2.4c0.06,2.46,0.08,4.92-0.01,7.37c-0.04,1.02-0.07,2.1-1.22,2.64c-3.57-1.78-6.67-4.26-9.83-6.64
		c-4.82-3.63-9.38-7.56-13.49-11.99C161.85,264.76,160.88,263.72,160.18,262.46z"/>
	<path class="st228" d="M413.31,199.25c3.02,2.5,5.16,5.74,7.27,8.96c1.81,2.77,3.56,5.63,4.92,8.64c1.68,3.73,3.55,7.43,4.26,11.53
		c0.1,0.59,0.31,1.06,0.79,1.4c-1.98,10.92-6.92,20.44-13.78,29.05c-0.09,0.12-0.26,0.18-0.39,0.27c-0.91-0.99-0.48-2.12-0.26-3.18
		c0.69-3.29,0.92-6.61,0.87-9.97c-0.09-5.89,0.54-11.75,0.96-17.62c0.02-0.33,0.04-0.63-0.14-0.91c0.01-2.38,0.01-4.76,0.03-7.14
		c0.05-6.6-1.44-12.89-3.81-19.01C413.77,200.6,413.55,199.93,413.31,199.25z"/>
	<path class="st229" d="M355.43,298.92c-2.95,1.44-6.11,2.31-9.24,3.18c-8.44,2.35-16.94,4.45-25.6,5.87
		c-0.39,0.06-0.8,0.06-1.19,0.09c-0.1-0.11-0.2-0.23-0.31-0.34c-0.42-3.45-0.94-6.91,0.32-10.31c10.45-1.96,20.42-5.36,30.02-9.9
		c2.5-1.18,2.49-1.21,4.58,0.88C355.01,291.83,355.69,295.31,355.43,298.92z"/>
	<path class="st230" d="M211.48,283.98c-0.61,0.47-0.43,1.15-0.43,1.76c-0.02,1.9,0.05,5.7,0.05,5.7l-0.13,5.67
		c0,0-1.74-0.74-3.4-1.49c-1.89-0.81-3.83-1.48-5.61-2.53c-0.61-0.6-0.8-1.37-0.8-2.18c0-3.33-0.24-6.66,0.15-9.98
		c0.25-1.1,1.11-1.73,1.96-2.32c7.58-5.18,15.11-10.45,22.87-15.35c0.88-0.55,1.88-1.78,3.09-0.36c0.58,2.52,0.33,5.06,0.19,7.6
		c-0.14,1.03-0.8,1.71-1.58,2.3c-4.76,3.62-9.66,7.05-14.46,10.6C212.85,283.8,212.31,284.44,211.48,283.98z"/>
	<path class="st212" d="M417.81,227.42c0.54,0.7,0.37,1.53,0.36,2.3c-0.1,6.83-0.19,13.65-0.38,20.48c-0.07,2.54-0.77,5.01-1.23,7.5
		c-0.09,0.46-0.12,0.94-0.18,1.41c-3.03,4.3-6.79,7.91-10.7,11.38c-1.36,1.2-2.77,2.34-4.16,3.51c-0.87,0.03-1.11-0.66-1.16-1.26
		c-0.3-3.17-0.42-6.35,0.09-9.52c0.05-0.31,0.29-0.56,0.54-0.77c3.08-2.95,5.42-6.48,7.65-10.06c4.48-7.18,7.7-14.86,8.8-23.33
		C417.51,228.5,417.68,227.96,417.81,227.42z"/>
	<path class="st231" d="M199.99,258.6c-0.16-2.55-1.15-4.92-1.59-7.41c-0.12-0.7-0.31-1.39-0.31-2.11c0-5.73-0.01-11.47-0.02-17.2
		c0-0.56-0.02-1.12,0.32-1.61c0.84,0.29,0.86,1.1,1.04,1.75c3.11,10.83,9.44,19.42,18.17,26.39c4.79,3.82,4.74,3.84-0.45,7.22
		c-2.28,1.48-4.46,3.1-6.79,4.5c-0.68,0.41-1.31,0.94-2.18,0.85c-2.09-1.21-3.48-3.09-4.81-5.04c-0.28-1.08-0.31-2.12,0.46-3.05
		C202.82,261.22,201.02,260.25,199.99,258.6z"/>
	<path class="st229" d="M203.83,262.89c0.02,1.13,0.03,2.27,0.05,3.4c1.23,2.26,0.76,4.66,0.55,7.03c-0.56,1.68-2.24,2.18-3.43,3.2
		c-0.72,0.62-1.7,0.91-2.22,1.77c-0.01,1.98-0.23,3.93-0.44,5.89c-0.33,3.04,2.38,6.49-0.83,6.92c-2.72-1.09-8.99-4.96-11.36-6.67
		c0.43-0.8,0.4-1.66,0.4-2.52c0-3.29,0.01-6.59,0.01-9.88c4.58-2.42,9.15-4.87,13.76-7.23C201.51,264.2,202.5,263.24,203.83,262.89z
		"/>
	<path class="st232" d="M397.69,254.79c-0.01-4.79-0.22-9.59,0.04-14.36c0.15-2.62,0.37-5.23,0.35-7.86
		c-0.01-0.77,0.22-1.62-0.44-2.27c0.02-1.52,0.05-3.03,0.05-4.55c0-0.9,0.42-1.29,1.32-1.29c4,0.02,7.99,0.04,11.99,0
		c1.23-0.01,1.56,0.58,1.4,1.63c-0.63,4.18-1.38,8.34-2.78,12.35c-0.55,1.58-1.25,3.11-1.8,4.69c-0.23,0.65-0.65,1.07-1.11,1.51
		c-1.15,0.97-2.46,0.33-3.69,0.34c-3.62,0.04-4.13,0.51-4.14,4.12c-0.01,1.2,0.07,2.4-0.05,3.59
		C398.74,253.52,398.89,254.54,397.69,254.79z"/>
	<path class="st233" d="M180.36,260.39c-0.27-2.78-1.56-5.3-2.06-8.04c-0.37-2.03-0.72-4.07-0.77-6.1
		c-0.15-5.56-0.07-11.12-0.08-16.69c0-0.55-0.06-1.12,0.33-1.6c1.51,11.11,6.51,20.55,13.88,28.84c1.32,1.49,2.57,3.05,4.18,4.26
		c0.68,0.51,0.66,1.09-0.1,1.49c-2.61,1.38-5.23,2.73-7.86,4.06c-0.83,0.42-1.36-0.24-1.86-0.72
		C184.13,264.07,182.25,262.23,180.36,260.39z"/>
	<path class="st228" d="M390.06,197.69c1.88,0.71,3.01,2.33,4.23,3.73c3.12,3.59,6.2,7.23,8.85,11.19c1.66,2.48,3.23,5.04,4.06,7.97
		c-2.71,0.04-5.41,0.07-8.11,0.13c-1.01,0.02-1.38-0.43-1.46-1.42C397.03,211.42,394.13,204.35,390.06,197.69z"/>
	<path class="st234" d="M380.2,287.83c1.92-2.21,3.83-4.44,5.78-6.64c4.64-5.24,7.8-11.31,10.2-17.82c0.98,0.04,1.14,0.83,1.18,1.5
		c0.25,3.78,0.29,7.57-0.02,11.36c-0.04,0.55-0.37,1.04-0.66,1.51c-4.85,3.7-10,6.93-15.35,9.84
		C381.01,287.77,380.58,287.76,380.2,287.83z"/>
	<path class="st235" d="M397.61,247.56c0.01-3.02,0.5-2.82,3.48-3.25c1.89-0.28,3.77,0.04,5.63,0.34c-0.45,2.32-1.87,4.17-3.03,6.14
		c-1.85,3.15-3.96,6.11-6.49,8.76C397.39,257.97,397.61,249.14,397.61,247.56z"/>
	<path class="st236" d="M396.68,277.74c0-4.05,0.01-8.1-0.01-12.15c0-0.76,0.25-1.61-0.49-2.22c0.29-1.28,0.23-2.65,0.96-3.82
		c-0.07,0.73,0.31,1.13,0.94,1.43c0.98,0.46,1.94,0.97,2.91,1.46c0.01,3.11,0.01,6.21,0.04,9.32c0.01,0.77-0.25,1.62,0.49,2.23
		C400.05,275.43,398.45,276.69,396.68,277.74z"/>
	<path class="st237" d="M197.5,291.11c0-1.79,0.15-5.15,0.17-6.42c0.03-2.31,0.25-4.62,0.39-6.93c1.5,0.5,3.08,0.88,3.87,2.49
		c0.01,4.28,0.01,8.56,0.02,12.83L197.5,291.11z"/>
	<path class="st238" d="M188.48,168.86c0.01-4.26,0.01-8.52,0.02-12.77c3.18,1.89,6.28,3.9,9.4,6.53
		C194.62,164.79,191.55,166.82,188.48,168.86z"/>
	<path class="st239" d="M355.43,298.92c-0.36-3.44-0.84-6.97-1.43-10.53c3.36,2.18,6.45,4.69,9.81,7.49
		C360.77,297.11,358.22,298.31,355.43,298.92z"/>
	<path class="st240" d="M299.33,310.23c0.09-0.8,0.12-0.94,0.22-1.48c5.61-0.86,12.98-2.09,18.52-3.38c0,0,1.1,1.91,1.37,2.57
		c0,0-0.04,0.12-0.04,0.12c-1.39,0.73-2.95,0.52-4.42,0.72c-4.88,0.66-9.67,0.93-14.57,1.41
		C300.1,310.22,299.65,310.26,299.33,310.23z"/>
	<path class="st241" d="M319.44,307.94c-0.5-0.82-0.6-0.87-1.36-2.34c-0.09-1.38,0.02-1.3-0.04-2.6c-0.12-2.66-0.01-5.33,0.01-8
		c0.45,0.8,0.9,1.6,1.36,2.4C319.42,300.92,319.43,304.43,319.44,307.94z"/>
	<path class="st242" d="M354.94,303.69c-0.37,0.54-0.92,0.5-1.47,0.45C353.88,303.73,354.4,303.68,354.94,303.69z"/>
	<path class="st243" d="M402.4,360.73l2.89-7.71c0,0-7.57-3.87-11.43-5.66c-3.22-1.62-6.44-3.24-9.66-4.86
		c-1.7-2.04-4.43-2.29-6.48-3.71c-1.05-0.43-2.01-1.07-3.14-1.33c-0.13,0-0.25,0.01-0.38,0.03c0.05-0.2,0.09-0.4,0.09-0.6
		c0.1-9.59,0.05-19.18,0.03-28.77c0-0.72-0.04-1.45-0.66-1.97c-0.13-0.15-0.25-0.31-0.38-0.46c-0.95,0.06-1.85,0.24-2.69,0.75
		c-3.04,1.85-6.27,3.35-9.42,5c-0.87,0.45-2,0.68-2.29,1.88c-0.06,0.31-0.18,0.62-0.18,0.94c0,10.27,0.03,20.54,0,30.81l19.15,19.32
		l23.04,32.59l2.05-5.99L402.4,360.73z"/>
	<path class="st244" d="M389.5,342.43c0-9.51-0.01-19.01-0.01-28.52c0-0.74-0.1-1.43-0.5-2.06c-3.06-1.4-6.16-2.72-9.11-4.34
		c-0.64-0.17-1.28-0.33-1.92-0.5c-1.15-0.32-1.92-1.61-3.32-1.29c-0.33,0.14-0.65,0.28-0.98,0.42c-0.3,10.16-0.02,20.32-0.09,30.48
		c0,0.48,0.03,0.96,0.56,1.2c0.13-0.06,7.74,3.76,10.08,4.67c0.4-0.63,0.92-0.45,1.47-0.23c1.17,0.47,2.34,0.92,3.51,1.37
		C389.54,343.22,389.5,342.81,389.5,342.43z"/>
	<path class="st212" d="M436.89,226.51c-1,3.68-1.46,7.45-2.62,11.12c-2.44,7.72-6.24,14.66-11.07,21.07
		c-7.82,10.38-17.49,18.76-28.29,25.89c-6.14,4.05-12.58,7.56-19.23,10.69c-2.59,1.22-5.16,2.46-7.74,3.69
		c-1.7,0.39-3.31,1-4.83,1.83h0l0,0c-2.71,0.99-5.52,1.7-8.17,2.88c-0.4,0.44-1.06,0.05-1.47,0.45c-1.91,0.57-3.82,1.15-5.73,1.71
		c-8.05,2.37-16.19,4.32-24.48,5.62c-6.87,1.07-13.75,1.96-20.69,2.45c-7.42,0.51-14.83,0.87-22.27,0.53
		c-5.03-0.23-10.05-0.45-15.08-0.67c-0.02,6.36-0.05,12.71-0.07,19.07c-0.32,0.77-0.19,1.58-0.2,2.37
		c-0.08,8.55-0.28,17.1-0.14,25.64c0.06,3.5-0.68,6.6-2.5,9.52c-0.13,0.2-0.26,0.4-0.37,0.62c-3.69,6.97-7.38,13.94-11.07,20.92
		c-2.93,5.56-5.86,11.13-8.78,16.69c-0.72,0.84-1.57,1.56-2.09,2.58c-6.45,12.45-13.04,24.83-19.58,37.23
		c-3.75,7.12-7.42,14.28-11.33,21.32c-0.43,0.77-0.91,1.52-1.02,2.41c-0.1,0.78,0.11,1.3,1.05,0.85c5.15-2.45,10.28-4.91,15.44-7.34
		c4.02-1.89,8.05-3.74,12.09-5.59c0.19-0.09,0.47,0.01,0.7,0.03c0.67,0.08,1.24-0.2,1.83-0.46c5.74-2.59,11.37-5.42,17.08-8.07
		c10.56-4.89,21.04-9.96,31.59-14.87c7.95-3.7,15.83-7.54,23.81-11.18c5.73-2.61,11.34-5.48,17.17-7.88
		c0.97-0.4,1.39-1.27,1.84-2.12c3.45-6.57,6.77-13.2,10.12-19.82c4.82-9.54,9.63-19.09,14.39-28.67c0.39-0.78,0.71-1.63,1.69-1.88
		c4.02-0.44,8.06-0.08,12.09-0.22c2.36-0.08,7.46-0.12,7.46-0.12l1.42-0.39c0,0-18.24-23.17-18.24-26.25
		c-0.01-7.07,0.01-14.14-0.02-21.21c0-1.23-0.04-3.94-0.04-3.94c4.65-2.31,8.54-4.41,13.07-6.94c0.27,0.11,8.3,2.72,9.05,3.11
		c2.3,1.19,4.7,2.19,6.96,3.47c0.89,0.82,0.64,1.91,0.64,2.93c0.02,8.37,0,16.75,0.01,25.12c0,0.87-0.08,1.76,0.21,2.61
		c0.19,0.57,0.55,0.97,1.21,0.97c0.66-0.01,1-0.43,1.18-1c0.23-0.69,0.22-1.42,0.22-2.13c0.01-2.15,0.04-4.31,0-6.46
		c-0.03-1.61,0.55-2.77,2.03-3.47c2.1-1,3.98-2.35,5.98-3.52c6.8-3.98,12.63-9.14,18.04-14.84c4.05-4.27,7.22-9.09,9.63-14.44
		c0.55-1.32,1.11-2.64,1.66-3.97c4.25-10.25,6.93-20.92,7.29-31.99C437.11,250.46,436.86,238.48,436.89,226.51z"/>
	<path class="st4" d="M201.94,280.25c-1.24-0.91-2.93-1.11-3.87-2.49c1.94-1.3,3.89-2.61,5.83-3.91c0.95-1.75,2.46-2.73,4.35-3.18
		c3.51-2.02,6.78-4.41,10.14-6.68c0.83-0.56,1.82-0.95,2.55-1.86c-2.65-2.29-5.29-4.45-7.78-6.77c-4.89-4.53-8.91-9.74-11.63-15.86
		c-1.33-2.98-2.55-6-3.13-9.24c-1.46-8.28-0.25-16.18,3.38-23.73c0.41-0.85,1.03-1.63,1.13-2.62c2.07-2.53,3.85-5.26,5.96-7.77
		c5.97-7.07,13.36-12.26,21.47-16.54c4.46-2.37,19.57-8.09,23.55-8.87c3.97-0.77,7.92-1.62,11.88-2.43
		c0.44-0.22,1.02,0.08,1.41-0.36c0,0-0.01,0-0.01,0c2.97,0.14,5.86-0.62,8.81-0.67c0.87-0.01,1.75-0.2,2.62-0.2
		c1.17-0.01,4.84-0.17,5.1-0.17c3.11,0.03,6.22,0.03,9.34,0.11c1.12,0.03,13.43,1.14,15.36,1.45c9.08,1.44,17.93,3.74,26.41,7.37
		c3.74,1.6,7.44,3.28,10.9,5.45c0.79,0.5,1.27,0.98,0.62,1.89c-0.22,1.19-1.29,1.57-2.13,2.11c-6.96,4.5-13.96,8.93-20.95,13.38
		c-0.4,0.26-0.82,0.5-1.21,0.77c-2.03,1.4-2.04,1.54-0.03,2.86c3.67,2.42,7.25,4.93,9.89,8.55c1.74,2.16,3.23,4.46,4.17,7.08
		c1.51,3.75,1.75,7.61,1.03,11.56c-2.02,9.32-8.02,15.54-15.9,20.26c-1.71,1.02-3.41,2.08-5.24,2.88c-1.42,0.62-1.66,1.23-0.29,2.31
		c3.75,2.98,7.52,5.93,11.22,8.96c2.31,2.03,4.66,4.02,7.13,5.85c1.17,1.05,2.33,2.11,3.98,0.8c5.51-3.12,10.86-6.48,15.67-10.62
		c8.45-7.26,14.58-15.97,16.92-27.05c2.34-11.62-0.67-21.87-7.84-31.1c-2.6-3.35-5.36-6.51-8.85-8.98
		c-0.58-0.41-1.14-0.88-1.44-1.57c-0.33-0.92,0.59-0.87,0.98-1.24c3.21-1.69,3.26-1.75,6.06,0.69c4.68,4.07,8.92,8.55,12.1,13.93
		c0.29,0.49,0.58,0.94,1.06,1.25c1.11,2.79,2.34,5.54,3.31,8.38c1.78,5.19,1.87,10.55,1.25,15.95c-1.26,8.99-4.9,16.9-10.53,24
		c-5.29,6.66-11.83,11.81-18.96,16.29c-7.05,4.44-14.53,8.02-22.48,10.51c-10.54,3.3-21.3,5.43-32.37,6.02
		c-10.66,0.57-21.2-0.28-31.71-1.94c-0.55-0.09-1.11-0.07-1.67-0.11c-3.09,0.36-5.96-0.8-8.85-1.51c-6.74-1.66-13.23-4.14-19.6-6.88
		c-0.8-0.2-1.38,0.24-1.95,0.68c-2.21,1.7-4.53,3.25-6.76,4.93c-1.65,1.24-1.64,1.4,0.32,2.2c2.8,1.15,5.64,2.21,8.53,3.14
		c7.93,3.03,16.15,4.93,24.5,6.38c1.3,0.23,2.75,0.11,3.8,1.2c3.1,0.75,6.27,1.04,9.44,1.36c8.84,0.9,17.69,0.73,26.55,0.44
		c0.16-0.01,0.32-0.01,0.48-0.02c3.27-0.12,3.41,0.03,3.35,3.47c-5.96,0.57-11.94,0.48-17.92,0.52c-9.12,0.06-18.1-1.16-27.07-2.66
		c-7.79-1.3-15.44-3.18-22.94-5.63c-6.36-2.08-12.55-4.63-18.68-7.34c-0.57-0.25-1.26-0.41-1.2-1.27
		c5.43-3.97,10.87-7.93,16.3-11.91c0.38-0.28,0.71-0.62,1.06-0.93c0.63-1.36,1.61-1.01,2.58-0.5c1.19,0.63,2.38,1.26,3.59,1.84
		c0.42,0.2,0.84,0.4,1.27,0.59c2.41,0.94,4.76,2.02,7.25,2.73c0.77,0.16,1.46,0.67,2.35,0.5c0.38-1.01-0.11-2.01-0.03-3.03
		c0.2-2.44,1.55-3.78,4-3.82c3.81-0.06,7.42,3.44,7.34,7.61c-0.04,2.36,0.9,3.1,2.95,3.33c3.32,0.37,6.58,1.16,9.91,1.41
		c5.86,0.38,11.7,1.33,17.59,0.91c4.59-0.32,9.2-0.55,13.77-1.15c3.27-0.51,6.51-1.19,9.8-1.59c6.04-0.86,11.69-3.02,17.39-5.04
		c1.65-0.59,1.3-1.21,0.22-2.05c-4.33-3.37-8.59-6.85-12.81-10.35c-3.91-3.24-8.06-6.2-11.67-9.8c-0.05-1.59,1.32-1.63,2.28-2
		c5.56-2.11,10.86-4.63,15.39-8.58c4.81-4.2,8.17-9.2,8.61-15.73c0.33-4.88-1.65-9.06-4.63-12.75
		c-5.64-6.98-13.19-10.91-21.68-13.27c-14.2-3.95-28.13-3.19-41.68,2.66c-5.03,2.17-9.46,5.26-13.03,9.52
		c-6.55,7.8-6.33,17.43,0.57,24.97c4.25,4.64,9.63,7.56,15.15,10.3c1.24,0.62,2.79,0.89,3.4,2.42c-0.16,0.69-0.74,1.01-1.25,1.37
		c-4.46,3.21-8.51,6.93-12.83,10.32c-0.49,0.39-1.26,0.71-1.19,1.39c0.09,0.85,1.02,0.91,1.67,1.11c4.26,1.29,8.55,2.49,12.94,3.34
		c3.31,0.26,6.58,0.88,9.9,1.06c6.63-0.08,13.26,0.23,19.87-0.69c2.79-0.39,3.85,0.79,4.01,3.94c-0.79,1.26-2.16,1.27-3.38,1.42
		c-9.67,1.18-19.33,1.17-28.97-0.29c-8.12-1.23-15.97-3.41-23.53-6.61c-0.87-0.37-1.79-0.67-2.39-1.48
		c-0.67-2.03,1.24-2.44,2.18-3.46c3.89-3.18,7.8-6.34,11.81-9.37c1.46-1.11,0.94-1.63-0.33-2.32c-4.29-2.33-8.35-4.98-11.76-8.56
		c-3.54-3.71-6.3-7.82-7.23-12.97c-0.86-3.93-0.14-7.71,0.98-11.47c2.31-5.34,6.53-9.08,10.53-13.11c2.78-2.81,6.12-3.95,9.52-5.38
		c7.36-3.1,14.99-4.83,22.93-5.32c6.06,0.16,12.14-0.39,18.17,0.82c3.78,0.76,7.46,1.8,11.07,3.1c1.81,0.65,3.37,0.52,4.97-0.59
		c1.57-1.09,3.21-2.1,4.81-3.15c0.52-0.34,1.32-0.59,1.21-1.33c-0.11-0.68-0.9-0.84-1.48-1.08c-4.8-2.03-9.79-3.47-14.89-4.52
		c-0.47-0.1-0.95-0.14-1.41-0.28c-1.2-0.37-3-0.07-2.74-2.19c0.21-1.68,2.09-3.11,3.83-2.85c5.56,0.8,10.94,2.32,16.17,4.36
		c1.64,0.64,3.3,1.23,4.89,1.99c1.63,0.79,3.06,0.56,4.5-0.42c1.58-1.08,3.22-2.09,4.84-3.12c1.67-1.06,1.66-1.44-0.18-2.31
		c-5.66-2.65-11.45-4.94-17.54-6.41c-9.5-2.3-19.08-3.83-28.93-3.67c-7.75,0.13-15.5,0.07-23.18,1.34c-2.98,0.49-3.08,0.66-1.7,3.26
		c3.15,5.91,2.47,5.21,8.43,4.24c4.45-0.73,8.93-0.53,13.39-0.83c2.98-0.2,3.9,1.28,3.01,4.29c-0.93,0.85-2.09,0.66-3.19,0.69
		c-12.17,0.32-24.01,2.32-35.2,7.3c-8.76,3.9-16.39,9.3-21.8,17.42c-4.72,7.08-5.63,14.79-3.68,22.94
		c2.1,6.73,6.21,12.08,11.49,16.62c0.83,0.71,1.9,1.29,1.54,2.69c-1.08,1.23-2.31,2.17-4.06,2.15c-5.39-3.72-9.74-8.4-12.91-14.13
		c-1.86-3.36-3.3-6.89-3.74-10.76c-1.37-7.55,0.68-14.39,4.37-20.88c3.69-5.53,8.49-9.96,13.83-13.84c0.92-0.87,2.16-1.26,3.11-2.08
		c5.47-3.62,11.48-6.07,17.7-8.03c4.84-1.15,4.14-0.82,2.17-4.69c-0.7-1.39-1.04-3.05-2.52-3.94c-3.13-0.19-5.94,1.08-8.8,2.01
		c-8.24,2.71-15.96,6.49-23.04,11.55c-9.35,6.68-16.5,15.01-19.67,26.31c-1.52,5.43-1.37,10.88-0.08,16.33
		c2.17,8.93,7.22,16.06,13.91,22.14c0.65,0.59,1.37,1.09,2,1.71c1.91,1.99,4.25,3.44,6.42,5.11c0.64,0.5,1.6,0.8,1.42,1.92
		c-8.51,5.32-16.69,11.12-25.01,16.72C203.13,279.46,202.53,279.86,201.94,280.25z"/>
	<path class="st230" d="M331.43,211.17c-1.87-1.96-3.66-3.99-5.87-5.62c-2.1-1.55-4.3-2.95-6.82-4.54
		c9.25-6.29,18.53-11.85,27.56-17.81c0.96,1.39,0.25,2.97,0.48,4.44c1.36,3.39,0.98,6.84,0.19,10.26c-0.19,0.84-0.99,1.43-1.81,1.81
		c-2.15,0.3-3.13-1.57-4.59-2.52c-2.09-1.35-3.93-0.82-5.06,1.61c0.11,3.27,0.22,6.54-0.04,9.8c-0.11,1.47-0.12,9.21-0.12,9.21
		C334.34,215.3,333.68,213.8,331.43,211.17z"/>
	<path class="st245" d="M344.51,199.66c1.78-1.14,2.41-2.72,2.26-4.86c-0.17-2.37-0.01-4.77,0.01-7.16
		c1.29-0.11,2.24,0.73,3.33,1.18c1.09,0.45,2.03,1.29,3.32,1.21c-0.3,0.33-0.59,0.66-0.89,0.99c0.81,1.36,0.95,2.9,1.12,4.42
		c-0.75,1.66-0.33,3.42-0.43,5.14c-0.05,0.86,0.07,1.74-0.26,2.57c-0.81,1.55,0.28,3.33-0.58,4.88c-0.69,0.77-1.18,0.12-1.54-0.32
		c-2.04-2.53-4.31-4.87-6.35-7.4C344.34,200.11,344.37,199.87,344.51,199.66z"/>
	<path class="st219" d="M259.46,295.12c-6.41-0.77-12.72-2.05-18.93-3.81c-2.6-0.74-5.18-1.58-7.76-2.4
		c-0.75-0.24-1.55-0.39-2.12-1.02c-1.49-2.61-0.56-5.45-0.76-8.18c-0.09-1.32-0.23-2.73,0.83-3.84c3.56,1.36,7.11,2.74,10.67,4.07
		c5.45,2.03,11.1,3.29,16.75,4.59c0.46,0.11,0.89,0.31,1.33,0.47C259.48,288.37,259.47,291.75,259.46,295.12z"/>
	<path class="st219" d="M267.17,167.97c-0.38,0.5-0.89,0.45-1.41,0.36C266.15,167.91,266.66,167.94,267.17,167.97z"/>
	<path class="st236" d="M235.01,273.07c-1.43-0.5-2.78-1.18-4.04-2.01c-0.78-0.51-1.45-0.56-2.13,0.08c-0.03-2.93-0.07-5.87-0.1-8.8
		c-1.86-1.76-4.09-3.04-6.06-4.65c-0.74-0.6-1.59-1.08-2.1-1.93c-2.39-3.39-3.19-7.21-3.14-11.29c0.05-4.22-0.03-8.43,0.04-12.65
		c0.02-1.05-0.26-2.3,1.06-2.91c1.19,6.8,4.35,12.61,8.96,17.69c2.2,2.42,4.69,4.55,7.06,6.79c0.62,0.59,0.77,1.38,0.78,2.18
		c0.09,5.46,0.03,10.93,0.05,16.39C235.38,272.36,235.25,272.74,235.01,273.07z"/>
	<path class="st246" d="M208.25,270.68c-1.45,1.06-2.9,2.12-4.36,3.18c-0.01-2.52-0.02-5.04-0.03-7.56
		C205.71,267.38,206.71,269.3,208.25,270.68z"/>
	<path class="st247" d="M387,326.32c0.75,0.2,1.02,0.62,0.99,1.23c-0.02,0.51-0.28,0.95-0.82,0.92c-0.74-0.05-1.03-0.6-0.99-1.3
		C386.22,326.6,386.67,326.45,387,326.32z"/>
	<path class="st243" d="M268.49,250.32c-2.13-1.71-4.76-2.45-7.11-3.74c-4.29-2.35-8.45-4.84-11.7-8.58
		c-3.51-4.04-5.76-8.57-5.52-14.1c0.21-4.6,2.17-8.44,5.03-11.88c3.86-4.64,8.79-7.86,14.33-10.09c14.08-5.68,28.38-6.02,42.88-1.63
		c6.13,1.85,11.62,4.82,16.44,9.01c3.81,3.3,6.81,7.23,7.96,12.23c1.5,6.54-0.4,12.29-4.61,17.35c-5.11,6.14-11.92,9.69-19.22,12.49
		c-0.81,0.31-1.98,0.17-2.3,1.36c0.66,0.99,0.76,2.04,0.32,3.14c-1.12,1.34-2.15,0.36-3.09-0.21c-3.09-1.87-6.31-3.52-9.23-5.66
		c-1.59-0.5-2.36-1.56-2.13-3.24c0.8-5.76,0.85-11.54,0.4-17.32c-0.05-0.94,0.11-1.9,0.01-2.84c-0.34-3.17,0.58-5.64,3.35-7.52
		c1.91-1.3,1.75-2.22-0.06-3.71c-0.73-0.6-1.52-1.14-2.28-1.71c-0.95-0.6-1.83-1.27-2.61-2.08c-2.12-1.37-3.74-0.29-5.29,1.09
		c-0.59,0.54-1.24,1-1.85,1.52c-1.38,1.16-1.73,2.62-0.61,4.01c2.58,3.19,2.27,6.82,1.88,10.49c-0.09,0.88-0.18,1.74,0.03,2.61
		c0.33,1.48-0.08,3.02,0.4,4.48c0.08,0.24,0.14,0.49,0.18,0.75c0.51,3.16-0.52,6.26-0.35,9.4c0.06,1.17-0.12,2.38,0.77,3.35
		c4.04,3.35,8.54,6.06,12.82,9.08c2.59,1.82,5.31,3.46,7.62,5.67c0.66,2.17,0.35,4.4,0.31,6.59c-0.04,2.04,0.4,3.67,2.13,4.95
		c1.13,0.84,2.07,1.94,3.18,2.84c0.66,0.54,1.39,1.1,1.23,2.14c-3.33,0.55-6.62,1.31-10,1.56c-1.57-3.3-1.16-6.63-0.18-9.98
		c-1.24-3.49-1.24-3.51-4.66-3.11c-6.39,0.75-12.79,1-19.21,0.37c-3.69-1.61-7.21-3.47-9.73-6.78c-0.4-3.34-0.15-6.69-0.17-10.03
		C267.81,251.76,268.07,251.02,268.49,250.32z"/>
	<path class="st248" d="M289.28,183.86c0.15-3.79,0.02-3.87-3.79-3.6c-3.58,0.26-7.19,0.02-10.75,0.64
		c-1.89,0.32-3.8,0.49-5.67,0.89c-1.39,0.3-2.31-0.1-2.97-1.31c-1.15-2.1-2.32-4.18-3.47-6.27c-0.45-0.82-0.28-1.36,0.71-1.53
		c1.49-0.26,2.97-0.57,4.47-0.79c9.92-1.46,19.93-1.55,29.88-0.87c13.88,0.94,27.24,4.26,39.76,10.54c0.55,0.27,1.24,0.38,1.54,1.19
		c-2.03,1.76-4.56,2.85-6.68,4.51c-2.07,1.63-3.9,1.87-6.47,0.65c-6.29-2.97-12.94-5-19.85-6.07c-0.6-0.09-1.29-0.63-1.82-0.1
		c-0.73,0.72-1.54,1.46-1.85,2.45c-0.29,0.91,0.54,0.99,1.18,1.07c2.94,0.37,5.8,1.1,8.64,1.9c4.14,1.17,8.22,2.52,11.98,4.48
		c0.08,0.88-0.51,1.07-0.96,1.37c-2.55,1.64-5.12,3.25-7.64,4.93c-0.95,0.63-1.76,0.75-2.89,0.34c-5.47-2.03-11.07-3.59-16.89-4.25
		c-3.19-0.36-6.38-0.16-9.57-0.22c-1.36-0.02-2.71-0.03-4.07-0.05c0.59-1.51,1.95-1.03,3.03-1.08c3.34-0.15,3.32-0.11,3.38-3.51
		C288.52,187.36,288.26,185.51,289.28,183.86z"/>
	<path class="st209" d="M289.28,183.86c-0.02,2.82-0.03,5.65-0.06,8.47c-0.01,0.82-0.56,1.05-1.28,1.05c-1.19,0-2.38-0.02-3.57,0.02
		c-0.77,0.03-1.6-0.19-2.29,0.35c-7.4,0.72-14.66,2.01-21.54,4.98c-1.09,0.47-2.12,1.09-3.22,1.55c-0.79,0.33-4.64,2.5-5.31,2.99
		c-4.62,3.35-8.76,7.14-11.32,12.38c-0.2,0.42-0.58,0.75-0.87,1.12c-1.67,2.16-4.05,3.53-6.06,5.32c-2.89,2.59-5.1,5.62-6.83,9.06
		c-0.37,0.74-0.42,2.02-1.85,1.61c-2.95-10.08-0.66-19,5.92-27.02c6.69-8.16,15.39-13.25,25.17-16.71
		C266.86,185.25,277.93,183.63,289.28,183.86z"/>
	<path class="st230" d="M257.14,184.35c-4.64,1.69-9.29,3.39-13.63,5.78c-1.4,0.77-2.75,1.6-4.13,2.41
		c-1.19,0.65-1.67,0.95-2.84,1.85c-1.72,1.4-3.44,2.8-5.15,4.21c-2.53,2.07-4.71,4.47-6.63,7.11c-0.51,0.7-1.15,1.3-1.74,1.94
		c-1.87,2.28-4.22,4.06-6.31,6.11c-4.83,4.75-8.51,10.23-11.01,16.51c-0.25,0.62-0.34,1.45-1.29,1.49c-2.42-9.38-0.77-18.13,4-26.45
		c4.94-8.6,12.08-14.91,20.43-20.02c8.22-5.04,17.05-8.58,26.4-10.88c0.66-0.16,1.36-0.67,1.88,0.25
		C258.17,177.89,258.52,181.12,257.14,184.35z"/>
	<path class="st249" d="M371.15,233.21c-1.73,8.28-5.66,15.41-11.3,21.63c-1.81,1.99-3.65,3.97-5.82,5.59
		c-0.67-0.86-0.18-1.69,0.13-2.47c1.87-4.84,2.43-9.9,2.37-15.02c-0.04-4.45,0.44-8.91-0.15-13.36c0.42-4.68,0.26-9.29-1.49-13.75
		c-0.48-1.23-1.29-2.38-1.2-3.8c1.07-1.37,1.93-0.14,2.54,0.41C362.64,218.32,368.75,224.44,371.15,233.21z"/>
	<path class="st250" d="M204.42,231.75c1.48-3.95,3.32-7.71,5.73-11.19c3.29-4.76,7.37-8.75,11.82-12.39
		c0.3-0.24,0.7-0.35,1.06-0.53c-0.75,1.58-1.52,3.15-2.25,4.73c-2.43,5.28-3.12,10.8-2.24,16.54c-0.51,0.81-0.3,1.71-0.31,2.57
		c-0.02,3.67,0.1,7.34-0.02,11.01c-0.13,4.04,0.36,7.93,1.94,11.66c0.21,0.5,0.28,1.07,0.42,1.6c-7.68-6.07-13.2-13.63-16-23.08
		C204.49,232.38,204.47,232.06,204.42,231.75z"/>
	<path class="st231" d="M371.15,233.21c-0.67-0.39-0.97-1.06-1.2-1.74c-1.56-4.71-4.44-8.63-7.71-12.21
		c-2.51-2.75-4.95-5.66-8.24-7.6c-1.43-0.69-2.46-1.62-1.98-3.41c0-1.35,0.66-15.76,0.52-17.22c7.17,4.97,12.6,11.43,16.22,19.34
		C372.12,217.68,372.97,225.32,371.15,233.21z"/>
	<path class="st209" d="M357,229.31c0.08,0.22,0.22,0.45,0.22,0.67c0,6.03,0.1,12.05-0.14,18.08c-0.18,4.39-1.63,8.35-3.05,12.37
		c-4.82,4.24-10.63,8.04-16.34,10.94c-1.36-0.18-0.75-1.62-0.77-2.49c-0.05-3.66-0.27-7.32,0.13-10.97c0.24-1.1,1.13-1.69,1.93-2.35
		c3.51-2.91,6.84-5.99,9.74-9.54c3.5-4.29,5.91-9.08,7.09-14.5C355.99,230.7,356.07,229.76,357,229.31z"/>
	<path class="st231" d="M304.53,256.15c0.04-1.14,0.09-2.28,0.13-3.42c1.89,0.91,3.37,2.4,4.95,3.72
		c6.93,5.77,13.98,11.38,21.01,17.03c0.24,0.19,0.41,0.47,0.61,0.71c-2.32,1.76-12.76,5.16-19.46,6.37
		c-1.87-2.07-4.11-3.73-6.22-5.53c-0.75-0.64-1.03-1.27-1.02-2.22c0.03-2.94-0.03-5.88-0.05-8.83
		C303.4,261.36,303.32,258.75,304.53,256.15z"/>
	<path class="st251" d="M301.59,272.13c0.06,3.33,0.12,6.65,0.18,9.98c-1.69,0.88-3.58,0.64-5.36,0.78
		c-3.96,0.3-7.92,0.67-11.91,0.61c-5.02-0.07-10.01-0.43-14.99-1.04c-0.35-0.2-0.77-0.41-0.83-0.81c-0.5-3.06-0.99-6.13,0.39-9.11
		c2.29,0.21,4.58,0.43,6.88,0.63C284.54,273.91,293.09,273.8,301.59,272.13z"/>
	<path class="st252" d="M334.81,208.38c0.05-3.58,0.06-7.17,0.08-10.75c0.78-0.14,1.4,0.26,1.97,0.69
		c7.64,5.72,13.27,12.82,15.07,22.42c0.68,3.62,0.58,7.29-0.25,10.9c-0.21,0.93-0.42,1.88-1.25,2.51c-1,0.38-1.25-0.44-1.53-1.04
		c-2.62-5.59-6.62-9.99-11.61-13.55c-0.72-0.51-1.26-1.2-1.93-1.75C335.37,215.34,334.78,210.55,334.81,208.38z"/>
	<path class="st253" d="M335.37,217.81c1.06,0.18,1.8,0.91,2.64,1.51c5.4,3.83,9.49,8.71,12.04,14.84c0.64,0.94,0.23,1.87-0.13,2.71
		c-2.69,6.37-6.95,11.53-12.35,15.78c-0.57,0.44-1.45,1.75-2.17,0c0.84-5.38,0.52-10.8,0.49-16.2c-0.02-2.24,0.81-4.39,0.53-6.63
		C337.1,225.72,336.75,221.72,335.37,217.81z"/>
	<path class="st223" d="M225.07,232.76c0.72-0.08,0.75-0.69,0.98-1.19c2.91-6.48,7.73-11.21,13.77-14.8c-0.47,1.57-0.72,3.2-1,4.83
		c-0.42,2.45-0.04,4.85,0.01,7.27c0.77,7.14,0.01,14.32,0.64,21.46c-0.04,0.3-0.14,0.58-0.29,0.84c-0.19,0.29-0.44,0.35-0.74,0.18
		c-0.08-1.01-0.93-1.39-1.58-1.95c-5.24-4.42-9.34-9.67-11.66-16.19C225.13,233.07,225.1,232.91,225.07,232.76z"/>
	<path class="st254" d="M336.4,229.82c0.52,0.61,0.4,1.35,0.4,2.06c0,4.87-0.05,9.74,0,14.61c0.02,2.34-0.41,4.59-1.08,6.81
		c-0.03,0.7-0.58,1.09-0.96,1.59c-0.51,0.96-0.31,2.13-0.91,3.06c-1.28,1.98-2.76,3.79-4.58,5.3c-0.76,0.63-1.5,1.44-2.67,1.17
		c-4.48-3.53-8.96-7.07-13.48-10.63c0.74-1.04,1.72-1.25,2.54-1.67c4.05-2.07,7.99-4.31,11.4-7.38
		C331.62,240.66,335.11,235.93,336.4,229.82z"/>
	<path class="st255" d="M238.88,250.94c-0.96-6.81-0.3-13.67-0.47-20.5c-0.01-0.56-0.04-1.12,0.41-1.57
		c1.31,4.59,3.63,8.58,6.96,12.03c3.48,3.6,7.58,6.28,11.92,8.66c0.69,0.38,1.38,0.76,2.03,1.11c0.07,0.77-0.46,1.08-0.87,1.42
		c-3.96,3.19-7.94,6.36-11.92,9.53c-0.23,0.19-0.58,0.23-0.87,0.35C242.58,259,239.53,255.75,238.88,250.94z"/>
	<path class="st256" d="M269.07,272.54c0.01,2.46,0.01,4.92,0.02,7.38c0,0.87,0.09,1.68,0.09,2.5c-3.95-0.46-7.53-1.04-11.42-1.84
		c-1.17-0.24-13.32-3.67-14.59-4.29c-1.35-1.84-0.65-3.95-0.79-5.95c-0.08-1.17-0.1-2.36,0.06-3.53c0.11-0.81,0.04-1.81,1.21-2
		c7.56,3.4,15.37,6,23.58,7.28C267.85,272.19,268.45,272.39,269.07,272.54z"/>
	<path class="st257" d="M268.49,250.32c0.04,4.35,0.09,8.71,0.13,13.06c0.65,1.03,0.9,2.15,0.67,3.35
		c-0.16,0.86-0.34,1.75-1.55,1.63c-5.38-1.1-10.71-2.38-15.97-4.46c0.74-1.45,2-2.06,3.01-2.89c4.07-3.34,8.18-6.62,12.28-9.93
		C267.49,250.74,267.87,250.32,268.49,250.32z"/>
	<path class="st228" d="M243.64,264.81c-0.69,0.64-0.44,1.47-0.45,2.24c-0.03,3.08-0.03,6.17-0.04,9.25
		c-2.53-0.7-4.96-1.61-7.25-2.92c2.54-2.61,2.22-5.89,2.18-9.13c-0.05-3.19-0.03-6.39,0-9.58c0.01-1.11-0.1-2.26,0.75-3.18
		c0.02-0.18,0.03-0.36,0.05-0.54c1.09,0.78,0.84,2.17,1.45,3.19c1.27,2.13,2.57,4.21,4.45,5.89c0.58,0.52,1.25,1.03,1.29,1.94
		c-0.34,0.61-0.85,1.07-1.43,1.43C244.09,263.72,243.67,264.13,243.64,264.81z"/>
	<path class="st258" d="M238.83,251.48c0,5.8-0.07,11.61,0.04,17.41c0.04,1.98-2.77,4.34-2.96,4.48c-0.34,0.01-0.67,0-0.9-0.31
		c-0.47-0.87-0.46-1.82-0.45-2.78c0.01-5.63,0-11.26-0.01-16.9c1.29-0.68,2.58-1.36,3.87-2.04
		C238.56,251.41,238.69,251.46,238.83,251.48z"/>
	<path class="st259" d="M230.73,275.87c-0.02,4.01-0.05,8.02-0.07,12.02c-3.81-0.87-7.3-2.59-10.83-3.9
		c-0.02-0.71,0.25-0.99,0.58-1.23c2.97-2.15,5.93-4.3,8.91-6.42C229.71,276.06,230.04,275.38,230.73,275.87z"/>
	<path class="st218" d="M333.37,257.66c0.36-0.69,0.51-1.42,0.49-2.2c-0.01-0.47,0.07-0.91,0.58-1.13c1.26,0.79,2.87,1.19,3.27,2.94
		c0,3.86-0.02,7.73,0,11.59c0,0.76,0,0.76-0.01,2.52c-2.18,1.42-2.15,0.76-4.25-1.56C332.35,265.68,332.96,261.84,333.37,257.66z"/>
	<path class="st260" d="M333.84,256.02l-0.31,13.86c0,0-4.67-3.38-6.93-5.47C329.38,262.68,332.57,259.36,333.84,256.02z"/>
	<path class="st261" d="M267.74,268.37c0.74-0.23,0.85-0.8,0.84-1.47c-0.01-1.17,0.02-2.34,0.03-3.51c3.15,1.83,6.17,3.85,9.1,6.02
		c-1.43,0.48-2.78-0.26-4.18-0.31C271.6,269.02,269.67,268.62,267.74,268.37z"/>
	<path class="st262" d="M257.14,184.35c-0.01-3.23-0.02-6.46-0.02-9.7c2.04,2.44,2.95,5.51,4.75,8.28
		C260.34,183.91,258.75,184.15,257.14,184.35z"/>
	<path class="st4" d="M337.7,257.26c-0.97-1.11-2.71-1.37-3.27-2.94c0.43-0.34,0.86-0.69,1.29-1.03
		c5.57-4.16,10.08-9.22,13.11-15.53c0.56-1.16,0.88-2.38,1.2-3.61c1.05-1.59,1.22-3.46,1.42-5.25c0.87-7.98-1.34-15.1-6.21-21.46
		c-2.93-3.83-6.56-6.92-10.36-9.82c0.92-1.31,2.48-1.47,3.8-2.06c0.57-0.26,1.04,0.15,1.47,0.51c1.45,1.2,2.9,2.38,4.36,3.57
		c2.71,2.69,5.2,5.56,7.52,8.59c0.41,1.28,1.21,2.34,1.98,3.41c0.93,2.6,2.09,5.1,2.71,7.81c0.64,2.81,0.86,5.6,0.29,8.44
		c-0.09,0.45-0.01,0.94-0.01,1.41C354.92,241.63,347.31,250.14,337.7,257.26z"/>
	<path class="st263" d="M283.26,249.38c1.24-1.03,2.56-0.79,3.11-2.51c-0.3-1.68,0.72-3.58,1.96-5.08c0.68,1.69,0.51,3.47,0.24,5.15
		c-0.23,1.46,4.47,3.8,4.96,2.59c0.84,1.09,2.08,1.65,3.2,2.35c2.13,1.34,4.32,2.58,6.48,3.86c0.41,0.24,0.82,0.47,1.32,0.42
		c-0.02,2.61-0.03,5.21-0.05,7.82c-2.8-1.37-5.09-3.5-7.65-5.22c-3.81-2.57-7.6-5.17-11.4-7.77
		C285.04,250.72,283.47,249.84,283.26,249.38z"/>
	<path class="st212" d="M295.37,215.44c-1.06-0.84-2.17-1.61-3.26-2.41h0c-0.78-0.63-1.56-1.25-2.34-1.88c0,0,0,0,0,0
		c-2.07-1.38-3.54-1.15-5.95,0.93c0,0,0,0,0,0c0,0,0,0,0,0c-0.89,0.66-1.81,1.28-2.65,1.99c-1.27,1.08-1.46,2.28-0.68,3.79
		c0.25,0.49,0.49,1.03,0.86,1.42c1.5,1.57,1.74,3.49,1.65,5.51c-0.07,1.58-0.21,3.16-0.3,4.75c-0.04,0.61-0.37,1.25,0.15,1.81
		c0.47,1.31,0.16,2.72,0.41,4.06c0.03,0.24,0.09,0.47,0.19,0.7c0,0,0,0,0,0c-0.12,4.04-0.19,8.07-0.38,12.11
		c-0.05,1.09,0.2,1.17,0.2,1.17c2.05-0.32,4.6-2.86,4.6-2.86c-0.89-0.74-0.96-1.69-0.89-2.77c0.09-1.36,0.49-2.7,0.43-3.93
		c0.1,0.74,0.26,1.56,0.43,2.39c0.25,0.76,0.1,1.59,0.26,2.35c0.4,1.92-0.01,3.21,0.05,5.18c0.04,1.26-0.15,2.41-0.15,2.41
		c1.73-0.04,4.94-1.77,5.53-2.62c-2.37-0.82-2.37-0.82-2.13-3.4c0.01-0.08,0.02-0.16,0.03-0.24c0.76-5.67,0.54-11.34,0.15-17.02
		c-0.02-1.43,0.09-2.88-0.1-4.29c-0.23-1.73,0.41-2.88,1.8-3.79c0.79-0.52,1.55-1.1,2.26-1.74
		C297.14,217.62,297.1,216.83,295.37,215.44z M285.66,216.88c-1.38-0.33-1.77-1.05-1.21-2.14c0.05,0.84,0.54,1.44,1.3,1.9
		C285.71,216.72,285.68,216.8,285.66,216.88z M291.56,216.77c-0.39,0.88-1.36,0.77-2.25,0.7c0.62-0.58,1.18-1.2,1.28-2.07
		C291.12,215.83,291.85,216.12,291.56,216.77z"/>
	<path class="st243" d="M288.85,217.89c-0.09-1.41,1.42-1.92,1.75-3.1c0.98,0.5,1.74,1.25,2.6,2.14
		C291.81,218.02,290.43,218.4,288.85,217.89z"/>
	<path class="st243" d="M285.88,216.44c-0.04,0.35-0.08,0.7-0.12,1.04c-0.31-0.06-0.64-0.07-0.93-0.19
		c-0.73-0.29-1.64-0.54-1.79-1.38c-0.18-0.95,0.83-1.19,1.42-1.65C284.94,214.99,285.41,215.72,285.88,216.44z"/>
	<path class="st264" d="M288.33,241.78c-0.03,1.07-0.04,2.14-0.09,3.21c-0.02,0.59,0.17,1.25-0.47,1.67
		c-1.84-0.36-1.76-0.35-1.59-2.08c0.23-2.35,0.78-4.66,0.7-7.47C288.16,238.73,288.04,240.32,288.33,241.78z"/>
</g>
</svg>
